<?xml version="1.0" encoding="utf-8"?>
<!-- Generator: Adobe Illustrator 21.1.0, SVG Export Plug-In . SVG Version: 6.00 Build 0)  -->
<svg version="1.1" id="Слой_1" xmlns="http://www.w3.org/2000/svg" xmlns:xlink="http://www.w3.org/1999/xlink" x="0px" y="0px"
	 viewBox="0 0 76.5 76.5" style="enable-background:new 0 0 76.5 76.5;" xml:space="preserve">
<style type="text/css">
	.st0{fill:#FFFFFF;}
	.st1{display:none;}
	.st2{display:inline;fill:#B7C0C8;}
	.st3{fill:#0045AA;}
	.st4{display:none;fill:#E5E5E5;}
</style>
<g>
	<circle class="st0" cx="38.2" cy="38.2" r="38.2"/>
	<g class="st1">
		<path class="st2" d="M38.9,61.7c0.6,0.3,0.9,0.9,0.9,1.6c0,0.8,0.5,1.5,1.3,1.7c0.8,0.3,1.7,0,2.1-0.7c0.6-0.9,0.6-2.1-0.1-2.9
			L42.7,61c-0.4-0.5-1-0.8-1.6-0.9c-0.7-0.1-1.3-0.7-1.4-1.4c-0.1-0.9,0.6-1.7,1.5-1.7c0.7,0,1.4,0.4,1.7,1.1l0.7,1.4
			c0.3,0.7,1.1,1.1,1.9,1c0.9-0.1,1.5-0.8,1.6-1.7l0.1-0.6c0-0.4,0.4-0.7,0.9-0.6c1.1,0.2,2.3-0.2,3-1.2c0.6-0.9,0.7-2,0.2-2.9
			c-0.4-0.8-1-1.4-1.9-1.6L48,51.5c-0.7-0.2-1.2-0.7-1.3-1.4c-0.3-1.1-1.3-1.8-2.4-1.8H44c-0.4,0-0.8-0.3-0.9-0.7
			c-0.1-0.9-0.8-1.7-1.6-2c-0.8-0.3-1.7-0.1-2.3,0.6c-0.6,0.7-0.7,1.6-0.3,2.4l0,0.1c0.3,0.5,0.7,1,1.2,1.2c0.6,0.3,1,0.9,0.9,1.5
			c0,0.9-0.7,1.5-1.6,1.5c-0.9,0-1.6-0.6-1.8-1.5l0-0.2c-0.1-0.8-0.6-1.6-1.2-2.1c-0.6-0.6-1.6-0.6-2.3-0.1c-0.7,0.5-1,1.4-0.6,2.2
			l0.1,0.3c0.1,0.3,0.2,0.7,0.2,1.1c0,1.1-0.7,2-1.7,2.5L32,55c-0.7,0.3-1.6,0.2-2.2-0.3c-0.8-0.6-0.9-1.8-0.4-2.6
			c0.3-0.4,0.5-0.8,0.6-1.3l0.3-1c0.2-0.9-0.2-1.8-0.9-2.3c-0.5-0.3-1.1-0.4-1.7-0.3l-0.8,0.2c-0.5,0.1-1,0-1.4-0.3
			c-0.6-0.5-0.7-1.3-0.3-1.9l0,0c0.4-0.7,0.4-1.6,0.1-2.3l-0.1-0.2c-0.7-1.5-0.1-3.3,1.3-4.1c0.7-0.4,1.6-0.4,2.3-0.1h0
			c0.8,0.4,1.3,1.2,1.3,2.1c0,1.3,0.5,2.5,1.4,3.3l1.2,1.2c0.7,0.7,1.8,1.1,2.8,1c1.2-0.1,2.2-0.9,2.7-1.9l0.2-0.4
			c0.3-0.7-0.1-1.5-0.8-1.7c-0.7-0.2-1.1-0.9-0.7-1.6c0.2-0.5,0.8-0.7,1.3-0.6l0.7,0.2c0.8,0.2,1.6,0,2.3-0.5
			c0.8-0.6,1.1-1.6,0.9-2.6c-0.3-1.3-1.4-2.2-2.7-2.4c-0.8-0.1-1.6,0.1-2.3,0.5l-1.7,1.1c-0.4,0.2-0.8,0.2-1.2-0.1
			c-0.4-0.3-0.5-1-0.2-1.4l0.2-0.3c0.4-0.5,0.5-1.1,0.3-1.7c-0.2-0.7-0.9-1.3-1.6-1.4C32,31.3,31.4,31.5,31,32l-0.4,0.4
			c-0.5,0.5-1.3,0.5-1.7-0.1c-0.2-0.3-0.2-0.6-0.1-0.9l0.3-0.9c0.2-0.6,0-1.2-0.4-1.7c-0.6-0.5-1.5-0.6-2.1-0.1l-0.3,0.2
			c-0.5,0.4-1.4,0.2-2-0.2c-0.6-0.5-0.8-1.3-0.4-1.9c0.3-0.5,0.9-0.8,1.5-0.7l0.9,0.1c1.2,0.2,2.4,0,3.5-0.6c0.6-0.3,1-0.9,1-1.6
			c0-0.6-0.3-1.1-0.7-1.4l-0.6-0.4c-0.7-0.5-1.1-1.4-1.1-2.4c0.1-0.7-0.2-1.4-0.6-2l-0.2-0.3c-1-1.1-2.4-1.8-3.9-1.8
			c-1.4,0-2.7,0.5-3.6,1.5L19.5,18c-0.5,0.5-1.2,0.8-1.9,0.8l-0.1,0c-1.2,0.1-2.3,1-2.5,2.2c-0.2,0.9-0.8,1.5-1.7,1.7
			c-1,0.2-1.7,0.9-2.1,1.8c-0.3,1-0.1,2.2,0.7,2.9c0.5,0.5,0.9,1.2,1,1.9l0.3,1.5c0.2,1.3-0.3,2.7-1.4,3.5c-0.9,0.7-2.1,0.8-3.2,0.4
			c-1.3-0.5-2.3-1.6-2.7-2.9l-0.2-0.6c-0.3-1.2,0.3-2.4,1.4-2.9c0.6-0.2,1.1-0.7,1.3-1.3l2.3-5.7c0.2-0.4,0.1-0.9-0.1-1.2
			c-0.4-0.7-1.4-0.9-2-0.4l-2.5,1.9c-1,0.7-1.4,2-1.2,3.2l0,0c0.1,0.7-0.1,1.4-0.7,1.8c-0.7,0.5-1.6,0.4-2.2-0.2l-0.2-0.2
			C0.7,30,0,34.1,0,38.2c0,5.5,1.2,10.6,3.2,15.3c1.7,1.2,3.6,2,5.6,2.5c1.1,0.3,2,1,2.5,2.1l1.1,2.6c0.4,1,1.4,1.7,2.4,1.8
			c1.5,0.2,2.8,1,3.5,2.4c0.3,0.6,0.9,0.8,1.5,0.7h0c0.6-0.2,1-0.7,1-1.3l0-2.2c0-0.3,0.1-0.6,0.4-0.7c0.4-0.3,0.9-0.1,1.2,0.3
			l1,1.6c0.3,0.4,0.7,0.6,1.2,0.6c0.5-0.1,1-0.5,1.1-1l0.3-2.1c0-0.2,0.1-0.4,0.1-0.5c0.5-1.3,1.9-2,3.2-1.8c1,0.2,1.8,1.1,1.8,2.1
			c0,0.3,0,0.5-0.1,0.7l-0.7,2c-0.5,1.5-0.1,3.1,1.1,4.1c0.9,0.8,2.2,1,3.3,0.6c1.2-0.5,2-1.6,2.1-2.9l0-0.9c0-0.7,0.3-1.5,0.7-2
			C37.8,61.6,38.4,61.5,38.9,61.7z"/>
		<path class="st2" d="M65.1,31.2L64.4,30c-0.3-0.5-0.7-1-1.2-1.4c-1-0.7-2.3-0.9-3.5-0.6c-0.7,0.2-1.4,0.1-2-0.2l-0.2-0.1
			c-0.8-0.4-1.3-1.2-1.5-2.1l0-0.1c-0.1-0.7,0-1.4,0.4-2c0.6-1,1.8-1.5,2.9-1.3c1.5,0.3,2.8,1.1,3.6,2.4c0.3,0.5,0.9,0.8,1.5,0.8
			l1.3,0.1c0.5,0,0.9-0.2,1.2-0.6c0.4-0.5,1.1-0.7,1.7-0.4c0.4,0.2,0.6,0.7,0.6,1.2c0,0.7-0.3,1.3-0.9,1.8l-0.1,0.1
			c-0.3,0.3-0.6,0.7-0.6,1.2c-0.1,0.9,0.4,1.7,1.2,2l0,0c0.8,0.3,1.6,0.1,2.2-0.4c0.4-0.3,0.7-0.8,0.7-1.3c0.1-0.5,0.6-0.9,1.1-0.7
			l2.6,0.8c-0.8-3.5-2.2-6.8-3.9-9.8c-0.7,0.6-1.5,1.1-2.4,1.5c-0.5,0.2-1,0.2-1.4-0.2c-0.6-0.5-0.6-1.4,0-1.9l2.2-2
			c-1.8-2.7-3.9-5.1-6.3-7.2c-0.1,1.1-0.1,2.2,0.2,3.3l0.1,0.4c0.1,0.5,0,1-0.4,1.4c-0.4,0.4-1.1,0.3-1.5-0.1c-0.4-0.4-1-0.4-1.5,0
			c-0.6,0.5-0.7,1.4-0.4,2.1l0.4,1c0.2,0.5,0.1,1.1-0.3,1.4c-0.5,0.5-1.3,0.4-1.7-0.1c-0.9-1.1-1.4-2.5-1.3-3.9l0-0.1
			c0-0.4-0.1-0.8-0.5-1.1c-0.3-0.2-0.7-0.3-1.1-0.2c-1.4,0.4-2.9,0-3.9-1l-0.6-0.6c-0.3-0.3-0.7-0.3-1-0.2c-0.4,0.2-0.6,0.7-0.4,1.1
			l0.9,2.4c0.2,0.4,0.2,0.9,0.1,1.3c-0.3,0.8-1,1.4-1.9,1.4l-1.1,0c-0.8,0-1.4-0.5-1.7-1.2c-0.2-0.5-0.5-0.9-0.9-1.2l-1.4-1
			c-0.4-0.3-0.6-0.6-0.7-1c-0.2-0.6-0.7-1.1-1.3-1.3l-0.3-0.1c-1.1-0.4-1.6-1.7-1.1-2.7c0.3-0.5,0.2-1.1-0.2-1.5l0,0
			c-0.4-0.4-1.1-0.5-1.6-0.2c0,0-0.1,0-0.1,0c-0.4,0.2-0.6,0.6-0.7,1.1c0,0.6-0.6,1.1-1.3,0.9l-0.1,0c-1.9-0.5-3.4-2-3.8-3.9
			c0,0,0-0.1,0-0.1c-0.2-1-1-1.7-2-1.8c-0.1,0-0.2,0-0.3,0c-0.5,0-0.9,0.1-1.3,0.4c0,0-0.1,0.1-0.1,0.1c-1.6,1.4-3.3,2.6-5.2,3.6
			l-0.1,0c-2.9,1.5-5.6,3.3-8,5.5c-1,0.9-1.8,1.7-1.8,1.7c-0.4,0.4-0.6,1-0.3,1.5c0.2,0.5,0.7,0.8,1.3,0.8h0.1
			c0.3,0,0.7-0.1,0.9-0.4l2.6-2.6l0.8-0.8c0.8-0.8,2-1.1,3.1-0.9c0,0,0.1,0,0.1,0c1.3,0.3,2.6,0.3,3.9,0.1c0,0,0,0,0,0
			c0.6-0.1,1-0.6,1-1.2v0c0-0.4-0.2-0.7-0.5-0.9c-0.5-0.4-0.6-1.1-0.2-1.6L28,7.9c0.2-0.3,0.5-0.5,0.9-0.6l0,0
			c0.9-0.3,1.8,0.2,2.1,1.1l0,0c0.4,1.1,1.3,2,2.5,2.2c0.2,0,0.3,0.1,0.5,0.1c0.5,0.1,0.9,0.4,1,0.9c0.2,0.8-0.4,1.4-1.1,1.4l-0.7,0
			c-1.1,0-2.1,0.7-2.4,1.8l0,0c-0.2,0.6,0,1.2,0.4,1.7h0c0.3,0.3,0.5,0.7,0.5,1.1c0.1,1.6,0.5,3.1,1.6,4.3l0.9,1
			c0.7,0.8,1.1,1.7,1.2,2.7c0,0.4,0,0.8-0.2,1.1l-0.1,0.1c-0.4,1.1-0.1,2.4,0.9,3.1l0,0c0.6,0.5,1.3,0.7,2,0.6
			c0.6-0.1,1.3-0.1,1.9-0.2c0.8-0.1,1.5-0.6,1.9-1.3l0,0c0.4-0.9,0.3-1.9-0.3-2.7c0,0,0,0-0.1-0.1c-0.6-0.8-0.9-1.8-0.6-2.7l0.1-0.2
			c0.2-0.7,0.8-1.2,1.5-1.2l0,0c0.6,0,1.2,0.2,1.6,0.7l0.1,0.1c0.4,0.6,0.6,1.2,0.5,1.9c0,0,0,0,0,0c-0.1,0.7,0.1,1.5,0.6,2l0.9,0.9
			c0.7,0.8,1.7,1.2,2.8,1.3l0.1,0c1,0.1,2-0.2,2.8-0.8c0.1-0.1,0.2-0.2,0.4-0.3c0.5-0.4,1.2-0.4,1.8,0l0,0c0.4,0.3,0.7,0.9,0.6,1.4
			l-0.1,0.7c-0.1,0.6,0.1,1.2,0.5,1.6c0.7,0.7,1.8,0.6,2.5,0l0.1-0.1c0.4-0.4,1-0.6,1.6-0.5c0.7,0.1,1.2,0.7,1.3,1.3
			c0.3,1.2,1.3,2,2.5,2l0.3,0c0.5,0,1.1-0.1,1.5-0.5C65.4,33.6,65.7,32.2,65.1,31.2z"/>
		<path class="st2" d="M60.1,6.9c-2.2-1.5-4.5-2.8-7-3.9l-0.7,1c-0.8,1-0.9,2.4-0.5,3.6c0.4,1.2,1.4,2.1,2.6,2.4l0.1,0
			c1,0.3,2,0.8,2.8,1.4c0.6,0.5,1.5,0.7,2.2,0.4c0.9-0.3,1.4-1.2,1.2-2.1c-0.1-0.6-0.4-1-0.9-1.3c-0.5-0.3-0.6-1-0.1-1.4L60.1,6.9z"
			/>
	</g>
	<g>
		<ellipse transform="matrix(0.8366 -0.5478 0.5478 0.8366 -22.4323 15.8828)" class="st0" cx="15.4" cy="45.5" rx="6.8" ry="6.8"/>
		<path class="st3" d="M12.4,49c-2.1-3.2-1.2-7.4,2-9.4c0.5-0.4,1.1-0.6,1.7-0.8c-1.5-0.1-3,0.2-4.4,1.1c-3.2,2.1-4,6.3-2,9.4
			c1.7,2.6,4.9,3.7,7.8,2.8C15.5,51.9,13.6,50.8,12.4,49z"/>
		<path class="st3" d="M15.4,52.7c-2.4,0-4.6-1.2-6-3.2c-2.2-3.3-1.2-7.7,2.1-9.9c1.2-0.8,2.5-1.2,3.9-1.2c2.4,0,4.7,1.2,6,3.2
			c2.2,3.3,1.2,7.7-2.1,9.9C18.1,52.3,16.8,52.7,15.4,52.7z M15.4,39c-1.3,0-2.5,0.4-3.6,1.1c-3,2-3.8,6-1.9,9
			c1.2,1.8,3.2,2.9,5.5,2.9c1.3,0,2.5-0.4,3.6-1.1c3-2,3.8-6,1.9-9C19.6,40.1,17.6,39,15.4,39z"/>
	</g>
	<g>
		<ellipse transform="matrix(0.5377 -0.8431 0.8431 0.5377 -35.9004 61.6206)" class="st0" cx="38.2" cy="63.5" rx="2.6" ry="2.6"/>
		<path class="st3" d="M40.4,64.9c0.5-0.7,0.5-1.6,0.2-2.4c-0.1,0.3-0.2,0.6-0.3,0.8c-0.8,1.2-2.3,1.5-3.5,0.8
			c-0.4-0.3-0.8-0.7-1-1.1c-0.2,1,0.2,2.1,1.1,2.7C38.1,66.5,39.6,66.1,40.4,64.9z"/>
		<path class="st3" d="M38.2,66.4c-0.5,0-1.1-0.2-1.5-0.5c-0.6-0.4-1.1-1.1-1.3-1.8c-0.2-0.7,0-1.5,0.4-2.2c0.5-0.8,1.4-1.3,2.4-1.3
			c0.5,0,1.1,0.2,1.5,0.5c0.6,0.4,1.1,1.1,1.3,1.8c0.2,0.7,0,1.5-0.4,2.2C40.1,65.9,39.2,66.4,38.2,66.4z M38.2,61.3
			c-0.8,0-1.5,0.4-1.9,1C36,62.8,35.9,63.4,36,64c0.1,0.6,0.5,1.1,1,1.4c0.4,0.2,0.8,0.4,1.2,0.4c0.8,0,1.5-0.4,1.9-1
			c0.3-0.5,0.4-1.1,0.3-1.7c-0.1-0.6-0.5-1.1-1-1.4C39.1,61.4,38.7,61.3,38.2,61.3z"/>
	</g>
	<g>
		<ellipse transform="matrix(0.7483 -0.6633 0.6633 0.7483 -9.065 55.2269)" class="st0" cx="68.2" cy="39.6" rx="3.3" ry="3.3"/>
		<path class="st3" d="M70.7,37.4c-0.9-1-2.1-1.3-3.3-1c0.4,0.2,0.7,0.4,1,0.8c1.2,1.4,1.1,3.5-0.3,4.7c-0.4,0.4-0.9,0.6-1.4,0.7
			c1.2,0.6,2.6,0.4,3.7-0.5C71.8,40.8,71.9,38.7,70.7,37.4z"/>
		<path class="st3" d="M68.3,43.2c-1,0-2-0.4-2.7-1.2c-0.6-0.7-1-1.7-0.9-2.6c0.1-1,0.5-1.8,1.2-2.5c0.7-0.6,1.5-0.9,2.4-0.9
			c1,0,2,0.4,2.7,1.2c0.6,0.7,1,1.7,0.9,2.6c-0.1,1-0.5,1.8-1.2,2.5C70,42.9,69.1,43.2,68.3,43.2z M68.2,36.6c-0.7,0-1.4,0.3-2,0.8
			c-0.6,0.5-1,1.3-1,2.1c0,0.8,0.2,1.6,0.7,2.2c0.6,0.6,1.4,1,2.2,1c0.7,0,1.4-0.3,2-0.8c0.6-0.5,1-1.3,1-2.1c0-0.8-0.2-1.6-0.7-2.2
			C69.9,36.9,69.1,36.6,68.2,36.6z"/>
	</g>
	<g>
		<circle class="st0" cx="46.6" cy="68.6" r="3.5"/>
		<path class="st3" d="M46.7,70.4c-1.8,0-3.2-1.3-3.5-3c-0.1,0.4-0.2,0.7-0.2,1.1c0,1.9,1.6,3.5,3.5,3.5c1.9,0,3.5-1.6,3.5-3.5
			c0-0.2,0-0.4-0.1-0.5C49.6,69.4,48.3,70.4,46.7,70.4z"/>
		<path class="st3" d="M46.6,72.4c-2.1,0-3.8-1.7-3.8-3.8c0-2.1,1.7-3.8,3.8-3.8c2.1,0,3.8,1.7,3.8,3.8
			C50.4,70.7,48.7,72.4,46.6,72.4z M46.6,65.4c-1.8,0-3.2,1.4-3.2,3.2c0,1.8,1.4,3.2,3.2,3.2c1.8,0,3.2-1.4,3.2-3.2
			C49.8,66.8,48.4,65.4,46.6,65.4z"/>
	</g>
	<g>
		<circle class="st0" cx="29" cy="10.1" r="2.7"/>
		<path class="st3" d="M29.3,9.1c1,0,1.9,0.6,2.3,1.4c0-0.1,0-0.2,0-0.4c0-1.5-1.2-2.7-2.7-2.7s-2.7,1.2-2.7,2.7
			c0,0.5,0.1,0.9,0.3,1.3C26.8,10.1,27.9,9.1,29.3,9.1z"/>
		<path class="st3" d="M29,13.1c-1.7,0-3-1.3-3-3c0-1.7,1.3-3,3-3s3,1.3,3,3C32,11.8,30.6,13.1,29,13.1z M29,7.8
			c-1.3,0-2.4,1.1-2.4,2.4s1.1,2.4,2.4,2.4s2.4-1.1,2.4-2.4S30.3,7.8,29,7.8z"/>
	</g>
	<g>
		<circle class="st0" cx="9.4" cy="31" r="4"/>
		<path class="st3" d="M7.3,31.1c0-1.9,1.3-3.5,3.1-3.9C10.1,27.1,9.7,27,9.4,27c-2.2,0-4,1.8-4,4c0,2.2,1.8,4,4,4
			c0.3,0,0.6,0,0.8-0.1C8.5,34.5,7.3,32.9,7.3,31.1z"/>
		<path class="st3" d="M9.4,35.3c-2.4,0-4.3-1.9-4.3-4.3c0-2.4,1.9-4.3,4.3-4.3s4.3,1.9,4.3,4.3C13.7,33.4,11.7,35.3,9.4,35.3z
			 M9.4,27.3c-2,0-3.7,1.7-3.7,3.7c0,2,1.7,3.7,3.7,3.7c2,0,3.7-1.7,3.7-3.7C13,29,11.4,27.3,9.4,27.3z"/>
	</g>
	<g>
		<circle class="st0" cx="54.4" cy="62.6" r="2.7"/>
		<path class="st3" d="M55.9,60.4c0,0.2,0.1,0.4,0.1,0.5c0,1.5-1.2,2.7-2.7,2.7c-0.6,0-1.1-0.2-1.5-0.5c0.2,1.2,1.3,2.2,2.6,2.2
			c1.5,0,2.7-1.2,2.7-2.7C57.1,61.7,56.6,60.9,55.9,60.4z"/>
		<path class="st3" d="M54.4,65.6c-1.7,0-3-1.3-3-3c0-1.7,1.3-3,3-3c1.7,0,3,1.3,3,3C57.4,64.3,56,65.6,54.4,65.6z M54.4,60.2
			c-1.3,0-2.4,1.1-2.4,2.4s1.1,2.4,2.4,2.4s2.4-1.1,2.4-2.4S55.7,60.2,54.4,60.2z"/>
	</g>
	<g>
		<ellipse transform="matrix(0.8326 -0.5539 0.5539 0.8326 -3.3862 42.2841)" class="st0" cx="68.2" cy="26.7" rx="2.5" ry="2.5"/>
		<path class="st3" d="M66.9,24.7c-0.1,0.1-0.3,0.2-0.4,0.3c1.1-0.5,2.4-0.1,3,0.9c0.7,1,0.5,2.3-0.3,3.1c0.1-0.1,0.3-0.1,0.4-0.2
			c1.1-0.8,1.4-2.3,0.7-3.4C69.6,24.2,68,23.9,66.9,24.7z"/>
		<path class="st3" d="M68.3,29.5c-0.9,0-1.8-0.5-2.3-1.2c-0.9-1.3-0.5-3,0.8-3.9c0.5-0.3,1-0.5,1.5-0.5c0.9,0,1.8,0.5,2.3,1.2
			c0.4,0.6,0.6,1.4,0.4,2.1c-0.1,0.7-0.6,1.4-1.2,1.8C69.3,29.4,68.8,29.5,68.3,29.5z M68.2,24.6c-0.4,0-0.8,0.1-1.2,0.4
			c-1,0.7-1.3,2-0.6,3c0.4,0.6,1.1,1,1.8,1c0.4,0,0.8-0.1,1.2-0.4c0.5-0.3,0.8-0.8,0.9-1.4c0.1-0.6,0-1.1-0.3-1.6
			C69.7,24.9,69,24.6,68.2,24.6z"/>
	</g>
	<g>
		<ellipse transform="matrix(0.2838 -0.9589 0.9589 0.2838 -19.5797 55.1035)" class="st0" cx="27.1" cy="40.7" rx="2.5" ry="2.5"/>
		<path class="st3" d="M29,42.3c-0.3,0-0.5,0-0.8-0.1c-1.3-0.4-2.1-1.8-1.7-3.1c0.1-0.4,0.3-0.7,0.5-0.9c-1,0-2,0.7-2.3,1.8
			c-0.4,1.3,0.4,2.7,1.7,3.1C27.4,43.3,28.3,43,29,42.3z"/>
		<path class="st3" d="M27.1,43.5c-0.3,0-0.5,0-0.8-0.1c-1.5-0.4-2.3-2-1.9-3.5c0.3-1.2,1.4-2,2.7-2c0.3,0,0.5,0,0.8,0.1
			c1.5,0.4,2.3,2,1.9,3.5C29.4,42.6,28.3,43.5,27.1,43.5z M27.1,38.5c-1,0-1.8,0.6-2.1,1.6c-0.3,1.1,0.3,2.4,1.5,2.7
			c1.1,0.3,2.4-0.4,2.7-1.5c0.3-1.1-0.3-2.4-1.5-2.7C27.5,38.5,27.3,38.5,27.1,38.5z"/>
	</g>
	<g>
		<ellipse transform="matrix(0.3282 -0.9446 0.9446 0.3282 16.1924 72.5518)" class="st0" cx="59.1" cy="24.9" rx="3.8" ry="3.8"/>
		<path class="st3" d="M60.4,21.3c-1.2-0.4-2.6-0.2-3.6,0.6c0.4,0,0.9,0,1.3,0.2c2,0.7,3.1,2.9,2.4,4.9c-0.3,0.7-0.7,1.4-1.3,1.8
			c1.6,0,3-1,3.6-2.6C63.4,24.2,62.4,22,60.4,21.3z"/>
		<path class="st3" d="M59.1,29c-0.5,0-0.9-0.1-1.4-0.2c-2.2-0.7-3.3-3.1-2.6-5.3c0.6-1.7,2.1-2.8,3.9-2.8c0.5,0,0.9,0.1,1.4,0.2
			c2.2,0.8,3.3,3.1,2.6,5.3C62.4,27.9,60.9,29,59.1,29z M59.1,21.4c-1.5,0-2.8,1-3.3,2.4c-0.6,1.8,0.3,3.8,2.2,4.5
			c0.4,0.1,0.8,0.2,1.2,0.2c1.5,0,2.8-1,3.3-2.4c0.6-1.8-0.3-3.8-2.2-4.5C59.9,21.4,59.5,21.4,59.1,21.4z"/>
	</g>
	<path class="st4" d="M52.2,3.8c8.9,7,14.6,17.9,14.6,30c0,21.1-17.1,38.2-38.2,38.2c-2.4,0-4.7-0.2-7-0.7c5,2.5,10.7,4,16.7,4
		c20.5,0,37.2-16.6,37.2-37.2C75.4,22.6,65.8,9.3,52.2,3.8z"/>
</g>
</svg>
