<!-- Generator: Adobe Illustrator 21.1.0, SVG Export Plug-In  -->
<svg version="1.1"
	 xmlns="http://www.w3.org/2000/svg" xmlns:xlink="http://www.w3.org/1999/xlink" xmlns:a="http://ns.adobe.com/AdobeSVGViewerExtensions/3.0/"
	 x="0px" y="0px" width="320px" height="134.6px" viewBox="0 0 320 134.6" style="enable-background:new 0 0 320 134.6;"
	 xml:space="preserve">
<style type="text/css">
	.st0{fill:#FFFFFF;}
</style>
<defs>
</defs>
<g id="BET_1_">
	<path id="B_1_" class="st0" d="M32.9,109.5c7.6,0,15.5,0.5,23.4-0.1c9.8-0.8,14.4-5.3,16.5-14.3c2.1-9.2-2.2-15.9-11.7-16.7
		c-7.3-0.6-14.6-0.2-22-0.3c-2.6,0-4.2,1.8-5.9,3.2c-9.5,7.5-18.9,15.1-29.5,23.5C9.1,69.2,14.4,35,19.7,0.3
		c20.4,0.4,40.6-1.4,60.7,0.9c12,1.3,20.6,8.8,23.4,21c3,13.4-1.6,24.6-11.9,33.6c-2,1.7-4.2,3.1-6.8,5.1
		c15.5,6.5,21,18.2,18.8,33.6c-2.7,19-12.8,32.4-31.6,38c-4.2,1.3-8.7,2-13.1,2c-19.1,0.2-38.2,0.1-59.1,0.1
		C11.5,125.8,21.7,118,32.9,109.5z M45.4,24.6c-1.5,9.8-2.9,19.2-4.3,29c7.3-0.2,13.8,0.9,20.3-0.8c7.8-2.1,13.1-10.2,12.1-18.1
		c-0.9-6.9-5.5-10-15.1-10.1C54.2,24.6,49.9,24.6,45.4,24.6z"/>
	<path id="E_1_" class="st0" d="M126.7,0.6c28.8,0,56.9,0,85.5,0c-1.3,8.1-2.5,15.8-3.7,23.9c-18.6,0-37.1,0-56,0
		c-1.5,9.5-2.9,18.5-4.4,28.2c17.9,0,35.4,0,53.4,0c-1.2,8.3-2.3,16-3.5,24.3c-17.7,0-35.3,0-53.5,0c-1.8,11.1-3.5,21.6-5.3,33
		c19.2,0,38,0,57.3,0c-1.2,8.5-2.4,16.3-3.6,24.3c-28.8,0-57.2,0-86.7,0C113,89.7,119.8,45.3,126.7,0.6z"/>
	<path id="T_1_" class="st0" d="M218.6,24.8c1.2-8.4,2.4-16.1,3.6-24.2c32.6,0,64.9,0,97.8,0c-1.2,8-2.4,15.7-3.7,23.9
		c-11.2,0-22.1,0-33.3,0c-5.7,36.8-11.3,73.2-17,109.7c-9.9,0-19.5,0-29.3,0c5.6-36.5,11.2-72.7,16.8-109.5
		C241.9,24.8,230.6,24.8,218.6,24.8z"/>
</g>
</svg>
