<?xml version="1.0" encoding="UTF-8" standalone="no"?>
<!-- Created by Coer -->
<svg xmlns="http://www.w3.org/2000/svg" xmlns:xlink="http://www.w3.org/1999/xlink" id="Слой_1" x="0px" y="0px" viewBox="0 0 300 300" style="white-space: preserve-spaces;">
    <defs>
        <clipPath id="ClipPath-1">
            <path fill="none" fill-rule="nonzero" stroke="none" d="M0,0L9.29278,0L10.4529,22L9.29278,80L0,80Z" stroke-width="0" transform="translate(165.092,155.133) translate(-146.797,-40.1334)" style="animation: a0_d 2s linear infinite both;"/>
        </clipPath>
    </defs>
    <style>
@keyframes a0_d { 0% { d: path('M0,0L9.29278,0L10.4529,22L9.29278,80L0,80Z'); animation-timing-function: cubic-bezier(0.42,0,0.58,1); } 50% { d: path('M0,0L229.375,0L258.01,22L229.375,80L0,80Z'); animation-timing-function: cubic-bezier(0.42,0,0.58,1); } 100% { d: path('M0,0L9.29278,0L10.4529,22L9.29278,80L0,80Z'); } }
@keyframes a1_t { 0% { transform: translate(6.890004px,139.264893px); animation-timing-function: cubic-bezier(0.42,0,0.58,1); } 50% { transform: translate(293.074347px,139.264893px); animation-timing-function: cubic-bezier(0.42,0,0.58,1); } 100% { transform: translate(6.891686px,139.264894px); } }
@keyframes moon_t { 0% { transform: scale(0.5,0.5) translate(-38.7px,-38.7px); } 25% { transform: scale(1,1) translate(-38.7px,-38.7px); } 50% { transform: scale(0.5,0.5) translate(-38.7px,-38.7px); } 75% { transform: scale(0.25,0.25) translate(-38.7px,-38.7px); } 100% { transform: scale(0.5,0.5) translate(-38.7px,-38.7px); } }
@keyframes a2_t { 0% { transform: translate(38.700011px,38.700011px) rotate(0deg) translate(-38.2px,-38.2px); } 50% { transform: translate(38.700011px,38.700011px) rotate(180deg) translate(-38.2px,-38.2px); } 100% { transform: translate(38.700011px,38.700011px) rotate(360deg) translate(-38.2px,-38.2px); } }
    </style>
    <path id="moonbet_logo" class="st0" d="M116.8,163.1C113.5,162,111.1,159.8,109.3,156.8C107.7,154.1,107,151.2,106.8,147.6C106.9,142.5,108.7,137.6,112.2,133.4C114,131.2,116.1,129.3,118.6,127.9C120.9,126.6,123.4,125.8,126.1,125.6C128.7,125.4,131.2,125.5,133.7,126.3C137.1,127.4,139.6,129.5,141.4,132.5C143.4,135.6,144.2,139.1,143.9,142.7C143.3,151,139.3,157.2,132.3,161.5C130,162.9,127.4,163.6,124.7,163.9C122,164.1,119.4,164,116.8,163.1ZM96.3,160.7C93.6,162.6,90.6,163.6,87.4,163.9C86.7,164,86,164,85.4,164C82.8,164,80.3,163.6,78,162.5C75,161.1,73,158.8,71.5,156C70,153,69.5,149.8,69.7,146.5C70,142.2,71.4,138.2,74,134.7C76.3,131.6,79,129.1,82.5,127.4C84.7,126.4,87.1,125.8,89.6,125.6C91.9,125.4,94.2,125.6,96.5,126.3C100,127.4,102.6,129.7,104.4,132.9C106.2,136.1,106.9,139.5,106.6,143.1C106,150.6,102.4,156.4,96.3,160.7ZM56.8,163.4L64.8,163.4C66.7,151,68.5,138.5,70.3,125.9L63.4,125.9C59.5172,129.584,55.7335,133.168,51.9502,136.752L51.9329,136.769L51.9,136.8C50.5782,135.17,49.2175,133.578,47.8608,131.991C46.1383,129.977,44.4222,127.97,42.8,125.9L35.9,125.9C34.1,138.3,32.2,150.8,30.3,163.3C31.8,162.15,33.3,160.975,34.8,159.8C36.3,158.625,37.8,157.45,39.3,156.3C40.2,150.9,41,145.5,41.8,140C42.2644,140.789,42.7234,141.568,43.1782,142.34L43.1818,142.346L43.1833,142.348C44.6856,144.897,46.1428,147.369,47.6,149.9C51.8998,146.6,56.0997,143.3,60.2995,140L60.3,140C59.757,143.575,59.2345,147.109,58.7139,150.629L58.7137,150.63C58.0839,154.89,57.4569,159.13,56.8,163.4ZM168.9,163.5C164.3,155.5,159.6,147.5,154.9,139.5L151.3,163.5L143.3,163.5C144.89,152.46,146.558,141.497,148.235,130.475L148.235,130.471C148.457,129.015,148.678,127.558,148.9,126.1L156.2,126.1L156.202,126.103L156.206,126.11C160.704,133.707,165.202,141.303,169.8,149C170.388,144.881,171.006,140.79,171.621,136.712L171.621,136.711L171.621,136.709C172.156,133.166,172.689,129.633,173.2,126.1L181.2,126.1C179.61,137.141,177.942,148.103,176.265,159.126L176.265,159.129C176.043,160.585,175.822,162.042,175.6,163.5ZM125,133.6C122,134.1,119.7,135.8,118,138.2C116.1,140.9,115.4,144,115.3,147.4C115.3,148.4,115.3,149.4,115.6,150.3C116.3,152.9,117.8,155,120.5,155.9C122.5,156.5,124.4,156.5,126.4,156.1C129.3,155.4,131.5,153.7,133.2,151.3C134.5,149.4,135.3,147.2,135.6,144.9C135.9,143.1,136,141.3,135.5,139.6C134.8,137,133.3,135,130.7,134C128.9,133.2,126.9,133.2,125,133.6ZM87.6,133.7C84.6,134.2,82.3,135.9,80.6,138.3C78.6,140.9,77.9,144,77.8,146.9C77.8,148.2,77.9,149.2,78.1,150.1C78.8,152.8,80.4,154.8,83.1,155.8C84.9,156.5,86.8,156.5,88.7,156.1C91.5,155.6,93.7,154,95.4,151.8C96.9,149.9,97.7,147.8,98.1,145.5C98.5,143.5,98.6,141.5,98.1,139.6C97.4,136.9,95.8,134.8,93,133.9C91.2,133.3,89.4,133.3,87.6,133.7ZM206,155.8C205.1,154.9,204,154.3,202.7,153.9C202.824,153.838,202.909,153.776,203.027,153.691C203.1,153.638,203.185,153.576,203.3,153.5C206.4,151.6,208.2,148.8,208.4,145.1C208.5,142,206.7,139.1,203.9,137.8C202.5,137.2,201,136.9,199.5,136.9L185.4,136.9C185.358,136.9,185.333,136.9,185.311,136.908C185.302,136.911,185.294,136.915,185.285,136.922C185.264,136.936,185.24,136.96,185.2,137C184.5,141.65,183.8,146.275,183.1,150.9C182.4,155.525,181.7,160.15,181,164.8C182.786,163.55,184.571,162.336,186.336,161.136L186.342,161.131C187.54,160.316,188.728,159.508,189.9,158.7L195.7,158.7C196.1,158.7,196.6,158.8,197.1,158.9L197.1,158.9C198.9,159.4,199.9,160.7,199.8,162.5C199.7,163.3,199.5,164.1,199.2,164.8C198.7,165.9,198,166.6,196.9,167C195.7,167.5,194.5,167.6,193.2,167.6L188.5,167.6C187.5,168.367,186.511,169.134,185.522,169.9L185.522,169.901C183.544,171.434,181.566,172.967,179.5,174.5L194.5,174.5C195.5,174.5,196.4,174.5,197.3,174.4C199.4,174.1,201.3,173.6,203,172.3C207,169.2,208.6,165.1,208.1,160.2C207.9,158.5,207.2,157,206,155.8ZM233,170.95L233,170.952C232.825,172.101,232.65,173.251,232.5,174.4C224.6,174.4,216.7,174.4,208.7,174.3C209.65,168.053,210.599,161.831,211.549,155.609C212.499,149.381,213.45,143.153,214.4,136.9L237.7,136.9C237.55,138.05,237.375,139.2,237.2,140.35C237.025,141.5,236.85,142.65,236.7,143.8L221.4,143.8L220.2,151.6L234.8,151.6C234.65,152.749,234.475,153.899,234.3,155.048L234.3,155.05C234.125,156.2,233.95,157.35,233.8,158.5L219.2,158.5C218.95,159.999,218.725,161.498,218.5,162.997L218.5,163.003C218.275,164.502,218.05,166.001,217.8,167.5L233.5,167.5C233.35,168.65,233.175,169.8,233,170.95ZM270.5,143.9L258.9,143.9C258.264,148.182,257.61,152.482,256.954,156.8C256.061,162.667,255.164,168.567,254.3,174.5L246.3,174.5C247.05,169.403,247.824,164.306,248.599,159.21L248.6,159.2C249.375,154.1,250.15,149,250.9,143.9L239.3,143.9C239.45,142.751,239.625,141.601,239.8,140.452L239.8,140.45C239.975,139.3,240.15,138.15,240.3,137L271.5,137C271.35,138.15,271.175,139.3,271,140.45C270.825,141.6,270.65,142.75,270.5,143.9ZM191.1,151.8L190.9,151.8C190.952,151.464,191.003,151.127,191.055,150.788L191.06,150.759C191.408,148.483,191.766,146.141,192.2,143.8L193.8,143.8C194.35,143.85,194.9,143.85,195.45,143.85C196,143.85,196.55,143.85,197.1,143.9C198.7,144.1,199.8,145.2,199.9,146.8C200,149.2,198.4,151.3,196.2,151.7C195.9,151.8,195.6,151.8,195.3,151.8Z" fill-rule="evenodd" clip-path="url(#ClipPath-1)" transform="translate(-3.29542,0.145905)"/>
    <g id="moon" style="animation: a1_t 2s linear infinite both;">
        <g xlink:href="#moon_obj" transform="translate(6.89,139.265) scale(0.5,0.5) translate(-38.7,-38.7)" style="animation: moon_t 2s linear infinite both;">
            <g transform="translate(38.7,38.7) translate(-38.2,-38.2)" style="animation: a2_t 2s linear infinite both;">
                <ellipse class="st0" rx="38.2" ry="38.2" fill="#ffffff" stroke="#000000" transform="translate(0,0) translate(38.2,38.2)"/>
                <g>
                    <ellipse class="st0" rx="6.8" ry="6.8" fill="none" stroke="#000000" transform="translate(-22.4323,15.8828) rotate(-33.2165) scale(0.999992,0.999992) translate(15.4,45.5)"/>
                    <path class="st3" d="M12.4,49C10.3,45.8,11.2,41.6,14.4,39.6C14.9,39.2,15.5,39,16.1,38.8C14.6,38.7,13.1,39,11.7,39.9C8.5,42,7.7,46.2,9.7,49.3C11.4,51.9,14.6,53,17.5,52.1C15.5,51.9,13.6,50.8,12.4,49Z"/>
                </g>
                <g>
                    <ellipse class="st0" rx="2.6" ry="2.6" fill="none" stroke="#000000" stroke-width="0.5" transform="translate(-35.9004,61.6206) rotate(-57.4717) scale(0.999969,0.999969) translate(38.2,63.5)"/>
                    <path class="st3" d="M40.4,64.9C40.9,64.2,40.9,63.3,40.6,62.5C40.5,62.8,40.4,63.1,40.3,63.3C39.5,64.5,38,64.8,36.8,64.1C36.4,63.8,36,63.4,35.8,63C35.6,64,36,65.1,36.9,65.7C38.1,66.5,39.6,66.1,40.4,64.9Z"/>
                </g>
                <g>
                    <ellipse class="st0" rx="3.3" ry="3.3" fill="none" stroke="#000000" stroke-width="0.5" transform="translate(-9.065,55.2269) rotate(-41.5541) scale(0.99996,0.99996) translate(68.2,39.6)"/>
                    <path class="st3" d="M70.7,37.4C69.8,36.4,68.6,36.1,67.4,36.4C67.8,36.6,68.1,36.8,68.4,37.2C69.6,38.6,69.5,40.7,68.1,41.9C67.7,42.3,67.2,42.5,66.7,42.6C67.9,43.2,69.3,43,70.4,42.1C71.8,40.8,71.9,38.7,70.7,37.4Z"/>
                </g>
                <g>
                    <ellipse class="st0" rx="3.5" ry="3.5" fill="none" stroke="#000000" stroke-width="0.5" transform="translate(0,0) translate(46.6,68.6)"/>
                    <path class="st3" d="M46.7,70.4C44.9,70.4,43.5,69.1,43.2,67.4C43.1,67.8,43,68.1,43,68.5C43,70.4,44.6,72,46.5,72C48.4,72,50,70.4,50,68.5C50,68.3,50,68.1,49.9,68C49.6,69.4,48.3,70.4,46.7,70.4Z"/>
                </g>
                <g>
                    <ellipse class="st0" rx="2.7" ry="2.7" fill="none" stroke="#000000" stroke-width="0.5" transform="translate(0,0) translate(29,10.1)"/>
                    <path class="st3" d="M29.3,9.1C30.3,9.1,31.2,9.7,31.6,10.5C31.6,10.4,31.6,10.3,31.6,10.1C31.6,8.6,30.4,7.4,28.9,7.4C27.4,7.4,26.2,8.6,26.2,10.1C26.2,10.6,26.3,11,26.5,11.4C26.8,10.1,27.9,9.1,29.3,9.1Z"/>
                </g>
                <g>
                    <ellipse class="st0" rx="4" ry="4" fill="none" stroke="#000000" stroke-width="0.5" transform="translate(0,0) translate(9.4,31)"/>
                    <path class="st3" d="M7.3,31.1C7.3,29.2,8.6,27.6,10.4,27.2C10.1,27.1,9.7,27,9.4,27C7.2,27,5.4,28.8,5.4,31C5.4,33.2,7.2,35,9.4,35C9.7,35,10,35,10.2,34.9C8.5,34.5,7.3,32.9,7.3,31.1Z"/>
                </g>
                <g>
                    <ellipse class="st0" rx="2.7" ry="2.7" fill="none" stroke="#000000" stroke-width="0.5" transform="translate(0,0) translate(54.4,62.6)"/>
                    <path class="st3" d="M55.9,60.4C55.9,60.6,56,60.8,56,60.9C56,62.4,54.8,63.6,53.3,63.6C52.7,63.6,52.2,63.4,51.8,63.1C52,64.3,53.1,65.3,54.4,65.3C55.9,65.3,57.1,64.1,57.1,62.6C57.1,61.7,56.6,60.9,55.9,60.4Z"/>
                </g>
                <g>
                    <ellipse class="st0" rx="2.5" ry="2.5" fill="none" stroke="#000000" stroke-width="0.5" transform="translate(-3.3862,42.2841) rotate(-33.6344) scale(1.00001,1.00001) translate(68.2,26.7)"/>
                    <path class="st3" d="M66.9,24.7C66.8,24.8,66.6,24.9,66.5,25C67.6,24.5,68.9,24.9,69.5,25.9C70.2,26.9,70,28.2,69.2,29C69.3,28.9,69.5,28.9,69.6,28.8C70.7,28,71,26.5,70.3,25.4C69.6,24.2,68,23.9,66.9,24.7Z"/>
                </g>
                <g>
                    <ellipse class="st0" rx="2.5" ry="2.5" fill="none" stroke="#000000" stroke-width="0.5" transform="translate(-19.5797,55.1035) rotate(-73.5131) scale(1.00002,1.00002) translate(27.1,40.7)"/>
                    <path class="st3" d="M29,42.3C28.7,42.3,28.5,42.3,28.2,42.2C26.9,41.8,26.1,40.4,26.5,39.1C26.6,38.7,26.8,38.4,27,38.2C26,38.2,25,38.9,24.7,40C24.3,41.3,25.1,42.7,26.4,43.1C27.4,43.3,28.3,43,29,42.3Z"/>
                </g>
                <g>
                    <ellipse class="st0" rx="3.8" ry="3.8" fill="none" stroke="#000000" stroke-width="0.5" transform="translate(16.1924,72.5518) rotate(-70.8403) scale(0.999992,0.999992) translate(59.1,24.9)"/>
                    <path class="st3" d="M60.4,21.3C59.2,20.9,57.8,21.1,56.8,21.9C57.2,21.9,57.7,21.9,58.1,22.1C60.1,22.8,61.2,25,60.5,27C60.2,27.7,59.8,28.4,59.2,28.8C60.8,28.8,62.2,27.8,62.8,26.2C63.4,24.2,62.4,22,60.4,21.3Z"/>
                </g>
            </g>
            <path id="shadow" class="st4" d="M52.2,3.8C61.1,10.8,66.8,21.7,66.8,33.8C66.8,54.9,49.7,72,28.6,72C26.2,72,23.9,71.8,21.6,71.3C26.6,73.8,32.3,75.3,38.3,75.3C58.8,75.3,75.5,58.7,75.5,38.1C75.4,22.6,65.8,9.3,52.2,3.8Z" fill-opacity="0.25" transform="translate(0.500011,0.500011)"/>
        </g>
    </g>
</svg>
