<?xml version="1.0" encoding="UTF-8" standalone="no"?>
<!-- Created with Keyshape -->
<svg xmlns="http://www.w3.org/2000/svg" xmlns:xlink="http://www.w3.org/1999/xlink" x="0" y="0" width="550" height="370" viewBox="0, 0, 550, 370">
    <style>
@keyframes chakra_t { 0% { transform: translate(119.573876px,119.573897px) rotate(0deg) translate(-119.5735px,-119.5735px); } 16.6666% { transform: translate(119.573876px,119.573897px) rotate(45deg) translate(-119.5735px,-119.5735px); animation-timing-function: steps(1); } 16.6833% { transform: translate(119.573876px,119.573897px) rotate(0deg) translate(-119.5735px,-119.5735px); } 33.3333% { transform: translate(119.573876px,119.573897px) rotate(45deg) translate(-119.5735px,-119.5735px); animation-timing-function: steps(1); } 33.35% { transform: translate(119.573876px,119.573897px) rotate(0deg) translate(-119.5735px,-119.5735px); } 50% { transform: translate(119.573876px,119.573897px) rotate(45deg) translate(-119.5735px,-119.5735px); animation-timing-function: steps(1); } 50.0166% { transform: translate(119.573876px,119.573897px) rotate(0deg) translate(-119.5735px,-119.5735px); } 66.6666% { transform: translate(119.573876px,119.573897px) rotate(45deg) translate(-119.5735px,-119.5735px); animation-timing-function: steps(1); } 66.6833% { transform: translate(119.573876px,119.573897px) rotate(0deg) translate(-119.5735px,-119.5735px); } 83.3333% { transform: translate(119.573876px,119.573897px) rotate(45deg) translate(-119.5735px,-119.5735px); animation-timing-function: steps(1); } 83.35% { transform: translate(119.573876px,119.573897px) rotate(0deg) translate(-119.5735px,-119.5735px); } 100% { transform: translate(119.573876px,119.573897px) rotate(45deg) translate(-119.5735px,-119.5735px); } }
@keyframes a0_t { 0% { transform: translate(0px,0px); animation-timing-function: cubic-bezier(0.42,0,0.58,1); } 16.6666% { transform: translate(0px,-8.927312px); } 33.3333% { transform: translate(0px,0px); animation-timing-function: steps(1); } 33.35% { transform: translate(0px,0px); animation-timing-function: cubic-bezier(0.42,0,0.58,1); } 50% { transform: translate(0px,-8.927312px); } 66.6666% { transform: translate(0px,0px); animation-timing-function: steps(1); } 66.6833% { transform: translate(0px,0px); animation-timing-function: cubic-bezier(0.42,0,0.58,1); } 83.3333% { transform: translate(0px,-8.927312px); } 100% { transform: translate(0px,0px); } }
@keyframes a1_t { 0% { transform: translate(0px,0px); animation-timing-function: cubic-bezier(0.42,0,0.58,1); } 16.6666% { transform: translate(0px,5.951541px); } 33.3333% { transform: translate(0px,0px); animation-timing-function: steps(1); } 33.35% { transform: translate(0px,0px); animation-timing-function: cubic-bezier(0.42,0,0.58,1); } 50% { transform: translate(0px,5.951541px); } 66.6666% { transform: translate(0px,0px); animation-timing-function: steps(1); } 66.6833% { transform: translate(0px,0px); animation-timing-function: cubic-bezier(0.42,0,0.58,1); } 83.3333% { transform: translate(0px,5.951541px); } 100% { transform: translate(0px,0px); } }
@keyframes chakra-2_t { 0% { transform: translate(119.573876px,119.573897px) rotate(0deg) translate(-119.5735px,-119.5735px); } 16.6666% { transform: translate(119.573876px,119.573897px) rotate(45deg) translate(-119.5735px,-119.5735px); animation-timing-function: steps(1); } 16.6833% { transform: translate(119.573876px,119.573897px) rotate(0deg) translate(-119.5735px,-119.5735px); } 33.3333% { transform: translate(119.573876px,119.573897px) rotate(45deg) translate(-119.5735px,-119.5735px); animation-timing-function: steps(1); } 33.35% { transform: translate(119.573876px,119.573897px) rotate(0deg) translate(-119.5735px,-119.5735px); } 50% { transform: translate(119.573876px,119.573897px) rotate(45deg) translate(-119.5735px,-119.5735px); animation-timing-function: steps(1); } 50.0166% { transform: translate(119.573876px,119.573897px) rotate(0deg) translate(-119.5735px,-119.5735px); } 66.6666% { transform: translate(119.573876px,119.573897px) rotate(45deg) translate(-119.5735px,-119.5735px); animation-timing-function: steps(1); } 66.6833% { transform: translate(119.573876px,119.573897px) rotate(0deg) translate(-119.5735px,-119.5735px); } 83.3333% { transform: translate(119.573876px,119.573897px) rotate(45deg) translate(-119.5735px,-119.5735px); animation-timing-function: steps(1); } 83.35% { transform: translate(119.573876px,119.573897px) rotate(0deg) translate(-119.5735px,-119.5735px); } 100% { transform: translate(119.573876px,119.573897px) rotate(45deg) translate(-119.5735px,-119.5735px); } }
@keyframes a2_t { 0% { transform: translate(127.26749px,156.88018px) rotate(4deg) translate(-125.299837px,-27.665467px); } 8.3333% { transform: translate(127.26749px,-44.826948px) rotate(4deg) translate(-125.299837px,-27.665467px); animation-timing-function: steps(1); } 100% { transform: translate(127.267px,156.88px) rotate(4deg) translate(-125.299837px,-27.665467px); } }
    </style>
    <defs>
        <symbol id="Symbol-1" preserveAspectRatio="none" width="239.148" height="239.148" viewBox="0 0 239.148 239.148" overflow="visible">
            <g id="chakra" transform="translate(119.574,119.574) translate(-119.573,-119.573)" style="animation: chakra_t 6s linear infinite both;">
                <path id="chakra_b" d="M360.4,238.892C358.777,238.892,357.458,237.572,357.458,235.95C357.458,234.328,358.777,233.006,360.4,233.006C362.022,233.006,363.342,234.328,363.342,235.95C363.342,237.572,362.022,238.892,360.4,238.892M337.721,297.802C337.009,298.515,336.197,298.664,335.641,298.664C335.086,298.664,334.273,298.515,333.561,297.801C332.414,296.655,332.414,294.788,333.561,293.641C334.708,292.494,336.575,292.495,337.721,293.641C338.434,294.353,338.584,295.165,338.584,295.721C338.584,296.278,338.434,297.089,337.721,297.802M275.87,323.422C274.247,323.422,272.926,322.102,272.926,320.48C272.926,318.858,274.247,317.538,275.87,317.538C277.492,317.538,278.812,318.858,278.812,320.48C278.812,322.102,277.492,323.422,275.87,323.422M218.177,297.802C217.465,298.515,216.653,298.664,216.097,298.664C215.542,298.664,214.729,298.515,214.016,297.801C213.304,297.089,213.155,296.278,213.155,295.721C213.155,295.165,213.304,294.353,214.016,293.641C215.164,292.495,217.03,292.495,218.177,293.64C218.89,294.353,219.04,295.165,219.04,295.721C219.04,296.278,218.89,297.089,218.177,297.802M191.338,238.892C189.716,238.892,188.396,237.572,188.396,235.95C188.396,234.328,189.716,233.006,191.338,233.006C192.962,233.006,194.281,234.328,194.281,235.95C194.281,237.572,192.962,238.892,191.338,238.892M214.016,174.097C215.164,172.951,217.03,172.95,218.177,174.096C219.325,175.244,219.325,177.111,218.177,178.258C217.031,179.406,215.165,179.405,214.017,178.259C212.87,177.111,212.87,175.245,214.016,174.097M275.87,148.476C277.492,148.476,278.812,149.797,278.812,151.419C278.812,153.041,277.492,154.361,275.87,154.361C274.247,154.361,272.926,153.041,272.926,151.419C272.926,149.797,274.247,148.476,275.87,148.476M333.56,174.098C334.134,173.523,334.887,173.237,335.641,173.237C336.395,173.237,337.148,173.523,337.721,174.097C338.869,175.244,338.869,177.111,337.721,178.258C336.574,179.405,334.707,179.404,333.561,178.259C332.414,177.111,332.414,175.244,333.56,174.098M395.443,235.95C395.443,216.65,379.76,200.945,360.47,200.907C374.084,187.239,374.067,165.044,360.421,151.398C346.774,137.753,324.581,137.735,310.913,151.348C310.874,132.057,295.169,116.376,275.87,116.376C256.57,116.376,240.865,132.058,240.827,151.349C227.16,137.735,204.965,137.751,191.318,151.398L191.318,151.398C177.672,165.045,177.655,187.238,191.268,200.907C171.977,200.945,156.296,216.65,156.296,235.95C156.296,255.248,171.978,270.954,191.268,270.992C184.681,277.605,181.054,286.385,181.054,295.721C181.054,305.081,184.7,313.881,191.318,320.499C197.937,327.12,206.737,330.764,216.097,330.764C225.434,330.764,234.214,327.137,240.827,320.549C240.865,339.84,256.57,355.523,275.87,355.523C295.169,355.523,310.874,339.841,310.913,320.55C317.526,327.138,326.304,330.764,335.641,330.764C345.002,330.764,353.802,327.12,360.42,320.501C367.04,313.882,370.684,305.081,370.684,295.721C370.684,286.385,367.057,277.605,360.469,270.992C379.76,270.954,395.443,255.248,395.443,235.95" fill="#000000" transform="translate(-156.296,-116.376)"/>
                <path id="chakra_w" d="M360.4,216.956C360.071,216.956,359.745,216.965,359.42,216.981C359.32,216.986,359.221,216.997,359.121,217.004C358.898,217.018,358.673,217.032,358.453,217.055C358.347,217.065,358.244,217.083,358.138,217.095C357.924,217.12,357.71,217.144,357.499,217.177C357.41,217.19,357.323,217.209,357.234,217.224C357.008,217.262,356.782,217.3,356.558,217.346C356.489,217.359,356.421,217.378,356.353,217.393C356.112,217.445,355.872,217.498,355.635,217.56C355.579,217.574,355.524,217.592,355.467,217.607C355.219,217.674,354.972,217.742,354.729,217.818C354.689,217.83,354.65,217.846,354.611,217.858C354.352,217.94,354.095,218.026,353.842,218.12C353.81,218.131,353.779,218.144,353.748,218.157C353.488,218.254,353.229,218.355,352.975,218.463C352.954,218.473,352.933,218.482,352.912,218.492C352.648,218.605,352.386,218.723,352.129,218.848C352.118,218.853,352.107,218.859,352.095,218.865C351.829,218.995,351.566,219.13,351.306,219.271C351.301,219.274,351.296,219.278,351.29,219.281C349.675,220.166,348.204,221.277,346.918,222.574L308.16,222.574L335.569,195.166C337.986,195.175,340.404,194.725,342.682,193.815C342.707,193.807,342.732,193.8,342.755,193.79C343.268,193.584,343.77,193.346,344.266,193.093C344.328,193.061,344.391,193.038,344.453,193.007C344.902,192.77,345.338,192.504,345.772,192.229C345.873,192.166,345.98,192.113,346.081,192.047C346.493,191.775,346.889,191.472,347.284,191.164C347.395,191.077,347.514,191.004,347.624,190.914C348.123,190.507,348.606,190.072,349.071,189.607C356.488,182.189,356.488,170.164,349.071,162.747C341.654,155.33,329.629,155.33,322.212,162.747C321.747,163.212,321.311,163.695,320.904,164.194C320.812,164.308,320.736,164.43,320.647,164.544C320.342,164.936,320.041,165.329,319.771,165.738C319.705,165.839,319.653,165.946,319.588,166.047C319.314,166.48,319.047,166.916,318.812,167.366C318.778,167.431,318.754,167.498,318.72,167.563C318.469,168.056,318.233,168.555,318.028,169.063C318.018,169.088,318.011,169.113,318.002,169.138C317.093,171.416,316.643,173.833,316.652,176.251L289.245,203.658L289.245,164.9C290.545,163.61,291.659,162.135,292.545,160.516C292.545,160.514,292.546,160.513,292.546,160.512C292.691,160.247,292.83,159.977,292.962,159.704C292.965,159.699,292.967,159.694,292.97,159.689C293.096,159.429,293.216,159.164,293.331,158.896C293.338,158.878,293.347,158.861,293.355,158.843C293.463,158.587,293.565,158.328,293.663,158.067C293.674,158.037,293.687,158.007,293.699,157.976C293.793,157.72,293.879,157.46,293.963,157.2C293.975,157.163,293.989,157.126,294.001,157.09C294.079,156.837,294.15,156.582,294.218,156.325C294.231,156.278,294.247,156.231,294.258,156.184C294.321,155.943,294.375,155.7,294.427,155.456C294.442,155.39,294.46,155.326,294.473,155.26C294.52,155.028,294.559,154.794,294.598,154.559C294.612,154.479,294.629,154.401,294.641,154.321C294.675,154.099,294.701,153.874,294.727,153.65C294.738,153.555,294.754,153.461,294.763,153.366C294.786,153.14,294.8,152.911,294.815,152.682C294.822,152.587,294.832,152.494,294.837,152.398C294.853,152.074,294.862,151.747,294.862,151.418C294.862,140.929,286.359,132.426,275.87,132.426C265.379,132.426,256.877,140.929,256.877,151.418C256.877,151.747,256.885,152.074,256.902,152.398C256.907,152.498,256.918,152.598,256.924,152.697C256.939,152.921,256.953,153.144,256.975,153.366C256.985,153.464,257.002,153.56,257.012,153.659C257.039,153.88,257.064,154.102,257.097,154.321C257.108,154.393,257.124,154.464,257.135,154.536C257.175,154.779,257.216,155.021,257.266,155.261C257.277,155.317,257.293,155.371,257.304,155.427C257.359,155.681,257.416,155.934,257.48,156.184C257.493,156.232,257.507,156.279,257.52,156.327C257.588,156.582,257.66,156.837,257.738,157.089C257.752,157.131,257.767,157.171,257.78,157.213C257.862,157.47,257.948,157.725,258.041,157.977C258.05,158.004,258.061,158.03,258.072,158.057C258.171,158.322,258.274,158.585,258.384,158.844C258.39,158.859,258.398,158.873,258.404,158.889C258.52,159.159,258.641,159.426,258.768,159.689C258.773,159.698,258.777,159.706,258.781,159.714C258.913,159.984,259.049,160.25,259.193,160.513C259.193,160.513,259.194,160.514,259.194,160.514C260.08,162.135,261.194,163.611,262.495,164.901L262.495,203.659L235.087,176.251C235.095,173.837,234.646,171.424,233.741,169.149C233.729,169.121,233.722,169.091,233.711,169.062C233.504,168.552,233.267,168.051,233.015,167.556C232.983,167.494,232.96,167.428,232.927,167.366C232.687,166.909,232.416,166.464,232.136,166.024C232.077,165.93,232.029,165.831,231.968,165.739C231.697,165.327,231.392,164.931,231.086,164.536C230.999,164.424,230.924,164.305,230.835,164.194C230.427,163.695,229.992,163.212,229.527,162.747C222.11,155.33,210.085,155.33,202.668,162.747C195.251,170.164,195.251,182.189,202.668,189.607C203.132,190.072,203.616,190.507,204.115,190.914C204.22,191,204.333,191.069,204.439,191.152C204.838,191.464,205.241,191.771,205.659,192.047C205.759,192.113,205.866,192.166,205.967,192.229C206.401,192.504,206.837,192.771,207.287,193.007C207.345,193.037,207.407,193.06,207.465,193.09C207.964,193.345,208.468,193.583,208.983,193.79C209.01,193.801,209.039,193.809,209.065,193.819C211.341,194.725,213.756,195.176,216.171,195.166L243.579,222.574L204.821,222.574C203.535,221.277,202.063,220.166,200.449,219.281C200.443,219.278,200.438,219.274,200.432,219.271C200.172,219.13,199.91,218.995,199.643,218.865C199.631,218.859,199.621,218.853,199.609,218.848C199.352,218.723,199.09,218.605,198.827,218.492C198.805,218.482,198.785,218.473,198.763,218.463C198.509,218.355,198.251,218.254,197.991,218.157C197.96,218.144,197.928,218.131,197.896,218.12C197.643,218.026,197.386,217.94,197.128,217.858C197.088,217.846,197.049,217.83,197.01,217.818C196.766,217.742,196.519,217.674,196.271,217.607C196.215,217.592,196.16,217.574,196.103,217.56C195.867,217.498,195.627,217.445,195.385,217.393C195.317,217.378,195.25,217.359,195.18,217.346C194.957,217.3,194.73,217.262,194.504,217.224C194.416,217.209,194.329,217.19,194.241,217.177C194.029,217.144,193.814,217.12,193.6,217.095C193.496,217.083,193.391,217.065,193.286,217.055C193.065,217.032,192.841,217.018,192.618,217.004C192.518,216.997,192.42,216.986,192.319,216.981C191.994,216.965,191.668,216.956,191.338,216.956C180.849,216.956,172.346,225.46,172.346,235.949C172.346,246.438,180.849,254.941,191.338,254.941C191.668,254.941,191.994,254.934,192.319,254.917C192.419,254.911,192.516,254.9,192.615,254.894C192.839,254.879,193.064,254.865,193.287,254.843C193.388,254.832,193.489,254.816,193.591,254.804C193.808,254.778,194.026,254.754,194.241,254.721C194.326,254.708,194.409,254.69,194.494,254.676C194.723,254.638,194.954,254.599,195.181,254.553C195.244,254.539,195.305,254.522,195.368,254.51C195.615,254.456,195.861,254.401,196.104,254.338C196.156,254.325,196.207,254.309,196.258,254.294C196.51,254.226,196.762,254.157,197.009,254.08C197.052,254.066,197.093,254.051,197.136,254.037C197.391,253.955,197.646,253.871,197.896,253.778C197.929,253.767,197.962,253.752,197.995,253.739C198.254,253.643,198.51,253.542,198.763,253.435C198.783,253.427,198.801,253.417,198.82,253.409C199.087,253.295,199.35,253.176,199.61,253.05C199.619,253.046,199.627,253.041,199.635,253.037C199.904,252.906,200.17,252.769,200.432,252.626C200.439,252.623,200.445,252.618,200.452,252.614C202.065,251.73,203.536,250.619,204.821,249.324L243.579,249.324L216.171,276.732C213.756,276.723,211.341,277.173,209.065,278.079C209.038,278.09,209.01,278.097,208.983,278.107C208.468,278.315,207.964,278.554,207.465,278.809C207.407,278.838,207.345,278.86,207.287,278.892C206.833,279.129,206.392,279.398,205.956,279.676C205.858,279.737,205.755,279.787,205.659,279.851C205.239,280.127,204.835,280.436,204.433,280.75C204.329,280.831,204.218,280.899,204.115,280.983C203.616,281.391,203.132,281.826,202.668,282.291C195.251,289.708,195.251,301.733,202.668,309.15C210.085,316.568,222.11,316.568,229.527,309.15C229.992,308.685,230.427,308.203,230.835,307.704C230.924,307.593,230.999,307.474,231.086,307.361C231.392,306.968,231.697,306.571,231.968,306.159C232.03,306.065,232.078,305.966,232.138,305.871C232.417,305.432,232.688,304.988,232.926,304.532C232.962,304.467,232.986,304.397,233.02,304.332C233.27,303.841,233.505,303.343,233.711,302.836C233.722,302.806,233.731,302.773,233.743,302.743C234.646,300.47,235.095,298.059,235.087,295.647L262.495,268.239L262.495,306.997C261.196,308.285,260.083,309.759,259.198,311.376C259.196,311.379,259.194,311.383,259.192,311.386C259.049,311.647,258.913,311.914,258.782,312.183C258.777,312.191,258.773,312.2,258.768,312.208C258.642,312.47,258.522,312.734,258.408,313.002C258.4,313.019,258.391,313.036,258.384,313.055C258.274,313.313,258.171,313.576,258.072,313.841C258.062,313.867,258.05,313.893,258.041,313.921C257.948,314.173,257.862,314.429,257.78,314.685C257.767,314.726,257.752,314.768,257.738,314.809C257.66,315.06,257.588,315.315,257.52,315.571C257.507,315.619,257.493,315.666,257.48,315.714C257.416,315.964,257.359,316.217,257.304,316.472C257.293,316.526,257.277,316.581,257.266,316.637C257.217,316.874,257.176,317.115,257.136,317.355C257.125,317.43,257.109,317.503,257.097,317.577C257.064,317.795,257.039,318.017,257.013,318.237C257.002,318.336,256.986,318.433,256.975,318.532C256.953,318.754,256.939,318.977,256.924,319.201C256.918,319.301,256.907,319.399,256.902,319.499C256.885,319.824,256.877,320.15,256.877,320.479C256.877,330.969,265.379,339.472,275.87,339.472C286.359,339.472,294.862,330.969,294.862,320.479C294.862,320.15,294.853,319.824,294.837,319.499C294.832,319.404,294.822,319.31,294.815,319.216C294.8,318.987,294.786,318.758,294.763,318.532C294.754,318.436,294.738,318.343,294.727,318.248C294.701,318.023,294.675,317.799,294.641,317.577C294.629,317.497,294.612,317.419,294.598,317.339C294.559,317.104,294.52,316.869,294.473,316.638C294.46,316.572,294.442,316.508,294.427,316.442C294.375,316.198,294.321,315.955,294.258,315.714C294.247,315.667,294.231,315.62,294.218,315.573C294.15,315.316,294.079,315.06,294.001,314.809C293.989,314.771,293.975,314.735,293.963,314.698C293.879,314.437,293.793,314.178,293.699,313.922C293.687,313.891,293.673,313.86,293.663,313.83C293.565,313.569,293.463,313.31,293.355,313.055C293.346,313.034,293.337,313.015,293.328,312.994C293.213,312.729,293.095,312.467,292.97,312.208C292.967,312.203,292.964,312.198,292.962,312.193C292.83,311.921,292.691,311.651,292.546,311.387C292.545,311.383,292.542,311.379,292.54,311.375C291.655,309.759,290.543,308.285,289.245,306.998L289.245,268.24L316.652,295.647C316.643,298.068,317.095,300.49,318.005,302.771C318.014,302.793,318.019,302.814,318.028,302.835C318.236,303.35,318.474,303.855,318.729,304.354C318.759,304.413,318.781,304.474,318.812,304.532C319.051,304.99,319.324,305.435,319.603,305.876C319.663,305.969,319.71,306.067,319.771,306.159C320.043,306.571,320.346,306.968,320.653,307.361C320.74,307.474,320.814,307.593,320.904,307.704C321.311,308.203,321.747,308.685,322.212,309.15C329.629,316.568,341.654,316.568,349.071,309.15C356.488,301.733,356.488,289.708,349.071,282.291C348.606,281.826,348.123,281.391,347.624,280.984C347.516,280.895,347.399,280.824,347.29,280.738C346.893,280.43,346.495,280.124,346.08,279.851C345.985,279.788,345.883,279.738,345.787,279.678C345.348,279.399,344.907,279.13,344.453,278.892C344.394,278.861,344.334,278.839,344.275,278.81C343.776,278.555,343.271,278.315,342.755,278.107C342.73,278.098,342.704,278.091,342.677,278.08C340.4,277.174,337.984,276.723,335.568,276.732L308.16,249.324L346.918,249.324C348.203,250.619,349.673,251.73,351.287,252.614C351.294,252.618,351.3,252.623,351.307,252.626C351.569,252.769,351.835,252.906,352.104,253.037C352.112,253.041,352.121,253.046,352.129,253.05C352.388,253.176,352.652,253.295,352.919,253.409C352.938,253.417,352.956,253.427,352.975,253.435C353.228,253.542,353.485,253.643,353.744,253.739C353.777,253.752,353.809,253.767,353.842,253.778C354.093,253.871,354.347,253.955,354.602,254.037C354.645,254.051,354.686,254.066,354.729,254.08C354.977,254.157,355.228,254.226,355.48,254.294C355.532,254.309,355.583,254.325,355.634,254.338C355.878,254.401,356.124,254.456,356.371,254.51C356.433,254.522,356.495,254.539,356.558,254.553C356.785,254.599,357.015,254.638,357.246,254.676C357.33,254.69,357.413,254.708,357.498,254.721C357.712,254.754,357.93,254.778,358.147,254.804C358.25,254.816,358.35,254.832,358.453,254.843C358.674,254.865,358.899,254.879,359.124,254.894C359.223,254.9,359.321,254.911,359.42,254.917C359.745,254.934,360.071,254.941,360.4,254.941C370.889,254.941,379.392,246.438,379.392,235.949C379.392,225.46,370.889,216.956,360.4,216.956" fill="#FFFFFF" transform="translate(-156.296,-116.376)"/>
            </g>
        </symbol>
        <linearGradient id="Gradient-0" x1="67.712" y1="264.053" x2="520.353" y2="264.053" gradientUnits="userSpaceOnUse">
            <stop offset="0" stop-color="#c9ff15"/>
            <stop offset="0.313" stop-color="#ccff7f"/>
            <stop offset="1" stop-color="#e900a3"/>
        </linearGradient>
        <linearGradient id="Gradient-1" x1="11.386" y1="131.221" x2="472.581" y2="254.798" gradientUnits="userSpaceOnUse">
            <stop offset="0" stop-color="#c3aaff"/>
            <stop offset="0.236" stop-color="#ec7fff"/>
            <stop offset="0.794" stop-color="#3f81ff"/>
            <stop offset="1" stop-color="#ff0007"/>
        </linearGradient>
        <linearGradient id="Gradient-2" x1="23.839" y1="116.376" x2="544.635" y2="116.376" gradientUnits="userSpaceOnUse">
            <stop offset="0" stop-color="#e5ffd4"/>
            <stop offset="0.236" stop-color="#15ffa0"/>
            <stop offset="1" stop-color="#3fc6ff"/>
        </linearGradient>
        <linearGradient id="Gradient-3" x1="125" y1="0" x2="125" y2="60.2485" gradientUnits="userSpaceOnUse">
            <stop offset="0" stop-color="#ffffff" stop-opacity="0"/>
            <stop offset="0.5" stop-color="#ffffff" stop-opacity="0.65"/>
            <stop offset="0.735" stop-color="#ffffff" stop-opacity="0"/>
        </linearGradient>
        <linearGradient id="Gradient-4" x1="5.366" y1="58.002" x2="540.604" y2="58.002" gradientUnits="userSpaceOnUse">
            <stop offset="0" stop-color="#ff00cc"/>
            <stop offset="0.286" stop-color="#0900d4"/>
            <stop offset="0.493" stop-color="#d4000b"/>
            <stop offset="0.744" stop-color="#d300ff"/>
            <stop offset="1" stop-color="#00ff97"/>
        </linearGradient>
        <clipPath id="ClipPath-1">
            <path id="square-2" d="M395.389,253.987L395.389,342.949C395.389,350.337,389.401,356.324,382.014,356.324L169.671,356.324C162.285,356.324,156.296,350.337,156.296,342.949L156.296,253.987C156.296,244.025,164.372,235.949,174.334,235.949L377.35,235.949C387.313,235.949,395.389,244.025,395.389,253.987" fill="none" fill-rule="nonzero" transform="translate(-168.856,-254.77) rotate(-4)"/>
        </clipPath>
        <clipPath id="ClipPath-2">
            <path id="square-3" d="M395.389,253.987L395.389,342.949C395.389,350.337,389.401,356.324,382.014,356.324L169.671,356.324C162.285,356.324,156.296,350.337,156.296,342.949L156.296,253.987C156.296,244.025,164.372,235.949,174.334,235.949L377.35,235.949C387.313,235.949,395.389,244.025,395.389,253.987" fill="none" fill-rule="nonzero" transform="translate(-146.47,-235.948)"/>
        </clipPath>
    </defs>
    <g id="Layer_1" transform="translate(275,185) translate(-275,-185)">
        <path d="M67.712,332.266L520.354,332.266L462.963,206.253L152.165,195.84Z" fill="url(#Gradient-0)"/>
        <path d="M67.712,259.913L441.561,308.792L500.982,148.808L36.563,37.265Z" fill="url(#Gradient-1)" style="animation: a0_t 6s linear infinite both;"/>
        <path d="M23.839,194.001L544.635,164.083L544.635,164.081L493.749,51.004L128.077,38.751Z" fill="url(#Gradient-2)" style="animation: a1_t 6s linear infinite both;"/>
        <g xlink:href="#Symbol-1" transform="translate(275.869,235.949) scale(0.999999,0.999999) translate(-119.574,-119.574)">
            <g id="chakra-2" transform="translate(119.574,119.574) translate(-119.573,-119.573)" style="animation: chakra-2_t 6s linear infinite both;">
                <path id="chakra_b-2" d="M360.4,238.892C358.777,238.892,357.458,237.572,357.458,235.95C357.458,234.328,358.777,233.006,360.4,233.006C362.022,233.006,363.342,234.328,363.342,235.95C363.342,237.572,362.022,238.892,360.4,238.892M337.721,297.802C337.009,298.515,336.197,298.664,335.641,298.664C335.086,298.664,334.273,298.515,333.561,297.801C332.414,296.655,332.414,294.788,333.561,293.641C334.708,292.494,336.575,292.495,337.721,293.641C338.434,294.353,338.584,295.165,338.584,295.721C338.584,296.278,338.434,297.089,337.721,297.802M275.87,323.422C274.247,323.422,272.926,322.102,272.926,320.48C272.926,318.858,274.247,317.538,275.87,317.538C277.492,317.538,278.812,318.858,278.812,320.48C278.812,322.102,277.492,323.422,275.87,323.422M218.177,297.802C217.465,298.515,216.653,298.664,216.097,298.664C215.542,298.664,214.729,298.515,214.016,297.801C213.304,297.089,213.155,296.278,213.155,295.721C213.155,295.165,213.304,294.353,214.016,293.641C215.164,292.495,217.03,292.495,218.177,293.64C218.89,294.353,219.04,295.165,219.04,295.721C219.04,296.278,218.89,297.089,218.177,297.802M191.338,238.892C189.716,238.892,188.396,237.572,188.396,235.95C188.396,234.328,189.716,233.006,191.338,233.006C192.962,233.006,194.281,234.328,194.281,235.95C194.281,237.572,192.962,238.892,191.338,238.892M214.016,174.097C215.164,172.951,217.03,172.95,218.177,174.096C219.325,175.244,219.325,177.111,218.177,178.258C217.031,179.406,215.165,179.405,214.017,178.259C212.87,177.111,212.87,175.245,214.016,174.097M275.87,148.476C277.492,148.476,278.812,149.797,278.812,151.419C278.812,153.041,277.492,154.361,275.87,154.361C274.247,154.361,272.926,153.041,272.926,151.419C272.926,149.797,274.247,148.476,275.87,148.476M333.56,174.098C334.134,173.523,334.887,173.237,335.641,173.237C336.395,173.237,337.148,173.523,337.721,174.097C338.869,175.244,338.869,177.111,337.721,178.258C336.574,179.405,334.707,179.404,333.561,178.259C332.414,177.111,332.414,175.244,333.56,174.098M395.443,235.95C395.443,216.65,379.76,200.945,360.47,200.907C374.084,187.239,374.067,165.044,360.421,151.398C346.774,137.753,324.581,137.735,310.913,151.348C310.874,132.057,295.169,116.376,275.87,116.376C256.57,116.376,240.865,132.058,240.827,151.349C227.16,137.735,204.965,137.751,191.318,151.398L191.318,151.398C177.672,165.045,177.655,187.238,191.268,200.907C171.977,200.945,156.296,216.65,156.296,235.95C156.296,255.248,171.978,270.954,191.268,270.992C184.681,277.605,181.054,286.385,181.054,295.721C181.054,305.081,184.7,313.881,191.318,320.499C197.937,327.12,206.737,330.764,216.097,330.764C225.434,330.764,234.214,327.137,240.827,320.549C240.865,339.84,256.57,355.523,275.87,355.523C295.169,355.523,310.874,339.841,310.913,320.55C317.526,327.138,326.304,330.764,335.641,330.764C345.002,330.764,353.802,327.12,360.42,320.501C367.04,313.882,370.684,305.081,370.684,295.721C370.684,286.385,367.057,277.605,360.469,270.992C379.76,270.954,395.443,255.248,395.443,235.95" fill="#000000" transform="translate(-156.296,-116.376)"/>
                <path id="chakra_w-2" d="M360.4,216.956C360.071,216.956,359.745,216.965,359.42,216.981C359.32,216.986,359.221,216.997,359.121,217.004C358.898,217.018,358.673,217.032,358.453,217.055C358.347,217.065,358.244,217.083,358.138,217.095C357.924,217.12,357.71,217.144,357.499,217.177C357.41,217.19,357.323,217.209,357.234,217.224C357.008,217.262,356.782,217.3,356.558,217.346C356.489,217.359,356.421,217.378,356.353,217.393C356.112,217.445,355.872,217.498,355.635,217.56C355.579,217.574,355.524,217.592,355.467,217.607C355.219,217.674,354.972,217.742,354.729,217.818C354.689,217.83,354.65,217.846,354.611,217.858C354.352,217.94,354.095,218.026,353.842,218.12C353.81,218.131,353.779,218.144,353.748,218.157C353.488,218.254,353.229,218.355,352.975,218.463C352.954,218.473,352.933,218.482,352.912,218.492C352.648,218.605,352.386,218.723,352.129,218.848C352.118,218.853,352.107,218.859,352.095,218.865C351.829,218.995,351.566,219.13,351.306,219.271C351.301,219.274,351.296,219.278,351.29,219.281C349.675,220.166,348.204,221.277,346.918,222.574L308.16,222.574L335.569,195.166C337.986,195.175,340.404,194.725,342.682,193.815C342.707,193.807,342.732,193.8,342.755,193.79C343.268,193.584,343.77,193.346,344.266,193.093C344.328,193.061,344.391,193.038,344.453,193.007C344.902,192.77,345.338,192.504,345.772,192.229C345.873,192.166,345.98,192.113,346.081,192.047C346.493,191.775,346.889,191.472,347.284,191.164C347.395,191.077,347.514,191.004,347.624,190.914C348.123,190.507,348.606,190.072,349.071,189.607C356.488,182.189,356.488,170.164,349.071,162.747C341.654,155.33,329.629,155.33,322.212,162.747C321.747,163.212,321.311,163.695,320.904,164.194C320.812,164.308,320.736,164.43,320.647,164.544C320.342,164.936,320.041,165.329,319.771,165.738C319.705,165.839,319.653,165.946,319.588,166.047C319.314,166.48,319.047,166.916,318.812,167.366C318.778,167.431,318.754,167.498,318.72,167.563C318.469,168.056,318.233,168.555,318.028,169.063C318.018,169.088,318.011,169.113,318.002,169.138C317.093,171.416,316.643,173.833,316.652,176.251L289.245,203.658L289.245,164.9C290.545,163.61,291.659,162.135,292.545,160.516C292.545,160.514,292.546,160.513,292.546,160.512C292.691,160.247,292.83,159.977,292.962,159.704C292.965,159.699,292.967,159.694,292.97,159.689C293.096,159.429,293.216,159.164,293.331,158.896C293.338,158.878,293.347,158.861,293.355,158.843C293.463,158.587,293.565,158.328,293.663,158.067C293.674,158.037,293.687,158.007,293.699,157.976C293.793,157.72,293.879,157.46,293.963,157.2C293.975,157.163,293.989,157.126,294.001,157.09C294.079,156.837,294.15,156.582,294.218,156.325C294.231,156.278,294.247,156.231,294.258,156.184C294.321,155.943,294.375,155.7,294.427,155.456C294.442,155.39,294.46,155.326,294.473,155.26C294.52,155.028,294.559,154.794,294.598,154.559C294.612,154.479,294.629,154.401,294.641,154.321C294.675,154.099,294.701,153.874,294.727,153.65C294.738,153.555,294.754,153.461,294.763,153.366C294.786,153.14,294.8,152.911,294.815,152.682C294.822,152.587,294.832,152.494,294.837,152.398C294.853,152.074,294.862,151.747,294.862,151.418C294.862,140.929,286.359,132.426,275.87,132.426C265.379,132.426,256.877,140.929,256.877,151.418C256.877,151.747,256.885,152.074,256.902,152.398C256.907,152.498,256.918,152.598,256.924,152.697C256.939,152.921,256.953,153.144,256.975,153.366C256.985,153.464,257.002,153.56,257.012,153.659C257.039,153.88,257.064,154.102,257.097,154.321C257.108,154.393,257.124,154.464,257.135,154.536C257.175,154.779,257.216,155.021,257.266,155.261C257.277,155.317,257.293,155.371,257.304,155.427C257.359,155.681,257.416,155.934,257.48,156.184C257.493,156.232,257.507,156.279,257.52,156.327C257.588,156.582,257.66,156.837,257.738,157.089C257.752,157.131,257.767,157.171,257.78,157.213C257.862,157.47,257.948,157.725,258.041,157.977C258.05,158.004,258.061,158.03,258.072,158.057C258.171,158.322,258.274,158.585,258.384,158.844C258.39,158.859,258.398,158.873,258.404,158.889C258.52,159.159,258.641,159.426,258.768,159.689C258.773,159.698,258.777,159.706,258.781,159.714C258.913,159.984,259.049,160.25,259.193,160.513C259.193,160.513,259.194,160.514,259.194,160.514C260.08,162.135,261.194,163.611,262.495,164.901L262.495,203.659L235.087,176.251C235.095,173.837,234.646,171.424,233.741,169.149C233.729,169.121,233.722,169.091,233.711,169.062C233.504,168.552,233.267,168.051,233.015,167.556C232.983,167.494,232.96,167.428,232.927,167.366C232.687,166.909,232.416,166.464,232.136,166.024C232.077,165.93,232.029,165.831,231.968,165.739C231.697,165.327,231.392,164.931,231.086,164.536C230.999,164.424,230.924,164.305,230.835,164.194C230.427,163.695,229.992,163.212,229.527,162.747C222.11,155.33,210.085,155.33,202.668,162.747C195.251,170.164,195.251,182.189,202.668,189.607C203.132,190.072,203.616,190.507,204.115,190.914C204.22,191,204.333,191.069,204.439,191.152C204.838,191.464,205.241,191.771,205.659,192.047C205.759,192.113,205.866,192.166,205.967,192.229C206.401,192.504,206.837,192.771,207.287,193.007C207.345,193.037,207.407,193.06,207.465,193.09C207.964,193.345,208.468,193.583,208.983,193.79C209.01,193.801,209.039,193.809,209.065,193.819C211.341,194.725,213.756,195.176,216.171,195.166L243.579,222.574L204.821,222.574C203.535,221.277,202.063,220.166,200.449,219.281C200.443,219.278,200.438,219.274,200.432,219.271C200.172,219.13,199.91,218.995,199.643,218.865C199.631,218.859,199.621,218.853,199.609,218.848C199.352,218.723,199.09,218.605,198.827,218.492C198.805,218.482,198.785,218.473,198.763,218.463C198.509,218.355,198.251,218.254,197.991,218.157C197.96,218.144,197.928,218.131,197.896,218.12C197.643,218.026,197.386,217.94,197.128,217.858C197.088,217.846,197.049,217.83,197.01,217.818C196.766,217.742,196.519,217.674,196.271,217.607C196.215,217.592,196.16,217.574,196.103,217.56C195.867,217.498,195.627,217.445,195.385,217.393C195.317,217.378,195.25,217.359,195.18,217.346C194.957,217.3,194.73,217.262,194.504,217.224C194.416,217.209,194.329,217.19,194.241,217.177C194.029,217.144,193.814,217.12,193.6,217.095C193.496,217.083,193.391,217.065,193.286,217.055C193.065,217.032,192.841,217.018,192.618,217.004C192.518,216.997,192.42,216.986,192.319,216.981C191.994,216.965,191.668,216.956,191.338,216.956C180.849,216.956,172.346,225.46,172.346,235.949C172.346,246.438,180.849,254.941,191.338,254.941C191.668,254.941,191.994,254.934,192.319,254.917C192.419,254.911,192.516,254.9,192.615,254.894C192.839,254.879,193.064,254.865,193.287,254.843C193.388,254.832,193.489,254.816,193.591,254.804C193.808,254.778,194.026,254.754,194.241,254.721C194.326,254.708,194.409,254.69,194.494,254.676C194.723,254.638,194.954,254.599,195.181,254.553C195.244,254.539,195.305,254.522,195.368,254.51C195.615,254.456,195.861,254.401,196.104,254.338C196.156,254.325,196.207,254.309,196.258,254.294C196.51,254.226,196.762,254.157,197.009,254.08C197.052,254.066,197.093,254.051,197.136,254.037C197.391,253.955,197.646,253.871,197.896,253.778C197.929,253.767,197.962,253.752,197.995,253.739C198.254,253.643,198.51,253.542,198.763,253.435C198.783,253.427,198.801,253.417,198.82,253.409C199.087,253.295,199.35,253.176,199.61,253.05C199.619,253.046,199.627,253.041,199.635,253.037C199.904,252.906,200.17,252.769,200.432,252.626C200.439,252.623,200.445,252.618,200.452,252.614C202.065,251.73,203.536,250.619,204.821,249.324L243.579,249.324L216.171,276.732C213.756,276.723,211.341,277.173,209.065,278.079C209.038,278.09,209.01,278.097,208.983,278.107C208.468,278.315,207.964,278.554,207.465,278.809C207.407,278.838,207.345,278.86,207.287,278.892C206.833,279.129,206.392,279.398,205.956,279.676C205.858,279.737,205.755,279.787,205.659,279.851C205.239,280.127,204.835,280.436,204.433,280.75C204.329,280.831,204.218,280.899,204.115,280.983C203.616,281.391,203.132,281.826,202.668,282.291C195.251,289.708,195.251,301.733,202.668,309.15C210.085,316.568,222.11,316.568,229.527,309.15C229.992,308.685,230.427,308.203,230.835,307.704C230.924,307.593,230.999,307.474,231.086,307.361C231.392,306.968,231.697,306.571,231.968,306.159C232.03,306.065,232.078,305.966,232.138,305.871C232.417,305.432,232.688,304.988,232.926,304.532C232.962,304.467,232.986,304.397,233.02,304.332C233.27,303.841,233.505,303.343,233.711,302.836C233.722,302.806,233.731,302.773,233.743,302.743C234.646,300.47,235.095,298.059,235.087,295.647L262.495,268.239L262.495,306.997C261.196,308.285,260.083,309.759,259.198,311.376C259.196,311.379,259.194,311.383,259.192,311.386C259.049,311.647,258.913,311.914,258.782,312.183C258.777,312.191,258.773,312.2,258.768,312.208C258.642,312.47,258.522,312.734,258.408,313.002C258.4,313.019,258.391,313.036,258.384,313.055C258.274,313.313,258.171,313.576,258.072,313.841C258.062,313.867,258.05,313.893,258.041,313.921C257.948,314.173,257.862,314.429,257.78,314.685C257.767,314.726,257.752,314.768,257.738,314.809C257.66,315.06,257.588,315.315,257.52,315.571C257.507,315.619,257.493,315.666,257.48,315.714C257.416,315.964,257.359,316.217,257.304,316.472C257.293,316.526,257.277,316.581,257.266,316.637C257.217,316.874,257.176,317.115,257.136,317.355C257.125,317.43,257.109,317.503,257.097,317.577C257.064,317.795,257.039,318.017,257.013,318.237C257.002,318.336,256.986,318.433,256.975,318.532C256.953,318.754,256.939,318.977,256.924,319.201C256.918,319.301,256.907,319.399,256.902,319.499C256.885,319.824,256.877,320.15,256.877,320.479C256.877,330.969,265.379,339.472,275.87,339.472C286.359,339.472,294.862,330.969,294.862,320.479C294.862,320.15,294.853,319.824,294.837,319.499C294.832,319.404,294.822,319.31,294.815,319.216C294.8,318.987,294.786,318.758,294.763,318.532C294.754,318.436,294.738,318.343,294.727,318.248C294.701,318.023,294.675,317.799,294.641,317.577C294.629,317.497,294.612,317.419,294.598,317.339C294.559,317.104,294.52,316.869,294.473,316.638C294.46,316.572,294.442,316.508,294.427,316.442C294.375,316.198,294.321,315.955,294.258,315.714C294.247,315.667,294.231,315.62,294.218,315.573C294.15,315.316,294.079,315.06,294.001,314.809C293.989,314.771,293.975,314.735,293.963,314.698C293.879,314.437,293.793,314.178,293.699,313.922C293.687,313.891,293.673,313.86,293.663,313.83C293.565,313.569,293.463,313.31,293.355,313.055C293.346,313.034,293.337,313.015,293.328,312.994C293.213,312.729,293.095,312.467,292.97,312.208C292.967,312.203,292.964,312.198,292.962,312.193C292.83,311.921,292.691,311.651,292.546,311.387C292.545,311.383,292.542,311.379,292.54,311.375C291.655,309.759,290.543,308.285,289.245,306.998L289.245,268.24L316.652,295.647C316.643,298.068,317.095,300.49,318.005,302.771C318.014,302.793,318.019,302.814,318.028,302.835C318.236,303.35,318.474,303.855,318.729,304.354C318.759,304.413,318.781,304.474,318.812,304.532C319.051,304.99,319.324,305.435,319.603,305.876C319.663,305.969,319.71,306.067,319.771,306.159C320.043,306.571,320.346,306.968,320.653,307.361C320.74,307.474,320.814,307.593,320.904,307.704C321.311,308.203,321.747,308.685,322.212,309.15C329.629,316.568,341.654,316.568,349.071,309.15C356.488,301.733,356.488,289.708,349.071,282.291C348.606,281.826,348.123,281.391,347.624,280.984C347.516,280.895,347.399,280.824,347.29,280.738C346.893,280.43,346.495,280.124,346.08,279.851C345.985,279.788,345.883,279.738,345.787,279.678C345.348,279.399,344.907,279.13,344.453,278.892C344.394,278.861,344.334,278.839,344.275,278.81C343.776,278.555,343.271,278.315,342.755,278.107C342.73,278.098,342.704,278.091,342.677,278.08C340.4,277.174,337.984,276.723,335.568,276.732L308.16,249.324L346.918,249.324C348.203,250.619,349.673,251.73,351.287,252.614C351.294,252.618,351.3,252.623,351.307,252.626C351.569,252.769,351.835,252.906,352.104,253.037C352.112,253.041,352.121,253.046,352.129,253.05C352.388,253.176,352.652,253.295,352.919,253.409C352.938,253.417,352.956,253.427,352.975,253.435C353.228,253.542,353.485,253.643,353.744,253.739C353.777,253.752,353.809,253.767,353.842,253.778C354.093,253.871,354.347,253.955,354.602,254.037C354.645,254.051,354.686,254.066,354.729,254.08C354.977,254.157,355.228,254.226,355.48,254.294C355.532,254.309,355.583,254.325,355.634,254.338C355.878,254.401,356.124,254.456,356.371,254.51C356.433,254.522,356.495,254.539,356.558,254.553C356.785,254.599,357.015,254.638,357.246,254.676C357.33,254.69,357.413,254.708,357.498,254.721C357.712,254.754,357.93,254.778,358.147,254.804C358.25,254.816,358.35,254.832,358.453,254.843C358.674,254.865,358.899,254.879,359.124,254.894C359.223,254.9,359.321,254.911,359.42,254.917C359.745,254.934,360.071,254.941,360.4,254.941C370.889,254.941,379.392,246.438,379.392,235.949C379.392,225.46,370.889,216.956,360.4,216.956" fill="#FFFFFF" transform="translate(-156.296,-116.376)"/>
            </g>
        </g>
        <path id="square" d="M395.389,253.987L395.389,342.949C395.389,350.337,389.401,356.324,382.014,356.324L169.671,356.324C162.285,356.324,156.296,350.337,156.296,342.949L156.296,253.987C156.296,244.025,164.372,235.949,174.334,235.949L377.35,235.949C387.313,235.949,395.389,244.025,395.389,253.987" fill="#000000"/>
        <path id="blick" d="M372.17,247.211C379.928,247.211,386.348,253.631,386.348,261.389L386.348,309.539C312.518,300.443,239.489,288.139,166.997,288.941L166.997,261.656C166.997,253.818,173.417,247.479,181.174,247.479Z" fill="#3F3F3F"/>
        <g clip-path="url(#ClipPath-2)" transform="translate(273.267,296.137) translate(-126.797,-60.1875)">
            <rect width="250" height="60.2485" fill="url(#Gradient-3)" stroke="none" clip-path="url(#ClipPath-1)" transform="translate(127.267,156.88) rotate(4) translate(-125.3,-27.6655)" style="animation: a2_t 6s linear infinite both;"/>
        </g>
        <path id="svg" d="M213.06,349.985C196.156,349.985,182.405,336.232,182.405,319.329L199.524,319.329C199.524,326.792,205.596,332.864,213.06,332.864C220.524,332.864,226.595,326.792,226.595,319.329C226.595,311.866,220.524,305.794,213.06,305.794C196.156,305.794,182.405,292.042,182.405,275.137C182.405,258.234,196.156,244.482,213.06,244.482C229.963,244.482,243.715,258.234,243.715,275.137L226.595,275.137C226.595,267.674,220.524,261.602,213.06,261.602C205.596,261.602,199.524,267.674,199.524,275.137C199.524,282.601,205.596,288.672,213.06,288.672C229.963,288.672,243.715,302.424,243.715,319.329C243.715,336.232,229.963,349.985,213.06,349.985M338.085,350.225C321.181,350.225,307.429,336.473,307.429,319.57L307.429,275.379C307.429,258.475,321.181,244.722,338.085,244.722C354.989,244.722,368.741,258.475,368.741,275.379L351.621,275.379C351.621,267.916,345.548,261.843,338.085,261.843C330.622,261.843,324.549,267.916,324.549,275.379L324.549,319.57C324.549,327.033,330.622,333.105,338.085,333.105C345.548,333.105,351.621,327.033,351.621,319.57L351.621,306.035L338.01,306.035L338.01,288.914L368.741,288.914L368.741,319.57C368.741,336.473,354.989,350.225,338.085,350.225M288.602,243.973L306.873,243.973L284.831,350.439L266.506,350.439L244.411,243.973L262.735,243.973L275.682,306.301Z" fill="#FFFFFF" stroke="#000000" stroke-width="3"/>
        <path d="M397.251,13.676C394.368,13.676,391.906,14.674,389.872,16.671L389.872,16.671C387.839,18.668,386.823,21.11,386.823,23.995L386.823,23.995C386.823,26.954,387.823,29.414,389.818,31.373L389.818,31.373C391.815,33.333,394.293,34.313,397.251,34.313L397.251,34.313C400.137,34.313,402.559,33.314,404.52,31.317L404.52,31.317C406.478,29.32,407.461,26.879,407.461,23.995L407.461,23.995C407.461,21.11,406.478,18.668,404.52,16.671L404.52,16.671C402.559,14.674,400.137,13.676,397.251,13.676ZM159.479,13.676C156.596,13.676,154.135,14.674,152.102,16.671L152.102,16.671C150.065,18.668,149.05,21.11,149.05,23.995L149.05,23.995C149.05,26.954,150.049,29.414,152.046,31.373L152.046,31.373C154.044,33.333,156.521,34.313,159.479,34.313L159.479,34.313C162.365,34.313,164.786,33.314,166.747,31.317L166.747,31.317C168.706,29.32,169.688,26.879,169.688,23.995L169.688,23.995C169.688,21.11,168.706,18.668,166.747,16.671L166.747,16.671C164.786,14.674,162.365,13.676,159.479,13.676ZM27.334,30.414L6.253,87.48C5.659,89.105,5.365,90.877,5.365,92.798L5.365,92.798C5.365,95.384,6.178,97.47,7.806,99.058L7.806,99.058C9.432,100.647,11.54,101.441,14.13,101.441L14.13,101.441C18.272,101.441,21.231,98.757,23.007,93.389L23.007,93.389L26.335,83.244L54.962,83.244L57.957,92.729C59.806,98.536,63.06,101.441,67.721,101.441L67.721,101.441C70.235,101.441,72.382,100.664,74.158,99.114L74.158,99.114C75.931,97.564,76.82,95.532,76.82,93.018L76.82,93.018C76.82,91.69,76.376,89.769,75.489,87.257L75.489,87.257L55.072,29.085C52.556,21.994,48.008,18.447,41.425,18.447L41.425,18.447C34.99,18.447,30.292,22.436,27.334,30.414M40.87,38.53L41.092,38.53L49.969,66.934L31.661,66.934ZM353.758,27.667C353.462,29.149,353.314,33.519,353.314,40.777L353.314,40.777C346.138,41.148,342.551,43.815,342.551,48.777L342.551,48.777C342.551,53.963,346.138,56.555,353.314,56.555L353.314,56.555L353.314,88.331C353.314,97.072,356.311,101.441,362.301,101.441L362.301,101.441C368.219,101.441,371.178,97.072,371.178,88.331L371.178,88.331L371.178,56.555C379.833,56.555,384.159,53.963,384.159,48.777L384.159,48.777C384.159,43.445,379.833,40.777,371.178,40.777L371.178,40.777C371.178,33.519,371.03,29.149,370.733,27.667L370.733,27.667C369.625,22.408,366.812,19.778,362.301,19.778L362.301,19.778C357.715,19.778,354.868,22.408,353.758,27.667M424.159,47.351C418.5,53.527,415.671,61.165,415.671,70.262L415.671,70.262C415.671,79.288,418.444,86.833,423.992,92.898L423.992,92.898C429.763,99.185,437.12,102.328,446.073,102.328L446.073,102.328C455.095,102.328,462.454,99.222,468.151,93.008L468.151,93.008C473.625,86.943,476.362,79.361,476.362,70.262L476.362,70.262C476.362,61.092,473.59,53.435,468.04,47.295L468.04,47.295C462.492,41.156,455.171,38.086,446.073,38.086L446.073,38.086C437.12,38.086,429.818,41.176,424.159,47.351M437.085,80.471C435.16,77.66,434.201,74.22,434.201,70.151L434.201,70.151C434.201,66.084,435.125,62.645,436.974,59.833L436.974,59.833C439.118,56.653,442.151,55.062,446.073,55.062L446.073,55.062C449.918,55.062,452.913,56.689,455.06,59.943L455.06,59.943C456.982,62.756,457.944,66.157,457.944,70.151L457.944,70.151C457.944,74.295,457.018,77.735,455.171,80.471L455.171,80.471C453.025,83.726,449.991,85.352,446.073,85.352L446.073,85.352C442.225,85.352,439.23,83.726,437.085,80.471M285.301,48.404C280.268,54.618,277.754,61.904,277.754,70.262L277.754,70.262C277.754,78.547,280.158,85.76,284.966,91.899L284.966,91.899C290.219,98.555,296.876,101.884,304.939,101.884L304.939,101.884C311.299,101.884,316.329,99.629,320.029,95.116L320.029,95.116C321.805,99.333,324.651,101.441,328.573,101.441L328.573,101.441C334.49,101.441,337.448,97.07,337.448,88.325L337.448,88.325L337.448,52.2C337.448,43.531,334.49,39.196,328.573,39.196L328.573,39.196C324.948,39.196,322.098,41.081,320.029,44.854L320.029,44.854C316.404,40.565,311.595,38.419,305.603,38.419L305.603,38.419C297.395,38.419,290.626,41.747,285.301,48.404M299.043,80.026C297.204,77.291,296.285,73.962,296.285,70.04L296.285,70.04C296.285,66.196,297.241,62.903,299.155,60.166L299.155,60.166C301.289,57.134,304.197,55.617,307.879,55.617L307.879,55.617C311.633,55.617,314.54,57.134,316.6,60.166L316.6,60.166C318.368,62.829,319.253,66.121,319.253,70.04L319.253,70.04C319.253,73.962,318.368,77.291,316.6,80.026L316.6,80.026C314.54,83.134,311.633,84.686,307.879,84.686L307.879,84.686C304.124,84.686,301.178,83.134,299.043,80.026M502.991,44.854C500.844,41.081,497.999,39.196,494.448,39.196L494.448,39.196C488.382,39.196,485.349,43.531,485.349,52.2L485.349,52.2L485.349,88.325C485.349,97.07,488.401,101.441,494.504,101.441L494.504,101.441C500.533,101.441,503.546,97.076,503.546,88.347L503.546,88.347L503.546,67.821C503.546,59.019,506.708,54.618,513.034,54.618L513.034,54.618C517.003,54.618,519.69,55.95,521.084,58.612L521.084,58.612C522.115,60.462,522.63,63.605,522.63,68.043L522.63,68.043L522.63,88.347C522.63,97.076,525.625,101.441,531.617,101.441L531.617,101.441C537.609,101.441,540.604,97.07,540.604,88.325L540.604,88.325L540.604,62.537C540.604,46.975,533.318,39.196,518.747,39.196L518.747,39.196C511.646,39.196,506.392,41.081,502.991,44.854M388.266,52.2L388.266,88.325C388.266,97.07,391.26,101.441,397.251,101.441L397.251,101.441C403.168,101.441,406.129,97.07,406.129,88.325L406.129,88.325L406.129,52.2C406.129,43.531,403.168,39.196,397.251,39.196L397.251,39.196C391.26,39.196,388.266,43.531,388.266,52.2M230.934,47.405C226.865,41.933,220.911,39.196,213.072,39.196L213.072,39.196C206.856,39.196,202.087,41.081,198.757,44.854L198.757,44.854C196.611,41.081,193.654,39.196,189.882,39.196L189.882,39.196C184.037,39.196,181.115,43.531,181.115,52.2L181.115,52.2L181.115,88.325C181.115,97.07,184.147,101.441,190.214,101.441L190.214,101.441C196.057,101.441,198.979,97.076,198.979,88.347L198.979,88.347L198.979,67.821C198.979,59.019,202.068,54.618,208.247,54.618L208.247,54.618C213.755,54.618,216.51,59.094,216.51,68.043L216.51,68.043L216.51,88.347C216.51,97.076,219.451,101.441,225.33,101.441L225.33,101.441C231.212,101.441,234.152,97.076,234.152,88.347L234.152,88.347L234.152,67.821C234.152,59.019,237.203,54.618,243.307,54.618L243.307,54.618C248.891,54.618,251.682,59.094,251.682,68.043L251.682,68.043L251.682,88.347C251.682,97.076,254.585,101.441,260.392,101.441L260.392,101.441C266.346,101.441,269.324,97.07,269.324,88.325L269.324,88.325L269.324,62.537C269.324,46.975,262.556,39.196,249.02,39.196L249.02,39.196C241.919,39.196,235.889,41.933,230.934,47.405M150.493,52.2L150.493,88.325C150.493,97.07,153.488,101.441,159.479,101.441L159.479,101.441C165.397,101.441,168.356,97.07,168.356,88.325L168.356,88.325L168.356,52.2C168.356,43.531,165.397,39.196,159.479,39.196L159.479,39.196C153.488,39.196,150.493,43.531,150.493,52.2M100.341,44.854C98.196,41.081,95.349,39.196,91.799,39.196L91.799,39.196C85.731,39.196,82.7,43.531,82.7,52.2L82.7,52.2L82.7,88.325C82.7,97.07,85.751,101.441,91.854,101.441L91.854,101.441C97.882,101.441,100.896,97.076,100.896,88.347L100.896,88.347L100.896,67.821C100.896,59.019,104.059,54.618,110.383,54.618L110.383,54.618C114.353,54.618,117.038,55.95,118.437,58.612L118.437,58.612C119.465,60.462,119.981,63.605,119.981,68.043L119.981,68.043L119.981,88.347C119.981,97.076,122.978,101.441,128.967,101.441L128.967,101.441C134.96,101.441,137.955,97.07,137.955,88.325L137.955,88.325L137.955,62.537C137.955,46.975,130.669,39.196,116.097,39.196L116.097,39.196C108.996,39.196,103.743,41.081,100.341,44.854" fill="url(#Gradient-4)"/>
    </g>
</svg>
