<!-- Generator: Adobe Illustrator 21.1.0, SVG Export Plug-In  -->
<svg version="1.1"
	 xmlns="http://www.w3.org/2000/svg" xmlns:xlink="http://www.w3.org/1999/xlink" xmlns:a="http://ns.adobe.com/AdobeSVGViewerExtensions/3.0/"
	 x="0px" y="0px" width="367.5px" height="177.3px" viewBox="0 0 367.5 177.3" style="enable-background:new 0 0 367.5 177.3;"
	 xml:space="preserve">
<style type="text/css">
	.st0{fill:url(#SVGID_1_);stroke:#BCBEC0;stroke-width:2;stroke-linecap:round;stroke-linejoin:round;stroke-miterlimit:10;}
	.st1{fill:url(#SVGID_2_);stroke:#BCBEC0;stroke-width:2;stroke-linecap:round;stroke-linejoin:round;stroke-miterlimit:10;}
</style>
<defs>
</defs>
<g>
	<g>
		<linearGradient id="SVGID_1_" gradientUnits="userSpaceOnUse" x1="183.7612" y1="176.3438" x2="183.7612" y2="1">
			<stop  offset="0" style="stop-color:#E8E9EA"/>
			<stop  offset="0.2545" style="stop-color:#FFFFFF"/>
		</linearGradient>
		<path class="st0" d="M354.3,1.4c0,10.7-82.4,29.4-170.5,29.4C95.7,30.8,14.2,12.1,14.2,1.4c0-0.1,0-0.3,0-0.4
			C5.7,22.8,4.7,32.1,1,48.3c23.5,5.3,111.1,31.2,169.8,127.2c4.6,1.1,21.4,1.1,26,0C220.4,107.1,343,53.6,366.5,48.3
			c-5-20.6-5.4-31.7-12.3-47.3C354.3,1.1,354.3,1.3,354.3,1.4z"/>
	</g>
</g>
</svg>
