<!-- Generator: Adobe Illustrator 21.1.0, SVG Export Plug-In  -->
<svg version="1.1"
	 xmlns="http://www.w3.org/2000/svg" xmlns:xlink="http://www.w3.org/1999/xlink" xmlns:a="http://ns.adobe.com/AdobeSVGViewerExtensions/3.0/"
	 x="0px" y="0px" width="553.1px" height="138.9px" viewBox="0 0 553.1 138.9" style="enable-background:new 0 0 553.1 138.9;"
	 xml:space="preserve">
<style type="text/css">
	.st0{fill:#FFFFFF;}
</style>
<defs>
</defs>
<g id="MOON_1_">
	<path id="M_1_" class="st0" d="M0,135.5C6.9,90.8,13.5,47.3,20.2,3.9c0.1-0.4,0.3-0.7,0.7-1.4c8,0,16.3,0,25,0
		c9.8,16,19.8,32.4,30.1,49.2C91.5,35,106.5,18.6,121.4,2.4c8.5,0,16.5,0,25.4,0c-6.9,44.7-13.7,89.1-20.6,133.8
		c-9.7,0-19.1,0-29.3,0c4.1-27.2,8.3-54.3,12.7-83.1C93.5,65.2,78.6,76.3,63.3,87.8c-6.9-11.4-13.7-22.5-21.2-34.9
		c-3.1,20.1-6,38.7-9,57.7C22.5,118.6,11.8,126.6,0,135.5z"/>
	<path id="O_3_" class="st0" d="M278.8,50.4C277,26.2,258.4,5.6,235.4,1.3C179.6-9,136.5,43.8,143.6,91.8
		c3.9,26.1,23,44.2,49.1,46.8c45.3,4.5,86.1-33.2,86.2-80C278.8,55.8,279,53.1,278.8,50.4z M235.5,96.9c-6.6,7.5-15,12-24.9,13.4
		c-22.1,3.1-37.4-10.2-37.2-35.4c1-16.5,7.5-32.9,25.8-42.4c22.1-11.5,46-1,49.1,22C250.3,70.2,246.3,84.8,235.5,96.9z"/>
	<path id="O_2_" class="st0" d="M359.8,0.2c-46.1-1.5-85,45.3-78.4,91.2c3.8,26.7,23.2,44.8,49.9,47.2c43.6,4,82-30.3,85.7-76.3
		C419.8,26.9,395.2,0.2,359.8,0.2z M376.2,93.3c-10.2,14.6-25,20-42.6,16.2c-14.4-3-22.6-15.1-22.4-35.2c1-16.2,7.8-32.5,26-41.9
		c16.7-8.6,37.4-4.2,44.8,10.3C391.1,60.4,387.1,77.8,376.2,93.3z"/>
	<path id="N_1_" class="st0" d="M443,136.3c-10,0-19.4,0-29.3,0c6.9-44.7,13.7-89,20.5-133.7c8.9,0,17.7,0,27.1,0
		c16.1,26.4,32.5,53.3,49.8,81.6c4.4-28.1,8.5-54.8,12.6-81.6c9.9,0,19.4,0,29.4,0c-6.9,44.8-13.7,89.1-20.6,133.7
		c-8.4,0-16.6,0-25,0c-16.8-27.9-33.6-55.9-51.4-85.4C451.7,80.4,447.4,108.2,443,136.3z"/>
</g>
</svg>
