<!-- Generator: Adobe Illustrator 21.1.0, SVG Export Plug-In  -->
<svg version="1.1"
	 xmlns="http://www.w3.org/2000/svg" xmlns:xlink="http://www.w3.org/1999/xlink" xmlns:a="http://ns.adobe.com/AdobeSVGViewerExtensions/3.0/"
	 x="0px" y="0px" width="251.3px" height="42.7px" viewBox="0 0 251.3 42.7" style="enable-background:new 0 0 251.3 42.7;"
	 xml:space="preserve">
<style type="text/css">
	.st0{fill:url(#SVGID_1_);}
	.st1{fill:url(#SVGID_2_);}
	.st2{fill:url(#SVGID_3_);}
	.st3{fill:url(#SVGID_4_);}
	.st4{fill:url(#SVGID_5_);}
	.st5{fill:url(#SVGID_6_);}
	.st6{fill:url(#SVGID_7_);}
	.st7{fill:url(#SVGID_8_);}
	.st8{fill:url(#SVGID_9_);}
	.st9{fill:url(#SVGID_10_);}
	.st10{fill:url(#SVGID_11_);}
	.st11{fill:url(#SVGID_12_);}
	.st12{fill:url(#SVGID_13_);}
	.st13{fill:url(#SVGID_14_);}
	.st14{fill:url(#SVGID_15_);}
	.st15{fill:url(#SVGID_16_);}
	.st16{fill:url(#SVGID_17_);}
	.st17{fill:url(#SVGID_18_);}
	.st18{fill:url(#SVGID_19_);}
	.st19{fill:url(#SVGID_20_);}
	.st20{fill:url(#SVGID_21_);}
	.st21{fill:url(#SVGID_22_);}
	.st22{fill:url(#SVGID_23_);}
	.st23{fill:url(#SVGID_24_);}
	.st24{fill:url(#SVGID_25_);}
	.st25{fill:url(#SVGID_26_);}
	.st26{fill:url(#SVGID_27_);}
	.st27{fill:url(#SVGID_28_);}
	.st28{fill:url(#SVGID_29_);}
	.st29{fill:url(#SVGID_30_);}
	.st30{fill:url(#SVGID_31_);}
	.st31{fill:url(#SVGID_32_);}
	.st32{fill:url(#SVGID_33_);}
	.st33{fill:url(#SVGID_34_);}
	.st34{fill:url(#SVGID_35_);}
	.st35{fill:url(#SVGID_36_);}
	.st36{fill:url(#SVGID_37_);}
	.st37{fill:url(#SVGID_38_);}
	.st38{fill:url(#SVGID_39_);}
	.st39{fill:url(#SVGID_40_);}
	.st40{fill:url(#SVGID_41_);}
	.st41{fill:url(#SVGID_42_);}
	.st42{fill:url(#SVGID_43_);}
	.st43{fill:url(#SVGID_44_);}
	.st44{fill:url(#SVGID_45_);}
	.st45{fill:url(#SVGID_46_);}
	.st46{fill:url(#SVGID_47_);}
	.st47{fill:url(#SVGID_48_);}
</style>
<defs>
</defs>
<g>
	<g>
		<g>
			<linearGradient id="SVGID_1_" gradientUnits="userSpaceOnUse" x1="0" y1="21.9603" x2="37.1179" y2="21.9603">
				<stop  offset="0" style="stop-color:#A76F3C"/>
				<stop  offset="0.321" style="stop-color:#CA915D"/>
				<stop  offset="0.5027" style="stop-color:#DDA46F"/>
				<stop  offset="0.6305" style="stop-color:#D29965"/>
				<stop  offset="0.8396" style="stop-color:#BB824F"/>
				<stop  offset="1" style="stop-color:#A76F3C"/>
			</linearGradient>
			<path class="st0" d="M28.6,1.9c0.4,0,0.6,0,1,0c0,4,0,8,0,12c-0.3,0-0.6,0-1,0.1c-0.1-0.6-0.3-1.2-0.4-1.8
				c-0.7-2.9-1.9-5.4-4.2-7.3c-2.3-1.8-5-2.4-7.8-2c-2.2,0.3-3.7,1.7-4.9,3.6c-1.4,2.4-2,5-2.4,7.7C8.3,19.6,8.3,25,9,30.4
				c0.2,1.9,0.7,3.9,1.4,5.7c1.1,3.2,3.4,5.1,6.9,5c1.6,0,3.2-0.2,4.7-0.6c1.9-0.5,2.9-1.8,2.9-3.8c0.1-2.4,0.1-4.8,0-7.3
				c0-1.8-0.5-2.2-2.3-2.3c-0.8,0-1.7,0-2.6,0c0-0.6,0-0.9,0-1.4c5.6,0,11.2,0,17,0c0,0.4,0.1,0.8,0.2,1.2c-0.2,0.1-0.4,0.2-0.5,0.2
				c-0.9,0-1.8,0-2.7,0.1c-1.2,0.1-1.5,0.5-1.7,1.7c-0.1,0.5-0.1,1.1-0.1,1.6c0,3.5,0,7,0,10.5c0,0.5,0,1,0,1.7
				c-0.6-0.1-1.1,0-1.4-0.2c-2.3-1.8-4.8-1.5-7.3-0.8c-0.9,0.2-1.8,0.5-2.7,0.7C17,43,13.3,42.7,9.8,41.2C6,39.5,3.4,36.5,2,32.6
				c-2.5-7-2.7-14.1,0-21.2c3-7.9,12-12,19.8-9.4C23,2.4,24.2,3,25.5,3.4C27.4,4,27.7,3.9,28.6,1.9z"/>
			<linearGradient id="SVGID_2_" gradientUnits="userSpaceOnUse" x1="86.2" y1="22.0751" x2="124.3342" y2="22.0751">
				<stop  offset="0" style="stop-color:#A76F3C"/>
				<stop  offset="0.321" style="stop-color:#CA915D"/>
				<stop  offset="0.5027" style="stop-color:#DDA46F"/>
				<stop  offset="0.6305" style="stop-color:#D29965"/>
				<stop  offset="0.8396" style="stop-color:#BB824F"/>
				<stop  offset="1" style="stop-color:#A76F3C"/>
			</linearGradient>
			<path class="st1" d="M93.2,7.5c0,0.5-0.1,0.9-0.1,1.4c0,9.4,0,18.9,0,28.3c0,0.5,0,1,0.1,1.5c0.1,1.5,0.5,1.9,2,2
				c0.4,0,0.9,0,1.3,0c0.4,0,0.9,0,1.5,0c0,0.5,0,0.9,0.1,1.4c-3.9,0-7.8,0-11.7,0c0-0.4-0.1-0.8-0.2-1.4c1,0,1.9,0,2.8,0
				c1.8-0.1,2.2-0.5,2.3-2.2c0-0.7,0-1.5,0-2.2c0-9.7,0-19.5,0-29.2c0-0.6,0-1.2-0.1-1.8c-0.1-1.4-0.6-1.8-2-1.9c-0.9,0-1.9,0-2.9,0
				c0-0.5,0-1,0-1.4c4,0,8,0,12.1,0c6.2,8.9,12.5,17.9,19,27.1c0.1-0.6,0.2-0.9,0.2-1.2c0-7.3,0-14.6,0-21.9c0-2.1-0.5-2.6-2.7-2.6
				c-0.7,0-1.5,0-2.3,0c-0.1-0.5-0.1-0.9-0.1-1.4c4,0,7.8,0,11.8,0c0,0.4,0,0.8,0,1.4c-1,0-1.8,0-2.7,0c-1.5,0-1.9,0.4-2.1,1.9
				c-0.1,0.6-0.1,1.3-0.1,1.9c0,11.1,0,22.2,0,33.3c0,0.5,0,1,0,1.6c-0.6,0-1.1,0.1-1.6,0.1C109.7,30.6,101.6,19,93.5,7.4
				C93.4,7.4,93.3,7.4,93.2,7.5z"/>
			<linearGradient id="SVGID_3_" gradientUnits="userSpaceOnUse" x1="134.26" y1="22.023" x2="167.0943" y2="22.023">
				<stop  offset="0" style="stop-color:#A76F3C"/>
				<stop  offset="0.321" style="stop-color:#CA915D"/>
				<stop  offset="0.5027" style="stop-color:#DDA46F"/>
				<stop  offset="0.6305" style="stop-color:#D29965"/>
				<stop  offset="0.8396" style="stop-color:#BB824F"/>
				<stop  offset="1" style="stop-color:#A76F3C"/>
			</linearGradient>
			<path class="st2" d="M134.4,1.9c10.4,0,20.7,0,31.2,0c0.2,3.2,0.4,6.2,0.6,9.2c-0.2,0.2-0.3,0.3-0.4,0.3c-0.3,0-0.7,0-0.9,0
				c-0.4-1.5-0.7-2.9-1.2-4.2c-1-2.6-2.8-4-5.8-3.9c-3.2,0.1-6.4,0-9.6,0c-0.5,0-1,0-1.4,0c-0.4,1.1-0.5,15.5-0.1,17.8
				c2,0,4,0.2,5.9-0.3c1.6-0.4,2.5-1.5,2.8-3.1c0.1-0.4,0.2-0.8,0.3-1.3c0.4,0,0.9,0,1.3,0.1c0,3.6,0,7.1,0,10.7
				c-0.4,0-0.9,0.1-1.3,0.1c-0.1-0.3-0.2-0.5-0.2-0.6c-0.6-2.9-1.8-3.9-4.7-4c-1.4,0-2.7,0-4.2,0c0,6,0,11.8,0,17.8
				c0.4,0,0.8,0.1,1.2,0.1c3.7,0,7.4,0,11.1,0c2.6,0,4.5-1.2,5.5-3.5c0.6-1.4,0.9-3,1.4-4.6c0.3,0,0.7,0,1.3,0
				c-0.2,3.2-0.4,6.3-0.6,9.5c-10.8,0-21.4,0-32.2,0c0-0.4-0.1-0.8-0.1-1.2c0.2-0.1,0.3-0.2,0.5-0.2c0.9,0,1.8,0,2.7-0.1
				c1.3-0.1,1.6-0.5,1.8-1.8c0-0.5,0.1-1.1,0.1-1.6c0-10.2,0-20.3,0-30.5c0-3-0.3-3.5-3.4-3.4c-0.4,0-0.9,0-1.4,0
				C134.4,2.8,134.4,2.4,134.4,1.9z"/>
			<linearGradient id="SVGID_4_" gradientUnits="userSpaceOnUse" x1="44.1265" y1="22.0145" x2="77.0651" y2="22.0145">
				<stop  offset="0" style="stop-color:#A76F3C"/>
				<stop  offset="0.321" style="stop-color:#CA915D"/>
				<stop  offset="0.5027" style="stop-color:#DDA46F"/>
				<stop  offset="0.6305" style="stop-color:#D29965"/>
				<stop  offset="0.8396" style="stop-color:#BB824F"/>
				<stop  offset="1" style="stop-color:#A76F3C"/>
			</linearGradient>
			<path class="st3" d="M44.1,1.9c10.6,0,20.9,0,31.4,0c0.2,3.1,0.4,6.2,0.6,9.4c-0.6,0-1,0.1-1.3,0.1c-0.5-1.6-0.9-3.2-1.5-4.6
				c-1-2.4-2.8-3.6-5.4-3.5c-3.3,0.1-6.5,0-9.8,0c-0.5,0-1,0-1.4,0c-0.4,1.1-0.5,15.7-0.1,17.8c1.9,0,3.8,0.2,5.7-0.2
				c1.8-0.4,2.9-1.6,3.1-3.5c0-0.2,0.1-0.5,0.1-0.9c0.4,0,0.8-0.1,1.4-0.2c0,3.7,0,7.2,0,10.8c-0.4,0-0.8,0.1-1.2,0.1
				c-0.1-0.3-0.2-0.4-0.2-0.6c-0.1-2.5-1.8-4-4.5-4.1c-1.4,0-2.8,0-4.2,0c-0.4,1.2-0.4,16.4-0.1,17.9c0.4,0,0.9,0,1.4,0
				c3.4,0,6.7-0.1,10.1,0c3.7,0.2,5.6-1.6,6.8-5.1c0.3-0.9,0.4-1.9,0.7-3c0.3,0,0.7,0,1.4-0.1c-0.2,3.3-0.4,6.4-0.5,9.6
				c-10.8,0-21.5,0-32.2,0c0-0.2-0.1-0.4-0.1-0.6c0-0.2,0-0.4,0.1-0.8c0.9,0,1.9,0,2.8,0c1.6-0.1,2.1-0.5,2.1-2.2c0-1,0-2.1,0-3.1
				c0-9.6,0-19.2,0-28.7c0-2.9-0.3-3.2-3.2-3.3c-0.5,0-1.1,0-1.7,0C44.2,2.9,44.2,2.5,44.1,1.9z"/>
			<linearGradient id="SVGID_5_" gradientUnits="userSpaceOnUse" x1="208.3178" y1="21.0653" x2="251.2538" y2="21.0653">
				<stop  offset="0" style="stop-color:#A76F3C"/>
				<stop  offset="0.321" style="stop-color:#CA915D"/>
				<stop  offset="0.5027" style="stop-color:#DDA46F"/>
				<stop  offset="0.6305" style="stop-color:#D29965"/>
				<stop  offset="0.8396" style="stop-color:#BB824F"/>
				<stop  offset="1" style="stop-color:#A76F3C"/>
			</linearGradient>
			<path class="st4" d="M226.3,2c1.3-0.2,2.5-0.3,3.6-0.6c1-0.3,2-0.8,3.2-1.3c0.6,1.6,1.1,3.1,1.6,4.5c3.7,10.9,7.5,21.8,11.2,32.7
				c0.2,0.5,0.3,0.9,0.5,1.4c0.5,1.3,1.5,1.9,2.8,2c0.6,0,1.3,0.1,2,0.1c0,0.5,0,0.9-0.1,1.4c-5.7,0-11.3,0-17,0
				c0-0.4-0.1-0.8-0.1-1.2c0.2-0.1,0.4-0.2,0.5-0.2c0.8-0.1,1.7,0,2.5-0.2c1.3-0.2,1.9-0.9,1.5-2.2c-0.8-2.6-1.7-5.1-2.5-7.7
				c-6.1,0-12.1,0-18.2,0c-0.9,2.6-1.8,5.3-2.6,8c-0.3,1,0.3,1.7,1.5,2c0.4,0.1,0.9,0.1,1.3,0.1c0.4,0,0.9,0,1.5,0
				c0,0.5,0.1,0.9,0.1,1.4c-3.8,0-7.5,0-11.2,0c0-0.4-0.1-0.8-0.1-1.3c0.6,0,1-0.1,1.5-0.1c2.3-0.1,2.8-0.4,3.6-2.6
				c2.8-7.9,5.6-15.8,8.4-23.7c1.3-3.7,2.6-7.4,4-11.1C226,2.8,226.2,2.4,226.3,2z M227.3,5.5c-0.1,0-0.2,0-0.4,0
				c-2.8,7.8-5.7,15.5-8.3,23.4c2.1,0.4,15.7,0.3,16.8-0.1C232.7,21,230,13.2,227.3,5.5z"/>
			<linearGradient id="SVGID_6_" gradientUnits="userSpaceOnUse" x1="172.8252" y1="22.0571" x2="211.4174" y2="22.0571">
				<stop  offset="0" style="stop-color:#A76F3C"/>
				<stop  offset="0.321" style="stop-color:#CA915D"/>
				<stop  offset="0.5027" style="stop-color:#DDA46F"/>
				<stop  offset="0.6305" style="stop-color:#D29965"/>
				<stop  offset="0.8396" style="stop-color:#BB824F"/>
				<stop  offset="1" style="stop-color:#A76F3C"/>
			</linearGradient>
			<path class="st5" d="M173,3.4c-0.1-0.4-0.1-0.5-0.1-0.7c0-0.2,0-0.4,0.1-0.7c5,0,9.9,0,14.9,0c0.1,0.2,0.1,0.3,0.2,0.4
				c0,0.2,0,0.5-0.1,0.9c-0.4,0-0.9,0.1-1.3,0.1c-1.7,0.1-2.1,0.7-1.6,2.3c1.3,3.8,2.7,7.6,4.1,11.4c1.7,4.5,3.4,9.1,5,13.6
				c0.1,0.4,0.3,0.7,0.5,1.1c1.1-1.5,9.7-26.1,9.6-27.7c-1.2-1.2-2.9-0.4-4.4-0.8c-0.1-0.2-0.2-0.4-0.2-0.6c0-0.2,0-0.4,0.1-0.7
				c3.9,0,7.8,0,11.6,0c0.1,0.2,0.1,0.3,0.1,0.5c0,0.2,0,0.5-0.1,0.9c-0.5,0-1.1,0-1.6,0c-1.9-0.1-3.2,0.8-3.8,2.6
				c-0.7,2-1.4,4-2.2,6c-3.4,9.5-6.8,19-10.2,28.6c-0.2,0.6-0.4,1.1-0.6,1.7c-0.8,0-1.5,0-2.4,0c-0.6-1.5-1.2-3-1.7-4.6
				c-3.9-10.7-7.8-21.5-11.7-32.2c-0.6-1.6-1-1.9-2.7-2C174,3.4,173.5,3.4,173,3.4z"/>
		</g>
		<g>
			
				<linearGradient id="SVGID_7_" gradientUnits="userSpaceOnUse" x1="0.245" y1="21.9868" x2="251.0821" y2="21.9868" gradientTransform="matrix(1 0 0 1 -0.1417 -0.1417)">
				<stop  offset="0" style="stop-color:#A76F3C"/>
				<stop  offset="0.321" style="stop-color:#CA915D"/>
				<stop  offset="0.5027" style="stop-color:#DDA46F"/>
				<stop  offset="0.6305" style="stop-color:#D29965"/>
				<stop  offset="0.8396" style="stop-color:#BB824F"/>
				<stop  offset="1" style="stop-color:#A76F3C"/>
			</linearGradient>
			<path class="st6" d="M31.8,42.4c-0.1,0-0.2,0-0.3,0c-0.3,0-0.6,0-0.7-0.1c-1.2-0.9-2.5-1.4-4.1-1.4c-1.2,0-2.5,0.3-3.4,0.5
				c-0.2,0.1-0.5,0.1-0.7,0.2c-0.6,0.2-1.3,0.4-2,0.5c-1.3,0.2-2.5,0.3-3.6,0.3c-2.5,0-4.9-0.5-7.1-1.5c-3.7-1.7-6.3-4.5-7.8-8.5
				c-2.6-7.2-2.6-14.3,0-21c2.3-6,8.3-10.1,14.8-10.1c1.6,0,3.2,0.3,4.7,0.8c0.6,0.2,1.2,0.5,1.8,0.7C24,3,24.6,3.3,25.3,3.5
				c0.6,0.2,1.1,0.3,1.5,0.3c0.9,0,1.2-0.6,1.8-1.8h0.7v11.7l-0.7,0l-0.1-0.4c-0.1-0.4-0.2-0.8-0.3-1.2c-0.8-3.3-2.1-5.7-4.3-7.4
				c-1.8-1.4-3.9-2.2-6.3-2.2c-0.6,0-1.1,0-1.7,0.1c-2,0.3-3.7,1.5-5,3.7c-1.6,2.6-2.1,5.5-2.4,7.8C8,19.3,8,24.8,8.7,30.4
				c0.2,1.8,0.7,3.8,1.4,5.8c1.2,3.4,3.6,5.1,6.9,5.1l0.2,0c1.6,0,3.2-0.2,4.7-0.6c2-0.5,3-1.9,3.1-4c0.1-2.4,0.1-4.8,0-7.3
				c0-1.9-0.6-2.4-2.5-2.5c-0.3,0-0.6,0-0.9,0c-0.3,0-1.2,0-1.4,0v-1h16.6l0.1,0.8c0,0-0.1,0-0.1,0c-0.1,0-0.2,0.1-0.2,0.1
				c-0.3,0-0.6,0-1,0c-0.6,0-1.1,0-1.7,0.1c-1.3,0.2-1.7,0.5-1.9,1.8c-0.1,0.6-0.1,1.2-0.1,1.7c0,2.6,0,5.3,0,7.9L31.8,42.4z"/>
			
				<linearGradient id="SVGID_8_" gradientUnits="userSpaceOnUse" x1="0.245" y1="22.1123" x2="251.0821" y2="22.1123" gradientTransform="matrix(1 0 0 1 -0.1417 -0.1417)">
				<stop  offset="0" style="stop-color:#A76F3C"/>
				<stop  offset="0.321" style="stop-color:#CA915D"/>
				<stop  offset="0.5027" style="stop-color:#DDA46F"/>
				<stop  offset="0.6305" style="stop-color:#D29965"/>
				<stop  offset="0.8396" style="stop-color:#BB824F"/>
				<stop  offset="1" style="stop-color:#A76F3C"/>
			</linearGradient>
			<path class="st7" d="M93.6,7.2c0-0.1-0.1-0.1-0.2-0.1c0,0,0,0-0.1,0l-0.3,0.1c-0.1,0-0.1,0.1-0.2,0.2l0,0.4c0,0.3,0,0.6,0,1
				c0,9.4,0,18.9,0,28.3c0,0.6,0,1.1,0.1,1.5c0.1,1.6,0.6,2,2.2,2.2c0.4,0,0.7,0,1.1,0c0,0,0.6,0,0.8,0l0.7,0l0.1,1H86.4l-0.1-1
				c0.2,0,1.3,0,1.5,0c0.3,0,0.7,0,1,0c1.9-0.1,2.4-0.6,2.5-2.4c0-0.6,0-1.3,0-1.9l0-0.3c0-9.7,0-19.5,0-29.2c0-0.5,0-1.2-0.1-1.8
				c-0.1-1.5-0.7-2-2.2-2.1c-0.4,0-0.7,0-1.1,0c-0.3,0-1.4,0-1.6,0V2h11.8l18.9,27c0,0.1,0.1,0.1,0.2,0.1c0,0,0,0,0,0
				c0.1,0,0.1-0.1,0.2-0.2c0-0.2,0.1-0.4,0.1-0.6c0.1-0.3,0.1-0.5,0.1-0.7l0-2.4c0-6.5,0-13,0-19.5c0-2.2-0.5-2.8-2.9-2.8l-2.1,0
				l-0.1-1H124v1l-1.5,0c-0.3,0-0.7,0-1,0c-1.6,0-2.1,0.5-2.3,2.1c-0.1,0.7-0.1,1.3-0.1,1.9c0,8.6,0,34.7,0,34.7l-1.3,0.1L93.6,7.2z
				"/>
			
				<linearGradient id="SVGID_9_" gradientUnits="userSpaceOnUse" x1="0.245" y1="22.0632" x2="251.0821" y2="22.0632" gradientTransform="matrix(1 0 0 1 -0.1417 -0.1417)">
				<stop  offset="0" style="stop-color:#A76F3C"/>
				<stop  offset="0.321" style="stop-color:#CA915D"/>
				<stop  offset="0.5027" style="stop-color:#DDA46F"/>
				<stop  offset="0.6305" style="stop-color:#D29965"/>
				<stop  offset="0.8396" style="stop-color:#BB824F"/>
				<stop  offset="1" style="stop-color:#A76F3C"/>
			</linearGradient>
			<path class="st8" d="M134.5,41.8l-0.1-0.8c0,0,0,0,0.1,0c0.1,0,0.1-0.1,0.2-0.1c0.3,0,0.7,0,1,0c0.5,0,1.1,0,1.6-0.1
				c1.3-0.1,1.8-0.6,1.9-1.9c0-0.5,0.1-1.1,0.1-1.6l0-9.7c0-6.9,0-13.9,0-20.8c0-1.6-0.1-2.5-0.6-3c-0.4-0.4-1-0.6-2.2-0.6
				c-0.2,0-0.5,0-0.8,0c-0.2,0-0.3,0-0.5,0l-0.8,0V2h30.8l0.6,8.9c0,0-0.1,0.1-0.1,0.1c0,0-0.1,0.1-0.1,0.1c0,0-0.7,0-0.7,0
				c-0.1-0.4-0.2-0.8-0.3-1.2c-0.3-1-0.5-1.9-0.8-2.8c-1-2.7-2.9-4-5.6-4c-0.1,0-0.2,0-0.3,0c-1.1,0-2.3,0.1-3.8,0.1c-1,0-2,0-2.9,0
				c-1,0-1.9,0-2.9,0h-1.4c-0.1,0-0.2,0.1-0.2,0.1c-0.4,1.1-0.5,15.5-0.1,17.9c0,0.1,0.1,0.2,0.2,0.2c0,0,0.3,0,0.5,0
				c0.4,0,0.8,0,1.2,0c0.4,0,0.8,0,1.2,0c0.8,0,2,0,3.1-0.3c1.6-0.4,2.6-1.6,3-3.3l0.2-1.1l1,0.1V27l-0.9,0.1l0-0.1
				c0-0.1-0.1-0.2-0.1-0.4c-0.6-3-1.9-4.1-4.9-4.2c-0.5,0-1,0-1.6,0c-0.4,0-2.2,0-2.7,0c-0.1,0-0.2,0.1-0.2,0.2v17.8
				c0,0.1,0.1,0.2,0.2,0.2c0.1,0,0.2,0,0.4,0.1c0.3,0,0.5,0.1,0.8,0.1c0,0,6,0,7,0c1.4,0,2.7,0,4.1,0l0.1,0c2.6,0,4.5-1.2,5.6-3.7
				c0.4-1,0.7-2,1-3.1c0.1-0.4,0.3-0.9,0.4-1.4h0.9l-0.5,9.1H134.5z"/>
			
				<linearGradient id="SVGID_10_" gradientUnits="userSpaceOnUse" x1="0.245" y1="22.0546" x2="251.0821" y2="22.0546" gradientTransform="matrix(1 0 0 1 -0.1417 -0.1417)">
				<stop  offset="0" style="stop-color:#A76F3C"/>
				<stop  offset="0.321" style="stop-color:#CA915D"/>
				<stop  offset="0.5027" style="stop-color:#DDA46F"/>
				<stop  offset="0.6305" style="stop-color:#D29965"/>
				<stop  offset="0.8396" style="stop-color:#BB824F"/>
				<stop  offset="1" style="stop-color:#A76F3C"/>
			</linearGradient>
			<path class="st9" d="M44.3,41.8L44.3,41.8c0-0.2-0.1-0.3-0.1-0.4c0-0.1,0-0.2,0-0.4c0-0.1,0-0.1,0-0.2c0.2,0,1.3,0,1.5,0
				c0.4,0,0.7,0,1.1,0c1.7-0.1,2.3-0.6,2.3-2.4c0-0.8,0-1.6,0-2.4l0-3.1c0-8.8,0-17.6,0-26.3c0-3-0.4-3.5-3.4-3.5l-1.5,0l-0.1-1h31
				l0.6,9L75,11.1c-0.1-0.5-0.3-0.9-0.4-1.4c-0.3-1.1-0.6-2.1-1-3.1c-1-2.4-2.8-3.6-5.4-3.6l-0.2,0c-1.2,0-2.4,0-3.9,0
				c-1,0-1.9,0-2.9,0c-1,0-1.9,0-2.9,0h-1.5c-0.1,0-0.2,0.1-0.2,0.1C56.1,4.4,56,19,56.4,21.1c0,0.1,0.1,0.2,0.2,0.2l0.4,0
				c0.4,0,0.8,0,1.3,0c0.4,0,0.9,0,1.3,0c0.8,0,1.8,0,2.8-0.3c1.9-0.5,3.1-1.7,3.3-3.7c0-0.2,0-0.3,0.1-0.5l0-0.2l1-0.1V27l-0.9,0.1
				c0,0,0-0.1,0-0.1c-0.1-0.1-0.1-0.2-0.1-0.3c-0.1-2.6-1.9-4.2-4.7-4.3c-0.5,0-1.1,0-1.6,0l-2.6,0c-0.1,0-0.2,0.1-0.2,0.1
				c-0.4,1.3-0.4,16.4-0.1,18c0,0.1,0.1,0.2,0.2,0.2H58c1.1,0,2.1,0,3.1,0c1,0,2,0,3,0c1.5,0,2.8,0,3.9,0.1c0.2,0,0.3,0,0.5,0
				c3.3,0,5.3-1.6,6.5-5.3c0.2-0.6,0.3-1.3,0.5-2c0.1-0.3,0.1-0.6,0.2-0.9l1-0.1l-0.5,9.2H44.3z"/>
			
				<linearGradient id="SVGID_11_" gradientUnits="userSpaceOnUse" x1="0.245" y1="21.1406" x2="251.0821" y2="21.1406" gradientTransform="matrix(1 0 0 1 -0.1417 -0.1417)">
				<stop  offset="0" style="stop-color:#A76F3C"/>
				<stop  offset="0.321" style="stop-color:#CA915D"/>
				<stop  offset="0.5027" style="stop-color:#DDA46F"/>
				<stop  offset="0.6305" style="stop-color:#D29965"/>
				<stop  offset="0.8396" style="stop-color:#BB824F"/>
				<stop  offset="1" style="stop-color:#A76F3C"/>
			</linearGradient>
			<path class="st10" d="M234.3,41.8l-0.1-0.9c0,0,0.1,0,0.1,0c0.1,0,0.2-0.1,0.2-0.1c0.3,0,0.6,0,0.9,0c0.5,0,1.1,0,1.6-0.1
				c0.8-0.1,1.3-0.4,1.5-0.8c0.3-0.4,0.3-1,0.1-1.6c-0.6-1.8-1.2-3.7-1.8-5.5c-0.3-0.7-0.5-1.5-0.8-2.3c0-0.1-0.1-0.1-0.2-0.1h-18.2
				c-0.1,0-0.2,0.1-0.2,0.1c-0.2,0.7-0.5,1.5-0.7,2.2c-0.6,1.9-1.3,3.8-1.8,5.7c-0.1,0.5-0.1,0.9,0.1,1.3c0.3,0.5,0.8,0.8,1.5,1
				c0.4,0.1,0.8,0.1,1.2,0.1l0.2,0c0.2,0,0.3,0,0.5,0l0.8,0l0.1,1h-10.8l-0.1-0.9l0.3,0c0.3,0,0.7-0.1,1-0.1c2.4-0.1,3-0.5,3.8-2.7
				c1.9-5.3,3.8-10.6,5.7-15.9l2.8-7.7c1.3-3.7,2.6-7.4,4-11.1c0.1-0.3,0.2-0.6,0.4-0.9l0.1-0.3c0.4-0.1,0.8-0.1,1.1-0.2
				c0.8-0.1,1.6-0.2,2.4-0.4c0.7-0.2,1.4-0.5,2.2-0.9c0.3-0.1,0.5-0.3,0.8-0.4l0.5,1.3c0.4,1,0.7,2,1,3c2.2,6.3,4.3,12.7,6.5,19
				l4.7,13.7c0.2,0.5,0.3,0.9,0.5,1.4c0.6,1.3,1.6,2.1,3,2.1c0.4,0,0.9,0,1.3,0.1l0.5,0l0,1H234.3z M226.8,5.2
				c-0.1,0-0.2,0.1-0.2,0.1c-0.8,2.3-1.6,4.5-2.4,6.8c-2,5.4-4,11.1-5.9,16.6c0,0.1,0,0.1,0,0.2c0,0.1,0.1,0.1,0.1,0.1
				c0.8,0.1,3.5,0.2,7.1,0.2h0c3.5,0,9-0.1,9.7-0.4c0.1,0,0.2-0.2,0.1-0.3l-8.1-23.3c0-0.1-0.1-0.1-0.2-0.1L226.8,5.2z"/>
			
				<linearGradient id="SVGID_12_" gradientUnits="userSpaceOnUse" x1="0.245" y1="22.0973" x2="251.0821" y2="22.0973" gradientTransform="matrix(1 0 0 1 -0.1417 -0.1417)">
				<stop  offset="0" style="stop-color:#A76F3C"/>
				<stop  offset="0.321" style="stop-color:#CA915D"/>
				<stop  offset="0.5027" style="stop-color:#DDA46F"/>
				<stop  offset="0.6305" style="stop-color:#D29965"/>
				<stop  offset="0.8396" style="stop-color:#BB824F"/>
				<stop  offset="1" style="stop-color:#A76F3C"/>
			</linearGradient>
			<path class="st11" d="M190.6,41.8l-0.5-1.3c-0.4-1-0.8-2.1-1.2-3.1c-2.4-6.7-11.7-32.2-11.7-32.2c-0.6-1.7-1.1-2-2.9-2.1
				c-0.2,0-0.3,0-0.5,0l-0.8,0c0-0.1,0-0.1,0-0.2c0-0.2-0.1-0.3-0.1-0.4c0-0.1,0-0.2,0-0.4c0,0,0-0.1,0-0.1h14.6c0,0,0,0,0,0
				c0,0.1,0.1,0.2,0.1,0.2c0,0.2,0,0.3,0,0.5l0,0.2l-0.2,0c-0.3,0-0.6,0.1-0.9,0.1c-1,0.1-1.5,0.3-1.8,0.7c-0.3,0.4-0.3,1,0,1.8
				c1.4,4.1,2.8,8.1,4.1,11.4c1.3,3.4,2.5,6.9,3.8,10.3l1.2,3.3c0.1,0.3,0.2,0.5,0.3,0.8l0.2,0.4c0,0.1,0.1,0.1,0.2,0.1c0,0,0,0,0,0
				c0.1,0,0.1,0,0.2-0.1c1.2-1.5,9.7-26.3,9.6-27.9c0,0,0-0.1-0.1-0.1C203.5,3.1,202.7,3,202,3c-0.2,0-0.4,0-0.6,0
				c-0.2,0-0.4,0-0.6,0c-0.4,0-0.7,0-1-0.1c0,0,0,0,0-0.1c0-0.1-0.1-0.3-0.1-0.4c0-0.1,0-0.2,0-0.3c0,0,0-0.1,0-0.1H211c0,0,0,0,0,0
				c0,0.1,0.1,0.2,0.1,0.2c0,0.2,0,0.3,0,0.5l0,0.2c-0.1,0-0.7,0-0.8,0c-0.2,0-0.4,0-0.6,0c-0.1,0-0.2,0-0.3,0
				c-1.8,0-3.1,0.9-3.7,2.7L205.2,7c-0.6,1.6-1.2,3.2-1.7,4.8l-10.2,28.6c-0.1,0.4-0.3,0.7-0.4,1.1l-0.2,0.4H190.6z"/>
		</g>
	</g>
	<g>
		<g>
			<linearGradient id="SVGID_13_" gradientUnits="userSpaceOnUse" x1="0" y1="21.9603" x2="37.1179" y2="21.9603">
				<stop  offset="0" style="stop-color:#A76F3C"/>
				<stop  offset="0.321" style="stop-color:#CA915D"/>
				<stop  offset="0.5027" style="stop-color:#DDA46F"/>
				<stop  offset="0.6305" style="stop-color:#D29965"/>
				<stop  offset="0.8396" style="stop-color:#BB824F"/>
				<stop  offset="1" style="stop-color:#A76F3C"/>
			</linearGradient>
			<path class="st12" d="M28.6,1.9c0.4,0,0.6,0,1,0c0,4,0,8,0,12c-0.3,0-0.6,0-1,0.1c-0.1-0.6-0.3-1.2-0.4-1.8
				c-0.7-2.9-1.9-5.4-4.2-7.3c-2.3-1.8-5-2.4-7.8-2c-2.2,0.3-3.7,1.7-4.9,3.6c-1.4,2.4-2,5-2.4,7.7C8.3,19.6,8.3,25,9,30.4
				c0.2,1.9,0.7,3.9,1.4,5.7c1.1,3.2,3.4,5.1,6.9,5c1.6,0,3.2-0.2,4.7-0.6c1.9-0.5,2.9-1.8,2.9-3.8c0.1-2.4,0.1-4.8,0-7.3
				c0-1.8-0.5-2.2-2.3-2.3c-0.8,0-1.7,0-2.6,0c0-0.6,0-0.9,0-1.4c5.6,0,11.2,0,17,0c0,0.4,0.1,0.8,0.2,1.2c-0.2,0.1-0.4,0.2-0.5,0.2
				c-0.9,0-1.8,0-2.7,0.1c-1.2,0.1-1.5,0.5-1.7,1.7c-0.1,0.5-0.1,1.1-0.1,1.6c0,3.5,0,7,0,10.5c0,0.5,0,1,0,1.7
				c-0.6-0.1-1.1,0-1.4-0.2c-2.3-1.8-4.8-1.5-7.3-0.8c-0.9,0.2-1.8,0.5-2.7,0.7C17,43,13.3,42.7,9.8,41.2C6,39.5,3.4,36.5,2,32.6
				c-2.5-7-2.7-14.1,0-21.2c3-7.9,12-12,19.8-9.4C23,2.4,24.2,3,25.5,3.4C27.4,4,27.7,3.9,28.6,1.9z"/>
			<linearGradient id="SVGID_14_" gradientUnits="userSpaceOnUse" x1="86.2" y1="22.0751" x2="124.3342" y2="22.0751">
				<stop  offset="0" style="stop-color:#A76F3C"/>
				<stop  offset="0.321" style="stop-color:#CA915D"/>
				<stop  offset="0.5027" style="stop-color:#DDA46F"/>
				<stop  offset="0.6305" style="stop-color:#D29965"/>
				<stop  offset="0.8396" style="stop-color:#BB824F"/>
				<stop  offset="1" style="stop-color:#A76F3C"/>
			</linearGradient>
			<path class="st13" d="M93.2,7.5c0,0.5-0.1,0.9-0.1,1.4c0,9.4,0,18.9,0,28.3c0,0.5,0,1,0.1,1.5c0.1,1.5,0.5,1.9,2,2
				c0.4,0,0.9,0,1.3,0c0.4,0,0.9,0,1.5,0c0,0.5,0,0.9,0.1,1.4c-3.9,0-7.8,0-11.7,0c0-0.4-0.1-0.8-0.2-1.4c1,0,1.9,0,2.8,0
				c1.8-0.1,2.2-0.5,2.3-2.2c0-0.7,0-1.5,0-2.2c0-9.7,0-19.5,0-29.2c0-0.6,0-1.2-0.1-1.8c-0.1-1.4-0.6-1.8-2-1.9c-0.9,0-1.9,0-2.9,0
				c0-0.5,0-1,0-1.4c4,0,8,0,12.1,0c6.2,8.9,12.5,17.9,19,27.1c0.1-0.6,0.2-0.9,0.2-1.2c0-7.3,0-14.6,0-21.9c0-2.1-0.5-2.6-2.7-2.6
				c-0.7,0-1.5,0-2.3,0c-0.1-0.5-0.1-0.9-0.1-1.4c4,0,7.8,0,11.8,0c0,0.4,0,0.8,0,1.4c-1,0-1.8,0-2.7,0c-1.5,0-1.9,0.4-2.1,1.9
				c-0.1,0.6-0.1,1.3-0.1,1.9c0,11.1,0,22.2,0,33.3c0,0.5,0,1,0,1.6c-0.6,0-1.1,0.1-1.6,0.1C109.7,30.6,101.6,19,93.5,7.4
				C93.4,7.4,93.3,7.4,93.2,7.5z"/>
			<linearGradient id="SVGID_15_" gradientUnits="userSpaceOnUse" x1="134.26" y1="22.023" x2="167.0943" y2="22.023">
				<stop  offset="0" style="stop-color:#A76F3C"/>
				<stop  offset="0.321" style="stop-color:#CA915D"/>
				<stop  offset="0.5027" style="stop-color:#DDA46F"/>
				<stop  offset="0.6305" style="stop-color:#D29965"/>
				<stop  offset="0.8396" style="stop-color:#BB824F"/>
				<stop  offset="1" style="stop-color:#A76F3C"/>
			</linearGradient>
			<path class="st14" d="M134.4,1.9c10.4,0,20.7,0,31.2,0c0.2,3.2,0.4,6.2,0.6,9.2c-0.2,0.2-0.3,0.3-0.4,0.3c-0.3,0-0.7,0-0.9,0
				c-0.4-1.5-0.7-2.9-1.2-4.2c-1-2.6-2.8-4-5.8-3.9c-3.2,0.1-6.4,0-9.6,0c-0.5,0-1,0-1.4,0c-0.4,1.1-0.5,15.5-0.1,17.8
				c2,0,4,0.2,5.9-0.3c1.6-0.4,2.5-1.5,2.8-3.1c0.1-0.4,0.2-0.8,0.3-1.3c0.4,0,0.9,0,1.3,0.1c0,3.6,0,7.1,0,10.7
				c-0.4,0-0.9,0.1-1.3,0.1c-0.1-0.3-0.2-0.5-0.2-0.6c-0.6-2.9-1.8-3.9-4.7-4c-1.4,0-2.7,0-4.2,0c0,6,0,11.8,0,17.8
				c0.4,0,0.8,0.1,1.2,0.1c3.7,0,7.4,0,11.1,0c2.6,0,4.5-1.2,5.5-3.5c0.6-1.4,0.9-3,1.4-4.6c0.3,0,0.7,0,1.3,0
				c-0.2,3.2-0.4,6.3-0.6,9.5c-10.8,0-21.4,0-32.2,0c0-0.4-0.1-0.8-0.1-1.2c0.2-0.1,0.3-0.2,0.5-0.2c0.9,0,1.8,0,2.7-0.1
				c1.3-0.1,1.6-0.5,1.8-1.8c0-0.5,0.1-1.1,0.1-1.6c0-10.2,0-20.3,0-30.5c0-3-0.3-3.5-3.4-3.4c-0.4,0-0.9,0-1.4,0
				C134.4,2.8,134.4,2.4,134.4,1.9z"/>
			<linearGradient id="SVGID_16_" gradientUnits="userSpaceOnUse" x1="44.1265" y1="22.0145" x2="77.0651" y2="22.0145">
				<stop  offset="0" style="stop-color:#A76F3C"/>
				<stop  offset="0.321" style="stop-color:#CA915D"/>
				<stop  offset="0.5027" style="stop-color:#DDA46F"/>
				<stop  offset="0.6305" style="stop-color:#D29965"/>
				<stop  offset="0.8396" style="stop-color:#BB824F"/>
				<stop  offset="1" style="stop-color:#A76F3C"/>
			</linearGradient>
			<path class="st15" d="M44.1,1.9c10.6,0,20.9,0,31.4,0c0.2,3.1,0.4,6.2,0.6,9.4c-0.6,0-1,0.1-1.3,0.1c-0.5-1.6-0.9-3.2-1.5-4.6
				c-1-2.4-2.8-3.6-5.4-3.5c-3.3,0.1-6.5,0-9.8,0c-0.5,0-1,0-1.4,0c-0.4,1.1-0.5,15.7-0.1,17.8c1.9,0,3.8,0.2,5.7-0.2
				c1.8-0.4,2.9-1.6,3.1-3.5c0-0.2,0.1-0.5,0.1-0.9c0.4,0,0.8-0.1,1.4-0.2c0,3.7,0,7.2,0,10.8c-0.4,0-0.8,0.1-1.2,0.1
				c-0.1-0.3-0.2-0.4-0.2-0.6c-0.1-2.5-1.8-4-4.5-4.1c-1.4,0-2.8,0-4.2,0c-0.4,1.2-0.4,16.4-0.1,17.9c0.4,0,0.9,0,1.4,0
				c3.4,0,6.7-0.1,10.1,0c3.7,0.2,5.6-1.6,6.8-5.1c0.3-0.9,0.4-1.9,0.7-3c0.3,0,0.7,0,1.4-0.1c-0.2,3.3-0.4,6.4-0.5,9.6
				c-10.8,0-21.5,0-32.2,0c0-0.2-0.1-0.4-0.1-0.6c0-0.2,0-0.4,0.1-0.8c0.9,0,1.9,0,2.8,0c1.6-0.1,2.1-0.5,2.1-2.2c0-1,0-2.1,0-3.1
				c0-9.6,0-19.2,0-28.7c0-2.9-0.3-3.2-3.2-3.3c-0.5,0-1.1,0-1.7,0C44.2,2.9,44.2,2.5,44.1,1.9z"/>
			<linearGradient id="SVGID_17_" gradientUnits="userSpaceOnUse" x1="208.3178" y1="21.0653" x2="251.2538" y2="21.0653">
				<stop  offset="0" style="stop-color:#A76F3C"/>
				<stop  offset="0.321" style="stop-color:#CA915D"/>
				<stop  offset="0.5027" style="stop-color:#DDA46F"/>
				<stop  offset="0.6305" style="stop-color:#D29965"/>
				<stop  offset="0.8396" style="stop-color:#BB824F"/>
				<stop  offset="1" style="stop-color:#A76F3C"/>
			</linearGradient>
			<path class="st16" d="M226.3,2c1.3-0.2,2.5-0.3,3.6-0.6c1-0.3,2-0.8,3.2-1.3c0.6,1.6,1.1,3.1,1.6,4.5
				c3.7,10.9,7.5,21.8,11.2,32.7c0.2,0.5,0.3,0.9,0.5,1.4c0.5,1.3,1.5,1.9,2.8,2c0.6,0,1.3,0.1,2,0.1c0,0.5,0,0.9-0.1,1.4
				c-5.7,0-11.3,0-17,0c0-0.4-0.1-0.8-0.1-1.2c0.2-0.1,0.4-0.2,0.5-0.2c0.8-0.1,1.7,0,2.5-0.2c1.3-0.2,1.9-0.9,1.5-2.2
				c-0.8-2.6-1.7-5.1-2.5-7.7c-6.1,0-12.1,0-18.2,0c-0.9,2.6-1.8,5.3-2.6,8c-0.3,1,0.3,1.7,1.5,2c0.4,0.1,0.9,0.1,1.3,0.1
				c0.4,0,0.9,0,1.5,0c0,0.5,0.1,0.9,0.1,1.4c-3.8,0-7.5,0-11.2,0c0-0.4-0.1-0.8-0.1-1.3c0.6,0,1-0.1,1.5-0.1
				c2.3-0.1,2.8-0.4,3.6-2.6c2.8-7.9,5.6-15.8,8.4-23.7c1.3-3.7,2.6-7.4,4-11.1C226,2.8,226.2,2.4,226.3,2z M227.3,5.5
				c-0.1,0-0.2,0-0.4,0c-2.8,7.8-5.7,15.5-8.3,23.4c2.1,0.4,15.7,0.3,16.8-0.1C232.7,21,230,13.2,227.3,5.5z"/>
			<linearGradient id="SVGID_18_" gradientUnits="userSpaceOnUse" x1="172.8252" y1="22.0571" x2="211.4174" y2="22.0571">
				<stop  offset="0" style="stop-color:#A76F3C"/>
				<stop  offset="0.321" style="stop-color:#CA915D"/>
				<stop  offset="0.5027" style="stop-color:#DDA46F"/>
				<stop  offset="0.6305" style="stop-color:#D29965"/>
				<stop  offset="0.8396" style="stop-color:#BB824F"/>
				<stop  offset="1" style="stop-color:#A76F3C"/>
			</linearGradient>
			<path class="st17" d="M173,3.4c-0.1-0.4-0.1-0.5-0.1-0.7c0-0.2,0-0.4,0.1-0.7c5,0,9.9,0,14.9,0c0.1,0.2,0.1,0.3,0.2,0.4
				c0,0.2,0,0.5-0.1,0.9c-0.4,0-0.9,0.1-1.3,0.1c-1.7,0.1-2.1,0.7-1.6,2.3c1.3,3.8,2.7,7.6,4.1,11.4c1.7,4.5,3.4,9.1,5,13.6
				c0.1,0.4,0.3,0.7,0.5,1.1c1.1-1.5,9.7-26.1,9.6-27.7c-1.2-1.2-2.9-0.4-4.4-0.8c-0.1-0.2-0.2-0.4-0.2-0.6c0-0.2,0-0.4,0.1-0.7
				c3.9,0,7.8,0,11.6,0c0.1,0.2,0.1,0.3,0.1,0.5c0,0.2,0,0.5-0.1,0.9c-0.5,0-1.1,0-1.6,0c-1.9-0.1-3.2,0.8-3.8,2.6
				c-0.7,2-1.4,4-2.2,6c-3.4,9.5-6.8,19-10.2,28.6c-0.2,0.6-0.4,1.1-0.6,1.7c-0.8,0-1.5,0-2.4,0c-0.6-1.5-1.2-3-1.7-4.6
				c-3.9-10.7-7.8-21.5-11.7-32.2c-0.6-1.6-1-1.9-2.7-2C174,3.4,173.5,3.4,173,3.4z"/>
		</g>
		<g>
			
				<linearGradient id="SVGID_19_" gradientUnits="userSpaceOnUse" x1="0.4484" y1="21.9786" x2="250.8709" y2="21.9786" gradientTransform="matrix(1 0 0 1 -0.1417 -0.1417)">
				<stop  offset="0" style="stop-color:#A76F3C"/>
				<stop  offset="0.321" style="stop-color:#CA915D"/>
				<stop  offset="0.5027" style="stop-color:#DDA46F"/>
				<stop  offset="0.6305" style="stop-color:#D29965"/>
				<stop  offset="0.8396" style="stop-color:#BB824F"/>
				<stop  offset="1" style="stop-color:#A76F3C"/>
			</linearGradient>
			<path class="st18" d="M16.9,42.2c-2.5,0-4.9-0.5-7-1.5c-3.7-1.6-6.2-4.5-7.6-8.4c-2.6-7.2-2.6-14.2,0-20.9c2.3-6,8.2-10,14.6-10
				c1.6,0,3.2,0.3,4.7,0.8c0.6,0.2,1.2,0.5,1.8,0.7c0.6,0.3,1.3,0.5,1.9,0.8C25.9,3.9,26.4,4,26.8,4c1,0,1.4-0.7,1.9-1.8h0.4v11.3
				l-0.3,0c0,0-0.3-1.1-0.3-1.5c-0.8-3.4-2.2-5.8-4.4-7.5c-1.8-1.5-4-2.2-6.4-2.2c-0.6,0-1.1,0-1.7,0.1c-2.1,0.3-3.8,1.6-5.1,3.8
				C9.3,8.8,8.7,11.7,8.4,14c-0.7,5.3-0.7,10.8,0,16.4c0.2,1.9,0.7,3.8,1.4,5.8c1.2,3.4,3.7,5.3,7.1,5.3l0.2,0
				c1.6,0,3.2-0.2,4.8-0.6c2-0.5,3.2-2,3.2-4.2c0.1-2.4,0.1-4.8,0-7.3c0-2-0.7-2.6-2.7-2.7c-0.3,0-0.6,0-1,0c-0.3,0-1.1,0-1.2,0
				v-0.6h16.2l0.1,0.5c0,0-0.1,0-0.1,0c-0.3,0-0.6,0-0.9,0c-0.6,0-1.1,0-1.7,0.1c-1.4,0.2-1.9,0.6-2.1,2c-0.1,0.6-0.1,1.2-0.1,1.7
				c0,2.6,0,5.3,0,7.9v3.8c0,0-0.1,0-0.1,0c-0.2,0-0.5,0-0.6-0.1c-1.2-1-2.6-1.4-4.2-1.4c-1.3,0-2.5,0.3-3.5,0.6
				c-0.2,0.1-0.5,0.1-0.7,0.2c-0.6,0.2-1.3,0.4-2,0.5C19.3,42.1,18.1,42.2,16.9,42.2z"/>
			
				<linearGradient id="SVGID_20_" gradientUnits="userSpaceOnUse" x1="0.4484" y1="22.1093" x2="250.8709" y2="22.1093" gradientTransform="matrix(1 0 0 1 -0.1417 -0.1417)">
				<stop  offset="0" style="stop-color:#A76F3C"/>
				<stop  offset="0.321" style="stop-color:#CA915D"/>
				<stop  offset="0.5027" style="stop-color:#DDA46F"/>
				<stop  offset="0.6305" style="stop-color:#D29965"/>
				<stop  offset="0.8396" style="stop-color:#BB824F"/>
				<stop  offset="1" style="stop-color:#A76F3C"/>
			</linearGradient>
			<path class="st19" d="M93.7,7.1c-0.1-0.1-0.2-0.2-0.3-0.2c0,0-0.1,0-0.1,0L93,7c-0.2,0-0.3,0.2-0.3,0.4l0,0.4c0,0.3,0,0.7,0,1
				c0,9.4,0,18.9,0,28.3c0,0.6,0,1.1,0.1,1.5c0.2,1.7,0.7,2.2,2.4,2.4c0.4,0,0.7,0,1.1,0c0,0,0.6,0,0.8,0l0.6,0l0,0.6H86.6L86.6,41
				c0.2,0,1,0,1.3,0c0.3,0,0.7,0,1,0c2-0.1,2.6-0.7,2.7-2.6c0-0.6,0-1.3,0-1.9v-0.3c0-9.7,0-19.5,0-29.2c0-0.5,0-1.2-0.1-1.8
				c-0.1-1.6-0.8-2.2-2.3-2.3c-0.4,0-0.7,0-1.1,0c-0.3,0-1.2,0-1.4,0V2.3h11.5l18.8,27c0.1,0.1,0.2,0.2,0.3,0.2c0,0,0.1,0,0.1,0
				c0.2,0,0.3-0.2,0.3-0.3c0-0.2,0.1-0.4,0.1-0.5c0.1-0.3,0.1-0.5,0.1-0.7l0-2.4c0-6.5,0-13,0-19.5c0-2.3-0.6-3-3.1-3l-1.9,0
				l-0.1-0.6h10.9v0.6l-1.3,0c-0.3,0-0.7,0-1,0c-1.7,0.1-2.3,0.6-2.5,2.3c-0.1,0.7-0.1,1.4-0.1,2c0,8.6,0,34.5,0,34.5l-1,0.1
				L93.7,7.1z"/>
			
				<linearGradient id="SVGID_21_" gradientUnits="userSpaceOnUse" x1="0.4484" y1="22.0632" x2="250.8709" y2="22.0632" gradientTransform="matrix(1 0 0 1 -0.1417 -0.1417)">
				<stop  offset="0" style="stop-color:#A76F3C"/>
				<stop  offset="0.321" style="stop-color:#CA915D"/>
				<stop  offset="0.5027" style="stop-color:#DDA46F"/>
				<stop  offset="0.6305" style="stop-color:#D29965"/>
				<stop  offset="0.8396" style="stop-color:#BB824F"/>
				<stop  offset="1" style="stop-color:#A76F3C"/>
			</linearGradient>
			<path class="st20" d="M134.6,41.6l0-0.5c0,0,0.1,0,0.1,0c0.3,0,0.7,0,1,0c0.5,0,1.1,0,1.7-0.1c1.4-0.1,2-0.7,2.1-2.1
				c0-0.5,0.1-1.1,0.1-1.7l0-9.7c0-6.9,0-13.9,0-20.8c0-1.6-0.1-2.6-0.7-3.2c-0.5-0.5-1.1-0.6-2.3-0.6c-0.2,0-0.5,0-0.8,0
				c-0.2,0-0.3,0-0.5,0l-0.6,0V2.3h30.4l0.6,8.6c0,0-0.1,0.1-0.1,0.1c-0.1,0-0.2,0-0.3,0l-0.2,0c-0.1-0.4-0.2-0.7-0.3-1.1
				c-0.3-1-0.5-1.9-0.9-2.9c-1.1-2.8-3-4.2-5.8-4.2c-0.1,0-0.2,0-0.3,0c-1.1,0-2.3,0.1-3.8,0.1c-1,0-2,0-2.9,0c-1,0-1.9,0-2.9,0
				h-1.4c-0.2,0-0.3,0.1-0.4,0.3c-0.4,1.3-0.5,16-0.2,18c0,0.2,0.2,0.3,0.4,0.3c0,0,0.3,0,0.5,0c0.4,0,0.8,0,1.2,0
				c0.4,0,0.8,0,1.2,0c0.9,0,2,0,3.1-0.3c1.7-0.5,2.8-1.6,3.1-3.4l0.2-0.9l0.6,0v9.9l-0.6,0c0-0.1-0.1-0.2-0.1-0.3
				c-0.6-3.1-2-4.3-5.1-4.3c-0.5,0-1,0-1.6,0c-0.4,0-2.2,0-2.7,0c-0.2,0-0.4,0.2-0.4,0.4v17.8c0,0.2,0.2,0.4,0.4,0.4
				c0.1,0,0.2,0,0.4,0.1c0.3,0,0.5,0.1,0.8,0.1c0,0,6,0,7,0c1.4,0,2.7,0,4.1,0l0.1,0c2.7,0,4.7-1.3,5.7-3.8c0.4-1,0.7-2,1-3.1
				c0.1-0.4,0.2-0.8,0.3-1.2h0.5l-0.5,8.7H134.6z"/>
			
				<linearGradient id="SVGID_22_" gradientUnits="userSpaceOnUse" x1="0.4484" y1="22.0546" x2="250.8709" y2="22.0546" gradientTransform="matrix(1 0 0 1 -0.1417 -0.1417)">
				<stop  offset="0" style="stop-color:#A76F3C"/>
				<stop  offset="0.321" style="stop-color:#CA915D"/>
				<stop  offset="0.5027" style="stop-color:#DDA46F"/>
				<stop  offset="0.6305" style="stop-color:#D29965"/>
				<stop  offset="0.8396" style="stop-color:#BB824F"/>
				<stop  offset="1" style="stop-color:#A76F3C"/>
			</linearGradient>
			<path class="st21" d="M44.5,41.6c0-0.1,0-0.2,0-0.2c0-0.1,0-0.2,0-0.4c0,0,0,0,0,0c0.2,0,1.1,0,1.4,0c0.4,0,0.7,0,1.1,0
				c1.8-0.1,2.5-0.7,2.5-2.6c0-0.8,0-1.6,0-2.4l0-3.1c0-8.8,0-17.6,0-26.3c0-3.1-0.5-3.7-3.6-3.7l-1.3,0l-0.1-0.6h30.6l0.6,8.7
				l-0.5,0c-0.1-0.4-0.2-0.8-0.4-1.2c-0.3-1.1-0.6-2.1-1-3.1c-1-2.5-2.9-3.7-5.6-3.7c-0.1,0-0.2,0-0.2,0c-1.1,0-2.4,0-3.9,0
				c-1,0-1.9,0-2.9,0c-1,0-1.9,0-2.9,0h-1.5c-0.2,0-0.3,0.1-0.4,0.3c-0.4,1.2-0.5,15.8-0.1,18c0,0.2,0.2,0.3,0.4,0.3l0.4,0
				c0.4,0,0.8,0,1.3,0c0.4,0,0.9,0,1.3,0c0.8,0,1.8,0,2.8-0.3c2-0.5,3.2-1.8,3.4-3.8c0-0.2,0-0.3,0.1-0.5l0,0l0.6-0.1v10l-0.6,0
				c0-0.1-0.1-0.2-0.1-0.2c-0.1-2.8-2-4.4-4.9-4.5c-0.5,0-1.1,0-1.6,0l-2.6,0c-0.2,0-0.3,0.1-0.4,0.3c-0.4,1.3-0.4,16.5-0.1,18.1
				c0,0.2,0.2,0.3,0.4,0.3H58c1.1,0,2.1,0,3.1,0c1,0,2,0,3,0c1.5,0,2.8,0,3.9,0.1c0.2,0,0.3,0,0.5,0c3.4,0,5.5-1.7,6.7-5.4
				c0.2-0.7,0.3-1.3,0.5-2c0-0.2,0.1-0.5,0.1-0.7l0.6,0L76,41.6H44.5z"/>
			
				<linearGradient id="SVGID_23_" gradientUnits="userSpaceOnUse" x1="0.4484" y1="21.1765" x2="250.8709" y2="21.1765" gradientTransform="matrix(1 0 0 1 -0.1417 -0.1417)">
				<stop  offset="0" style="stop-color:#A76F3C"/>
				<stop  offset="0.321" style="stop-color:#CA915D"/>
				<stop  offset="0.5027" style="stop-color:#DDA46F"/>
				<stop  offset="0.6305" style="stop-color:#D29965"/>
				<stop  offset="0.8396" style="stop-color:#BB824F"/>
				<stop  offset="1" style="stop-color:#A76F3C"/>
			</linearGradient>
			<path class="st22" d="M234.5,41.6l-0.1-0.6c0,0,0.1,0,0.1,0c0.3,0,0.6,0,0.9,0c0.5,0,1.1,0,1.7-0.1c0.8-0.1,1.4-0.5,1.7-0.9
				c0.3-0.5,0.3-1.1,0.1-1.8c-0.6-1.8-1.2-3.7-1.8-5.5c-0.3-0.7-0.5-1.5-0.8-2.2c-0.1-0.2-0.2-0.3-0.4-0.3h-18.2
				c-0.2,0-0.3,0.1-0.4,0.3c-0.2,0.7-0.5,1.5-0.7,2.2c-0.6,1.9-1.3,3.8-1.9,5.7c-0.2,0.5-0.1,1,0.1,1.4c0.3,0.5,0.9,0.9,1.7,1
				c0.4,0.1,0.8,0.1,1.2,0.1l0.2,0c0.2,0,0.4,0,0.5,0l0.6,0l0.1,0.6h-10.4l-0.1-0.5l0.1,0c0.3,0,0.6-0.1,1-0.1
				c2.5-0.1,3.1-0.6,4-2.8c1.9-5.3,3.8-10.6,5.7-15.9l2.8-7.7c1.3-3.7,2.6-7.4,4-11.1c0.1-0.3,0.2-0.6,0.4-0.9l0.1-0.2
				c0.3-0.1,0.7-0.1,1-0.1c0.8-0.1,1.6-0.2,2.4-0.5c0.8-0.2,1.5-0.5,2.2-0.9c0.2-0.1,0.4-0.2,0.6-0.3l0.4,1.1c0.4,1,0.7,2,1,2.9
				c2.2,6.3,11.2,32.7,11.2,32.7c0.2,0.5,0.4,1,0.5,1.4c0.6,1.4,1.7,2.2,3.2,2.3c0.4,0,0.9,0,1.3,0.1l0.3,0l0,0.6H234.5z M226.8,4.9
				c-0.2,0-0.3,0.1-0.4,0.3c-0.8,2.3-1.6,4.5-2.4,6.8c-2,5.4-4,11.1-5.9,16.6c0,0.1,0,0.2,0,0.3c0.1,0.1,0.2,0.2,0.3,0.2
				c1.2,0.2,5.8,0.2,7.2,0.2h0c3,0,9-0.1,9.8-0.4c0.2-0.1,0.3-0.3,0.2-0.5l-8.1-23.3c-0.1-0.2-0.2-0.3-0.4-0.3L226.8,4.9z"/>
			
				<linearGradient id="SVGID_24_" gradientUnits="userSpaceOnUse" x1="0.4484" y1="22.0973" x2="250.8709" y2="22.0973" gradientTransform="matrix(1 0 0 1 -0.1417 -0.1417)">
				<stop  offset="0" style="stop-color:#A76F3C"/>
				<stop  offset="0.321" style="stop-color:#CA915D"/>
				<stop  offset="0.5027" style="stop-color:#DDA46F"/>
				<stop  offset="0.6305" style="stop-color:#D29965"/>
				<stop  offset="0.8396" style="stop-color:#BB824F"/>
				<stop  offset="1" style="stop-color:#A76F3C"/>
			</linearGradient>
			<path class="st23" d="M190.8,41.6l-0.5-1.2c-0.4-1-0.8-2.1-1.2-3.1c-2.4-6.7-11.7-32.2-11.7-32.2c-0.6-1.8-1.2-2.2-3.1-2.2
				c-0.2,0-0.3,0-0.5,0l-0.6,0v0c0-0.1-0.1-0.2-0.1-0.3c0-0.1,0-0.2,0-0.3h14.3c0,0,0,0,0,0c0,0.1,0,0.3,0,0.5l-0.1,0
				c-0.3,0-0.6,0.1-0.9,0.1c-1,0.1-1.6,0.3-2,0.8c-0.3,0.5-0.3,1.1,0,2c1.4,4.1,2.8,8.1,4.1,11.4c1.3,3.4,2.5,6.9,3.8,10.3l1.2,3.3
				c0.1,0.3,0.2,0.5,0.3,0.8l0.2,0.4c0.1,0.1,0.2,0.2,0.3,0.2c0,0,0,0,0.1,0c0.1,0,0.2-0.1,0.3-0.2c1.2-1.5,9.8-26.4,9.7-28
				c0-0.1,0-0.2-0.1-0.3c-0.7-0.7-1.6-0.8-2.3-0.8c-0.2,0-0.4,0-0.6,0c-0.2,0-0.4,0-0.6,0c-0.3,0-0.6,0-0.8-0.1
				c0-0.1-0.1-0.2-0.1-0.3c0,0,0-0.1,0-0.2h11c0,0,0,0,0,0.1c0,0.1,0,0.3,0,0.5l0,0c0,0-0.5,0-0.6,0c-0.2,0-0.4,0-0.6,0
				c-0.1,0-0.2,0-0.3,0c-1.9,0-3.2,1-3.9,2.9L205,6.9c-0.6,1.6-1.2,3.2-1.7,4.8l-10.2,28.6c-0.1,0.4-0.3,0.7-0.4,1.1l-0.1,0.3H190.8
				z"/>
		</g>
	</g>
</g>
</svg>
