<?xml version="1.0" encoding="utf-8"?>
<svg version="1.1" x="0px" y="0px" width="248.9px" height="321.1px" viewBox="0 0 248.9 321.1" style="enable-background:new 0 0 248.9 321.1;" xmlns="http://www.w3.org/2000/svg">
  <style type="text/css">
	.st0{fill:#020101;}
</style>
  <path class="st0" d="M0,321.1C16.2,214,32.4,107.1,48.6,0C115.3,0,182,0,248.9,0c-3,19.6-5.9,39.2-8.9,58.9c-43.9,0-87.6,0-131.7,0&#10;&#9;c-3.4,22.3-6.7,44.5-10.1,67c41.9,0,83.6,0,125.6,0c-3,19.8-6,39.3-8.9,59c-41.8,0-83.5,0-125.6,0c-3.9,25.8-7.8,51.4-11.7,77.2&#10;&#9;c44.8,0,89.5,0,134.4,0c-3,19.8-5.9,39.3-8.9,58.9C135.5,321.1,67.8,321.1,0,321.1z" style="fill: rgb(255, 255, 255);"/>
</svg>