<!-- Generator: Adobe Illustrator 21.1.0, SVG Export Plug-In  -->
<svg version="1.1"
	 xmlns="http://www.w3.org/2000/svg" xmlns:xlink="http://www.w3.org/1999/xlink" xmlns:a="http://ns.adobe.com/AdobeSVGViewerExtensions/3.0/"
	 x="0px" y="0px" width="343.5px" height="321.3px" viewBox="0 0 343.5 321.3" style="enable-background:new 0 0 343.5 321.3;"
	 xml:space="preserve">
<style type="text/css">
	.st0{fill:#ffffff;}
</style>
<defs>
</defs>
<path class="st0" d="M295.1,321.3c-22.9,0-45.5,0-68.4,0c10-66.8,20.1-133.4,30.2-200.6c-36.4,28.4-72.5,56.5-108.7,84.8
	c-16.5-28.1-32.9-56.2-49.7-84.9c-7.1,47.1-14.1,93.5-21.1,140.1c-25.6,20-51.2,40-77.5,60.5C16.2,213.7,32.3,106.9,48.4,0
	c19.8,0,39.4,0,59.2,0c25,31.8,52.3,61.9,78.5,93.2c32.8-31.1,65.5-62.1,98.3-93.2c19.5,0,39.2,0,59.1,0
	C327.3,107.1,311.2,214.1,295.1,321.3z"/>
</svg>
