<?xml version="1.0" encoding="utf-8"?>
<svg viewBox="0 0 92.5 92.5999984741211" width="92.5" height="92.5999984741211" style="enable-background:new 0 0 92.5 92.6;" xmlns="http://www.w3.org/2000/svg">
  <defs>
    <style type="text/css">
	.st0{fill:none;}
	.st1{fill:#29BBF4;}
	.st2{fill:#75DB51;}
	.st3{fill:#FFA226;}
	.st4{fill:#FF4A7F;}
	.st5{fill:#FFD22E;}
	.st6{fill:url(#SVGID_1_);}
</style>
  </defs>
  <path class="st0" d="M 54.4 85.9 C 54.3 85.9 54.4 85.9 54.4 85.9 C 54.3 85.9 54.3 85.9 54.4 85.9 Z M 16.5 64.2 C 15.5 63.9 14.4 63.6 13.8 63.3 C 13.7 63 13.6 62.6 13.5 62.3 C 15.4 61.9 17.2 61.6 19 61.2 C 19.1 61.6 19.2 62.1 19.3 62.5 L 18.7 64.7 C 18.7 64.8 18.7 64.8 18.7 64.8 C 18.6 64.8 18.6 64.8 18.5 64.8 Z M 10.2 64.6 L 7.7 69.7 C 7.5 69.8 7.4 69.8 7.2 69.9 C 6.6 67.9 6 65.9 5.5 63.9 C 7.3 63.5 9.1 63.2 10.9 62.8 C 10.9 62.9 10.9 62.9 10.9 63 Z M 74.7 52.7 C 74.7 54 74.8 55.2 74.9 56.5 C 73.8 56.5 72.8 56.5 71.7 56.5 C 72.8 55.4 73.8 54.1 74.7 52.7 Z M 80 72.2 C 82 73 83.9 73.9 85.9 74.7 C 85.6 76.7 85.3 78.7 85.1 80.7 C 83.2 79.6 81.2 78.5 79.3 77.4 C 79.5 75.7 79.8 74 80 72.2 Z M 83.6 56.5 C 81.6 56.5 79.7 56.5 77.7 56.5 C 77.5 54.4 77.4 52.2 77.3 50.1 C 79.3 49.7 81.2 49.4 83.2 49 C 83.3 51.5 83.4 54 83.6 56.5 Z M 92.1 47.4 C 92.2 50.4 92.3 53.5 92.5 56.5 C 90.5 56.5 88.6 56.5 86.6 56.5 C 86.4 53.9 86.3 51.2 86.2 48.5 C 88.1 48.1 90.1 47.7 92.1 47.4 Z M 83.7 62.1 C 85.7 62.3 87.6 62.6 89.6 62.9 C 89.5 65.4 89.4 67.9 89.4 70.4 C 87.4 69.8 85.5 69.2 83.5 68.6 C 83.5 66.5 83.6 64.3 83.7 62.1 Z M 20.4 58.9 C 18.4 59.2 16.4 59.4 14.4 59.7 C 14.4 58.4 14.4 57.1 14.4 55.7 C 16.4 55.7 18.4 55.8 20.4 55.8 C 20.4 56.8 20.4 58 20.4 58.9 Z M 22.8 50.9 L 22 53.5 C 20.5 53.4 19.1 53.2 17.7 53 C 17.9 51.9 18.2 50.8 18.4 49.7 C 19.8 50.1 21.3 50.5 22.8 50.9 Z M 25 43.3 L 24.8 44.4 C 24.5 44.2 24.3 44.1 24.1 43.9 C 24.5 43.2 25 42.4 25.5 41.7 Z M 23.2 39.7 C 22.6 40.5 22 41.4 21.5 42.2 C 19.9 41.1 18.3 40 16.7 38.9 C 17.5 37.8 18.2 36.8 18.9 35.7 C 20.3 37 21.8 38.3 23.2 39.7 Z M 17.9 42.9 C 19.6 43.8 21.4 44.7 23.1 45.7 C 22.7 46.6 22.3 47.5 22 48.3 C 20.1 47.6 18.2 46.9 16.4 46.2 C 16.8 45.1 17.3 44 17.9 42.9 Z M 16.7 33.6 C 15.9 34.8 15.1 35.9 14.3 37.1 C 12.7 36.1 11.2 35 9.6 33.9 C 10.5 32.5 11.5 31.2 12.5 29.8 C 13.9 31.1 15.3 32.4 16.7 33.6 Z M 7.2 32.3 C 5.7 31.2 4.1 30.1 2.6 29.1 C 3.8 27.5 5 25.8 6.3 24.1 C 7.7 25.4 9 26.6 10.4 27.9 C 9.4 29.4 8.3 30.9 7.2 32.3 Z M 5.5 42 C 3.7 41.3 1.9 40.6 0.1 40 C 0.9 38.3 1.7 36.5 2.6 34.7 C 4.2 35.6 5.9 36.5 7.6 37.4 C 6.8 39 6.1 40.5 5.5 42 Z M 10.1 38.8 C 11.8 39.7 13.5 40.6 15.2 41.5 C 14.6 42.7 14.1 43.9 13.6 45.1 C 11.8 44.5 9.9 43.8 8.1 43.1 C 8.8 41.7 9.4 40.2 10.1 38.8 Z M 15.1 26.8 C 13.9 25.4 12.7 23.9 11.5 22.5 C 12.8 21.1 14.2 19.8 15.6 18.4 C 16.6 20 17.6 21.6 18.6 23.2 C 17.4 24.4 16.3 25.6 15.1 26.8 Z M 41 7.1 C 39.5 7.6 37.9 8.2 36.4 8.7 C 36.4 6.4 36.6 4.2 36.7 1.9 C 38.4 1.3 40.2 0.6 42 0 C 41.6 2.4 41.2 4.7 41 7.1 Z M 28.8 15.7 C 28.3 13.7 27.9 11.6 27.6 9.6 C 29.2 8.7 30.9 7.9 32.5 7 C 32.6 9.2 32.7 11.3 32.9 13.5 C 31.5 14.3 30.1 15 28.8 15.7 Z M 70.2 10.6 C 69.1 9.9 67.9 9.1 66.8 8.4 C 68.4 6 70 3.6 71.6 1.2 C 72.9 2 74.1 2.8 75.4 3.7 C 73.6 6.1 71.9 8.4 70.2 10.6 Z M 71.9 24.8 C 73.8 23 75.7 21.2 77.6 19.3 C 78.4 20.7 79.1 22.2 79.9 23.7 C 77.9 25.4 75.9 27 74 28.6 C 73.3 27.3 72.6 26.1 71.9 24.8 Z M 85.7 44.7 C 85.2 42.5 84.8 40.3 84.4 38.1 C 86.5 37.2 88.7 36.3 90.8 35.4 C 91.2 37.9 91.7 40.5 92.2 43 C 90.1 43.6 87.9 44.2 85.7 44.7 Z M 77.1 36.7 C 76.4 37.1 75.8 37.4 75.1 37.8 C 74.4 36.4 73.5 35.2 72.5 34.1 C 73.5 33.4 74.5 32.7 75.5 32 C 76 33.5 76.6 35.1 77.1 36.7 Z M 64.2 57.2 C 70.6 60.9 73.8 66.3 70.2 75.3 C 65.8 86.5 56.3 87.1 43.8 84.2 L 41.5 92.5 L 34.2 90.2 L 36.4 82.2 C 34.5 81.6 32.6 81 30.6 80.4 L 27.1 92.4 L 19.8 90.1 L 23.3 78.1 C 17.1 76.3 25.6 78.8 8.6 73.8 L 12.6 65.5 C 14.1 65.9 17.8 67.1 17.9 67 C 19.9 67.6 20.9 66.3 21.3 65.4 L 26.9 46.3 C 27.2 46.3 27.1 46.3 26.9 46.2 L 30.9 32.6 C 31 31.1 30.6 29.1 27.6 28.2 C 27.7 28.2 22.3 26.7 22.3 26.7 L 24.7 18.4 C 24.7 18.4 37.7 22.4 39.3 22.8 L 41.7 14.8 L 49 17.1 L 46.6 25.2 C 48.5 25.8 50.6 26.3 52.5 26.9 L 56 14.9 L 63.2 17.2 L 59.6 29.4 C 68.8 32.9 75.4 38 73.7 46.9 C 72.5 53.4 68.8 56.4 64.2 57.2 Z M 65.4 42.5 C 47.9 30.9 29.7 46 32.4 62.9 C 34 73.3 46.4 76.9 59.1 72.2 L 55.8 64 C 54.4 64.4 51.9 65.2 48.4 64.7 C 45.1 64.2 43.1 62.7 43.8 57.8 C 44.6 51.8 48.3 47.6 54.3 48.4 C 56.7 48.7 57.7 49.2 60.4 50.8 Z" style="fill: rgb(255, 255, 255);" transform="matrix(0.9999999999999999, 0, 0, 0.9999999999999999, -8.881784197001252e-16, 0)"/>
</svg>