<!-- Generator: Adobe Illustrator 21.1.0, SVG Export Plug-In  -->
<svg version="1.1"
	 xmlns="http://www.w3.org/2000/svg" xmlns:xlink="http://www.w3.org/1999/xlink" xmlns:a="http://ns.adobe.com/AdobeSVGViewerExtensions/3.0/"
	 x="0px" y="0px" width="301.4px" height="260.4px" viewBox="0 0 301.4 260.4" style="enable-background:new 0 0 301.4 260.4;"
	 xml:space="preserve">
<style type="text/css">
	.st0{fill:#FFFFFF;}
	.st1{fill:#D3E6F2;}
	.st2{fill:#B6D0E5;}
</style>
<defs>
</defs>
<g>
	<path class="st0" d="M301.4,9.2l-47.7,240.3c0,0-6.7,16.7-25,8.7l-110-84.3l-40-19.3l-67.3-22.7c0,0-10.3-3.7-11.3-11.7
		c-1-8,11.7-12.3,11.7-12.3l267.7-105C279.4,2.9,301.4-6.8,301.4,9.2z"/>
	<path class="st1" d="M110.3,246.9c0,0-3.2-0.3-7.2-13c-4-12.7-24.3-79.3-24.3-79.3L240.4,51.9c0,0,9.3-5.7,9,0c0,0,1.7,1-3.3,5.7
		s-127,114.3-127,114.3"/>
	<path class="st2" d="M160.9,206.2l-43.5,39.7c0,0-3.4,2.6-7.1,1l8.3-73.7"/>
</g>
</svg>
