<!-- Generator: Adobe Illustrator 21.1.0, SVG Export Plug-In  -->
<svg version="1.1"
	 xmlns="http://www.w3.org/2000/svg" xmlns:xlink="http://www.w3.org/1999/xlink" xmlns:a="http://ns.adobe.com/AdobeSVGViewerExtensions/3.0/"
	 x="0px" y="0px" width="149.6px" height="104.7px" viewBox="0 0 149.6 104.7" style="enable-background:new 0 0 149.6 104.7;"
	 xml:space="preserve">
<style type="text/css">
	.st0{fill:#F94C82;}
</style>
<defs>
</defs>
<path class="st0" d="M75.4,0c-0.2,0-0.4,0-0.6,0c-0.2,0-0.4,0-0.6,0C33.7,0,0,23.4,0,52.4c0,7.3,0.1,24.2,3.9,30.5
	c4.2,7.1,19.2-0.9,32.5,4.6c14.2,5.9,18.9,17.3,37.8,17.3c0.2,0,0.4,0,0.6,0c0.2,0,0.4,0,0.6,0c18.8,0,23.6-11.4,37.8-17.3
	c13.3-5.5,28.3,2.5,32.5-4.6c3.8-6.3,3.9-23.2,3.9-30.5C149.6,23.4,115.8,0,75.4,0z"/>
</svg>
