<!-- Generator: Adobe Illustrator 21.1.0, SVG Export Plug-In  -->
<svg version="1.1"
	 xmlns="http://www.w3.org/2000/svg" xmlns:xlink="http://www.w3.org/1999/xlink" xmlns:a="http://ns.adobe.com/AdobeSVGViewerExtensions/3.0/"
	 x="0px" y="0px" width="291.4px" height="252.5px" viewBox="0 0 291.4 252.5" style="enable-background:new 0 0 291.4 252.5;"
	 xml:space="preserve">
<style type="text/css">
	.st0{fill:#FFFFFF;stroke:#BCBEC0;stroke-width:2;stroke-linecap:round;stroke-linejoin:round;stroke-miterlimit:10;}
</style>
<defs>
</defs>
<g>
	<path class="st0" d="M51.2,181.2c-11-14.2-15.2-33.7-19.2-51c-6.2-26.7-10.5-54-13.6-81.3c-1.6-13.6-2.7-27.2-3.6-40.9
		c-0.1-2.4-0.3-4.7-0.4-7.1c-2.9,1.3-5.9,2.5-9,3.4c0.1,0.9,0.1,1.9,0.2,2.8C6.6,21.5,8,35.8,9.7,50c2.8,22.9,10.2,76.8,14.8,98.5
		c1.7,8,7.2,24.6-2.3,40.7c-3.7,6.3-21.2,19-21.2,19l11.9,43.3c0,0,66.7-12.7,151.5-11v-22C139.6,217.5,82.1,221.2,51.2,181.2z"/>
	<path class="st0" d="M269.2,189.2c-9.5-16.2-4-32.7-2.3-40.7c4.6-21.7,12-75.6,14.8-98.5c1.7-14.2,3.1-28.5,4.1-42.8
		c0.1-0.9,0.1-1.9,0.2-2.8c-3.1-1-6-2.1-9-3.4c-0.1,2.4-0.3,4.7-0.4,7.1c-0.9,13.7-2,27.3-3.6,40.9c-3.1,27.3-7.4,54.5-13.6,81.3
		c-4,17.2-8.2,36.7-19.2,51c-26.8,34.8-73.9,36.5-101.9,37v22.1c79.3-0.5,140.3,11.1,140.3,11.1l11.9-43.3
		C290.4,208.2,272.9,195.5,269.2,189.2z"/>
</g>
</svg>
