<!-- Generator: Adobe Illustrator 21.1.0, SVG Export Plug-In  -->
<svg version="1.1"
	 xmlns="http://www.w3.org/2000/svg" xmlns:xlink="http://www.w3.org/1999/xlink" xmlns:a="http://ns.adobe.com/AdobeSVGViewerExtensions/3.0/"
	 x="0px" y="0px" width="92.5px" height="92.6px" viewBox="0 0 92.5 92.6" style="enable-background:new 0 0 92.5 92.6;"
	 xml:space="preserve">
<style type="text/css">
	.st0{fill:#FFFFFF;}
</style>
<defs>
</defs>
<g>
	<g>
		<polygon class="st0" points="41.3,92.6 43.5,84.4 41.3,92.6 		"/>
		<path class="st0" d="M54.4,85.9c0,0,0.1,0,0.1,0C54.4,85.9,54.4,85.9,54.4,85.9C54.3,85.9,54.3,85.9,54.4,85.9z"/>
		<path class="st0" d="M16.5,64.2l2,0.6c0.1,0,0.1,0,0.2,0c0,0,0,0,0-0.1l0.6-2.2c-0.1-0.4-0.2-0.9-0.3-1.3
			c-1.8,0.4-3.6,0.7-5.5,1.1c0.1,0.3,0.2,0.7,0.3,1C14.4,63.6,15.5,63.9,16.5,64.2L16.5,64.2z"/>
		<path class="st0" d="M10.9,63c0-0.1,0-0.1,0-0.2c-1.8,0.4-3.6,0.7-5.4,1.1c0.5,2,1.1,4,1.7,6c0.2-0.1,0.3-0.1,0.5-0.2l2.5-5.1
			L10.9,63z"/>
		<path class="st0" d="M71.7,56.5c1.1,0,2.1,0,3.2,0c-0.1-1.3-0.2-2.5-0.2-3.8C73.8,54.1,72.8,55.4,71.7,56.5z"/>
		<path class="st0" d="M79.3,77.4c1.9,1.1,3.9,2.2,5.8,3.3c0.2-2,0.5-4,0.8-6c-2-0.8-3.9-1.7-5.9-2.5C79.8,74,79.5,75.7,79.3,77.4z"
			/>
		<path class="st0" d="M83.2,49c-2,0.4-3.9,0.7-5.9,1.1c0.1,2.1,0.2,4.3,0.4,6.4c2,0,3.9,0,5.9,0C83.4,54,83.3,51.5,83.2,49z"/>
		<path class="st0" d="M86.2,48.5c0.1,2.7,0.2,5.4,0.4,8c2,0,3.9,0,5.9,0c-0.2-3-0.3-6.1-0.4-9.1C90.1,47.7,88.1,48.1,86.2,48.5z"/>
		<path class="st0" d="M83.5,68.6c2,0.6,3.9,1.2,5.9,1.8c0-2.5,0.1-5,0.2-7.5c-2-0.3-3.9-0.6-5.9-0.8C83.6,64.3,83.5,66.5,83.5,68.6
			z"/>
		<path class="st0" d="M20.4,55.8c-2,0-4-0.1-6-0.1c0,1.4,0,2.7,0,4c2-0.3,4-0.5,6-0.8l0-0.1C20.4,57.9,20.4,56.8,20.4,55.8z"/>
		<path class="st0" d="M18.4,49.7c-0.2,1.1-0.5,2.2-0.7,3.3c1.4,0.2,2.8,0.4,4.3,0.5l0.8-2.6C21.3,50.5,19.8,50.1,18.4,49.7z"/>
		<path class="st0" d="M25,43.3l0.5-1.6l0,0c-0.5,0.7-1,1.5-1.4,2.2c0.2,0.2,0.4,0.3,0.7,0.5L25,43.3L25,43.3z"/>
		<path class="st0" d="M18.9,35.7c-0.7,1.1-1.4,2.1-2.2,3.2c1.6,1.1,3.2,2.2,4.8,3.3c0.5-0.8,1.1-1.7,1.7-2.5
			C21.8,38.3,20.3,37,18.9,35.7z"/>
		<path class="st0" d="M16.4,46.2c1.8,0.7,3.7,1.4,5.6,2.1c0.3-0.8,0.7-1.7,1.1-2.6c-1.7-1-3.5-1.9-5.2-2.8
			C17.3,44,16.8,45.1,16.4,46.2z"/>
		<path class="st0" d="M12.5,29.8c-1,1.4-2,2.7-2.9,4.1c1.6,1.1,3.1,2.2,4.7,3.2c0.8-1.2,1.6-2.3,2.4-3.5
			C15.3,32.4,13.9,31.1,12.5,29.8z"/>
		<path class="st0" d="M10.4,27.9c-1.4-1.3-2.7-2.5-4.1-3.8c-1.3,1.7-2.5,3.4-3.7,5c1.5,1,3.1,2.1,4.6,3.2
			C8.3,30.9,9.4,29.4,10.4,27.9z"/>
		<path class="st0" d="M7.6,37.4c-1.7-0.9-3.4-1.8-5-2.7c-0.9,1.8-1.7,3.6-2.5,5.3c1.8,0.6,3.6,1.3,5.4,2C6.1,40.5,6.8,39,7.6,37.4z
			"/>
		<path class="st0" d="M8.1,43.1c1.8,0.7,3.7,1.4,5.5,2c0.5-1.2,1-2.4,1.6-3.6c-1.7-0.9-3.4-1.8-5.1-2.7C9.4,40.2,8.8,41.7,8.1,43.1
			z"/>
		<path class="st0" d="M18.6,23.2c-1-1.6-2-3.2-3-4.8c-1.4,1.4-2.8,2.7-4.1,4.1c1.2,1.4,2.4,2.9,3.6,4.3
			C16.3,25.6,17.4,24.4,18.6,23.2z"/>
		<path class="st0" d="M42,0c-1.8,0.6-3.6,1.3-5.3,1.9c-0.1,2.3-0.3,4.5-0.3,6.8c1.5-0.5,3.1-1.1,4.6-1.6C41.2,4.7,41.6,2.4,42,0z"
			/>
		<path class="st0" d="M32.9,13.5c-0.2-2.2-0.3-4.3-0.4-6.5c-1.6,0.9-3.3,1.7-4.9,2.6c0.3,2,0.7,4.1,1.2,6.1
			C30.1,15,31.5,14.3,32.9,13.5z"/>
		<path class="st0" d="M75.4,3.7c-1.3-0.9-2.5-1.7-3.8-2.5C70,3.6,68.4,6,66.8,8.4c1.1,0.7,2.3,1.5,3.4,2.2
			C71.9,8.4,73.6,6.1,75.4,3.7z"/>
		<path class="st0" d="M74,28.6c1.9-1.6,3.9-3.2,5.9-4.9c-0.8-1.5-1.5-3-2.3-4.4c-1.9,1.9-3.8,3.7-5.7,5.5
			C72.6,26.1,73.3,27.3,74,28.6z"/>
		<path class="st0" d="M92.2,43c-0.5-2.5-1-5.1-1.4-7.6c-2.1,0.9-4.3,1.8-6.4,2.7c0.4,2.2,0.8,4.4,1.3,6.6
			C87.9,44.2,90.1,43.6,92.2,43z"/>
		<path class="st0" d="M75.5,32c-1,0.7-2,1.4-3,2.1c1,1.1,1.9,2.3,2.6,3.7c0.7-0.4,1.3-0.7,2-1.1C76.6,35.1,76,33.5,75.5,32z"/>
	</g>
	<path class="st0" d="M73.7,46.9c1.7-8.9-4.9-14-14.1-17.5l3.6-12.2L56,14.9l-3.5,12c-1.9-0.6-4-1.1-5.9-1.7l2.4-8.1l-7.3-2.3
		l-2.4,8c-1.6-0.4-14.6-4.4-14.6-4.4l-2.4,8.3c0,0,5.4,1.5,5.3,1.5c3,0.9,3.4,2.9,3.3,4.4l-4,13.6c0.2,0.1,0.3,0.1,0,0.1l-5.6,19.1
		c-0.4,0.9-1.4,2.2-3.4,1.6c-0.1,0.1-3.8-1.1-5.3-1.5l-4,8.3c17,5,8.5,2.5,14.7,4.3l-3.5,12l7.3,2.3l3.5-12c2,0.6,3.9,1.2,5.8,1.8
		l-2.2,8l7.3,2.3l2.3-8.3c12.5,2.9,22,2.3,26.4-8.9c3.6-9,0.4-14.4-6-18.1C68.8,56.4,72.5,53.4,73.7,46.9z M60.4,50.8
		c-2.7-1.6-3.7-2.1-6.1-2.4c-6-0.8-9.7,3.4-10.5,9.4c-0.7,4.9,1.3,6.4,4.6,6.9c3.5,0.5,6-0.3,7.4-0.7l3.3,8.2
		c-12.7,4.7-25.1,1.1-26.7-9.3c-2.7-16.9,15.5-32,33-20.4L60.4,50.8z"/>
</g>
</svg>
