<!-- Generator: Adobe Illustrator 21.1.0, SVG Export Plug-In  -->
<svg version="1.1"
	 xmlns="http://www.w3.org/2000/svg" xmlns:xlink="http://www.w3.org/1999/xlink" xmlns:a="http://ns.adobe.com/AdobeSVGViewerExtensions/3.0/"
	 x="0px" y="0px" width="72.1px" height="22.3px" viewBox="0 0 72.1 22.3" style="enable-background:new 0 0 72.1 22.3;"
	 xml:space="preserve">
<style type="text/css">
	.st0{fill:#E09182;}
	.st1{fill:#D56E5A;}
</style>
<defs>
</defs>
<g>
	<path class="st0" d="M31.1,21.9c-10.8,1.9-18.2-3.8-25.4-10.5C11.5,10.5,17.3,11,23,11c14.4,0.1,28.8-0.5,43.2,0.3
		C61,16.7,56,22.4,47.4,22c-3.8-0.2-7.6,0-11.4,0C34.4,22,32.7,21.6,31.1,21.9z"/>
	<path class="st1" d="M5.7,11.4C3.8,11.3,1.9,11.2,0,11c0.1-0.3,0.1-0.6,0.1-0.9c9-3.4,17.9-6.7,26.7-10C30.1,1.8,33,3.3,36,4.8
		C39.4,4,42.1,1.6,45.7,0c8.6,3.2,17.5,6.6,26.4,9.9c0,0.3,0,0.6,0,0.9c-1.9,0.2-3.9,0.4-5.8,0.6C51.8,10.6,37.5,11.1,23,11
		C17.3,11,11.5,10.5,5.7,11.4z"/>
</g>
</svg>
