<!-- Generator: Adobe Illustrator 21.1.0, SVG Export Plug-In  -->
<svg version="1.1"
	 xmlns="http://www.w3.org/2000/svg" xmlns:xlink="http://www.w3.org/1999/xlink" xmlns:a="http://ns.adobe.com/AdobeSVGViewerExtensions/3.0/"
	 x="0px" y="0px" width="53.9px" height="54.6px" viewBox="0 0 53.9 54.6" style="enable-background:new 0 0 53.9 54.6;"
	 xml:space="preserve">
<style type="text/css">
	.st0{fill:url(#SVGID_1_);}
	.st1{fill:none;stroke:url(#SVGID_2_);stroke-miterlimit:10;}
	.st2{fill:url(#SVGID_3_);}
	.st3{fill:none;stroke:url(#SVGID_4_);stroke-miterlimit:10;}
</style>
<defs>
</defs>
<g>
	<linearGradient id="SVGID_1_" gradientUnits="userSpaceOnUse" x1="26.9335" y1="54.8871" x2="26.9335" y2="-0.5533">
		<stop  offset="0" style="stop-color:#A76F3C"/>
		<stop  offset="0.321" style="stop-color:#CA915D"/>
		<stop  offset="0.5027" style="stop-color:#DDA46F"/>
		<stop  offset="0.6305" style="stop-color:#D29965"/>
		<stop  offset="0.8396" style="stop-color:#BB824F"/>
		<stop  offset="1" style="stop-color:#A76F3C"/>
	</linearGradient>
	<path class="st0" d="M27.2,54.1c-13.6,0-24.7-9.7-26.4-23C-0.7,19.6,4.2,9.4,14.1,3.9c3.9-2.2,8.5-3.4,13.2-3.4
		c8.5,0,16.5,3.9,21.3,10.3l0.9,1.3l-6.2,5.2l-1.1-1l-0.4-0.3c-0.3-0.3-0.5-0.5-0.8-0.8c-3.8-4.3-8.3-6.4-13.3-6.4
		c-1.9,0-3.9,0.3-5.9,0.9c-7.1,2.1-11.3,7.2-12.3,15.1c-1.1,7.9,2.5,15.3,9,18.9c2.6,1.4,5.6,2.2,8.6,2.2h0c8,0,14.9-5.1,16.9-12.3
		c0.1-0.5,0.2-1.1,0.3-1.7H25.6v-7.9h27.1l0.3,1.3c0.7,3.1,0.3,6-0.2,8.2C50.1,45.8,40.1,54,27.5,54.1L27.2,54.1z"/>
	<linearGradient id="SVGID_2_" gradientUnits="userSpaceOnUse" x1="0" y1="27.2895" x2="53.867" y2="27.2895">
		<stop  offset="0" style="stop-color:#A76F3C"/>
		<stop  offset="0.321" style="stop-color:#CA915D"/>
		<stop  offset="0.5027" style="stop-color:#DDA46F"/>
		<stop  offset="0.6305" style="stop-color:#D29965"/>
		<stop  offset="0.8396" style="stop-color:#BB824F"/>
		<stop  offset="1" style="stop-color:#A76F3C"/>
	</linearGradient>
	<path class="st1" d="M27.2,54.1c-13.6,0-24.7-9.7-26.4-23C-0.7,19.6,4.2,9.4,14.1,3.9c3.9-2.2,8.5-3.4,13.2-3.4
		c8.5,0,16.5,3.9,21.3,10.3l0.9,1.3l-6.2,5.2l-1.1-1l-0.4-0.3c-0.3-0.3-0.5-0.5-0.8-0.8c-3.8-4.3-8.3-6.4-13.3-6.4
		c-1.9,0-3.9,0.3-5.9,0.9c-7.1,2.1-11.3,7.2-12.3,15.1c-1.1,7.9,2.5,15.3,9,18.9c2.6,1.4,5.6,2.2,8.6,2.2h0c8,0,14.9-5.1,16.9-12.3
		c0.1-0.5,0.2-1.1,0.3-1.7H25.6v-7.9h27.1l0.3,1.3c0.7,3.1,0.3,6-0.2,8.2C50.1,45.8,40.1,54,27.5,54.1L27.2,54.1z"/>
</g>
</svg>
