<!-- Generator: Adobe Illustrator 21.1.0, SVG Export Plug-In  -->
<svg version="1.1"
	 xmlns="http://www.w3.org/2000/svg" xmlns:xlink="http://www.w3.org/1999/xlink" xmlns:a="http://ns.adobe.com/AdobeSVGViewerExtensions/3.0/"
	 x="0px" y="0px" width="291.6px" height="379.1px" viewBox="0 0 291.6 379.1" style="enable-background:new 0 0 291.6 379.1;"
	 xml:space="preserve">
<style type="text/css">
	.st0{fill:#FE9574;}
	.st1{fill:#FEA88D;}
	.st2{fill:#7E4A2E;}
	.st3{fill:#FEBCA7;}
	.st4{fill:#8C5233;}
	.st5{fill:#E09182;}
	.st6{fill:#FDCFC0;}
	.st7{fill:#FEBBA6;}
	.st8{fill:#FEE2D9;}
	.st9{display:none;}
	.st10{display:inline;fill:#E09182;}
	.st11{display:inline;fill:#D56E5A;}
	.st12{display:inline;fill:#81635A;}
	.st13{display:inline;fill:#7F726F;}
	.st14{display:inline;fill:#8C5233;}
	.st15{display:inline;fill:#7E4A2E;}
</style>
<defs>
</defs>
<g>
	<path class="st0" d="M263.3,175.3c3.4,7.3,5.9,14.9,8.8,22.7c-2.9,6.7-5.6,13.1-8.4,19.5c-4.6,0.7-8.8,0.7-13.5,0c0-14,0-27.9,0-42
		C254.6,174.6,258.9,175,263.3,175.3z"/>
	<path class="st1" d="M235.7,287.9c1.1-0.1,1.1,0.6,1.2,1.2c-1.4,14-4,27.8-6.2,41.7c-6.1,4.2-16.1,10.9-24.5,16.6
		c-8.4,5.6-15.3,10.2-15.3,10.2c0,0,29.6-47,43.7-68.7C234.9,288.4,235.4,288.2,235.7,287.9z"/>
	<path class="st0" d="M146.8,272c0-26.6,0.1-53.2,0.1-79.8c1.6,0,3.3,0,4.8,0c11.7,17.6,8.3,38,11,56.9c2.4,1.6,4.5,3,6.6,4.4
		c1.4,4.9,2.3,9.7,3,15.2C163.8,270.1,155.5,271.8,146.8,272z"/>
	<path class="st2" d="M170.8,105.8c-8.6,2.1-15.9,6.4-24,8.5c0-36.3,0-72.5-0.1-108.8c0-1.6-0.3-3.4,1.2-4.6
		c13.1,8.2,26.3,16.3,39.4,24.5c19.3,12.1,38.6,24.3,57.9,36.5c1.2,0.8,2.4,1.7,4.3,3c0,28.5,0,57.3,0,86c0,5.6,0,11.2,0,17.2
		c-6.7,0-12.7,0-19.4,0c0-33.6,0-67,0-100.5c-0.4-0.1-0.7-0.2-1.1-0.4c-1.4,1.3-2.9,2.6-4.2,3.9c-23,22.5-45.9,45-68.9,67.5
		c-1.3,1.3-2.7,2.4-4.1,3.6c-0.2-0.2-0.4-0.4-0.5-0.5c5.5-9.7,11-19.3,16.5-29c1.1-1.9,2.4-3.7,3.1-6.5c0-0.1,0.1-0.2,0.1-0.3
		C171,105.8,170.9,105.8,170.8,105.8z"/>
	<path class="st2" d="M151.9,142.1c-0.1,0.4-0.3,0.7-1,0.5c0.1-0.3,0.3-0.7,0.4-1C151.6,141.8,151.7,141.9,151.9,142.1z"/>
	<path class="st3" d="M140.8,192.9c2.3-1.3,4.2-0.7,5.9-1l0.2,0.2c0,26.6-0.1,53.2-0.1,79.8l-0.2,0.3c-8.4-0.8-16.7-2-25.5-3.6
		c-0.4-5.5,2-10.4,3-15.4c2.2-1.3,4.1-2.4,6.2-3.6c1.1-3.9,1.6-7.8,1.5-11.8c-0.1-7.5,0.9-14.9,1.2-22.4
		C133.5,207.2,138,200,140.8,192.9z"/>
	<path class="st4" d="M146.8,5.5c0,36.3,0.1,72.5,0.1,108.8c0,0.2,0,0.5-0.1,0.7c-12.4,4-24.2,9.2-36.3,13.9
		c-15.5,6-31,12.1-47,18.4c0,6.8,0,13.6,0,20.6c-6.5,0-12.4,0-18.6,0c-1-5.7,0-11.3-0.6-16.9c0.1-13.6,0.2-27.3,0.3-40.9
		c0-15.1,0-30.3,0-45.8c9.5-5.9,18.9-11.9,28.3-17.8C97.5,31,122.2,15.5,146.8,0c0.4,0.3,0.8,0.6,1.2,0.9
		C146.5,2.1,146.8,3.9,146.8,5.5z"/>
	<path class="st5" d="M110.9,302.2c0,0.3-0.1,0.6-0.1,0.9c-0.2-0.2-0.4-0.4-0.6-0.5C110.4,302.4,110.7,302.3,110.9,302.2z"/>
	<path class="st6" d="M101.9,358c-12.8-9-25.5-18-38.8-27.4c-2.9-14.8-4.8-30.3-7.2-45.6c5.5,8.1,11.1,16.1,16.4,24.2
		c9.3,14.1,18.5,28.3,27.7,42.5c1.2,1.9,3.1,3.6,2.9,6.2C102.5,358,102.2,358,101.9,358z"/>
	<path class="st3" d="M44.3,175.2c0,14.2,0,28.1,0,42.3c-5.1,1-10,0.4-15.3,0.4c-3.4-6.5-6-13.3-8.2-20.2c-0.4-1.4-0.2-3,0.4-4.4
		c2.4-5.8,4.8-11.7,7.4-17.9C34.1,174.8,39,175,44.3,175.2z"/>
	<g>
		<path class="st7" d="M290.4,192.4c-2.7-6.8-5.4-13.6-8.1-20.4c-2.8-6.9-5.5-13.8-8.5-21.2c-8.2,0-16.2,0-24.2,0
			c0,5.6,0,11.2,0,17.2c-6.7,0-12.7,0-19.4,0c0-33.6,0-67,0-100.5c-0.4-0.1-0.7-0.2-1.1-0.4c-1.4,1.3-2.9,2.6-4.2,3.9
			c-23,22.5-45.9,45-68.9,67.5c-1.3,1.3-2.7,2.4-4.1,3.6c-0.1,0.4-0.3,0.8-1,0.5c0.1-0.3,0.3-0.7,0.4-1c5.5-9.7,11-19.3,16.5-29
			c1.1-1.9,2.4-3.7,3.1-6.5c0-0.1-0.1-0.2-0.2-0.2c0,0,0,0,0,0c-8.6,2.2-15.9,6.5-24,8.5c0,0.2,0,0.5-0.1,0.7
			c0,25.6-0.1,51.3-0.1,76.9l0.2,0.2c1.6,0,3.3,0,4.8,0c11.7,17.6,8.3,38,11,56.9c2.4,1.6,4.5,3,6.6,4.4c1.4,4.9,2.3,9.8,3,15.2
			c-8.5,1.5-16.9,3.2-25.5,3.4l-0.2,0.3c0,8.2,0.1,16.4,0.1,24.6c-0.1,0-0.1-0.1-0.2-0.1v17.3c0.1,0,0.2,0,0.3,0
			c0,21.6,0,43.2-0.1,64.9l0.2,0.1c10.1,0,20.3,0,30.1,0l13.9-21.6c0,0,29.6-47,43.7-68.7c0.3-0.4,0.7-0.7,1-0.9
			c1-0.1,1,0.6,1.2,1.2c4-15.5,6.9-31.3,11.8-47.1c8.6,0,16.8,0,24.8,0c0.7-1.1,1.2-1.7,1.4-2.3c5.3-13.1,10.6-26.2,16-39.2
			C292.1,197.6,291.5,195,290.4,192.4z M263.7,217.6c-4.6,0.6-8.8,0.6-13.5,0c0-14,0-27.9,0-42c4.4-1,8.6-0.6,13.1-0.3
			c3.4,7.3,5.9,14.9,8.8,22.7C269.2,204.7,266.5,211.1,263.7,217.6z"/>
		<path class="st8" d="M146.5,296.7c-0.7-0.3-1.3-0.7-2-1c0.7,0.4,1.5,0.8,2.2,1.1c0-8.2-0.1-16.4-0.1-24.6
			c-8.4-0.8-16.7-2-25.5-3.6c-0.4-5.6,2-10.4,3-15.4c2.2-1.3,4.1-2.4,6.2-3.6c1.1-3.9,1.6-7.8,1.5-11.8c-0.1-7.5,0.9-14.9,1.2-22.4
			c0.4-8.2,4.9-15.4,7.7-22.5c2.3-1.3,4.2-0.7,5.9-1c0-25.6,0.1-51.3,0.1-76.9c-12.3,4-24.2,9.2-36.3,13.9c-15.5,6-31,12.1-47,18.4
			c0,6.8,0,13.6,0,20.7c-6.5,0-12.4,0-18.6,0c-1-5.7,0-11.3-0.6-16.9c-8.6,0-17.2,0-25.9,0C12.2,166.7,6.1,181.8,0,197.1
			c6.1,14.9,12.2,29.8,18.2,44.6c9.3,1.1,18.3-0.7,27.4,1.2c3.5,14.4,6.9,28.3,10.3,42.2c5.5,8.1,11.1,16.1,16.4,24.2
			c9.3,14.1,18.5,28.3,27.7,42.5c1.2,1.9,3.1,3.6,2.9,6.2c5,4.4,6.9,10.8,10.5,16.2c0.9,1.4,1.6,2.9,2.7,4.8c10.2,0,20.4,0,30.7,0
			c0-21.6,0-43.3,0.1-64.9c-0.1,0-0.2,0-0.3,0V296.7z M44.4,217.5c-5.1,1-10,0.4-15.3,0.4c-3.4-6.5-6-13.3-8.2-20.2
			c-0.4-1.4-0.2-3,0.4-4.4c2.4-5.8,4.8-11.7,7.4-17.9c5.4-0.6,10.3-0.4,15.7-0.2C44.4,189.5,44.4,203.3,44.4,217.5z"/>
	</g>
	<g class="st9">
		<path class="st10" d="M141.8,314c-10.8,1.9-18.2-3.8-25.4-10.5c5.8-0.9,11.6-0.4,17.3-0.4c14.4,0.1,28.8-0.5,43.2,0.3
			c-5.2,5.4-10.3,11-18.8,10.6c-3.8-0.2-7.6,0-11.4,0C145.1,314,143.4,313.7,141.8,314z"/>
		<path class="st11" d="M116.5,303.5c-1.9-0.1-3.8-0.2-5.7-0.4c0.1-0.3,0.1-0.6,0.1-0.9c9-3.4,17.9-6.7,26.7-10
			c3.3,1.7,6.2,3.1,9.2,4.6c3.4-0.8,6.1-3.2,9.7-4.8c8.6,3.2,17.5,6.6,26.4,9.9c0,0.3,0,0.6,0,0.9c-2,0.2-3.9,0.4-5.8,0.5
			c-14.4-0.8-28.8-0.2-43.2-0.3C128,303,122.2,302.6,116.5,303.5z"/>
	</g>
	<g class="st9">
		<path class="st12" d="M195.8,194.7c-4-0.1-7.6-3.7-7.7-7.7c-0.1-4,3.3-7.7,7.5-7.9c4.3-0.2,8.1,3.4,8.2,7.7
			C203.8,191.1,200.1,194.8,195.8,194.7z"/>
		<path class="st13" d="M97.9,194.7c-4,0.1-7.7-3.3-7.9-7.4c-0.2-4.2,3.4-8.1,7.7-8.1c4.3-0.1,8,3.6,7.9,7.9
			C105.5,191,101.9,194.6,97.9,194.7z"/>
	</g>
	<g class="st9">
		<path class="st14" d="M74,167.8c4.4-1.4,8.8-1.2,13.3-0.7c11.4,1.2,22.8,2.4,34.2,3.7c13.6,1.5,15.7-0.8,12.2-13.9
			c-0.1-0.3-0.4-0.5-1-1.1c-4.3,2.9-9,3.6-14.3,2.3c-7.9-1.9-16-2.8-23.9-4.6c-5.8-1.3-10.4-0.1-14.5,4c-3.5,3.5-7.1,6.8-10.8,10.3
			C70.8,168.7,72.5,168.3,74,167.8z"/>
		<path class="st15" d="M202.4,153c-4.9,1.1-9.8,2-14.7,2.7c-8.8,1.2-17.5,5.3-26.5,0.6c-1.3,2.2-1.3,4.8-1.8,7.2
			c-1,5.2,1.8,8.5,7,8.1c3.6-0.3,7.3-1,10.9-1.2c16.3-0.7,32.5-6.3,49.2-2c-4.6-4.3-9.2-8.6-14-12.8
			C209.7,153.1,206.4,152.1,202.4,153z"/>
	</g>
</g>
</svg>
