<!-- Generator: Adobe Illustrator 21.1.0, SVG Export Plug-In  -->
<svg version="1.1"
	 xmlns="http://www.w3.org/2000/svg" xmlns:xlink="http://www.w3.org/1999/xlink" xmlns:a="http://ns.adobe.com/AdobeSVGViewerExtensions/3.0/"
	 x="0px" y="0px" width="66.1px" height="18.3px" viewBox="0 0 66.1 18.3" style="enable-background:new 0 0 66.1 18.3;"
	 xml:space="preserve">
<style type="text/css">
	.st0{fill:#8C5233;}
</style>
<defs>
</defs>
<path class="st0" d="M5,14.9c4.4-1.4,8.8-1.2,13.3-0.7c11.4,1.2,22.8,2.4,34.2,3.7C66,19.4,68.1,17.1,64.6,4c-0.1-0.3-0.4-0.5-1-1.1
	c-4.3,2.9-9,3.6-14.3,2.3c-7.9-1.9-16-2.8-23.9-4.6c-5.8-1.3-10.4-0.1-14.5,4C7.3,8,3.7,11.3,0,14.8C1.8,15.8,3.5,15.4,5,14.9z"/>
</svg>
