<?xml version="1.0" encoding="UTF-8" standalone="no"?>
<!-- Generator: Adobe Illustrator 16.0.0, SVG Export Plug-In . SVG Version: 6.00 Build 0)  -->

<svg
   xmlns:dc="http://purl.org/dc/elements/1.1/"
   xmlns:cc="http://creativecommons.org/ns#"
   xmlns:rdf="http://www.w3.org/1999/02/22-rdf-syntax-ns#"
   xmlns:svg="http://www.w3.org/2000/svg"
   xmlns="http://www.w3.org/2000/svg"
   xmlns:sodipodi="http://sodipodi.sourceforge.net/DTD/sodipodi-0.dtd"
   xmlns:inkscape="http://www.inkscape.org/namespaces/inkscape"
   version="1.1"
   id="Calque_2"
   x="0px"
   y="0px"
   width="250"
   height="400"
   viewBox="0 0 250 400"
   enable-background="new 0 0 680.167 241.418"
   xml:space="preserve"
   inkscape:version="0.48.5 r10040"
   sodipodi:docname="logo.svg"><metadata
   id="metadata69"><rdf:RDF><cc:Work
       rdf:about=""><dc:format>image/svg+xml</dc:format><dc:type
         rdf:resource="http://purl.org/dc/dcmitype/StillImage" /><dc:title></dc:title></cc:Work></rdf:RDF></metadata><defs
   id="defs67" /><sodipodi:namedview
   pagecolor="#ffffff"
   bordercolor="#666666"
   borderopacity="1"
   objecttolerance="10"
   gridtolerance="10"
   guidetolerance="10"
   inkscape:pageopacity="0"
   inkscape:pageshadow="2"
   inkscape:window-width="1280"
   inkscape:window-height="741"
   id="namedview65"
   showgrid="false"
   inkscape:zoom="0.92918358"
   inkscape:cx="-11.419132"
   inkscape:cy="195.77793"
   inkscape:window-x="-8"
   inkscape:window-y="-8"
   inkscape:window-maximized="1"
   inkscape:current-layer="Calque_2" />
<polygon
   points="193.102,105.356 206.776,52.905 159.897,63.72 "
   id="polygon3"
   style="fill:#7da685"
   transform="translate(8.6097088,44.665009)" />
<polygon
   points="40.231,105.356 73.435,63.72 26.556,52.905 "
   id="polygon5"
   style="fill:#7da685"
   transform="translate(8.6097088,44.665009)" />
<polygon
   points="193.102,105.356 159.897,63.72 73.435,63.72 40.231,105.356 116.211,193.672 "
   id="polygon7"
   style="fill:#063540;fill-opacity:1"
   transform="translate(8.6097088,44.665009)" />
<polygon
   points="40.231,105.356 26.556,52.905 4.3,150.411 "
   id="polygon9"
   style="fill:#f9db8c"
   transform="translate(8.6097088,44.665009)" />
<polygon
   points="116.211,193.672 40.231,105.356 4.3,150.411 "
   id="polygon11"
   style="fill:#f2d529;fill-opacity:1"
   transform="translate(8.6097088,44.665009)" />
<polygon
   points="206.776,52.905 193.102,105.356 229.032,150.411 "
   id="polygon13"
   style="fill:#f1958e"
   transform="translate(8.6097088,44.665009)" />
<polygon
   points="193.102,105.356 116.211,193.672 229.032,150.411 "
   id="polygon15"
   style="fill:#f24d1b;fill-opacity:1"
   transform="translate(8.6097088,44.665009)" />
<polygon
   points="73.435,63.72 116.666,9.51 26.556,52.905 "
   id="polygon17"
   style="fill:#a1c2a5"
   transform="translate(8.6097088,44.665009)" />
<polygon
   points="159.897,63.72 206.776,52.905 206.774,52.903 116.667,9.509 116.666,9.509 "
   id="polygon19"
   style="fill:#a1c2a5"
   transform="translate(8.6097088,44.665009)" />
<polygon
   points="116.666,9.51 73.435,63.72 159.897,63.72 116.666,9.509 "
   id="polygon21"
   style="fill:#206868"
   transform="translate(8.6097088,44.665009)" />
<polygon
   points="116.211,193.672 66.659,228.608 166.674,228.608 "
   id="polygon23"
   style="fill:#063540;fill-opacity:1"
   transform="translate(8.6097088,44.665009)" />
<polygon
   points="116.211,193.672 4.3,150.411 66.659,228.608 "
   id="polygon25"
   style="fill:#baa123;fill-opacity:1"
   transform="translate(8.6097088,44.665009)" />
<polygon
   points="116.211,193.672 166.674,228.608 177.146,215.476 164.459,200.479 195.395,192.592 229.032,150.411 "
   id="polygon27"
   style="fill:#c23e15;fill-opacity:1"
   transform="translate(8.6097088,44.665009)" />
<polygon
   points="177.146,215.476 195.395,192.592 164.459,200.479 "
   id="polygon29"
   style="fill:#c23e15;fill-opacity:1"
   transform="matrix(1.1829002,0,0,1.1829002,-25.12808,7.2543989)" />

















<text
   xml:space="preserve"
   style="font-size:40px;font-style:normal;font-variant:normal;font-weight:bold;font-stretch:normal;line-height:125%;letter-spacing:0px;word-spacing:0px;fill:#cccccc;fill-opacity:1;stroke:none;font-family:Aharoni;-inkscape-font-specification:Aharoni Bold"
   x="39.819901"
   y="322.67429"
   id="text3046"
   sodipodi:linespacing="125%"><tspan
     sodipodi:role="line"
     x="39.819901"
     y="322.67429"
     id="tspan3050">CREATIVE</tspan></text>
<text
   xml:space="preserve"
   style="font-size:21.77186394px;font-style:normal;font-variant:normal;font-weight:bold;font-stretch:normal;line-height:125%;letter-spacing:0px;word-spacing:0px;fill:#e85348;fill-opacity:1;stroke:none;font-family:Aharoni;-inkscape-font-specification:Aharoni Bold"
   x="43.294689"
   y="348.1384"
   id="text3046-6"
   sodipodi:linespacing="125%"><tspan
     sodipodi:role="line"
     x="43.294689"
     y="348.1384"
     id="tspan3050-2">DESIGN AGENCY</tspan></text>
</svg>