<?xml version="1.0" encoding="UTF-8" standalone="no"?>
<!-- Generator: Adobe Illustrator 16.0.0, SVG Export Plug-In . SVG Version: 6.00 Build 0)  -->

<svg
   xmlns:dc="http://purl.org/dc/elements/1.1/"
   xmlns:cc="http://creativecommons.org/ns#"
   xmlns:rdf="http://www.w3.org/1999/02/22-rdf-syntax-ns#"
   xmlns:svg="http://www.w3.org/2000/svg"
   xmlns="http://www.w3.org/2000/svg"
   xmlns:sodipodi="http://sodipodi.sourceforge.net/DTD/sodipodi-0.dtd"
   xmlns:inkscape="http://www.inkscape.org/namespaces/inkscape"
   version="1.1"
   id="Calque_2"
   x="0px"
   y="0px"
   width="40"
   height="132"
   viewBox="0 0 40 132"
   enable-background="new 0 0 680.167 241.418"
   xml:space="preserve"
   inkscape:version="0.48.5 r10040"
   sodipodi:docname="logo-mini.svg"><metadata
   id="metadata69"><rdf:RDF><cc:Work
       rdf:about=""><dc:format>image/svg+xml</dc:format><dc:type
         rdf:resource="http://purl.org/dc/dcmitype/StillImage" /><dc:title></dc:title></cc:Work></rdf:RDF></metadata><defs
   id="defs67"><filter
     inkscape:label="Desaturate"
     x="0"
     y="0"
     width="1"
     height="1"
     inkscape:menu="Color"
     inkscape:menu-tooltip="Render in shades of gray by reducing saturation to zero"
     color-interpolation-filters="sRGB"
     id="filter4129"><feColorMatrix
       type="saturate"
       values="0"
       id="feColorMatrix4131" /></filter></defs><sodipodi:namedview
   pagecolor="#ffffff"
   bordercolor="#666666"
   borderopacity="1"
   objecttolerance="10"
   gridtolerance="10"
   guidetolerance="10"
   inkscape:pageopacity="0"
   inkscape:pageshadow="2"
   inkscape:window-width="1280"
   inkscape:window-height="741"
   id="namedview65"
   showgrid="false"
   inkscape:zoom="1.314064"
   inkscape:cx="-141.30431"
   inkscape:cy="118.80829"
   inkscape:window-x="-8"
   inkscape:window-y="-8"
   inkscape:window-maximized="1"
   inkscape:current-layer="Calque_2" />













<g
   id="g3007"
   transform="matrix(0.10269958,0,0,0.10269958,7.3449249,97.719922)"
   style="filter:url(#filter4129)"><polygon
     transform="translate(8.6097088,44.665009)"
     style="fill:#7da685"
     id="polygon3"
     points="206.776,52.905 159.897,63.72 193.102,105.356 " /><polygon
     transform="translate(8.6097088,44.665009)"
     style="fill:#7da685"
     id="polygon5"
     points="73.435,63.72 26.556,52.905 40.231,105.356 " /><polygon
     transform="translate(8.6097088,44.665009)"
     style="fill:#063540;fill-opacity:1"
     id="polygon7"
     points="193.102,105.356 159.897,63.72 73.435,63.72 40.231,105.356 116.211,193.672 " /><polygon
     transform="translate(8.6097088,44.665009)"
     style="fill:#f9db8c"
     id="polygon9"
     points="26.556,52.905 4.3,150.411 40.231,105.356 " /><polygon
     transform="translate(8.6097088,44.665009)"
     style="fill:#f2d529;fill-opacity:1"
     id="polygon11"
     points="40.231,105.356 4.3,150.411 116.211,193.672 " /><polygon
     transform="translate(8.6097088,44.665009)"
     style="fill:#f1958e"
     id="polygon13"
     points="193.102,105.356 229.032,150.411 206.776,52.905 " /><polygon
     transform="translate(8.6097088,44.665009)"
     style="fill:#f24d1b;fill-opacity:1"
     id="polygon15"
     points="116.211,193.672 229.032,150.411 193.102,105.356 " /><polygon
     transform="translate(8.6097088,44.665009)"
     style="fill:#a1c2a5"
     id="polygon17"
     points="116.666,9.51 26.556,52.905 73.435,63.72 " /><polygon
     transform="translate(8.6097088,44.665009)"
     style="fill:#a1c2a5"
     id="polygon19"
     points="159.897,63.72 206.776,52.905 206.774,52.903 116.667,9.509 116.666,9.509 " /><polygon
     transform="translate(8.6097088,44.665009)"
     style="fill:#206868"
     id="polygon21"
     points="116.666,9.509 116.666,9.51 73.435,63.72 159.897,63.72 " /><polygon
     transform="translate(8.6097088,44.665009)"
     style="fill:#063540;fill-opacity:1"
     id="polygon23"
     points="66.659,228.608 166.674,228.608 116.211,193.672 " /><polygon
     transform="translate(8.6097088,44.665009)"
     style="fill:#baa123;fill-opacity:1"
     id="polygon25"
     points="4.3,150.411 66.659,228.608 116.211,193.672 " /><polygon
     transform="translate(8.6097088,44.665009)"
     style="fill:#c23e15;fill-opacity:1"
     id="polygon27"
     points="166.674,228.608 177.146,215.476 164.459,200.479 195.395,192.592 229.032,150.411 116.211,193.672 " /><polygon
     transform="matrix(1.1829002,0,0,1.1829002,-25.12808,7.2543989)"
     style="fill:#c23e15;fill-opacity:1"
     id="polygon29"
     points="195.395,192.592 164.459,200.479 177.146,215.476 " /></g>


















<text
   xml:space="preserve"
   style="font-size:18.64202499px;font-style:normal;font-variant:normal;font-weight:bold;font-stretch:normal;line-height:125%;letter-spacing:0px;word-spacing:0px;fill:#575757;fill-opacity:1;stroke:none;font-family:Aharoni;-inkscape-font-specification:Aharoni Bold"
   x="-94.825806"
   y="26.386765"
   id="text3046-6"
   sodipodi:linespacing="125%"
   transform="matrix(0,-1,1,0,0,0)"><tspan
     sodipodi:role="line"
     x="-94.825806"
     y="26.386765"
     id="tspan3050-2"
     style="fill:#575757;fill-opacity:1">CREATIVE </tspan></text>

</svg>