<svg id="Слой_1" data-name="Слой 1" xmlns="http://www.w3.org/2000/svg" viewBox="0 0 206.93 206.93"><defs><style>.cls-1{fill:#fff;}</style></defs><title>Монтажная область 1</title><rect class="cls-1" width="206.93" height="206.93"/><path d="M153,124.8h14.17V139H153ZM167.17,22.61v88H138.83v73.7a21.26,21.26,0,0,1-42.52,0v-73.7H82.13v52.44a21.26,21.26,0,0,1-42.52,0V117.71A21.33,21.33,0,0,1,60.87,96.45H68V43.87a21.26,21.26,0,0,1,42.52,0V96.45h14.17V22.61a21.26,21.26,0,0,1,42.52,0ZM68,110.62H60.87a7.09,7.09,0,0,0-7.09,7.09v45.36a7.09,7.09,0,1,0,14.17,0ZM96.31,43.87a7.09,7.09,0,0,0-14.17,0V96.45H96.31Zm28.35,66.75H110.48v73.55a7.09,7.09,0,1,0,14.17,0ZM153,22.75a7.09,7.09,0,0,0-14.17,0v73.7H153Z"/></svg>