<?xml version="1.0" encoding="utf-8"?>
<svg version="1.1" x="0px" y="0px" width="325.9px" height="321.3px" viewBox="0 0 325.9 321.3" style="enable-background:new 0 0 325.9 321.3;" xmlns="http://www.w3.org/2000/svg">
  <style type="text/css">
	.st0{fill:#020101;}
</style>
  <path class="st0" d="M68.4,321.3c-22.9,0-45.5,0-68.4,0C16.1,214.2,32.2,107.1,48.4,0c20.9,0,41.8,0,62.8,0&#10;&#9;c38.8,65.2,77.6,130.4,116.8,196.3c9.9-65.9,19.7-131.1,29.6-196.3c22.7,0,45.4,0,68.4,0c-16.1,107.1-32.2,214-48.4,321.2&#10;&#9;c-19.1,0-38.3,0-57.7,0c-40-68.3-80.1-136.7-120.5-205.7C89,184.4,78.7,252.7,68.4,321.3z" style="fill: rgb(255, 255, 255);"/>
</svg>