<?xml version="1.0" encoding="utf-8"?>
<svg version="1.1" x="0px" y="0px" width="318.6px" height="330px" viewBox="0 0 318.6 330" style="enable-background:new 0 0 318.6 330;" xmlns="http://www.w3.org/2000/svg">
  <style type="text/css">
	.st0{fill:#020101;}
</style>
  <path class="st0" d="M0,189.7c0.8-43.8,16.1-85.8,46.5-122.2c15.7-18.8,33.7-34.9,55.3-46.8C121.9,9.5,143.4,3,166.2,0.9&#10;&#9;c22-2.1,43.7-0.8,65,5.8c28.9,9,50.4,27.4,66,53c16.4,26.9,23.3,56.2,21.1,87.4c-5.1,71.1-39.8,124.3-100,161.3&#10;&#9;c-19.9,12.3-42.2,18.5-65.5,20.7c-23.2,2.2-46,0.7-68.2-6.8C56,312.6,35,293.8,19.8,268.1C6.1,245,0,219.9,0,189.7z M71.1,186.1&#10;&#9;c-0.1,8.3,0.7,16.5,2.9,24.5c6.2,23,19.4,40.3,42.5,48.4c16.5,5.8,33.4,5.8,50.3,2c25-5.6,43.9-20.3,58.4-40.9&#10;&#9;c11.6-16.5,17.8-35.1,20.7-54.9c2.3-15.1,2.8-30.2-1.1-45.2c-5.8-22.5-18.6-39.5-40.8-48c-16-6.1-32.6-6.3-49.2-3.1&#10;&#9;c-25.5,4.9-45.1,19-60,39.8C78,131.8,71.9,158.2,71.1,186.1z" style="fill: rgb(255, 255, 255);"/>
</svg>