<?xml version="1.0" encoding="utf-8"?>
<svg version="1.1" x="0px" y="0px" width="247.7px" height="321.5px" viewBox="0 0 247.7 321.5" style="enable-background:new 0 0 247.7 321.5;" xmlns="http://www.w3.org/2000/svg">
  <style type="text/css">
	.st0{fill:#020101;}
</style>
  <path class="st0" d="M199.5,145.1c10.8,3.6,20.3,8.7,28.1,16.5c10.4,10.3,16.7,23,18,37.4c3.9,42.2-9.8,77.5-44.1,103.5&#10;&#9;c-14.3,10.9-31.1,15.8-48.7,18c-7.8,1-15.7,1.1-23.6,1.1c-42,0-84.1,0-126.1,0c-0.8,0-1.5,0-3,0c26.2-20,51.8-39.5,77.6-59.1&#10;&#9;c13.4,0,27,0.1,40.5,0c10.8-0.1,21.4-1.2,31.5-5.1c9.1-3.5,15.5-9.8,19.4-18.6c2.8-6.2,4.3-12.8,4.8-19.5c1.1-15.3-7.6-26.8-23-30.6&#10;&#9;c-4.1-1-8.2-1.5-12.4-1.6c-1.2,0-2.3,0-3.5,0c-15.3,0-30.5,0-46,0c-25.3,17.1-50.7,34.3-76.7,52C24.5,158.9,36.5,79.6,48.5,0.5&#10;&#9;C49.1-0.1,49.7,0,50.3,0C90.7,0,131.1,0,171.4,0.1c13.1,0.1,25.9,2.3,37.9,7.8c24.2,11.1,39.4,36.1,38.3,62.7&#10;&#9;c-1.4,32.1-16.8,55.6-43.9,72C202.4,143.4,201.1,144.1,199.5,145.1z M97.9,127.6c0.6,0.1,1.1,0.1,1.7,0.1c11.9,0,23.8,0,35.6,0&#10;&#9;c2.5,0,4.9-0.4,7.4-0.8c18.7-3.1,33-21,31.8-42.3c-0.7-13.8-10-23.4-23.8-25c-9.5-1.1-19-0.3-28.4-0.5c-4.6-0.1-9.2,0-14,0&#10;&#9;C104.8,82,101.3,104.8,97.9,127.6z" style="fill: rgb(255, 255, 255);"/>
</svg>