<!-- Generator: Adobe Illustrator 21.1.0, SVG Export Plug-In  -->
<svg version="1.1"
	 xmlns="http://www.w3.org/2000/svg" xmlns:xlink="http://www.w3.org/1999/xlink" xmlns:a="http://ns.adobe.com/AdobeSVGViewerExtensions/3.0/"
	 x="0px" y="0px" width="163.4px" height="13.2px" viewBox="0 0 163.4 13.2" style="enable-background:new 0 0 163.4 13.2;"
	 xml:space="preserve">
<style type="text/css">
	.st0{fill:#FFFFFF;}
</style>
<defs>
</defs>
<g>
	<path class="st0" d="M7.7,2.2v0.2c-0.4,0.1-0.6,0.2-1,0.8L3.9,6.3L7.5,12c0.2,0.3,0.4,0.4,0.6,0.4v0.2h-2v-0.2c0.2,0,0.2,0,0.2-0.1
		c0-0.1-0.1-0.2-0.1-0.3l-3-4.9L1.6,9v3c0,0.4,0.1,0.5,0.4,0.5v0.2H0v-0.2c0.3,0,0.4-0.1,0.4-0.5v-9c0-0.4-0.1-0.5-0.4-0.5V2.2h2
		v0.2c-0.3,0-0.4,0.1-0.4,0.5v4.5l4.1-4.6c0.1-0.1,0.1-0.2,0.1-0.3s0-0.1-0.2-0.1V2.2H7.7z"/>
	<path class="st0" d="M10.1,12.6v-1.3h0.2c0,0.2,0.1,0.3,0.3,0.3c0.7,0,1.5-0.9,1.5-3V2.9c0-0.4-0.1-0.5-0.4-0.5V2.2h6.9v0.2
		c-0.3,0-0.4,0.1-0.4,0.5v9c0,0.4,0.1,0.5,0.4,0.5v0.2h-2v-0.2c0.3,0,0.4-0.1,0.4-0.5V3.2h-3.8V8c0,3.5-1.1,4.7-2.6,4.7H10.1z"/>
	<path class="st0" d="M22.3,3.3c-0.2-0.4-0.3-0.8-0.7-0.9V2.2h1.9v0.2c-0.1,0-0.3,0-0.3,0.2c0,0.1,0.1,0.3,0.2,0.5l2.5,5.1h0
		l2.3-5.1c0.1-0.2,0.1-0.4,0.1-0.5c0-0.1-0.1-0.2-0.3-0.2V2.2H30v0.2c-0.4,0.1-0.4,0.2-0.6,0.6l-3.8,8.7c-0.1,0.2-0.2,0.5-0.2,0.6
		c0,0.1,0.1,0.1,0.2,0.1v0.2h-1.9v-0.2c0.3,0,0.5-0.2,0.8-0.8l0.9-2L22.3,3.3z"/>
	<path class="st0" d="M36.6,6.6c2.7,0,3.7,1.1,3.7,3c0,1.6-1.1,3-3.7,3H33v-0.2c0.3,0,0.4-0.1,0.4-0.5v-9c0-0.4-0.1-0.5-0.4-0.5V2.2
		h5.9c0.4,0,0.5-0.1,0.6-0.3h0.2v1.6h-0.2c-0.1-0.3-0.2-0.3-0.6-0.3h-4.3v3.4H36.6z M36.7,7.6h-2.2v4.1h2.1c1.8,0,2.6-0.8,2.6-2.1
		C39.2,8.1,38.5,7.6,36.7,7.6z"/>
	<path class="st0" d="M45.3,12c0,0.4,0.1,0.5,0.4,0.5v0.2h-2v-0.2c0.3,0,0.4-0.1,0.4-0.5v-9c0-0.4-0.1-0.5-0.4-0.5V2.2h2v0.2
		c-0.3,0-0.4,0.1-0.4,0.5v3.9h5.1V2.9c0-0.4-0.1-0.5-0.4-0.5V2.2h2v0.2c-0.3,0-0.4,0.1-0.4,0.5v9c0,0.4,0.1,0.5,0.4,0.5v0.2h-2v-0.2
		c0.3,0,0.4-0.1,0.4-0.5V7.8h-5.1V12z"/>
	<path class="st0" d="M57.6,12.1c0,0.2,0.1,0.3,0.4,0.4v0.2h-2v-0.2c0.3,0,0.4-0.1,0.4-0.5v-9c0-0.4-0.1-0.5-0.4-0.5V2.2h2v0.2
		c-0.3,0-0.4,0.1-0.4,0.5v7.3h0l5.1-7.4v0c0-0.2-0.1-0.4-0.4-0.4V2.2h2v0.2c-0.3,0-0.4,0.1-0.4,0.5v9c0,0.4,0.1,0.5,0.4,0.5v0.2h-2
		v-0.2c0.3,0,0.4-0.1,0.4-0.5V4.6h0L57.6,12.1L57.6,12.1z"/>
	<path class="st0" d="M69.8,12.1c0,0.2,0.1,0.3,0.4,0.4v0.2h-2v-0.2c0.3,0,0.4-0.1,0.4-0.5v-9c0-0.4-0.1-0.5-0.4-0.5V2.2h2v0.2
		c-0.3,0-0.4,0.1-0.4,0.5v7.3h0l5.1-7.4v0c0-0.2-0.1-0.4-0.4-0.4V2.2h2v0.2c-0.3,0-0.4,0.1-0.4,0.5v9c0,0.4,0.1,0.5,0.4,0.5v0.2h-2
		v-0.2c0.3,0,0.4-0.1,0.4-0.5V4.6h0L69.8,12.1L69.8,12.1z M72.3,1.8c-1.2,0-2.1-0.6-2.1-1.7V0h1.3v0.2c-0.2,0-0.3,0.1-0.3,0.3
		c0,0.4,0.5,0.6,1.1,0.6c0.6,0,1.1-0.2,1.1-0.6c0-0.2-0.1-0.3-0.3-0.3V0h1.3v0.2C74.5,1.2,73.5,1.8,72.3,1.8z"/>
	<path class="st0" d="M90.4,6.6c2.7,0,3.7,1.1,3.7,3c0,1.6-1.1,3-3.7,3h-3.7v-0.2c0.3,0,0.4-0.1,0.4-0.5v-9c0-0.4-0.1-0.5-0.4-0.5
		V2.2h5.9c0.4,0,0.5-0.1,0.6-0.3h0.2v1.6h-0.2c-0.1-0.3-0.2-0.3-0.6-0.3h-4.3v3.4H90.4z M90.4,7.6h-2.2v4.1h2.1
		c1.8,0,2.6-0.8,2.6-2.1C92.9,8.1,92.2,7.6,90.4,7.6z"/>
	<path class="st0" d="M97.2,3.3c-0.2-0.4-0.3-0.8-0.7-0.9V2.2h1.9v0.2c-0.1,0-0.3,0-0.3,0.2c0,0.1,0.1,0.3,0.2,0.5l2.5,5.1h0
		l2.3-5.1c0.1-0.2,0.1-0.4,0.1-0.5c0-0.1-0.1-0.2-0.3-0.2V2.2h1.9v0.2c-0.4,0.1-0.4,0.2-0.6,0.6l-3.8,8.7c-0.1,0.2-0.2,0.5-0.2,0.6
		c0,0.1,0.1,0.1,0.2,0.1v0.2h-1.9v-0.2c0.3,0,0.5-0.2,0.8-0.8l0.9-2L97.2,3.3z"/>
	<path class="st0" d="M109.1,2.4V2.2h6.1v0.2c-0.3,0-0.4,0.1-0.4,0.5v8.8h1.2v1.5h-0.2c-0.1-0.3-0.1-0.5-0.6-0.5h-7.6
		c-0.5,0-0.6,0.2-0.6,0.5h-0.2v-1.5h1c1.5-2.1,1.9-4.4,1.9-7.4V2.8C109.5,2.6,109.4,2.4,109.1,2.4z M113.6,3.2h-3v0.7
		c0,3.1-0.4,6-1.7,7.7h4.7V3.2z"/>
	<path class="st0" d="M120.7,12.1c0,0.2,0.1,0.3,0.4,0.4v0.2h-2v-0.2c0.3,0,0.4-0.1,0.4-0.5v-9c0-0.4-0.1-0.5-0.4-0.5V2.2h2v0.2
		c-0.3,0-0.4,0.1-0.4,0.5v7.3h0l5.1-7.4v0c0-0.2-0.1-0.4-0.4-0.4V2.2h2v0.2c-0.3,0-0.4,0.1-0.4,0.5v9c0,0.4,0.1,0.5,0.4,0.5v0.2h-2
		v-0.2c0.3,0,0.4-0.1,0.4-0.5V4.6h0L120.7,12.1L120.7,12.1z"/>
	<path class="st0" d="M132.9,12c0,0.4,0.1,0.5,0.4,0.5v0.2h-2v-0.2c0.3,0,0.4-0.1,0.4-0.5v-9c0-0.4-0.1-0.5-0.4-0.5V2.2h2v0.2
		c-0.3,0-0.4,0.1-0.4,0.5v3.9h5.1V2.9c0-0.4-0.1-0.5-0.4-0.5V2.2h2v0.2c-0.3,0-0.4,0.1-0.4,0.5v9c0,0.4,0.1,0.5,0.4,0.5v0.2h-2v-0.2
		c0.3,0,0.4-0.1,0.4-0.5V7.8h-5.1V12z"/>
	<path class="st0" d="M151.8,7.4c0,2.5-1.3,5.4-4.3,5.4c-3,0-4.3-2.8-4.3-5.4c0-2.5,1.3-5.4,4.3-5.4C150.5,2.1,151.8,4.9,151.8,7.4z
		 M144.3,7.4c0,2.2,0.8,4.4,3.2,4.4c2.3,0,3.2-2.2,3.2-4.4S149.8,3,147.5,3C145.2,3,144.3,5.2,144.3,7.4z"/>
	<path class="st0" d="M163.1,2.2v0.2c-0.4,0.1-0.6,0.2-1,0.8l-2.8,3.2l3.6,5.7c0.2,0.3,0.4,0.4,0.6,0.4v0.2h-2v-0.2
		c0.2,0,0.2,0,0.2-0.1c0-0.1-0.1-0.2-0.1-0.3l-3-4.9L157,9v3c0,0.4,0.1,0.5,0.4,0.5v0.2h-2v-0.2c0.3,0,0.4-0.1,0.4-0.5v-9
		c0-0.4-0.1-0.5-0.4-0.5V2.2h2v0.2c-0.3,0-0.4,0.1-0.4,0.5v4.5l4.1-4.6c0.1-0.1,0.1-0.2,0.1-0.3s0-0.1-0.2-0.1V2.2H163.1z"/>
</g>
</svg>
