<!-- Generator: Adobe Illustrator 21.1.0, SVG Export Plug-In  -->
<svg version="1.1"
	 xmlns="http://www.w3.org/2000/svg" xmlns:xlink="http://www.w3.org/1999/xlink" xmlns:a="http://ns.adobe.com/AdobeSVGViewerExtensions/3.0/"
	 x="0px" y="0px" width="104.3px" height="46.8px" viewBox="0 0 104.3 46.8" style="enable-background:new 0 0 104.3 46.8;"
	 xml:space="preserve">
<style type="text/css">
	.st0{fill:#F94C82;}
</style>
<defs>
</defs>
<path class="st0" d="M74.3,0c-5.2,4.4-12.5,8.8-22.1,9.6l0,0c0,0,0,0,0,0c0,0,0,0,0,0v0C42.7,8.7,35.4,4.4,30.3,0
	C18.3,3.2,7.8,8.9,0,16.3c6.9,8.6,14.2,17.3,23.7,22.3c7.8,4.1,17,7.8,25.6,8.1c0.1,0,0.3,0.1,0.4,0.1c0.7,0,1.4,0,2.1-0.1
	c0.7,0,1.4,0.1,2.1,0.1c0.1,0,0.3,0,0.4-0.1c8.6-0.3,17.9-3.9,25.7-8c9.7-5.1,17.2-14,24.4-22.8C96.5,8.7,86.2,3.1,74.3,0z"/>
</svg>
