<!-- Generator: Adobe Illustrator 21.1.0, SVG Export Plug-In  -->
<svg version="1.1"
	 xmlns="http://www.w3.org/2000/svg" xmlns:xlink="http://www.w3.org/1999/xlink" xmlns:a="http://ns.adobe.com/AdobeSVGViewerExtensions/3.0/"
	 x="0px" y="0px" width="286.1px" height="504.4px" viewBox="0 0 286.1 504.4" style="enable-background:new 0 0 286.1 504.4;"
	 xml:space="preserve">
<style type="text/css">
	.st0{fill-rule:evenodd;clip-rule:evenodd;fill:#DDA885;}
	.st1{fill-rule:evenodd;clip-rule:evenodd;fill:#9B6A4F;}
</style>
<defs>
</defs>
<g>
	<g>
		<path class="st0" d="M29.7,47.1c0.3-0.2,0.4,0.2,0.6,0.3c-1.4,4.8-3.3,9.4-5.8,14C25,56.5,29.1,52.1,29.7,47.1z"/>
		<path class="st0" d="M31.4,49.4c0.3-0.1,0.6-0.1,0.9,0.1c-3.6,4.2-1.4,9.3-6.8,13.2C28,58.4,28.7,53.8,31.4,49.4z"/>
		<path class="st0" d="M38.9,56.5c-3.2,6.1-6.5,12.3-13.2,17.9C13.8,84.1,1.6,91.6,3.5,104.2c1.1,7.3,7.3,14.5,6.3,22.1
			c-1.4-6.4-6-10.5-7.7-16c-1.1-3.7,0-12.9,1.5-16.8C8.2,81.7,23.8,78,30.3,66.3c2.1-3.7,2.9-9.6,5.4-12.5
			C36.9,53.8,37.9,55.6,38.9,56.5z"/>
		<path class="st0" d="M27,62.8c0.2,4.9-7.5,7.6-12,11.5C17.4,70.2,22.1,66.5,27,62.8z"/>
		<path class="st0" d="M41.7,59.2c0.6-0.1,1.1,0.4,1.6,1.2c-1,0.8-1.8,0.6-2.7,1.6C40.1,60.9,41.8,60.2,41.7,59.2z"/>
		<path class="st0" d="M32.2,70.4c0.2-0.2,0.3-0.1,0.4,0.1c-2.4,8,4,17.4-1.4,24.9C32.2,87.2,26.1,77.9,32.2,70.4z"/>
		<path class="st0" d="M28.1,74.5c-0.2,3.7-1,7.4,0.5,11.4C26.9,82.8,23.4,77.4,28.1,74.5z"/>
		<path class="st0" d="M61.6,74.8c0,3.2-3.4,5.8-5,8.7C57.3,80.5,58.7,77.6,61.6,74.8z"/>
		<path class="st0" d="M69.2,79.9c2.3,4.4-1.6,7.9-4.7,11.3c-5.6,6-7.2,11.8-5.7,19c0.8,3.8,2.4,7.5,2.9,11.6
			c-3.4-8.3-5.4-15.1-3.9-22.6c1.4-7.1,10.4-11.6,10.5-19C68.6,79.8,68.9,80.1,69.2,79.9z"/>
		<path class="st0" d="M75.3,82.9c0.3-0.2,0.4,0.2,0.6,0.3c2,8.3-6.7,11.5-9.8,17.3c-1.2,2.3-1.3,5.2-1.2,7.5
			c0.3,4.5,2.7,8.4,0.7,12.8c-0.7-3.1-0.9-6.5-1.4-10c-0.4-3.1-1.2-7-0.2-10C66.3,94.3,75.1,90.4,75.3,82.9z"/>
		<path class="st0" d="M78.9,84.6c0.3-0.3,0.5-0.3,0.7-0.1c2,8.3-1,14.8-4.9,22.4c-3.4,6.6-5.2,13-5.5,20.4
			c-0.3,7.2,1.3,13.9,0.8,21c-0.5,6.7-1.5,13.6-4.1,20.2c-5,12.9-17.8,23-23.9,37.7c-0.5-1.8,0.3-3.9,0.9-5.8
			c3.6-11.3,14.4-21.3,19-32.6c1.2-3,2.9-6.4,3.5-9.2c1-4.8,0.5-10.3,0.6-15.3c0.2-9.4,0.1-18.4,3.4-27.6c1.5-4,2.7-8.6,4.4-12.2
			C77,97.2,81.1,92.4,78.9,84.6z"/>
		<path class="st0" d="M71.6,102c-1.3,2.7-4.5,5-4.4,7.9C65.3,107.7,68.1,104.2,71.6,102z"/>
		<path class="st0" d="M70.7,106.2c-0.6,2.6-2,5-2.8,7.5C67,112.1,68.9,108.7,70.7,106.2z"/>
		<path class="st0" d="M81.2,106c0.6-0.5,0.5,0,0.6,0.3c-0.9,3-2.2,5.6-2.9,8.4c-2,8-0.7,15,2.8,23.8c1.5,3.7,2.7,7.8,3.3,12.1
			c0.8,6,2,10.7,2.7,16.1c-3.8-4.3-2.8-9-4.1-14.3c-2.5-10.4-9.8-20-9.1-28.6C75.1,117.1,78.6,112,81.2,106z"/>
		<path class="st0" d="M109.1,107.3c7.5,7.6,16.4,19.4,21.5,29C122.4,126.7,113.2,117.1,109.1,107.3z"/>
		<path class="st0" d="M101.3,114.9c1.6,7.2-0.1,15,1.1,23.1c1.2,8.1,4.2,15.9,4.6,24.1C103,146.9,100.1,130,101.3,114.9z"/>
		<path class="st0" d="M62.9,157.3c0.6-0.5,0.5,0,0.6,0.3c-2.9,12.4-11.7,23.9-19.7,35.4C48.2,180.9,58.9,169.6,62.9,157.3z"/>
		<path class="st0" d="M114.6,122.9c11.9,16.2,16.8,31.3,13.8,45.9c-2.1,10.5-10.6,18.3-12.5,29.1c-2.5-17.1,14.7-32.5,9.4-51.1
			C123.2,139.5,116,131.6,114.6,122.9z"/>
		<path class="st0" d="M132.9,137.3c2.9,2.5,3.7,6.6,5.5,9.7C136,144.6,135.1,140.5,132.9,137.3z"/>
		<path class="st0" d="M69.8,188.4c-4.3,7.3-11.4,12.1-14.3,19c-2.8,6.6-0.8,13.8-2.9,19.7C46.4,212.3,54.8,199.8,69.8,188.4z"/>
		<path class="st0" d="M133.9,148.4c8.4,17.4-4.2,33.5-16.5,48.4c2.1-7.8,7.9-14.2,10.7-21.9c0.9-2.4,1.1-4.9,2.1-7.4
			c1.1-2.8,2.9-5.1,3.5-8.1C134.5,155.8,133.7,152.3,133.9,148.4z"/>
		<path class="st0" d="M136.4,148.5c5.2,7.9,3.2,15.2,4.1,24.5c0.8,8.7,5.9,16.8,5.6,24.9c-0.4,12.6-9.8,28.2-25.6,33.1
			c6-2.7,12.4-7.1,16-12.4c5.2-7.6,8.2-19.7,6.4-28.9c-0.8-4.3-3-8.1-3.4-12.8c-0.4-4.7,0.4-9.3,0-14.1
			C138.9,158,137.9,153.4,136.4,148.5z"/>
		<path class="st0" d="M139.8,151.6c4.8,6.8,4.1,16.9,6.1,25.7c1.1,4.8,2.9,8.6,3.2,13c0.3,4,0.1,8.3-0.8,12.3
			c-2.1,9.1-5.6,19.6-17.7,25.8c11.1-9.5,16.5-18.6,17.2-29.7c0.4-7.4-4.3-15.8-5.4-24.7C141.4,165.9,143.1,158.1,139.8,151.6z"/>
		<path class="st0" d="M100.6,181.7c5.3,10.2,7.5,23,7.5,34.5c0,5.4-0.9,11-1,16.4c-0.3,13.1-1.8,24.9-8.2,37.3
			c-1.7,3.3-3.9,6.6-5.7,10c-1.8,3.4-3.3,6.9-5.2,10.1C80,303,69.3,315,64.5,329.7c5.2-25.7,28.2-46.5,36.4-71.1
			c4-12.1,3.8-25.4,2.8-38.1C102.8,207.7,102.8,194.5,100.6,181.7z"/>
		<path class="st0" d="M124.9,203.9c-2.7,6.3-6.1,12.5-7.8,19C115.8,216.8,118.6,209.4,124.9,203.9z"/>
		<path class="st0" d="M76.9,426c6,6.5,15.6,16.2,17.3,24.3c1,4.7-1.6,11.5-2.5,17.1c-1.7,10.6,0,21.3,11.8,32.9
			c-12.2-7.8-14.4-19.9-13.8-30.3c0.3-5.1,3.7-10.9,3.2-16C92,444.1,85.2,436.6,76.9,426z"/>
		<path class="st0" d="M89,447.4c5.3,7.7-0.6,14.9-0.9,23c-0.2,5,0.6,9.3,1.6,14.5C81.1,472,91.4,460.1,89,447.4z"/>
		<path class="st0" d="M33.9,51.2c1.2,2.6-1.2,4.7-2,6.9c-1.9,5.3-4.2,11.2-10.9,16.2C11.9,80.9,3.5,88,2,96.7
			c-4.8-13.8,21.1-21,27-32.9C31.3,58.9,29.4,54.5,33.9,51.2z"/>
		<path class="st0" d="M40.5,57.7c-0.9,5.5-5.4,8.9-5,14.6c0.5,6.8,3.7,13.8-0.7,20.1c-0.6-1.2,0.6-3,0.7-4.4
			c0.3-6.2-3.6-14.2-0.8-20.5c0.4-0.9,1.3-1.6,1.7-2.4C37.6,62.8,37.6,59.4,40.5,57.7z"/>
		<path class="st0" d="M42.6,62.1c-0.8,3-4,5.6-4.8,8.5C37.7,67.5,39.6,64.7,42.6,62.1z"/>
		<path class="st0" d="M45.6,61.9c1,1.7-1.1,3.8-1.9,6.1c-0.8,2.3-1.5,4.8-1.8,7.2c-0.5,3.5,0.7,7,0.3,10.7
			c-0.4,3.9-2.9,9.8-5.3,13.7c-4.5,7.4-10.5,12.1-13.8,18.7c-3,6-5.9,12.7-6.8,19.8c-1.9,15.3,14.5,32.9,9.7,47.8
			c-0.4-8.5-1.3-16.6-5.6-24.9c-2-3.9-5.1-7.1-6-10.9c-2.2-9.6,2-21.2,5.6-29.9c5.4-12.8,21.4-23.2,19.9-37.2
			c-0.3-2.8-1.9-5.2-1.7-8.2c0.2-2.4,1.7-4.6,3.1-7C42.7,65.5,43.4,62.6,45.6,61.9z"/>
		<path class="st0" d="M48.6,64.4c2,1,0,3.2-0.4,4.2c-2.7,6.4-0.3,12.1-2.2,18.5c-2.3,7.8-7.1,15.5-12.1,22.1
			c-5,6.5-10.7,13.7-11.9,21.9c-0.8,5.7,0.3,12.2,2.2,17.6c2,5.7,5.5,11.4,6.6,18.3c0.9,5.2-0.5,9.3-2.1,14.9c0,0.6-0.1,0.1-0.2-0.3
			c2.7-12.8-9.8-26.3-10.6-38.9c-0.3-4.4,1-9.9,2.7-14.1c1.9-4.7,3.8-9.3,6.4-13.3c6.7-10.1,17-19.1,17.4-31
			c0.1-5.1-0.7-9.2,0.7-14.2C45.4,68.3,46,65.2,48.6,64.4z"/>
		<path class="st0" d="M52,67c2.1,1.5,0.7,2.1,0.3,3.7c-2.7,12.8-6.1,26.5-14.7,38.5c-5.6,7.9-12.8,16.1-11.7,25.4
			c0.3,2.8,1.8,4.9,2.7,7.5c1.4,4.4,2,10.1,3.3,15.3c1.3,5.4,3.3,10.1,2.6,14.9c-0.4,2.9-1.9,5.9-2.7,8.6c-2.3,8-2.3,15.9-1.2,24.8
			c0,0.1,0.7,1.4-0.2,1.3c-6.4-14.6,5.3-28.1,1.7-42.4c-2.7-10.8-9.3-21.6-8.3-31.9c0.9-9.6,8.6-18,14.9-26.9c4.3-6,9.1-14.9,9.8-22
			c0.3-2.8-0.2-6.1,0.1-9.1C48.8,71.9,48.9,68.2,52,67z"/>
		<path class="st0" d="M55.2,69.7c0.6,0.4,1.2,1.1,1.8,1.4c-3.6,6.5-5.2,14.1-8.2,21.6c-2.3,5.9-5.7,11.5-7.9,17.1
			c-4.1,10.1-6.9,20-9.1,30.5c-0.2,1.1,0.3,2.8-1,3.5c-4-19.8,14.8-38.6,19.5-57.2C51.7,80.9,52.6,75,55.2,69.7z"/>
		<path class="st0" d="M59.6,73.2c-1.8,3.4-3.5,6.1-4.7,9.7c-1.1,3.4-1.3,6.9-2.5,10c-1.2,3.1-3.4,5.7-5.2,8.5
			c-3.6,5.7-5.2,12.9-6.8,19.8c-2.6,11.1-7.3,19.9-7.2,31.1c-2.4-8.3,1.8-17.1,4.1-26.1c1.6-6.4,3.7-12.1,6-18.1
			c2.4-6.2,6.3-11.7,8.5-17.9c1.1-3,1.8-6.1,2.8-9.1C55.7,78.3,56.6,74.6,59.6,73.2z"/>
		<path class="st0" d="M13,148.6c-6.3-8.3-1.4-17.6,1.4-26.1c1-3.1,2.3-7.1,3.8-9.8c3.8-6.9,11-12.6,17.4-18.6
			c0.2-0.1,0.3-0.2,0.5-0.4c-1.5,5.9-8.4,11-12.3,16.4c-2.3,3.1-3.7,6.3-5.2,10.1C15.1,129,11.7,138.4,13,148.6z"/>
		<path class="st0" d="M63,77.8c-0.4,1.8-3.8,6.9-6.5,9.9C57.5,84.2,60.7,81,63,77.8z"/>
		<path class="st0" d="M64.7,76.9c1.5,3.6-1.9,6.7-4,9.6c-3.7,5-8.2,9.6-9,15.1c-2,13.5,7.9,30.8,5.4,45.1
			c-1.4,7.7-7,14.9-12.6,22.1c-5.5,7-9.5,15-9.9,22.5c-0.2,3.3,0.8,7.4,1.2,11.3c0.6,6.4,1.5,10,3.5,16.6c0.2,0.8,0.6,1.8,0.7,2.6
			c0.1,0.4,0.8,1.3,0,1.6c-5.3-14.6-9.7-30.4-3.2-44.3c3.5-7.6,8.7-13.7,12.5-20c3.7-6.2,5.8-13.7,6.5-20.7c0.7-7.2-1.8-13.5-3.5-21
			c-1.4-6.2-2.1-14.4,0-20.4C54.8,89.6,63.6,84.2,64.7,76.9z"/>
		<path class="st0" d="M72.8,81.6c1.3,3.6-1.8,6.9-4.3,9.8c-2.6,3-5.8,6.6-6.5,9.8c-1.7,7.6,2.4,14.7,1.9,22.5
			c-0.5-5.2-5.5-18.2-3.2-24.3c1.8-4.6,8.7-8.8,10.5-13.5C71.8,84.5,71.1,82.5,72.8,81.6z"/>
		<path class="st0" d="M57.8,93.7c-6.9,14.6,4.8,31.9,4.9,47.7c0.1,6.2,0.7,13.6-3.2,18.8c-3.5,4.8-7.7,7.2-10.7,10.5
			c-9.1,10.1-11.3,26.9-9.9,38.6c0.1,0.5,0.6,2.7,0.5,2.8c-0.3,0.3-0.7-0.4-0.4-0.5c-0.9-7-2.9-13.5-2.4-20.6
			c0.3-5.1,2.9-13.4,7.2-18.1c2.6-2.9,5.7-4.6,7.9-6.9c3.9-4.2,7.3-9.2,7.7-14.2c0.3-3.6-0.1-8.1-0.1-12.5
			C59.3,124.6,48.8,106.8,57.8,93.7z"/>
		<path class="st0" d="M35,114.6c-2.3,5.1-6,14.4-6.8,21.4C25.9,129.1,30.7,121.3,35,114.6z"/>
		<path class="st0" d="M81.8,85.3c7.2,9.1-1.4,17.6-5,26c-2.1,5-5.2,12.2-3.7,18c2.1,8.5,6.6,15.6,8.8,23.4c1,3.8,1.9,7.7,2.9,11.6
			c1,3.7,2.5,7.6,3.2,11.4c1.8,10.3-1.2,23.6-4.9,33.7c-4,11-11.2,20.9-14.2,32.2c-1.6,6-0.8,12.9-0.8,19.4c0,6.4,0.9,14.3-0.8,19.4
			c-1.2,3.7-2.9,6.1-4.1,10.5c0.3,0.7-0.3,1.2-0.3,0.2c3.1-7.7,3.4-16.9,2.8-25.2c-0.4-5.7,0.2-11.5,0.9-17.1
			c1.3-11.2,6.2-21.3,11.2-32.5c7.8-17.4,10.4-31.7,4.9-50.9c-1.7-5.8-2.5-12.2-4.2-17.7c-1.8-5.5-4.9-11-6.6-17.1
			c-1.4-5.3-0.8-11.7,0.7-16.2c2-6,6.8-10.5,8.5-16.3C82.3,93.9,81.2,89,81.8,85.3z"/>
		<path class="st0" d="M47.4,110.7c3.7,19.5,1.2,40-8.3,58.1c-0.4-2,2-4.7,2.6-6.6c1.5-4.7,0.8-9.7,2-14.4c0.9-3.5,3-6.7,3.6-10.1
			c0.7-4.1,0.4-8.8,0-12.9C46.9,120,46.4,114.8,47.4,110.7z"/>
		<path class="st0" d="M76.3,91.2c1,3.6-4.7,8.2-8.7,11.8C66.7,99.4,75.7,95.4,76.3,91.2z"/>
		<path class="st0" d="M44.7,114.6c0.3,5.5,1.4,10.7,1.5,16.1c0.1,5.5-1.9,10.1-3.6,15.5c-2,6.5-0.6,13.8-4.5,20.1
			c0.8-4.4,0.3-9.3,0.7-14.2c0.5-6.3,4.6-11.7,5.4-18.4C45,126.9,42.9,121.1,44.7,114.6z"/>
		<path class="st0" d="M85.8,87c5.4,5.3,11.2,13,13.1,20.2c1.7,6.3,1.1,12.9,1.2,19.5c0.2,12.6,4.2,26.1,6.1,39.1
			c0.9,6.3,0.4,12.8,1,19.2c0.7,6.7,2.9,13.2,4.1,19.7c1.2,6.5,1.5,13,1.9,19.4c0.9,14.1-1.1,24.3-6.3,37.1
			c-4.8,11.8-9.9,24.6-17.8,35.3c-16.1,21.9-26.5,47.1-29.9,71.5c-1.7,12.6-0.1,25,4.3,38.8c0.7,0.5,0.5,1.4-0.1,0.4
			c-14.9-29.5-5.4-57.3,5.1-82.9c4.4-10.8,12.1-19.4,18-29.6c2.8-4.9,5.4-10.1,8.3-15c8.2-14.3,14.1-27.9,14-44.3
			c0-10.1,1-20.1,0-30.2c-1-10.2-2.1-20.6-4-30.8c-0.9-5.1-1.5-10.6-2.7-15.6c-1.4-5.3-3.5-10.3-4.3-15.6c-1.9-12,2-21.8-0.7-33.2
			C95.5,101.9,89,95.3,85.8,87z"/>
		<path class="st0" d="M41.9,122.5c0.6,5.1,1.7,10.5-0.2,15.8c-1.6,4.5-3.9,8.3-4.6,13.1c-0.5,3.4,0.4,6.9-0.3,10.4
			c-0.1,0.7-0.1,2.2-1,2.3c-0.3-3.2-1.4-6.3-1.3-9.3c0.2-6.4,2.9-11.7,5.3-17.5C41.7,132.5,40.8,127.6,41.9,122.5z"/>
		<path class="st0" d="M89.8,88.8c6.4,0.5,9.8,9.3,13.2,15.5c2.8,12.6,1.6,23.9,4.4,36.7c2,8.9,2.5,16.9,2,25.9
			c-0.5,8.8,0.1,17.5,2,25.9c1.9,8.5,4.7,17.1,3.8,26.2c0.1,0.3,0.1,0.6-0.1,0.9c-0.1-0.2,0.1-0.4-0.1-0.7
			c-0.2-10.1-3.3-19.3-5.1-29.2c-1.7-9.1-1.4-18.7-1.6-28.6c-0.2-9.3-3.7-18.5-4.7-29.1c-0.9-9.6,1.2-19.8-3.8-28.9
			C97.3,99.1,93.3,93.5,89.8,88.8z"/>
		<path class="st0" d="M41.6,167.4c7.8-15.2,8.6-31.4,9.1-47.8c-0.1-0.1-0.1-0.2-0.2-0.3c1.5,1.3,2.8,9.2,3.1,12.3
			C54.7,144.1,48.9,157.1,41.6,167.4z"/>
		<path class="st0" d="M87.3,96.1c6.7,17.2,4.3,34.7,5.7,51.5c1.4,16.9,0.6,33.7,0.4,50.6c0.3,0.7-0.3,1.2-0.3,0.2
			c-1.5-16,0-34.1-2.5-51.4C88.1,129.6,86.9,112.4,87.3,96.1z"/>
		<path class="st0" d="M38.4,134.4c0.9,0.4-0.5,2.5-0.6,3.5C37,137.5,38.6,135.5,38.4,134.4z"/>
		<path class="st0" d="M84.8,103.4c1.3,8.1,1.5,16.7,2.1,25.5c0.5,8.6,2.2,17.3,2.9,26.1c0.7,8.4,0.7,17.1,0.7,25.7
			c0,9,0.7,17.3-1.5,25.4c-1.9,6.9-7.2,13-11.4,19.3c6.8-13,11.4-25.9,12.4-40c0.5-6.6-0.9-14-1-21.2c-0.1-7.1-0.3-14.4-1.2-21
			C86.1,129.9,81.9,116.5,84.8,103.4z"/>
		<path class="st0" d="M90.7,100.3c8.7,11.4,4.7,24.2,4.9,35.2c0.1,10.9,4.8,23.7,7,34.9c1,5.1,2,9.9,2.4,15.1
			c0,0.2,0.3,1.1-0.4,1.1C90.7,156.4,96.9,129.3,90.7,100.3z"/>
		<path class="st0" d="M15.4,157.8c1.2,0.4,2.1,2.7,3.2,3.9c1.5,10.1-7.6,18.6-10.2,28.6c-1.8,7,0.3,12.8,0.1,20.7
			c-0.1-6.4-3.3-12.3-3.2-18.4C5.5,180,20.1,170.8,15.4,157.8z"/>
		<path class="st0" d="M101.3,97.7c4.8,6.5,8.6,12.4,9.2,19.1c0.6,6.6-2.9,12-1,19.1c1.6,6,4.7,10.9,5.3,16.5
			c0.8,7.4-1.9,16.2-3.7,22.3c0.5-9.6,0.9-19.4-1.2-29.7c-2-10-4.6-20.2-3-29.9C105.7,109.4,105.4,103.8,101.3,97.7z"/>
		<path class="st0" d="M81.6,112.4c0.5,13.2,5.5,29,5.7,42.8c-1.2-4.4-1.1-9.1-2.7-14.5c-1.6-5.4-4.9-10.1-5.3-15.3
			C79,120.6,80.7,116.8,81.6,112.4z"/>
		<path class="st0" d="M71.5,134.2c1.2,3.9,4.2,7.7,4.9,12.1c0.6,3.9-1.6,12.5-2.8,16.6c-1.8,6-4.9,10.7-8.3,15.5
			c-9.5,12.9-24.9,27.4-21,42.7c1.5,6,4.8,11.8,6.7,17.8c1.9,5.8,4.3,12,5.2,17.4c0.4,2.3-0.3,4.7,0,7c0.8,5.6,2,11,4.7,17.7
			c-6.9-9.5-4.4-19.7-6.8-29.9c-3.6-14.7-14.1-29.2-10.9-43c1.5-6.5,6.2-12.1,11.2-18C69.2,172.9,73.7,154.3,71.5,134.2z"/>
		<path class="st0" d="M57.5,151.1c0.5,3-1.8,7.6-5.1,10.8C54.4,158.3,56.8,154.8,57.5,151.1z"/>
		<path class="st0" d="M112.9,123.3c1.7,10.4,11.9,21.7,11.4,32.4c-0.3,6-2.1,10.7-4.2,16.3C127.2,157.3,112,139,112.9,123.3z"/>
		<path class="st0" d="M57.8,164.9c-7.4,12.2-17.3,26.8-17.9,38.9C40.5,190,43,176.5,57.8,164.9z"/>
		<path class="st0" d="M111.4,126c-0.2,13.5,10.3,26.4,8.5,39.7c-0.7,4.8-2.8,8.4-2.4,13.5c-2.7,5.2-3.4,10.6-3.5,16.2
			c-1.6-2.2-1.3-6.1-2.2-9c0.6-4.6,0.7-8.4,1.5-12.5c0.8-4.1,2.7-7.9,3.3-12.2c0.5-4.3,0.2-8.9-0.7-12.8
			C114.3,141.6,109.1,132.9,111.4,126z"/>
		<path class="st0" d="M46.5,221c-2.7-6-0.2-14,3.7-20.3c8.4-13.6,22.5-24.5,26.2-39.8c0.6-2.4,0.2-5.2,1-7.8
			C87.5,175.2,41.2,197.6,46.5,221z"/>
		<path class="st0" d="M32.1,187.2c0.4,1.3-0.3,5.5-1,6.6C31.4,191.6,31.6,189.4,32.1,187.2z"/>
		<path class="st0" d="M118.9,126c13,11.1,15.9,25.9,12.1,37C132.4,152.5,128.4,139.1,118.9,126z"/>
		<path class="st0" d="M36.4,217.8c-3.5-6-5.3-14-5.1-20.5c0,0.5-0.1-2.1,0.3-0.2C32.7,203.3,33.5,209.4,36.4,217.8z"/>
		<path class="st0" d="M25.5,201.8c-0.1-0.1-0.1-0.2-0.2-0.3c0.6,0.7,1.7,7.2,4.3,10.2c0.5,0.6,0,0.7-0.3,0.2
			C26.5,208.3,25.2,204.9,25.5,201.8z"/>
		<path class="st0" d="M54.7,200.5c7.5-10.4,18.9-20.1,23.3-31c0.6,0.1,0.1,1.6-0.2,2.5c-0.9,2.8-2.8,6.5-3.7,9.4
			C68.2,187.8,60.5,194,54.7,200.5z"/>
		<path class="st0" d="M82.3,169.5c0.9,9.4-0.6,18.5-5.1,26.9c-4.7,8.6-11.5,15.7-13,25.1c-0.8,5.3-0.1,11.9-0.4,18.3
			c-0.3,6.4-1.9,12.4-1.5,17.9c0.3,3.3,1.9,6.5,2.3,9.7c0.8,5.6-0.5,10.6-0.7,16.2c-0.4-4.2-1.1-8.8-1.5-13.4
			c-0.4-4.7-1.3-9.5-1.4-13.8c-0.1-4.7,0.8-9.1,0.8-13.5c0-4.4-1.1-8.7-1.3-13.6c-0.3-11.5,5.3-20.4,11.5-29.9
			C77.9,190.1,81.1,180.4,82.3,169.5z"/>
		<path class="st0" d="M79.3,172.4c0.3,9-5.2,20.5-11.2,29.3c-5.4,7.9-9,15.7-9.4,25.3c-0.2,4.7,1,9.1,1.3,13.6
			c0.2,4.4-0.4,8.9-0.5,13.3c-0.3,8.7,1.6,17.6,3,27.2c-2.8-6.7-4.7-13.4-5-20.3c-0.2-4.1,1.1-8.1,0.7-11.9c-0.5-5.2-2.2-9.8-3-14.3
			c-0.7-4.4-1-9-0.3-13.9C57.5,203,74.7,190.9,79.3,172.4z"/>
		<path class="st0" d="M63.2,319.3c0.4-17.6,6.8-35,17.2-51.3c3.6-5.6,7.3-10.6,9.9-16.6c4.2-9.8,4.3-20.4,4.3-31.3
			c0-17.9,1.7-36.8,1.2-54.9c-0.1-0.1-0.1-0.2-0.2-0.3c1.2,0.9,1.9,6.9,2.3,9.7c1.7,10.3,2.5,21,2.5,30.3c0,27.4-9.7,51.5-21.2,76.9
			C73.4,294.4,65.9,306.1,63.2,319.3z"/>
		<path class="st0" d="M56.5,252.5c-3.9-15.4-14.2-33.7-4.9-47.7c1,0.3-1,3.4-1.5,5c-0.6,1.9-0.5,4.2-1.4,5.7
			C49.8,227.5,56.6,240.5,56.5,252.5z"/>
		<path class="st0" d="M83.5,183.5c3.9,16.7-19.5,31.1-14.7,48.7c-3.5,8.8-4.1,18-4.5,27.2c-1.8-6.7,0.9-13.7,1.4-20.2
			c0.7-10.1-1.2-19.5,4.3-28.6C75.1,202.1,82.9,194.4,83.5,183.5z"/>
		<path class="st0" d="M58.5,205.2c-0.2,1.4-1.5,2.6-1.8,4C56,208.6,57.7,206.3,58.5,205.2z"/>
		<path class="st0" d="M81.2,200.8c-1.3,9.1-7.8,19.3-11.1,28.9C67.3,219.9,77.5,210.3,81.2,200.8z"/>
		<path class="st0" d="M91.4,200.8c0.2,3.7,0.7,8,0,11.8c-2.7,13-20.4,23.3-21.2,36.6C70.2,232.9,89.8,217.7,91.4,200.8z"/>
		<path class="st0" d="M136.7,168.3c-0.1,4.5-1,9.5-2.9,14.3c-3.3,8.3-11.5,14.5-16.9,22.5C119.5,192.2,135.4,181.4,136.7,168.3z"/>
		<path class="st0" d="M136.9,176.7c-1.1,7.5-3.9,18.2-12.2,25.3c-3.7,3.2-6,5.8-7.9,9.6c-0.4-1.2,0-2.3-0.6-3.5
			C123.3,197.7,136.4,188.2,136.9,176.7z"/>
		<path class="st0" d="M90.3,219.3c0.3,8.3-10.5,16.4-14.3,26.1c-3.2,8-3.7,14.9-4.8,23.1c0.3-6.3-0.6-12.9,0.6-19.6
			C73.9,237.7,85.3,230,90.3,219.3z"/>
		<path class="st0" d="M92.3,219.4c1.3,13.5-0.5,27.8-8.5,40.6c-4.5,7.4-9,14.8-12.9,22.7c-4.1,8.2-6.3,15.5-8,23.4
			c-1.7,7.9-1.4,15.6-1.1,24.3c-4.8-13.9,0.4-27.2,4.6-40.5c2.6-8.4,7.9-15.2,12.2-23C87.1,251.7,91.6,235.5,92.3,219.4z"/>
		<path class="st0" d="M136.1,187.5c0.5,10.3-3.1,21.9-12.9,31.3C129.7,208.7,134.6,198.4,136.1,187.5z"/>
		<path class="st0" d="M132.1,195.9c-0.8,7.7-7.5,16.5-12.5,24.3C122.2,211.9,127.3,203.9,132.1,195.9z"/>
		<path class="st0" d="M89.4,227.7c0.1,6.1-5.5,12.6-9.3,18.9c-3.9,6.5-5,13.2-6.5,19.6C74.1,253.6,79.2,239.7,89.4,227.7z"/>
		<path class="st0" d="M101.5,220.1c2.4,17.5,0.6,34.6-8.3,51.1c-4.4,8-9.1,16.4-14.7,24c-5.6,7.7-9.8,15.8-13.3,24.2
			c3-10.8,7.1-21.2,13.5-31c3.5-5.4,8.2-9.4,11.2-14.8c4.5-8,7.3-15.6,8-24.6c0.2-3.1-0.7-6.4-0.3-9.6c0.4-3.1,1.9-6.3,2.4-9.6
			C100.5,226.6,101.2,223.5,101.5,220.1z"/>
		<path class="st0" d="M87.9,237.5c0.3,4.2-4.6,10.3-6.7,15c-2,4.5-2.4,8.6-5.2,12.8C76.5,256.4,82,246.3,87.9,237.5z"/>
		<path class="st0" d="M83.6,251.5c0.2,0.5-1.8,4.5-2.4,6.4C80.8,256.5,82.4,253.5,83.6,251.5z"/>
		<path class="st0" d="M95.5,246.4c1.1,12.2-4.8,25.2-14.6,36.5C86.3,270.8,92.3,258.8,95.5,246.4z"/>
		<path class="st0" d="M77.5,264.2c-0.4,2.1-1.7,4.1-3,6.1C74.5,269,75.8,265.9,77.5,264.2z"/>
		<path class="st0" d="M115.5,236.6c1.5,2.6,1.4,5.1,3,8c1.6,2.7,4.5,5.3,6.3,8.7c4.1,8,0.7,16.4-1.6,24.2
			c-3.5,12.1-12.6,26.3-11.8,38.7c0.5,7,4.2,12.4,5.9,18.8c1.4,5.6,0.8,12.1,0.2,17.5c-0.7,5.8-1.5,11.2-5.1,16.6
			c-0.6,0.6,0.3-4.9,0.6-6.7c1.3-8.1,1.8-15.3,0.2-24.4c-1.8-10.7-7.5-23-5-33.2c3-12.4,13.4-22.6,15.3-35.4
			c1.3-9-4.1-19.2-8.5-29.5C115.7,238.9,115.3,237.7,115.5,236.6z"/>
		<path class="st0" d="M113.7,247.7c-5,43.4-48.5,82.7-52.5,127.1c2.1-21.2,8.3-43.8,20.6-64.3c3.2-5.4,7.3-10.3,10.8-15.3
			c3.4-4.9,6.1-10.2,8.6-15.6C106.2,268.8,110.8,258.6,113.7,247.7z"/>
		<path class="st0" d="M117.5,251.2c3.5,5.5,4.9,11.5,4.4,16.8c-1.2,12.6-12.4,24.2-15.5,36.3c-0.8,3.2-0.6,7.4-0.6,11
			c0-0.2,0.6,1.4-0.3,0.6c-1.3-7.9-1-15.7,1.8-22.8c1-2.4,2.5-4.4,3.8-7.1C116.7,275,119.8,263.4,117.5,251.2z"/>
		<path class="st0" d="M58.2,307.6c0.6,4.1-1.6,9.7-0.3,14.7C55.6,317.9,58.1,312.4,58.2,307.6z"/>
		<path class="st1" d="M107.1,503.5c1.4,0.5,3.8,1.5,4.9,0.3c-6.4-2.6-12.7-9.4-16.8-17.2c-2.8-5.3-2.7-12.2-2-17.3
			c0.8-6.1,3.2-13.2,2.4-18.2c-1.9-12.8-18.7-26.9-25.2-37.3c-11.3-18.2-8.9-37.7-4-53.9c1.3-4.3,2-9,3.4-12.6
			c3.1-8.2,8.3-16,12.6-24.1c8.7-16,19.1-32,25.7-48.1c3.3-8.1,4.9-16.2,7.1-24.7c1.4,8.3,1.5,16.3-0.7,22.8
			c-2.3,7.1-7.3,13.3-9.9,20.9c-1.9,5.7-2.4,12.5-1.5,18.3c0.9,6.4,4.4,12.7,6.6,19.9c4.6,14.8,2.5,30.3-1.2,43.6
			c2.2-0.3,3.4-2.7,4.3-4.3c1.1-1.9,2.5-3.8,3.4-5.6c3-6.2,3.8-17.6,3.6-24.1c-0.2-8.6-6.1-16.6-6.6-25.8
			c-0.6-11.6,8.2-26.5,11.7-38.3c2.5-8.6,6-17.3,1-26.1c-4.1-7.1-10-11.2-8.7-17.9c7.4-1.2,16.1-4.1,21.9-9.2
			c7.5-6.8,8.9-16.2,11.7-25c0.1-3.1,0-6.2-0.3-9.5c-0.3-2.1-0.8-4.7-1.2-7.3c-0.8-1.9-1.7-3.8-2.2-5.9c-1.2-6-0.8-12.3-2.5-18.5
			c-1.4-5-4.5-10.2-7.1-15.6c-1.2-2.5-1.7-5.2-3.1-7.5c-6.3-10-12.9-17-20.5-25.5c-4.9-5.5-8.7-12-13.2-17c-3-3.4-7.2-3.8-11.1-5.6
			c-9-4-18.5-6.4-26.6-12.4c-12-8.8-22.2-17.9-33.6-30c-1.6,3.2-2.5,6.9-4.1,10.5c-1.4,2.9-2.5,8.3-4.1,10.5
			c-1.4,1.9-4.2,3.4-5.8,5.4c-2.1,2.5-3.3,5.3-5.2,7.3c-4,4.2-8.1,7-9.6,12.1c-0.9,3.2-0.3,6.8,0.2,10.5c0.5,3.9-0.7,6.6,0.6,10.5
			c2,6.1,5.9,9.9,6.9,15.4c0.5,2.5,0.4,5.7,0.3,8.4c-0.2,2.8-1.2,5.7-0.4,8.5c1.3,5.1,4.6,8,6.3,11.9c5.9,13.7-10.4,24.8-10.2,37.6
			c0,4.6,2,9.2,2.6,13.8c0.5,4.3,1.1,9.5,0.1,13.6c-0.6,2.6-2.9,4.3-2.8,7.5c5-5.2,6.1-11.6,6.5-18c0.4-6.8-1.7-13.3,0.2-19.7
			c2.3-8.1,8.8-16.4,10.3-23.6c-0.2-0.2,0-0.3,0.1-0.4c0,0.1-0.1,0.3-0.1,0.4c0,0,0,0,0,0c2.6,6.8,3.9,13.2,4,19.4
			c0.1,5.6-1.9,12.1-0.7,18.5c1.3,6.8,7.5,11.4,12.2,17.3c2,2.5,3.1,5.2,4.7,7.5c1.6,2.5,3.8,4.8,5.6,7.7
			c10.8,17.3,3.3,33.9,16.3,48.8c-3.8,16-13.5,31.1-1,49.7c-4,14.6-8.6,27.1-7.7,41.6c0.7,10.8,2.9,23.3,10.1,34.9
			c2.8,4.4,6.5,8.4,9.8,12.9c3,4.1,6.9,7.9,9.8,12.4c4.4,6.7,3.1,12.8,3.5,19.4c-1.9,8.1-5.7,18.6,0.3,28.4
			C93.3,494.5,100.6,501.4,107.1,503.5z M89,447.4c5.3,7.7-0.6,14.9-0.9,23c-0.2,5,0.6,9.3,1.6,14.5C81.1,472,91.4,460.1,89,447.4z
			 M87.7,166.7c-3.8-4.3-2.8-9-4.1-14.3c-2.5-10.4-9.8-20-9.1-28.6c0.6-6.7,4-11.8,6.7-17.8c0.6-0.5,0.5,0,0.6,0.3
			c-0.9,3-2.2,5.6-2.9,8.4c-2,8-0.7,15,2.8,23.8c1.5,3.7,2.7,7.8,3.3,12.1C85.9,156.7,87,161.4,87.7,166.7z M84.6,140.8
			c-1.6-5.4-4.9-10.1-5.3-15.3c-0.3-4.8,1.4-8.7,2.3-13c0.5,13.2,5.5,29,5.7,42.8C86.1,150.9,86.2,146.2,84.6,140.8z M84.8,103.4
			c1.3,8.1,1.5,16.7,2.1,25.5c0.5,8.6,2.2,17.3,2.9,26.1c0.7,8.4,0.7,17.1,0.7,25.7c0,9,0.7,17.3-1.5,25.4
			c-1.9,6.9-7.2,13-11.4,19.3c6.8-13,11.4-25.9,12.4-40c0.5-6.6-0.9-14-1-21.2c-0.1-7.1-0.3-14.4-1.2-21
			C86.1,129.9,81.9,116.5,84.8,103.4z M76,265.3c0.5-8.9,6-19,11.9-27.8c0.3,4.2-4.6,10.3-6.7,15C79.2,257,78.8,261.1,76,265.3z
			 M83.6,251.5c0.2,0.5-1.8,4.5-2.4,6.4C80.8,256.5,82.4,253.5,83.6,251.5z M80.1,246.7c-3.9,6.5-5,13.2-6.5,19.6
			c0.5-12.7,5.6-26.6,15.8-38.5C89.5,233.9,83.9,240.4,80.1,246.7z M77.5,264.2c-0.4,2.1-1.7,4.1-3,6.1
			C74.5,269,75.8,265.9,77.5,264.2z M71.2,268.4c0.3-6.3-0.6-12.9,0.6-19.6c2-11,13.5-18.7,18.5-29.5c0.3,8.3-10.5,16.4-14.3,26.1
			C72.8,253.4,72.3,260.2,71.2,268.4z M70.2,249.2c0-16.3,19.6-31.5,21.2-48.3c0.2,3.7,0.7,8,0,11.8C88.6,225.6,71,235.9,70.2,249.2
			z M87.3,96.1c6.7,17.2,4.3,34.7,5.7,51.5c1.4,16.9,0.6,33.7,0.4,50.6c0.3,0.7-0.3,1.2-0.3,0.2c-1.5-16,0-34.1-2.5-51.4
			C88.1,129.6,86.9,112.4,87.3,96.1z M90.7,100.3c8.7,11.4,4.7,24.2,4.9,35.2c0.1,10.9,4.8,23.7,7,34.9c1,5.1,2,9.9,2.4,15.1
			c0,0.2,0.3,1.1-0.4,1.1C90.7,156.4,96.9,129.3,90.7,100.3z M100.3,205c0,27.4-9.7,51.5-21.2,76.9c-5.7,12.5-13.1,24.2-15.9,37.4
			c0.4-17.6,6.8-35,17.2-51.3c3.6-5.6,7.3-10.6,9.9-16.6c4.2-9.8,4.3-20.4,4.3-31.3c0-17.9,1.7-36.8,1.2-54.9
			c-0.1-0.1-0.1-0.2-0.2-0.3c1.2,0.9,1.9,6.9,2.3,9.7C99.5,185,100.3,195.7,100.3,205z M97.9,249c0.2-3.1-0.7-6.4-0.3-9.6
			c0.4-3.1,1.9-6.3,2.4-9.6c0.5-3.2,1.2-6.3,1.5-9.7c2.4,17.5,0.6,34.6-8.3,51.1c-4.4,8-9.1,16.4-14.7,24
			c-5.6,7.7-9.8,15.8-13.3,24.2c3-10.8,7.1-21.2,13.5-31c3.5-5.4,8.2-9.4,11.2-14.8C94.4,265.6,97.2,258,97.9,249z M80.9,282.9
			c5.3-12.1,11.3-24.1,14.6-36.5C96.7,258.6,90.7,271.6,80.9,282.9z M100.6,181.7c5.3,10.2,7.5,23,7.5,34.5c0,5.4-0.9,11-1,16.4
			c-0.3,13.1-1.8,24.9-8.2,37.3c-1.7,3.3-3.9,6.6-5.7,10c-1.8,3.4-3.3,6.9-5.2,10.1C80,303,69.3,315,64.5,329.7
			c5.2-25.7,28.2-46.5,36.4-71.1c4-12.1,3.8-25.4,2.8-38.1C102.8,207.7,102.8,194.5,100.6,181.7z M61.9,330.4
			c-4.8-13.9,0.4-27.2,4.6-40.5c2.6-8.4,7.9-15.2,12.2-23c8.4-15.1,12.9-31.4,13.6-47.5c1.3,13.5-0.5,27.8-8.5,40.6
			c-4.5,7.4-9,14.8-12.9,22.7c-4.1,8.2-6.3,15.5-8,23.4C61.3,314,61.6,321.7,61.9,330.4z M58.2,307.6c0.6,4.1-1.6,9.7-0.3,14.7
			C55.6,317.9,58.1,312.4,58.2,307.6z M43.1,208.2c1.5-6.5,6.2-12.1,11.2-18c14.9-17.3,19.4-35.9,17.2-56c1.2,3.9,4.2,7.7,4.9,12.1
			c0.6,3.9-1.6,12.5-2.8,16.6c-1.8,6-4.9,10.7-8.3,15.5c-9.5,12.9-24.9,27.4-21,42.7c1.5,6,4.8,11.8,6.7,17.8
			c1.9,5.8,4.3,12,5.2,17.4c0.4,2.3-0.3,4.7,0,7c0.8,5.6,2,11,4.7,17.7c-6.9-9.5-4.4-19.7-6.8-29.9
			C50.4,236.5,39.9,221.9,43.1,208.2z M68.8,232.2c-3.5,8.8-4.1,18-4.5,27.2c-1.8-6.7,0.9-13.7,1.4-20.2c0.7-10.1-1.2-19.5,4.3-28.6
			c5.2-8.5,13-16.2,13.6-27.1C87.4,200.2,63.9,214.6,68.8,232.2z M81.2,200.8c-1.3,9.1-7.8,19.3-11.1,28.9
			C67.3,219.9,77.5,210.3,81.2,200.8z M62.2,257.7c0.3,3.3,1.9,6.5,2.3,9.7c0.8,5.6-0.5,10.6-0.7,16.2c-0.4-4.2-1.1-8.8-1.5-13.4
			c-0.4-4.7-1.3-9.5-1.4-13.8c-0.1-4.7,0.8-9.1,0.8-13.5c0-4.4-1.1-8.7-1.3-13.6c-0.3-11.5,5.3-20.4,11.5-29.9
			c6-9.2,9.2-18.9,10.4-29.9c0.9,9.4-0.6,18.5-5.1,26.9c-4.7,8.6-11.5,15.7-13,25.1c-0.8,5.3-0.1,11.9-0.4,18.3
			C63.4,246.2,61.8,252.1,62.2,257.7z M52.6,227.1c-6.2-14.8,2.2-27.3,17.2-38.8c-4.3,7.3-11.4,12.1-14.3,19
			C52.7,214.1,54.6,221.2,52.6,227.1z M58.5,205.2c-0.2,1.4-1.5,2.6-1.8,4C56,208.6,57.7,206.3,58.5,205.2z M54.7,200.5
			c7.5-10.4,18.9-20.1,23.3-31c0.6,0.1,0.1,1.6-0.2,2.5c-0.9,2.8-2.8,6.5-3.7,9.4C68.2,187.8,60.5,194,54.7,200.5z M79.3,172.4
			c0.3,9-5.2,20.5-11.2,29.3c-5.4,7.9-9,15.7-9.4,25.3c-0.2,4.7,1,9.1,1.3,13.6c0.2,4.4-0.4,8.9-0.5,13.3c-0.3,8.7,1.6,17.6,3,27.2
			c-2.8-6.7-4.7-13.4-5-20.3c-0.2-4.1,1.1-8.1,0.7-11.9c-0.5-5.2-2.2-9.8-3-14.3c-0.7-4.4-1-9-0.3-13.9
			C57.5,203,74.7,190.9,79.3,172.4z M56.5,252.5c-3.9-15.4-14.2-33.7-4.9-47.7c1,0.3-1,3.4-1.5,5c-0.6,1.9-0.5,4.2-1.4,5.7
			C49.8,227.5,56.6,240.5,56.5,252.5z M46.5,221c-2.7-6-0.2-14,3.7-20.3c8.4-13.6,22.5-24.5,26.2-39.8c0.6-2.4,0.2-5.2,1-7.8
			C87.5,175.2,41.2,197.6,46.5,221z M59.2,151.8c0.3-3.6-0.1-8.1-0.1-12.5c0.1-14.7-10.4-32.5-1.4-45.6c-6.9,14.6,4.8,31.9,4.9,47.7
			c0.1,6.2,0.7,13.6-3.2,18.8c-3.5,4.8-7.7,7.2-10.7,10.5c-9.1,10.1-11.3,26.9-9.9,38.6c0.1,0.5,0.6,2.7,0.5,2.8
			c-0.3,0.3-0.7-0.4-0.4-0.5c-0.9-7-2.9-13.5-2.4-20.6c0.3-5.1,2.9-13.4,7.2-18.1c2.6-2.9,5.7-4.6,7.9-6.9
			C55.5,161.7,58.8,156.8,59.2,151.8z M52.4,161.8c1.9-3.6,4.3-7,5.1-10.8C58,154.1,55.8,158.6,52.4,161.8z M63.5,157.7
			c-2.9,12.4-11.7,23.9-19.7,35.4c4.3-12.2,15.1-23.5,19-35.8C63.5,156.9,63.4,157.3,63.5,157.7z M39.9,203.8
			c0.6-13.8,3-27.3,17.9-38.9C50.5,177.2,40.5,191.7,39.9,203.8z M25.3,201.5c0.1,0.1,0.1,0.2,0.2,0.3c0,0,0,0.1,0,0.1
			c0.7,1.5,1.7,7.1,4.1,9.9c0.5,0.6,0,0.7-0.3,0.2c-2.8-3.6-4.1-6.9-3.8-10C25.4,201.7,25.4,201.6,25.3,201.5z M31.2,197.2
			c0,0.5-0.1-2.1,0.3-0.2c1.3,6.3,2,12.3,4.9,20.7C32.9,211.8,31,203.8,31.2,197.2z M18.7,161.7c1.5,10.1-7.6,18.6-10.2,28.6
			c-1.8,7,0.3,12.8,0.1,20.7c-0.1-6.4-3.3-12.3-3.2-18.4c0.1-12.4,14.7-21.7,10-34.7C16.7,158.2,17.6,160.5,18.7,161.7z M14.4,122.5
			c1-3.1,2.3-7.1,3.8-9.8c3.8-6.9,11-12.6,17.4-18.6c0.2-0.1,0.3-0.2,0.5-0.4c-1.5,5.9-8.4,11-12.3,16.4c-2.3,3.1-3.7,6.3-5.2,10.1
			c-3.6,8.8-6.9,18.2-5.6,28.4C6.7,140.2,11.6,130.9,14.4,122.5z M28.1,74.5c-0.2,3.7-1,7.4,0.5,11.4C26.9,82.8,23.4,77.4,28.1,74.5
			z M28.5,98.2c-1.3,1.7-3.8,2.7-5.2,4.2c-7,7.2-8.7,15.9-12.1,23.7c1.5-7.9-5-15.1-5.9-22.7C3.9,93.2,12.6,86.1,24,78
			C23.2,84.5,32.6,92.5,28.5,98.2z M32.2,70.4c0.2-0.2,0.3-0.1,0.4,0.1c-2.4,8,4,17.4-1.4,24.9C32.2,87.2,26.1,77.9,32.2,70.4z
			 M27,62.8c0.2,4.9-7.5,7.6-12,11.5C17.4,70.2,22.1,66.5,27,62.8z M30.4,47.5c-1.4,4.8-3.3,9.4-5.8,14c0.5-5,4.6-9.4,5.2-14.4
			C30,47,30.2,47.3,30.4,47.5z M32.3,49.6c-3.6,4.2-1.4,9.3-6.8,13.2c2.5-4.4,3.3-9,6-13.3C31.7,49.4,32,49.3,32.3,49.6z M33.9,51.2
			c1.2,2.6-1.2,4.7-2,6.9c-1.9,5.3-4.2,11.2-10.9,16.2C11.9,80.9,3.5,88,2,96.7c-4.8-13.8,21.1-21,27-32.9
			C31.3,58.9,29.4,54.5,33.9,51.2z M38.9,56.5c-3.2,6.1-6.5,12.3-13.2,17.9C13.8,84.1,1.6,91.6,3.5,104.2c1.1,7.3,7.3,14.5,6.3,22.1
			c-1.4-6.4-6-10.5-7.7-16c-1.1-3.7,0-12.9,1.5-16.8C8.2,81.7,23.8,78,30.3,66.3c2.1-3.7,2.9-9.6,5.4-12.5
			C36.9,53.8,37.9,55.6,38.9,56.5z M40.5,57.7c-0.9,5.5-5.4,8.9-5,14.6c0.5,6.8,3.7,13.8-0.7,20.1c-0.6-1.2,0.6-3,0.7-4.4
			c0.3-6.2-3.6-14.2-0.8-20.5c0.4-0.9,1.3-1.6,1.7-2.4C37.6,62.8,37.6,59.4,40.5,57.7z M42.6,62.1c-0.8,3-4,5.6-4.8,8.5
			C37.7,67.5,39.6,64.7,42.6,62.1z M43.3,60.4c-1,0.8-1.8,0.6-2.7,1.6c-0.4-1.1,1.2-1.8,1.1-2.8C42.3,59.1,42.8,59.6,43.3,60.4z
			 M45.6,61.9c1,1.7-1.1,3.8-1.9,6.1c-0.8,2.3-1.5,4.8-1.8,7.2c-0.5,3.5,0.7,7,0.3,10.7c-0.4,3.9-2.9,9.8-5.3,13.7
			c-4.5,7.4-10.5,12.1-13.8,18.7c-3,6-5.9,12.7-6.8,19.8c-1.9,15.3,14.5,32.9,9.7,47.8c-0.4-8.5-1.3-16.6-5.6-24.9
			c-2-3.9-5.1-7.1-6-10.9c-2.2-9.6,2-21.2,5.6-29.9c5.4-12.8,21.4-23.2,19.9-37.2c-0.3-2.8-1.9-5.2-1.7-8.2c0.2-2.4,1.7-4.6,3.1-7
			C42.7,65.5,43.4,62.6,45.6,61.9z M48.1,68.6c-2.7,6.4-0.3,12.1-2.2,18.5c-2.3,7.8-7.1,15.5-12.1,22.1c-5,6.5-10.7,13.7-11.9,21.9
			c-0.8,5.7,0.3,12.2,2.2,17.6c2,5.7,5.5,11.4,6.6,18.3c0.9,5.2-0.5,9.3-2.1,14.9c0,0.6-0.1,0.1-0.2-0.3
			c2.7-12.8-9.8-26.3-10.6-38.9c-0.3-4.4,1-9.9,2.7-14.1c1.9-4.7,3.8-9.3,6.4-13.3c6.7-10.1,17-19.1,17.4-31
			c0.1-5.1-0.7-9.2,0.7-14.2c0.5-1.8,1.1-5,3.6-5.8C50.5,65.4,48.5,67.6,48.1,68.6z M52.3,70.6c-2.7,12.8-6.1,26.5-14.7,38.5
			c-5.6,7.9-12.8,16.1-11.7,25.4c0.3,2.8,1.8,4.9,2.7,7.5c1.4,4.4,2,10.1,3.3,15.3c1.3,5.4,3.3,10.1,2.6,14.9
			c-0.4,2.9-1.9,5.9-2.7,8.6c-2.3,8-2.3,15.9-1.2,24.8c0,0.1,0.7,1.4-0.2,1.3c-6.4-14.6,5.3-28.1,1.7-42.4
			c-2.7-10.8-9.3-21.6-8.3-31.9c0.9-9.6,8.6-18,14.9-26.9c4.3-6,9.1-14.9,9.8-22c0.3-2.8-0.2-6.1,0.1-9.1c0.2-2.7,0.3-6.4,3.5-7.6
			C54.1,68.5,52.7,69.1,52.3,70.6z M32.1,187.2c0.4,1.3-0.3,5.5-1,6.6C31.4,191.6,31.6,189.4,32.1,187.2z M39.1,168.8
			c-0.4-2,2-4.7,2.6-6.6c1.5-4.7,0.8-9.7,2-14.4c0.9-3.5,3-6.7,3.6-10.1c0.7-4.1,0.4-8.8,0-12.9c-0.5-4.8-1-10,0-14.1
			C51,130.2,48.6,150.6,39.1,168.8z M50.7,119.6c-0.1-0.1-0.1-0.2-0.2-0.3c1.5,1.3,2.8,9.2,3.1,12.3c1.1,12.5-4.7,25.5-12,35.7
			C49.4,152.2,50.2,135.9,50.7,119.6z M41.9,122.5c0.6,5.1,1.7,10.5-0.2,15.8c-1.6,4.5-3.9,8.3-4.6,13.1c-0.5,3.4,0.4,6.9-0.3,10.4
			c-0.1,0.7-0.1,2.2-1,2.3c-0.3-3.2-1.4-6.3-1.3-9.3c0.2-6.4,2.9-11.7,5.3-17.5C41.7,132.5,40.8,127.6,41.9,122.5z M37.8,138
			c-0.9-0.5,0.8-2.4,0.6-3.5C39.3,134.9,37.9,136.9,37.8,138z M44.7,114.6c0.3,5.5,1.4,10.7,1.5,16.1c0.1,5.5-1.9,10.1-3.6,15.5
			c-2,6.5-0.6,13.8-4.5,20.1c0.8-4.4,0.3-9.3,0.7-14.2c0.5-6.3,4.6-11.7,5.4-18.4C45,126.9,42.9,121.1,44.7,114.6z M35,114.6
			c-2.3,5.1-6,14.4-6.8,21.4C25.9,129.1,30.7,121.3,35,114.6z M57,71.2c-3.6,6.5-5.2,14.1-8.2,21.6c-2.3,5.9-5.7,11.5-7.9,17.1
			c-4.1,10.1-6.9,20-9.1,30.5c-0.2,1.1,0.3,2.8-1,3.5c-4-19.8,14.8-38.6,19.5-57.2c1.5-5.8,2.3-11.6,4.9-16.9
			C55.8,70.2,56.4,70.9,57,71.2z M59.6,73.2c-1.8,3.4-3.5,6.1-4.7,9.7c-1.1,3.4-1.3,6.9-2.5,10c-1.2,3.1-3.4,5.7-5.2,8.5
			c-3.6,5.7-5.2,12.9-6.8,19.8c-2.6,11.1-7.3,19.9-7.2,31.1c-2.4-8.3,1.8-17.1,4.1-26.1c1.6-6.4,3.7-12.1,6-18.1
			c2.4-6.2,6.3-11.7,8.5-17.9c1.1-3,1.8-6.1,2.8-9.1C55.7,78.3,56.6,74.6,59.6,73.2z M63,77.8c-0.4,1.8-3.8,6.9-6.5,9.9
			C57.5,84.2,60.7,81,63,77.8z M61.6,74.8c0,3.2-3.4,5.8-5,8.7C57.3,80.5,58.7,77.6,61.6,74.8z M64.7,76.9c1.5,3.6-1.9,6.7-4,9.6
			c-3.7,5-8.2,9.6-9,15.1c-2,13.5,7.9,30.8,5.4,45.1c-1.4,7.7-7,14.9-12.6,22.1c-5.5,7-9.5,15-9.9,22.5c-0.2,3.3,0.8,7.4,1.2,11.3
			c0.6,6.4,1.5,10,3.5,16.6c0.2,0.8,0.6,1.8,0.7,2.6c0.1,0.4,0.8,1.3,0,1.6c-5.3-14.6-9.7-30.4-3.2-44.3c3.5-7.6,8.7-13.7,12.5-20
			c3.7-6.2,5.8-13.7,6.5-20.7c0.7-7.2-1.8-13.5-3.5-21c-1.4-6.2-2.1-14.4,0-20.4C54.8,89.6,63.6,84.2,64.7,76.9z M69.2,79.9
			c2.3,4.4-1.6,7.9-4.7,11.3c-5.6,6-7.2,11.8-5.7,19c0.8,3.8,2.4,7.5,2.9,11.6c-3.4-8.3-5.4-15.1-3.9-22.6
			c1.4-7.1,10.4-11.6,10.5-19C68.6,79.8,68.9,80.1,69.2,79.9z M72.8,81.6c1.3,3.6-1.8,6.9-4.3,9.8c-2.6,3-5.8,6.6-6.5,9.8
			c-1.7,7.6,2.4,14.7,1.9,22.5c-0.5-5.2-5.5-18.2-3.2-24.3c1.8-4.6,8.7-8.8,10.5-13.5C71.8,84.5,71.1,82.5,72.8,81.6z M76,83.2
			c2,8.3-6.7,11.5-9.8,17.3c-1.2,2.3-1.3,5.2-1.2,7.5c0.3,4.5,2.7,8.4,0.7,12.8c-0.7-3.1-0.9-6.5-1.4-10c-0.4-3.1-1.2-7-0.2-10
			c2.2-6.6,11-10.5,11.2-18C75.6,82.7,75.8,83.1,76,83.2z M71.6,102c-1.3,2.7-4.5,5-4.4,7.9C65.3,107.7,68.1,104.2,71.6,102z
			 M67.6,103c-0.9-3.6,8.1-7.6,8.7-11.8C77.2,94.8,71.6,99.4,67.6,103z M70.7,106.2c-0.6,2.6-2,5-2.8,7.5
			C67,112.1,68.9,108.7,70.7,106.2z M79.6,84.5c2,8.3-1,14.8-4.9,22.4c-3.4,6.6-5.2,13-5.5,20.4c-0.3,7.2,1.3,13.9,0.8,21
			c-0.5,6.7-1.5,13.6-4.1,20.2c-5,12.9-17.8,23-23.9,37.7c-0.5-1.8,0.3-3.9,0.9-5.8c3.6-11.3,14.4-21.3,19-32.6
			c1.2-3,2.9-6.4,3.5-9.2c1-4.8,0.5-10.3,0.6-15.3c0.2-9.4,0.1-18.4,3.4-27.6c1.5-4,2.7-8.6,4.4-12.2c3.1-6.4,7.2-11.1,5-18.9
			C79.2,84.3,79.4,84.3,79.6,84.5z M81.8,85.3c7.2,9.1-1.4,17.6-5,26c-2.1,5-5.2,12.2-3.7,18c2.1,8.5,6.6,15.6,8.8,23.4
			c1,3.8,1.9,7.7,2.9,11.6c1,3.7,2.5,7.6,3.2,11.4c1.8,10.3-1.2,23.6-4.9,33.7c-4,11-11.2,20.9-14.2,32.2c-1.6,6-0.8,12.9-0.8,19.4
			c0,6.4,0.9,14.3-0.8,19.4c-1.2,3.7-2.9,6.1-4.1,10.5c0.3,0.7-0.3,1.2-0.3,0.2c3.1-7.7,3.4-16.9,2.8-25.2
			c-0.4-5.7,0.2-11.5,0.9-17.1c1.3-11.2,6.2-21.3,11.2-32.5c7.8-17.4,10.4-31.7,4.9-50.9c-1.7-5.8-2.5-12.2-4.2-17.7
			c-1.8-5.5-4.9-11-6.6-17.1c-1.4-5.3-0.8-11.7,0.7-16.2c2-6,6.8-10.5,8.5-16.3C82.3,93.9,81.2,89,81.8,85.3z M103,104.3
			c2.8,12.6,1.6,23.9,4.4,36.7c2,8.9,2.5,16.9,2,25.9c-0.5,8.8,0.1,17.5,2,25.9c1.9,8.5,4.7,17.1,3.8,26.2c0.1,0.3,0.1,0.6-0.1,0.9
			c-0.1-0.2,0.1-0.4-0.1-0.7c-0.2-10.1-3.3-19.3-5.1-29.2c-1.7-9.1-1.4-18.7-1.6-28.6c-0.2-9.3-3.7-18.5-4.7-29.1
			c-0.9-9.6,1.2-19.8-3.8-28.9c-2.4-4.5-6.5-10-9.9-14.7C96.2,89.3,99.6,98.2,103,104.3z M102.5,138c1.2,8.1,4.2,15.9,4.6,24.1
			c-4.1-15.2-7-32.1-5.7-47.2C102.9,122.1,101.3,129.9,102.5,138z M112.9,123.3c1.7,10.4,11.9,21.7,11.4,32.4
			c-0.2,4.9-1.5,9-3.1,13.3c-0.3,1-0.6,2-1.1,3c0.4-1,0.7-2,1.1-3C125.2,154.9,112.1,138,112.9,123.3z M119.9,165.7
			c-0.7,4.8-2.8,8.4-2.4,13.5c-2.7,5.2-3.4,10.6-3.5,16.2c-1.6-2.2-1.3-6.1-2.2-9c0.6-4.6,0.7-8.4,1.5-12.5
			c0.8-4.1,2.7-7.9,3.3-12.2c0.5-4.3,0.2-8.9-0.7-12.8c-1.7-7.3-6.8-16-4.5-22.9C111.2,139.5,121.7,152.4,119.9,165.7z M114.6,122.9
			c11.9,16.2,16.8,31.3,13.8,45.9c-2.1,10.5-10.6,18.3-12.5,29.1c-2.5-17.1,14.7-32.5,9.4-51.1C123.2,139.5,116,131.6,114.6,122.9z
			 M130.2,167.5c1.1-2.8,2.9-5.1,3.5-8.1c0.8-3.6,0-7.2,0.2-11.1c8.4,17.4-4.2,33.5-16.5,48.4c2.1-7.8,7.9-14.2,10.7-21.9
			C129,172.5,129.2,170,130.2,167.5z M136.7,168.3c-0.1,4.5-1,9.5-2.9,14.3c-3.3,8.3-11.5,14.5-16.9,22.5
			C119.5,192.2,135.4,181.4,136.7,168.3z M136.9,176.7c-0.1,1.5-0.3,2.9-0.8,4.3c-1.5,6.9-4.6,15.2-11.4,21c-3.7,3.2-6,5.8-7.9,9.6
			c-0.4-1.2,0-2.3-0.6-3.5c6.1-9.1,16.9-17.5,19.8-27.2C136.5,179.5,136.7,178.1,136.9,176.7z M119.6,220.3
			c2.6-8.4,7.7-16.3,12.5-24.3C131.3,203.7,124.5,212.4,119.6,220.3z M136.1,187.5c0.5,10.3-3.1,21.9-12.9,31.3
			C129.7,208.7,134.6,198.4,136.1,187.5z M117.2,222.8c-1.4-6,1.4-13.4,7.8-19C122.2,210.2,118.8,216.4,117.2,222.8z M101.3,97.7
			c4.8,6.5,8.6,12.4,9.2,19.1c0.6,6.6-2.9,12-1,19.1c1.6,6,4.7,10.9,5.3,16.5c0.8,7.4-1.9,16.2-3.7,22.3c0.5-9.6,0.9-19.4-1.2-29.7
			c-2-10-4.6-20.2-3-29.9C105.7,109.4,105.4,103.8,101.3,97.7z M132.9,137.3c2.9,2.5,3.7,6.6,5.5,9.7
			C136,144.6,135.1,140.5,132.9,137.3z M109.1,107.3c7.5,7.6,16.4,19.4,21.5,29C122.4,126.7,113.2,117.1,109.1,107.3z M130.9,163.1
			c1.5-10.6-2.5-24-12.1-37C131.8,137.1,134.7,152,130.9,163.1z M130.6,228.3c11.1-9.5,16.5-18.6,17.2-29.7
			c0.4-7.4-4.3-15.8-5.4-24.7c-1-8.1,0.7-15.8-2.6-22.4c4.8,6.8,4.1,16.9,6.1,25.7c1.1,4.8,2.9,8.6,3.2,13c0.3,4,0.1,8.3-0.8,12.3
			C146.1,211.7,142.7,222.1,130.6,228.3z M120.4,231c6-2.7,12.4-7.1,16-12.4c5.2-7.6,8.2-19.7,6.4-28.9c-0.8-4.3-3-8.1-3.4-12.8
			c-0.4-4.7,0.4-9.3,0-14.1c-0.5-4.9-1.4-9.4-3-14.3c5.2,7.9,3.2,15.2,4.1,24.5c0.8,8.7,5.9,16.8,5.6,24.9
			C145.6,210.5,136.2,226.1,120.4,231z M117.9,229.7c0.5-5,6.7-9.6,10.3-13.8c8.6-9.8,9.6-21.1,10.6-32.8
			c4.7,11.2,2.8,34.6-12.7,43.3C123.3,228.1,120.5,227.9,117.9,229.7z M108.3,304.9c3-12.4,13.4-22.6,15.3-35.4
			c1.3-9-4.1-19.2-8.5-29.5c0.5-1,0.2-2.2,0.3-3.4c1.5,2.6,1.4,5.1,3,8c1.6,2.7,4.5,5.3,6.3,8.7c4.1,8,0.7,16.4-1.6,24.2
			c-3.5,12.1-12.6,26.3-11.8,38.7c0.5,7,4.2,12.4,5.9,18.8c1.4,5.6,0.8,12.1,0.2,17.5c-0.7,5.8-1.5,11.2-5.1,16.6
			c-0.6,0.6,0.3-4.9,0.6-6.7c1.3-8.1,1.8-15.3,0.2-24.4C111.5,327.4,105.8,315.1,108.3,304.9z M117.5,251.2
			c3.5,5.5,4.9,11.5,4.4,16.8c-1.2,12.6-12.4,24.2-15.5,36.3c-0.8,3.2-0.6,7.4-0.6,11c0-0.2,0.6,1.4-0.3,0.6
			c-1.3-7.9-1-15.7,1.8-22.8c1-2.4,2.5-4.4,3.8-7.1C116.7,275,119.8,263.4,117.5,251.2z M61.2,374.7c2.1-21.2,8.3-43.8,20.6-64.3
			c3.2-5.4,7.3-10.3,10.8-15.3c3.4-4.9,6.1-10.2,8.6-15.6c5-10.7,9.6-20.9,12.5-31.8C108.7,291.1,65.2,330.4,61.2,374.7z
			 M63.6,407.1c-14.9-29.5-5.4-57.3,5.1-82.9c4.4-10.8,12.1-19.4,18-29.6c2.8-4.9,5.4-10.1,8.3-15c8.2-14.3,14.1-27.9,14-44.3
			c0-10.1,1-20.1,0-30.2c-1-10.2-2.1-20.6-4-30.8c-0.9-5.1-1.5-10.6-2.7-15.6c-1.4-5.3-3.5-10.3-4.3-15.6c-1.9-12,2-21.8-0.7-33.2
			c-1.8-8-8.4-14.6-11.6-22.9c5.4,5.3,11.2,13,13.1,20.2c1.7,6.3,1.1,12.9,1.2,19.5c0.2,12.6,4.2,26.1,6.1,39.1
			c0.9,6.3,0.4,12.8,1,19.2c0.7,6.7,2.9,13.2,4.1,19.7c1.2,6.5,1.5,13,1.9,19.4c0.9,14.1-1.1,24.3-6.3,37.1
			c-4.8,11.8-9.9,24.6-17.8,35.3c-16.1,21.9-26.5,47.1-29.9,71.5c-1.7,12.6-0.1,25,4.3,38.8C64.3,407.1,64.2,408.1,63.6,407.1z
			 M89.7,469.9c0.3-5.1,3.7-10.9,3.2-16c-0.9-9.8-7.7-17.3-16-27.9c6,6.5,15.6,16.2,17.3,24.3c1,4.7-1.6,11.5-2.5,17.1
			c-1.7,10.6,0,21.3,11.8,32.9C91.3,492.4,89.1,480.4,89.7,469.9z"/>
	</g>
	<g>
		<path class="st0" d="M224.8,2.3c-0.3-0.1-0.3,0.2-0.5,0.4c2.3,3.9,5,7.6,8.1,11.1C230.9,9.5,226.4,6.5,224.8,2.3z"/>
		<path class="st0" d="M223.8,4.7c-0.3,0-0.6,0-0.7,0.3c4,2.9,3.2,7.8,8.8,10.1C228.7,11.8,227.1,7.9,223.8,4.7z"/>
		<path class="st0" d="M218.7,12.5c4.1,4.6,8.3,9.4,15.4,12.8c12.5,6,24.8,10,25.8,21.4c0.6,6.6-3.3,14.2-0.8,20.7
			c-0.2-5.9,3-10.5,3.3-15.6c0.2-3.5-2.8-11.3-4.9-14.4c-6.5-9.4-21-9.3-29.3-18.2c-2.6-2.8-4.6-7.8-7.4-9.8
			C219.9,9.7,219.5,11.5,218.7,12.5z"/>
		<path class="st0" d="M230.5,15.4c0.9,4.4,8.2,5.1,13,7.5C240.6,19.9,235.7,17.6,230.5,15.4z"/>
		<path class="st0" d="M216.9,15.4c-0.6,0.1-0.9,0.6-1.2,1.4c1,0.5,1.7,0.1,2.8,0.8C218.6,16.6,217,16.3,216.9,15.4z"/>
		<path class="st0" d="M227.6,23.2c-0.2-0.1-0.3,0-0.4,0.2c3.9,6.5,0.2,16.1,6.6,21.6C231.2,38,234.5,28.5,227.6,23.2z"/>
		<path class="st0" d="M232,26c1,3.2,2.5,6.3,2,10.1C234.9,33,236.8,27.5,232,26z"/>
		<path class="st0" d="M202.7,33.4c0.7,2.8,4.2,4.4,6.3,6.6C207.7,37.4,205.9,35.2,202.7,33.4z"/>
		<path class="st0" d="M197.2,39.5c-1.1,4.3,3.1,6.6,6.6,8.9c6.2,4,8.8,8.8,9.1,15.5c0.1,3.5-0.5,7.1-0.1,10.8
			c1.2-8,1.5-14.4-1.4-20.7c-2.7-5.9-11.6-7.9-13.2-14.4C197.7,39.3,197.5,39.6,197.2,39.5z"/>
		<path class="st0" d="M192.4,43.4c-0.3-0.1-0.3,0.2-0.5,0.4c0,7.7,8.3,8.6,12.2,13.1c1.5,1.7,2.3,4.3,2.6,6.3c0.7,4-0.6,8,2.1,11.4
			c0-2.8-0.6-5.9-0.9-9c-0.3-2.8-0.4-6.4-1.9-8.8C202.8,51.5,194.2,49.9,192.4,43.4z"/>
		<path class="st0" d="M189.7,45.7c-0.3-0.2-0.5-0.1-0.6,0c0,7.7,4,12.8,9.1,18.6c4.4,5.1,7.3,10.3,9.2,16.8
			c1.8,6.2,1.8,12.5,3.8,18.6c1.9,5.8,4.2,11.6,7.9,16.8c7.1,10.2,20.6,16.4,29,28c0.1-1.7-1.1-3.4-2-4.8
			c-5.5-9.1-17.2-15.6-23.6-24.5c-1.7-2.4-3.9-4.9-5-7.3c-1.9-4-2.6-8.9-3.8-13.3c-2.2-8.2-4-16.1-8.9-23.4c-2.1-3.2-4.2-7-6.5-9.8
			C194,56.3,189.4,52.9,189.7,45.7z"/>
		<path class="st0" d="M199.8,59.4c1.7,2.1,5,3.5,5.6,6C206.5,63,203.3,60.5,199.8,59.4z"/>
		<path class="st0" d="M201.5,62.9c1,2.1,2.8,3.9,4,6C206,67.2,203.6,64.6,201.5,62.9z"/>
		<path class="st0" d="M192.2,64.9c-0.7-0.3-0.4,0.1-0.5,0.4c1.4,2.4,3.1,4.5,4.3,6.7c3.5,6.6,3.8,13,2.6,21.5
			c-0.5,3.5-0.7,7.4-0.3,11.3c0.6,5.5,0.6,9.8,1.1,14.7c2.4-4.6,0.5-8.5,0.5-13.4c0-9.7,4.3-19.6,1.8-27.1
			C199.9,73.3,195.8,69.6,192.2,64.9z"/>
		<path class="st0" d="M168,72c-5,8.2-10.2,20.5-12.6,30C160.5,91.8,166.5,81.5,168,72z"/>
		<path class="st0" d="M176.5,77c0.2,6.6,3.3,13.1,4,20.5c0.7,7.3-0.3,14.9,1.1,22.1C181.9,105.4,180.8,90,176.5,77z"/>
		<path class="st0" d="M219.3,106c-0.7-0.3-0.4,0.1-0.5,0.4c5.2,10.2,15.4,18.4,24.8,26.9C237.2,123.5,225.4,115.9,219.3,106z"/>
		<path class="st0" d="M166.6,86.8c-6.9,16.8-8,31-2.3,43.2c4.1,8.7,13.2,13.8,17.2,22.8c-1.5-15.5-19.9-25.4-19.2-42.8
			C162.5,103.3,167.2,94.8,166.6,86.8z"/>
		<path class="st0" d="M153.6,103.4c-2,2.8-1.8,6.6-2.7,9.7C152.5,110.5,152.4,106.6,153.6,103.4z"/>
		<path class="st0" d="M219.9,134.7c5.4,5.4,12.6,8.2,16.6,13.6c3.9,5.2,3.7,11.9,6.7,16.7C245.5,150.7,235.5,141.5,219.9,134.7z"/>
		<path class="st0" d="M155.1,113.3c-3.6,17.1,10.9,28.5,24.8,38.9c-3.5-6.4-10-10.8-14.1-16.9c-1.3-1.9-2-4.1-3.4-6
			c-1.6-2.2-3.7-3.9-4.8-6.3C156.1,120,156.1,116.7,155.1,113.3z"/>
		<path class="st0" d="M152.9,114c-2.8,8.1,0.4,14,1.7,22.3c1.2,7.8-1.5,16,0.4,23c3.1,11,14.7,22.6,29.6,23.6
			c-5.9-1-12.4-3.6-16.7-7.5c-6.2-5.6-11.4-15.5-11.8-24c-0.2-3.9,0.9-7.7,0.3-11.9c-0.7-4.2-2.4-8.1-3-12.3
			C152.8,122.8,152.6,118.6,152.9,114z"/>
		<path class="st0" d="M150.6,117.4c-2.7,7,0,15.7,0.1,23.8c0,4.4-0.7,8.2,0,12c0.6,3.6,1.7,7.3,3.4,10.6c3.8,7.5,9.1,16,21,18.8
			c-11.7-6-18.5-12.8-21.4-22.4c-2-6.4,0.4-14.7-0.5-22.8C152.3,130.3,149.1,123.8,150.6,117.4z"/>
		<path class="st0" d="M191.4,135.4c-2.5,10-1.6,21.7,0.8,31.9c1.2,4.7,3.1,9.5,4.4,14.2c3.1,11.4,6.9,21.5,15.1,30.9
			c2.2,2.5,4.8,5,7.1,7.5c2.3,2.6,4.4,5.3,6.7,7.7c9.9,9.8,21.8,18.1,29.1,29.9c-10-21.4-34.7-34.8-47.1-54.6
			c-6.1-9.8-8.8-21.4-10.6-32.8C195.1,158.7,192.2,147.1,191.4,135.4z"/>
		<path class="st0" d="M174.8,160.1c3.7,5,8,9.7,10.9,15C185.6,169.4,181.6,163.6,174.8,160.1z"/>
		<path class="st0" d="M264.4,344.6c-3.9,7-10.2,17.6-9.9,25c0.1,4.3,3.8,9.7,5.8,14.4c3.8,9,4.5,18.7-3.3,31.4
			c9-9.5,8.4-20.5,5.6-29.5c-1.3-4.4-5.6-8.8-6.2-13.4C255,363.7,259.4,355.6,264.4,344.6z"/>
		<path class="st0" d="M258.4,365.9c-3,7.9,3.7,12.9,5.7,20c1.2,4.4,1.5,8.3,1.7,13.1C270.6,385.8,259,377.6,258.4,365.9z"/>
		<path class="st0" d="M222,6.7c-0.5,2.5,2.1,3.9,3.2,5.7c2.8,4.2,6,9,13.1,11.9c9.3,3.8,18.2,8.3,21.4,15.6
			c1.2-13.2-23-14-30.7-23.1C225.9,13,226.6,8.7,222,6.7z"/>
		<path class="st0" d="M217.6,13.8c2,4.6,6.7,6.7,7.5,11.7c1,6.1-0.3,12.9,4.9,17.5c0.2-1.2-1.2-2.5-1.6-3.7
			c-1.6-5.3,0.1-13.2-3.7-18.2c-0.5-0.7-1.5-1.2-2.1-1.8C221.2,17.7,220.5,14.7,217.6,13.8z"/>
		<path class="st0" d="M216.7,18.1c1.3,2.4,4.7,4,6,6.5C222.2,21.8,219.9,19.8,216.7,18.1z"/>
		<path class="st0" d="M214.1,18.6c-0.6,1.7,1.8,3.1,2.9,4.9c1.2,1.8,2.4,3.9,3.1,5.9c1.1,2.9,0.8,6.3,2,9.5
			c1.2,3.4,4.6,7.9,7.6,10.8c5.6,5.5,11.8,8.3,16.1,13.4c3.9,4.6,7.9,9.9,10.2,15.9c4.9,13-5.7,31.9,1.7,44
			c-1.5-7.5-2.4-14.9-0.4-23c0.9-3.9,3-7.3,2.9-10.9c-0.1-8.9-6.3-18.2-11.3-25.1c-7.5-10.1-23.7-15.7-25.4-28.4
			c-0.4-2.6,0.5-5-0.3-7.5c-0.7-2.1-2.5-3.7-4.3-5.5C217.4,21.2,216.1,18.8,214.1,18.6z"/>
		<path class="st0" d="M212,21.4c-1.5,1.3,0.7,2.8,1.3,3.6c3.7,5,2.9,10.6,5.9,15.7c3.7,6.3,9.5,12.1,15.3,16.8
			c5.7,4.6,12.3,9.8,15.1,16.7c1.9,4.8,2.3,10.7,1.8,15.9c-0.5,5.4-2.3,11.2-1.9,17.4c0.3,4.8,2.4,8.1,5,12.6
			c0.2,0.5,0.1,0.1,0.1-0.3c-5.1-10.6,3-25.1,1-36.4c-0.7-3.9-3-8.5-5.4-11.8c-2.7-3.7-5.3-7.4-8.5-10.3c-8.1-7.4-19-13.1-21.9-23.5
			c-1.2-4.4-1.3-8.2-3.6-12.3C215.5,24.2,214.4,21.6,212,21.4z"/>
		<path class="st0" d="M209.5,24.4c-1.5,1.8-0.2,2,0.5,3.3c5.1,10.6,11,21.9,21.1,30.6c6.6,5.7,14.7,11.4,15.7,19.7
			c0.3,2.5-0.6,4.7-0.8,7.1c-0.3,4.1,0.4,9.3,0.4,14.1c0,5.1-0.7,9.6,0.9,13.7c1,2.5,2.9,4.7,4.2,7c3.7,6.5,5.4,13.4,6.3,21.5
			c0,0.1-0.3,1.3,0.5,1.1c2.5-14.2-10.7-23.5-10.5-36.8c0.1-10,3.5-20.9,0.5-29.8c-2.8-8.2-11.4-14-18.8-20.4
			c-5.1-4.4-11.1-11.1-13.3-17.2c-0.8-2.4-1.1-5.4-2-7.9C213.4,28.1,212.5,24.8,209.5,24.4z"/>
		<path class="st0" d="M207.3,27.6c-0.4,0.5-0.8,1.3-1.3,1.6c4.5,4.9,7.6,11.2,11.8,17.2c3.3,4.7,7.4,8.9,10.6,13.3
			c5.8,8,10.3,16.1,14.5,24.8c0.4,0.9,0.3,2.5,1.6,2.8c-0.7-18.2-21.2-30.7-29.3-46C212.7,36.6,210.7,31.6,207.3,27.6z"/>
		<path class="st0" d="M204.1,31.5c2.3,2.6,4.4,4.6,6.2,7.5c1.7,2.7,2.6,5.8,4.3,8.3c1.7,2.5,4.2,4.2,6.4,6.3
			c4.3,4.2,7.3,10.2,10.2,15.9c4.6,9.2,10.6,15.9,12.9,25.7c0.4-7.8-5.3-14.6-9.2-22c-2.8-5.2-5.8-9.9-9.2-14.6
			c-3.4-4.9-8-8.9-11.3-13.9c-1.6-2.4-2.9-5-4.4-7.4C208.7,35.1,207.1,32.1,204.1,31.5z"/>
		<path class="st0" d="M261.1,87.7c3.8-8.6-2.5-15.8-6.8-22.6c-1.6-2.5-3.5-5.7-5.5-7.8c-4.8-5.3-12.3-8.7-19.3-12.5
			c-0.2-0.1-0.4-0.1-0.5-0.2c2.6,4.8,9.7,7.9,14.3,11.8c2.7,2.3,4.6,4.7,6.7,7.7C255.1,70.9,260.1,78.5,261.1,87.7z"/>
		<path class="st0" d="M202.2,36.3c0.7,1.5,4.8,5.3,7.8,7.2C208.4,40.7,204.9,38.6,202.2,36.3z"/>
		<path class="st0" d="M200.5,35.9c-0.6,3.5,3.1,5.5,5.6,7.5c4.3,3.6,9.2,6.7,11.1,11.4c4.6,11.4-0.3,28.7,4.9,40.7
			c2.8,6.5,9.3,11.6,15.7,16.7c6.3,5,11.6,11.1,13.5,17.6c0.9,2.9,0.9,6.7,1.4,10.2c0.9,5.7,0.8,9.1,0.5,15.3c0,0.8-0.1,1.7-0.1,2.4
			c0,0.3-0.4,1.3,0.4,1.4c1.5-14,2-28.7-6.6-39.5c-4.7-5.9-10.6-10.2-15.2-14.9c-4.5-4.6-8-10.7-10.1-16.8
			c-2.1-6.2-1.3-12.2-1.4-19.1c-0.1-5.7-1.3-13.1-4.4-17.9C211.9,44.9,203.1,42.1,200.5,35.9z"/>
		<path class="st0" d="M194.4,41.7c-0.4,3.4,3.1,5.7,5.8,7.6c2.9,2.1,6.5,4.5,7.8,7.2c3.2,6.3,1,13.4,3.2,20.1
			c-0.7-4.7,0.9-17.1-2.4-22c-2.5-3.7-9.5-5.8-12.1-9.6C195.9,44.1,196,42.2,194.4,41.7z"/>
		<path class="st0" d="M210.2,49.1c9.2,11.3,2.7,29,5.9,42.9c1.3,5.5,2.3,12.1,6.8,15.8c4.1,3.4,8.3,4.6,11.7,7
			c10.1,6.9,15.7,21.2,17,31.7c0.1,0.5,0.1,2.5,0.2,2.6c0.3,0.2,0.5-0.5,0.2-0.5c-0.7-6.3-0.3-12.4-2.3-18.5
			c-1.4-4.4-5.4-11.1-10.2-14.4c-2.9-2-6-2.8-8.4-4.4c-4.4-2.9-8.3-6.5-9.8-10.8c-1-3.1-1.7-7.2-2.6-11
			C215.4,76.5,220.9,58.7,210.2,49.1z"/>
		<path class="st0" d="M234.6,62.6c3.1,4,8.4,11.3,10.5,17.3C245.6,73.3,239.8,67.5,234.6,62.6z"/>
		<path class="st0" d="M187.3,46.9c-4.3,9.5,5,15.1,9.9,21.7c2.9,3.9,7.1,9.6,7.1,15c0,7.9-2.5,15.1-2.7,22.4
			c-0.1,3.5,0,7.1-0.1,10.8c-0.1,3.5-0.6,7.2-0.4,10.7c0.6,9.4,6.1,20.5,11.5,28.5c5.9,8.8,14.3,15.9,19.3,25.2
			c2.7,4.9,3.4,11.1,4.8,16.8c1.4,5.6,2.3,12.7,4.8,16.8c1.9,3,3.9,4.8,5.9,8.3c-0.1,0.7,0.5,0.9,0.3,0.1
			c-4.3-6.1-6.6-14.1-7.9-21.5c-0.9-5.1-2.7-10-4.4-14.8c-3.5-9.5-10-17.3-16.8-26.1c-10.5-13.6-15.9-25.6-15.2-43.6
			c0.2-5.5-0.5-11.2-0.1-16.4c0.4-5.2,2-10.7,2.1-16.4c0.1-5-1.8-10.4-4.1-14.1c-3-4.8-8.2-7.7-10.9-12.5
			C188.7,54.5,188.6,50,187.3,46.9z"/>
		<path class="st0" d="M222.9,61.8c0.9,17.9,7.5,35.3,19.7,49.2c-0.1-1.8-2.7-3.7-3.7-5.2c-2.4-3.8-2.8-8.4-4.9-12.2
			c-1.6-2.9-4.1-5.2-5.3-8.1c-1.5-3.4-2.3-7.6-2.8-11.3C225.3,69.8,224.6,65.1,222.9,61.8z"/>
		<path class="st0" d="M193.4,50.9c-0.1,3.4,5.8,6.2,10.1,8.5C203.6,56,194.7,54.4,193.4,50.9z"/>
		<path class="st0" d="M226.1,64.6c0.9,4.9,1,9.7,2.1,14.5c1.1,4.9,3.8,8.4,6.5,12.9c3.1,5.3,3.5,11.9,8.3,16.7
			c-1.6-3.7-2.3-8.1-3.6-12.3c-1.8-5.4-6.6-9.3-8.7-15C228.5,75.5,229.1,70,226.1,64.6z"/>
		<path class="st0" d="M184.2,49.3c-3.6,5.8-7.1,13.8-7.2,20.5c-0.1,5.9,1.8,11.6,3.1,17.3c2.5,11.1,1.9,23.8,3,35.5
			c0.5,5.8,2.4,11.3,3.2,17.1c0.8,6,0.3,12.2,0.6,18.2c0.3,6,1.5,11.7,2.4,17.4c2.2,12.6,6.2,21.1,13.5,31.2
			c6.7,9.3,14,19.4,23.2,27.1c18.8,15.8,33.3,35.6,41.5,56.3c4.2,10.7,5.5,21.9,4.5,34.9c-0.5,0.5-0.1,1.4,0.2,0.4
			c6.8-29-7.5-51.4-22.2-71.5c-6.2-8.5-14.8-14.4-22.1-22.1c-3.5-3.7-6.9-7.7-10.5-11.4c-10.3-10.8-18.3-21.4-21.8-35.8
			c-2.1-8.8-5.2-17.5-6.4-26.4c-1.3-9.1-2.6-18.5-3.1-27.8c-0.3-4.6-1-9.6-0.9-14.3c0.1-4.9,0.9-9.8,0.5-14.6
			c-0.9-10.9-6.4-18.7-6.5-29.3C178.8,64.4,183.2,57.2,184.2,49.3z"/>
		<path class="st0" d="M230.3,71c0.5,4.6,0.7,9.5,3.6,13.8c2.4,3.6,5.2,6.4,6.8,10.5c1.1,2.9,1.2,6.2,2.5,9c0.2,0.6,0.5,1.9,1.4,1.8
			c-0.4-2.9-0.2-5.8-0.9-8.4c-1.6-5.6-5-9.6-8.4-14.2C232.5,79.7,232.3,75.2,230.3,71z"/>
		<path class="st0" d="M181,51.7c-5.5,1.8-6.6,10.3-8.3,16.4c0.3,11.7,3.7,21.3,4,33.2c0.2,8.2,1.4,15.3,3.8,23.2
			c2.3,7.6,3.6,15.4,3.8,23.2c0.1,7.8-0.5,16,2.3,23.8c0,0.3,0,0.6,0.3,0.7c0-0.2-0.2-0.4,0-0.6c-2-8.9-1.3-17.7-1.7-26.7
			c-0.4-8.3-2.8-16.7-4.7-25.4c-1.8-8.2-0.7-17-2.1-26.5c-1.2-8.6-5.3-17.1-2.8-26.2C176.6,62.3,179,56.5,181,51.7z"/>
		<path class="st0" d="M240.1,110.2c-10.1-11.6-14.2-25.7-18.2-39.9c0-0.1,0.1-0.2,0.1-0.3c-1,1.5-0.5,8.7-0.1,11.4
			C223.6,92.7,231.5,102.9,240.1,110.2z"/>
		<path class="st0" d="M184.8,57.6c-2.2,16.5,3.6,31.4,6,46.3c2.4,15.1,6.7,29.7,10.5,44.5c-0.1,0.7,0.5,0.9,0.3,0.1
			c-2.1-14.4-7.3-29.9-8.8-45.6C191.3,87.1,188.6,71.7,184.8,57.6z"/>
		<path class="st0" d="M235.8,80.7c-0.7,0.6,1,2.1,1.2,3C237.8,83.1,235.9,81.7,235.8,80.7z"/>
		<path class="st0" d="M188.5,63.4c0.6,7.4,2.2,15,3.6,22.8c1.4,7.7,1.8,15.6,3,23.5c1.2,7.5,3.1,15.2,4.9,22.7
			c1.9,7.9,3.1,15.3,6.8,21.9c3.2,5.7,9,9.9,14.1,14.5c-8.8-10-15.5-20.3-19.5-32.4c-1.9-5.7-2.2-12.4-3.7-18.8
			c-1.5-6.3-2.8-12.7-3.4-18.7C193.1,86.9,193.9,74.3,188.5,63.4z"/>
		<path class="st0" d="M182.7,61.9c-5.2,11.8,1,22.2,3.3,31.9c2.2,9.5,0.8,21.8,1.4,32.1c0.2,4.6,0.4,9.1,1.2,13.8
			c0,0.2,0,1,0.6,0.9C194.7,111.1,183.5,88.7,182.7,61.9z"/>
		<path class="st0" d="M261,96.3c-1,0.6-1.3,2.9-2,4.1c0.8,9.2,10.6,14.7,15,22.9c3.1,5.8,2.5,11.3,4.3,18.1
			c-1.2-5.6,0.2-11.5-1.1-16.8C274.4,113.6,259.6,108.6,261,96.3z"/>
		<path class="st0" d="M172.8,61.9c-2.8,6.7-4.9,12.7-4,18.8c0.9,5.9,5.1,9.9,4.9,16.6c-0.2,5.6-1.8,10.5-1.1,15.6
			c0.9,6.7,5.2,13.8,8.1,18.8c-2.5-8.3-4.9-16.8-5.3-26.3c-0.3-9.2-0.3-18.7-3.8-26.9C171.5,73.1,170.5,68.2,172.8,61.9z"/>
		<path class="st0" d="M193.3,70.6c2.4,11.6,1.4,26.6,4.2,38.8c0.1-4.1-1-8.2-0.7-13.3c0.3-5.1,2.2-9.9,1.4-14.6
			C197.3,77.3,195,74.2,193.3,70.6z"/>
		<path class="st0" d="M206.7,87.6c-0.2,3.7-2,7.6-1.7,11.7c0.3,3.6,4.1,10.6,6,13.9c2.9,4.8,6.5,8.4,10.6,11.8
			c11.1,9.3,27.7,18.7,27.6,33c0,5.5-1.7,11.3-2.1,17.1c-0.4,5.5-1.2,11.5-0.8,16.3c0.2,2.1,1.3,4,1.5,6.2
			c0.4,5.1,0.6,10.1-0.3,16.6c4-9.8-0.4-18.2-0.4-27.7c0-13.6,6.1-28.6,0.4-40c-2.7-5.4-8-9.3-13.7-13.3
			C217.1,121,209.1,105.7,206.7,87.6z"/>
		<path class="st0" d="M222.6,99.4c0.2,2.8,3.2,6.3,6.8,8.3C227,105,224.1,102.5,222.6,99.4z"/>
		<path class="st0" d="M168.1,86.9c0.7,9.5-5.8,21.5-3.1,30.9c1.5,5.2,4.1,9,7.2,13.4C162.9,119.7,172.3,100.4,168.1,86.9z"/>
		<path class="st0" d="M225.3,111.6c9.1,9.1,20.9,19.8,24,30.3C245.9,129.9,240.8,118.5,225.3,111.6z"/>
		<path class="st0" d="M170.1,88.9c3,11.8-3.4,25.3,1,36.6c1.6,4.1,4.3,6.8,4.9,11.3c3.5,4,5.3,8.6,6.5,13.5c1-2.3-0.1-5.6,0-8.3
			c-1.5-3.9-2.4-7.2-4-10.6c-1.6-3.4-4.1-6.4-5.5-10c-1.4-3.6-2.1-7.7-2.1-11.4C170.9,103.2,173.5,94.5,170.1,88.9z"/>
		<path class="st0" d="M247.2,158.3c1.1-5.8-2.8-12.3-7.5-17c-10.2-10.1-24.9-16.7-31.5-29.3c-1-2-1.3-4.5-2.5-6.6
			C201.5,126.9,246.9,136.7,247.2,158.3z"/>
		<path class="st0" d="M252.6,125.6c0,1.2,1.5,4.8,2.3,5.6C254.2,129.3,253.6,127.4,252.6,125.6z"/>
		<path class="st0" d="M163.5,90.5c-9,12.5-8.4,26.1-2.7,35.1C157.3,116.7,157.9,104,163.5,90.5z"/>
		<path class="st0" d="M255.5,153.3c1.8-6,1.7-13.4,0.1-19.1c0.1,0.5-0.3-1.9-0.3-0.1C255.6,139.9,256.2,145.4,255.5,153.3z"/>
		<path class="st0" d="M261.6,137c0-0.1,0.1-0.2,0.1-0.3c-0.4,0.8,0.1,6.6-1.6,9.9c-0.3,0.6,0.1,0.6,0.3,0.1
			C262.1,142.9,262.5,139.7,261.6,137z"/>
		<path class="st0" d="M235.7,142.1c-8.8-7.5-20.8-13.6-27-22.2c-0.5,0.2,0.3,1.5,0.7,2.1c1.4,2.3,3.8,5.1,5.3,7.4
			C221.2,133.8,229.2,137.6,235.7,142.1z"/>
		<path class="st0" d="M204.8,120.8c1.2,8.4,4.5,16.1,10.3,22.4c6,6.5,13.5,11.3,16.8,19.3c1.9,4.5,2.6,10.4,4.3,16
			c1.6,5.5,4.3,10.4,5.1,15.4c0.5,3-0.3,6.1,0,9c0.5,5,2.8,9.2,4.1,14.1c-0.6-3.8-0.9-8-1.5-12.1c-0.6-4.2-0.9-8.6-1.7-12.4
			c-0.9-4.1-2.6-7.8-3.6-11.7c-0.9-3.9-0.9-7.9-1.8-12.2c-2.2-10.2-9.1-16.8-16.5-23.8C213.1,138,208.3,130.1,204.8,120.8z"/>
		<path class="st0" d="M208.1,122.7c1.6,8,8.9,16.9,16.1,23.3c6.5,5.8,11.2,11.8,13.7,20.1c1.2,4.1,1,8.2,1.8,12.2
			c0.8,3.9,2.2,7.7,3.3,11.5c2.1,7.6,2.3,15.8,3.2,24.5c1-6.4,1.2-12.8,0-18.8c-0.7-3.6-2.7-6.9-3.2-10.3c-0.7-4.6-0.1-9-0.5-13.2
			c-0.3-4-1-8.1-2.7-12.2C233.8,144.9,216.1,137.9,208.1,122.7z"/>
		<path class="st0" d="M253.6,248.1c-4.1-15.4-13.5-29.2-26-41.3c-4.3-4.2-8.7-7.8-12.2-12.4c-5.8-7.7-8.1-17-10.4-26.5
			c-3.8-15.7-9.4-31.9-12.8-47.9c0.1-0.1,0.1-0.2,0.1-0.3c-0.8,1-0.2,6.4,0,9c0.7,9.4,2.3,19,4.3,27.1c5.9,24.1,19.5,43.1,35,62.9
			C239.4,228.4,248.4,237.1,253.6,248.1z"/>
		<path class="st0" d="M245.2,188c0.2-14.3,5.3-32.6-5.9-42.9c-0.8,0.5,1.6,2.7,2.4,4.1c0.9,1.6,1.3,3.6,2.4,4.7
			C245.8,164.7,242.6,177.6,245.2,188z"/>
		<path class="st0" d="M206.8,133.3c0.1,15.5,23.8,23.1,23.3,39.5c4.9,6.9,7.4,14.9,9.8,22.9c0.2-6.2-3.7-11.8-5.5-17.4
			c-2.8-8.7-3.1-17.3-9.9-24.1C218.2,147.8,209.6,142.8,206.8,133.3z"/>
		<path class="st0" d="M233.3,147c0.5,1.2,1.9,2,2.4,3.2C236.2,149.4,234.3,147.9,233.3,147z"/>
		<path class="st0" d="M212.5,148c3.1,7.7,11,15.3,15.9,22.9C228.8,161.8,217.8,155.5,212.5,148z"/>
		<path class="st0" d="M203.6,150.2c0.7,3.3,1.1,7.2,2.6,10.3c5.2,10.8,22.8,16.1,26.4,27.5C229,173.8,208.6,164.7,203.6,150.2z"/>
		<path class="st0" d="M156.9,131.4c1.1,3.9,2.9,8.1,5.6,11.9c4.7,6.6,13.2,10.3,19.7,16.1C177.1,148.7,160.8,142.6,156.9,131.4z"/>
		<path class="st0" d="M158.5,138.8c2.6,6.4,7.3,15.1,16.1,19.6c4,2,6.5,3.8,9,6.8c0.1-1.1-0.5-2-0.2-3.2
			C174.9,154.3,161.4,148.8,158.5,138.8z"/>
		<path class="st0" d="M208.5,166.2c1.5,7.4,12.7,12.1,18.1,19.8c4.5,6.4,6.4,12.3,9.1,19.2c-1.6-5.5-2.2-11.5-4.7-17.1
			C226.8,178.8,215.2,174.5,208.5,166.2z"/>
		<path class="st0" d="M206.7,166.7c1.7,12.1,6.4,24.2,16.1,33.8c5.6,5.5,11,11.1,16.1,17.1c5.3,6.3,8.9,12.2,12,18.8
			c3.2,6.6,4.5,13.4,6.2,21.1c1.3-13.2-6.1-23.8-12.7-34.6c-4.1-6.8-10.1-11.6-15.7-17.6C218.2,194,210.8,180.7,206.7,166.7z"/>
		<path class="st0" d="M161.5,148.1c1.8,9.1,7.4,18.5,18,24.7C171.6,165.3,165.2,157.3,161.5,148.1z"/>
		<path class="st0" d="M166.9,154.6c2.3,6.6,10.1,12.9,16.1,18.7C178.9,166.5,172.7,160.6,166.9,154.6z"/>
		<path class="st0" d="M211.1,173.4c1.2,5.4,7.5,9.9,12.2,14.6c4.8,4.8,7.2,10.5,9.9,15.8C230,192.8,222.5,181.7,211.1,173.4z"/>
		<path class="st0" d="M198.8,169.3c1.7,15.8,6.8,30.5,18.2,43c5.5,6.1,11.5,12.4,18,17.9c6.6,5.5,12,11.8,16.9,18.4
			c-4.9-8.8-10.7-17-18.5-24.3c-4.2-3.9-9.2-6.5-13-10.6c-5.6-6.1-9.8-12.1-12.2-19.9c-0.9-2.7-0.8-5.8-1.8-8.5
			c-1-2.6-3-5.1-4.2-7.9C201.1,174.8,199.8,172.2,198.8,169.3z"/>
		<path class="st0" d="M214.5,181.6c0.7,3.7,6.2,8,9.1,11.8c2.7,3.5,3.9,7,7.3,10.1C228.5,195.8,221.5,188.1,214.5,181.6z"/>
		<path class="st0" d="M221.2,193c0,0.5,2.6,3.6,3.5,5.1C224.7,196.8,222.7,194.5,221.2,193z"/>
		<path class="st0" d="M209.7,191.1c1.6,10.9,9.6,21.1,20.6,28.9C223,210.5,215.2,201.2,209.7,191.1z"/>
		<path class="st0" d="M229.3,202.8c0.8,1.8,2.4,3.2,3.9,4.7C232.9,206.4,231.2,204,229.3,202.8z"/>
		<path class="st0" d="M190.1,186.7c-0.7,2.6-0.1,4.7-1,7.6c-0.8,2.7-2.9,5.6-3.7,9c-1.9,7.9,2.9,14.5,6.5,20.9
			c5.7,9.9,16.7,20.4,18.6,31.4c1.1,6.2-1.1,11.7-1.1,17.8c0,5.2,1.9,10.8,3.6,15.4c1.8,4.9,3.8,9.5,8.1,13.5c0.6,0.4-1.3-4.2-2-5.8
			c-2.9-6.8-4.8-13-5.4-21.4c-0.7-9.7,1.6-21.8-2.7-30.2c-5.3-10.2-16.6-17-21-27.8c-3.1-7.6-0.5-17.7,1.2-27.6
			C190.4,188.8,190.5,187.7,190.1,186.7z"/>
		<path class="st0" d="M194,196.1c13.6,37,60.2,62.2,73.2,100.2c-6.3-18.2-16.7-36.6-31.8-52c-4-4.1-8.6-7.4-12.7-11.1
			c-4-3.6-7.5-7.7-10.9-11.9C205.1,213,198.9,205,194,196.1z"/>
		<path class="st0" d="M191.5,200c-1.9,5.6-1.8,11.1-0.2,15.7c3.8,10.8,16.1,18.6,21.3,28.5c1.4,2.7,2.1,6.4,2.9,9.5
			c0-0.2-0.2,1.4,0.4,0.5c-0.5-7.2-2.4-14-6.5-19.6c-1.4-1.9-3.1-3.4-4.9-5.4C197.2,220.7,192.1,211.2,191.5,200z"/>
		<path class="st0" d="M255.5,236.8c0.3,3.7,3.5,8.2,3.4,12.8C260,245.2,256.6,240.9,255.5,236.8z"/>
		<path class="st1" d="M267.7,399c3.2-9.9-2.4-18.3-5.8-24.9c-1-5.8-3.5-10.9-1.1-17.7c1.6-4.6,4.2-8.8,6-13
			c1.9-4.6,4.3-8.9,5.8-13.4c3.9-11.7,3.1-23.2,1.4-32.8c-2.3-12.9-9.1-22.9-15.7-34.9c6.9-19-4.8-30.1-11.5-43.4
			c8.2-15.9-1.9-28.8,3.9-46.3c1-3,2.3-5.4,3.3-7.9c0.9-2.4,1.3-5,2.5-7.6c2.9-6.2,7.3-11.6,7-17.8c-0.2-5.9-3.4-11.2-4.5-16.1
			c-1.3-5.4-1.5-11.4-0.7-17.9c0,0,0,0,0,0c-0.1-0.1-0.1-0.2-0.2-0.3c0.1,0.1,0.3,0.2,0.2,0.3c2.8,6,10.3,11.9,14,18.5
			c3,5.3,2.5,11.3,4.4,17.2c1.7,5.5,4,10.9,9.5,14.4c-0.6-2.8-2.9-3.9-4-6c-1.7-3.4-2.4-8.1-2.8-12c-0.5-4.2,0.3-8.6-0.7-12.6
			c-2.6-11.3-19.3-17.5-17-30.8c0.6-3.8,2.9-7,3-11.8c0-2.7-1.5-5-2.2-7.4c-0.7-2.4-1.4-5.1-1.6-7.4c-0.3-5,2.3-9.2,2.7-14.9
			c0.3-3.7-1.3-5.9-1.7-9.4c-0.4-3.3-0.6-6.6-2.1-9.2c-2.4-4.2-6.7-5.7-11-8.5c-2.1-1.4-3.8-3.6-6.2-5.3c-1.9-1.4-4.6-2.1-6.3-3.5
			c-1.9-1.5-4-6-5.9-8.3c-2.2-2.8-3.8-5.9-5.9-8.3c-7.4,13.1-14.4,23.2-23,33.5c-5.9,7-13.7,11.1-20.7,16.5
			c-3.1,2.4-6.7,3.7-8.6,7.3c-2.8,5.4-4.8,11.9-7.9,17.8c-4.8,9.1-9.2,16.5-12.5,26.7c-0.8,2.3-0.6,4.8-1.1,7.3
			c-1.1,5.3-2.7,10.5-2.8,15.2c-0.2,5.8,1.5,11.2,1.8,16.8c0.1,2-0.3,3.8-0.6,5.7c0.2,2.4,0.3,4.7,0.5,6.6c0.4,2.9,1,5.7,1.7,8.4
			c4.3,7.2,7.6,15.1,15.6,19.4c6.1,3.3,14.4,3.9,21.1,3.4c2.6,5.6-1.8,10.4-3.8,17.6c-2.6,8.8,2.4,15.8,6.4,22.7
			c5.5,9.6,16.5,20.8,18.5,31.1c1.6,8.2-1.9,16.4-0.3,24c1.2,5.8,4.4,15.6,8.3,20.4c1.2,1.4,2.8,2.7,4.2,4.2
			c1.2,1.2,2.7,3.1,4.7,2.9c-6.1-10.8-11.3-24-10.4-37.9c0.4-6.7,2.1-13,1.6-18.8c-0.5-5.3-2.4-11.2-5.3-15.8
			c-3.9-6.1-9.6-10.5-13.1-16.2c-3.3-5.2-4.9-12.3-5.4-19.8c3.7,7,6.8,13.8,11.5,20.2c9.3,12.7,21.8,24.5,32.8,36.7
			c5.6,6.1,11.8,11.9,16.2,18.4c2,2.9,3.5,6.8,5.6,10.4c7.8,13.1,14.1,29.7,8.1,48.1c-3.5,10.6-15.2,26.5-14.1,38.1
			c0.4,4.5,4,10.3,6,15.4c1.7,4.4,3.3,10.4,1.9,15.6c-2,7.7-6,15-11.1,18.6c1.3,0.7,3.1-0.6,4.3-1.3
			C259.8,415.8,264.7,408.1,267.7,399z M265.9,398.9c-0.3-4.8-0.5-8.7-1.7-13.1c-2-7.1-8.7-12.1-5.7-20
			C259,377.6,270.6,385.8,265.9,398.9z M198.4,104.9c-0.4-3.9-0.2-7.8,0.3-11.3c1.2-8.5,0.9-14.9-2.6-21.5c-1.2-2.3-2.9-4.3-4.3-6.7
			c0.1-0.4-0.2-0.7,0.5-0.4c3.6,4.6,7.7,8.4,9.6,14.2c2.5,7.4-1.8,17.4-1.8,27.1c0,4.9,1.9,8.8-0.5,13.4
			C199,114.7,199,110.3,198.4,104.9z M197.5,109.4c-2.7-12.2-1.8-27.2-4.2-38.8c1.7,3.6,4,6.6,4.8,10.9c0.8,4.6-1.1,9.5-1.4,14.6
			C196.5,101.3,197.6,105.3,197.5,109.4z M194.4,98.9c0.7,6,2,12.4,3.4,18.7c1.5,6.4,1.8,13.1,3.7,18.8c4,12.1,10.7,22.4,19.5,32.4
			c-5.1-4.6-11-8.8-14.1-14.5c-3.7-6.6-4.8-14.1-6.8-21.9c-1.8-7.5-3.7-15.2-4.9-22.7c-1.2-7.9-1.7-15.8-3-23.5
			c-1.4-7.8-3-15.4-3.6-22.8C193.9,74.3,193.1,86.9,194.4,98.9z M223.6,193.4c-2.9-3.7-8.4-8-9.1-11.8c7,6.5,14,14.1,16.4,21.9
			C227.5,200.4,226.3,196.9,223.6,193.4z M224.7,198.2c-0.9-1.6-3.5-4.6-3.5-5.1C222.7,194.5,224.7,196.8,224.7,198.2z M211.1,173.4
			c11.5,8.3,19,19.4,22.1,30.4c-2.7-5.3-5.1-11-9.9-15.8C218.6,183.3,212.3,178.8,211.1,173.4z M233.2,207.5
			c-1.6-1.5-3.2-2.9-3.9-4.7C231.2,204,232.9,206.4,233.2,207.5z M226.6,186c-5.4-7.7-16.6-12.4-18.1-19.8
			c6.7,8.4,18.4,12.7,22.5,21.9c2.5,5.6,3.1,11.6,4.7,17.1C233,198.2,231.1,192.4,226.6,186z M206.1,160.6
			c-1.5-3.1-1.9-7.1-2.6-10.3c5,14.4,25.4,23.5,29,37.8C229,176.6,211.3,171.4,206.1,160.6z M192.8,102.9
			c1.5,15.7,6.7,31.3,8.8,45.6c0.3,0.8-0.4,0.6-0.3-0.1c-3.8-14.8-8.1-29.4-10.5-44.5c-2.4-15-8.2-29.8-6-46.3
			C188.6,71.7,191.3,87.1,192.8,102.9z M189,140.6c-0.6,0.2-0.5-0.7-0.6-0.9c-0.8-4.6-0.9-9.1-1.2-13.8c-0.5-10.3,0.9-22.5-1.4-32.1
			c-2.3-9.7-8.5-20.1-3.3-31.9C183.5,88.7,194.7,111.1,189,140.6z M192.4,128.6c-0.2-2.6-0.9-7.9,0-9c-0.1,0.1-0.1,0.2-0.1,0.3
			c3.4,16,9,32.2,12.8,47.9c2.3,9.6,4.7,18.9,10.4,26.5c3.5,4.7,7.9,8.2,12.2,12.4c12.5,12.1,21.9,25.9,26,41.3
			c-5.2-11-14.3-19.6-21.9-29.4c-15.6-19.8-29.2-38.8-35-62.9C194.7,147.6,193.1,138.1,192.4,128.6z M220.5,213.7
			c3.8,4.1,8.7,6.6,13,10.6c7.7,7.2,13.5,15.4,18.5,24.3c-4.9-6.6-10.3-12.8-16.9-18.4c-6.5-5.5-12.5-11.8-18-17.9
			c-11.3-12.5-16.5-27.2-18.2-43c1,2.9,2.3,5.5,3.4,8.2c1.2,2.8,3.2,5.2,4.2,7.9c1,2.7,0.9,5.8,1.8,8.5
			C210.7,201.6,214.8,207.7,220.5,213.7z M209.7,191.1c5.5,10.2,13.3,19.4,20.6,28.9C219.3,212.2,211.3,202,209.7,191.1z M197,170.1
			c1.9,11.3,4.5,23,10.6,32.8c12.4,19.8,37.1,33.2,47.1,54.6c-7.4-11.8-19.3-20.1-29.1-29.9c-2.4-2.4-4.4-5.1-6.7-7.7
			c-2.3-2.6-4.9-5-7.1-7.5c-8.2-9.5-12-19.5-15.1-30.9c-1.3-4.7-3.2-9.4-4.4-14.2c-2.5-10.1-3.3-21.8-0.8-31.9
			C192.2,147.1,195.1,158.7,197,170.1z M251,236.5c-3.2-6.6-6.7-12.5-12-18.8c-5.1-6.1-10.6-11.7-16.1-17.1
			c-9.7-9.6-14.4-21.7-16.1-33.8c4.1,14,11.5,27.3,22.1,38.7c5.5,5.9,11.5,10.8,15.7,17.6c6.6,10.8,14,21.4,12.7,34.6
			C255.5,249.9,254.2,243,251,236.5z M258.9,249.6c0.1-4.6-3.1-9.1-3.4-12.8C256.6,240.9,260,245.2,258.9,249.6z M247.1,186.4
			c0,9.4,4.4,17.8,0.4,27.7c0.9-6.5,0.8-11.5,0.3-16.6c-0.2-2.1-1.3-4-1.5-6.2c-0.4-4.9,0.4-10.9,0.8-16.3c0.4-5.8,2-11.5,2.1-17.1
			c0.1-14.3-16.5-23.6-27.6-33c-4.1-3.4-7.8-6.9-10.6-11.8c-1.9-3.3-5.8-10.4-6-13.9c-0.3-4.1,1.5-8,1.7-11.7
			c2.4,18.1,10.4,33.4,27.1,45.4c5.7,4.1,11,8,13.7,13.3C253.3,157.7,247.2,172.7,247.1,186.4z M206.8,133.3
			c2.8,9.4,11.3,14.5,17.7,20.9c6.8,6.8,7.1,15.5,9.9,24.1c1.8,5.6,5.7,11.2,5.5,17.4c-2.4-8-4.9-15.9-9.8-22.9
			C230.6,156.4,206.9,148.8,206.8,133.3z M228.4,171c-5-7.6-12.8-15.2-15.9-22.9C217.8,155.5,228.8,161.8,228.4,171z M236.2,178.5
			c-1.6-5.5-2.4-11.5-4.3-16c-3.3-8-10.8-12.7-16.8-19.3c-5.8-6.4-9-14-10.3-22.4c3.4,9.3,8.3,17.2,15.5,24
			c7.4,7,14.3,13.6,16.5,23.8c0.9,4.3,0.9,8.3,1.8,12.2c0.9,3.8,2.7,7.5,3.6,11.7c0.8,3.9,1.1,8.3,1.7,12.4
			c0.6,4.1,0.9,8.3,1.5,12.1c-1.4-4.8-3.6-9-4.1-14.1c-0.3-2.9,0.5-6,0-9C240.5,188.9,237.8,184,236.2,178.5z M236.5,148.3
			c-4-5.5-11.3-8.2-16.6-13.6c15.6,6.8,25.7,16,23.4,30.3C240.2,160.3,240.4,153.5,236.5,148.3z M235.7,150.2
			c-0.5-1.2-1.9-2-2.4-3.2C234.3,147.9,236.2,149.4,235.7,150.2z M214.6,129.4c-1.4-2.3-3.9-5.1-5.3-7.4c-0.4-0.7-1.2-1.9-0.7-2.1
			c6.2,8.6,18.2,14.7,27,22.2C229.2,137.6,221.2,133.8,214.6,129.4z M239.8,159.9c1.7,4.1,2.4,8.2,2.7,12.2
			c0.3,4.1-0.2,8.5,0.5,13.2c0.5,3.4,2.5,6.7,3.2,10.3c1.2,6.1,1,12.4,0,18.8c-0.9-8.7-1.1-16.9-3.2-24.5c-1.1-3.9-2.5-7.6-3.3-11.5
			c-0.8-3.9-0.6-8.1-1.8-12.2c-2.4-8.3-7.2-14.3-13.7-20.1c-7.2-6.4-14.5-15.3-16.1-23.3C216.1,137.9,233.8,144.9,239.8,159.9z
			 M244.1,153.9c-1.1-1.1-1.5-3.1-2.4-4.7c-0.8-1.3-3.1-3.6-2.4-4.1c11.2,10.3,6,28.6,5.9,42.9C242.6,177.6,245.8,164.7,244.1,153.9
			z M205.6,105.4c1.2,2.1,1.5,4.6,2.5,6.6c6.6,12.6,21.3,19.2,31.5,29.3c4.7,4.7,8.6,11.2,7.5,17
			C246.9,136.7,201.5,126.9,205.6,105.4z M231.1,111.2c2.4,1.6,5.5,2.4,8.4,4.4c4.8,3.2,8.8,9.9,10.2,14.4
			c1.9,6.1,1.5,12.2,2.3,18.5c0.3,0,0.1,0.7-0.2,0.5c-0.1-0.1-0.1-2.1-0.2-2.6c-1.3-10.5-6.8-24.7-17-31.7c-3.4-2.3-7.5-3.5-11.7-7
			c-4.5-3.7-5.5-10.3-6.8-15.8c-3.2-13.9,3.3-31.6-5.9-42.9c10.7,9.5,5.3,27.4,8.5,40.3c1,3.8,1.6,7.9,2.6,11
			C222.7,104.7,226.7,108.3,231.1,111.2z M222.6,99.4c1.5,3.1,4.3,5.6,6.8,8.3C225.8,105.6,222.8,102.1,222.6,99.4z M219.3,106
			c6.1,9.9,17.9,17.5,24.3,27.3c-9.5-8.5-19.6-16.6-24.8-26.9C218.9,106.1,218.6,105.7,219.3,106z M225.3,111.6
			c15.5,7,20.6,18.3,24,30.3C246.2,131.4,234.4,120.7,225.3,111.6z M261.6,137c0.9,2.7,0.5,5.9-1.2,9.6c-0.1,0.5-0.6,0.5-0.3-0.1
			C261.6,143.6,261.3,138.5,261.6,137C261.6,137,261.6,137,261.6,137c0-0.2,0-0.3,0.1-0.3C261.6,136.8,261.6,136.9,261.6,137z
			 M255.5,153.3c0.7-8,0.1-13.4-0.1-19.2c-0.1-1.8,0.4,0.6,0.3,0.1C257.2,139.9,257.2,147.3,255.5,153.3z M261,96.3
			c-1.3,12.4,13.4,17.4,16.2,28.3c1.4,5.3-0.1,11.2,1.1,16.8c-1.8-6.9-1.2-12.4-4.3-18.1c-4.4-8.2-14.2-13.7-15-22.9
			C259.7,99.1,260,96.9,261,96.3z M261.1,87.7c-1-9.2-6-16.8-11-23.7c-2.2-3-4-5.4-6.7-7.7c-4.6-3.9-11.8-6.9-14.3-11.8
			c0.2,0.1,0.4,0.1,0.5,0.2c6.9,3.8,14.4,7.3,19.3,12.5c1.9,2.1,3.9,5.3,5.5,7.8C258.6,71.9,264.9,79,261.1,87.7z M234.1,36.1
			c0.4-3.8-1-6.9-2-10.1C236.8,27.5,234.9,33,234.1,36.1z M236.4,28.1c11.8,4.7,20.8,9.1,21.9,18.2c0.8,6.8-3.4,14.5-0.4,21.2
			c-4.7-6.1-8-13.4-15.7-18.2c-1.5-1-4-1.3-5.4-2.5C231.9,42.7,238.5,33.7,236.4,28.1z M233.8,44.9c-6.4-5.4-2.7-15.1-6.6-21.6
			c0.1-0.2,0.2-0.3,0.4-0.2C234.5,28.5,231.2,38,233.8,44.9z M243.5,22.9c-4.8-2.4-12.1-3.1-13-7.5
			C235.7,17.6,240.6,19.9,243.5,22.9z M224.8,2.3c1.6,4.2,6.2,7.2,7.6,11.5c-3.2-3.5-5.9-7.2-8.1-11.1
			C224.4,2.5,224.5,2.2,224.8,2.3z M223.8,4.7c3.3,3.2,5,7.1,8.1,10.4c-5.6-2.3-4.8-7.2-8.8-10.1C223.2,4.7,223.5,4.7,223.8,4.7z
			 M229,16.7c7.7,9.2,31.9,9.9,30.7,23.1c-3.2-7.3-12.1-11.8-21.4-15.6c-7-2.9-10.3-7.6-13.1-11.9c-1.2-1.8-3.7-3.2-3.2-5.7
			C226.6,8.7,225.9,13,229,16.7z M220.9,9.4c2.8,2.1,4.8,7,7.4,9.8c8.3,8.9,22.8,8.8,29.3,18.2c2.1,3.1,5.1,10.9,4.9,14.4
			c-0.3,5.1-3.5,9.7-3.3,15.6c-2.5-6.4,1.4-14,0.8-20.7c-1-11.5-13.3-15.4-25.8-21.4c-7.1-3.4-11.3-8.2-15.4-12.8
			C219.5,11.5,219.9,9.7,220.9,9.4z M222.7,19.4c0.5,0.6,1.5,1.1,2.1,1.8c3.8,5,2,12.9,3.7,18.2c0.4,1.2,1.8,2.6,1.6,3.7
			c-5.2-4.6-3.8-11.4-4.9-17.5c-0.9-5.1-5.5-7.1-7.5-11.7C220.5,14.7,221.2,17.7,222.7,19.4z M222.7,24.6c-1.3-2.5-4.7-4-6-6.5
			C219.9,19.8,222.2,21.8,222.7,24.6z M216.9,15.4c0.1,0.9,1.7,1.2,1.6,2.2c-1.1-0.7-1.7-0.3-2.8-0.8C216,16,216.3,15.5,216.9,15.4z
			 M218.9,22.7c1.7,1.8,3.6,3.4,4.3,5.5c0.8,2.5-0.1,5,0.3,7.5c1.8,12.6,18,18.3,25.4,28.4c5.1,6.9,11.2,16.1,11.3,25.1
			c0.1,3.6-2,7-2.9,10.9c-2,8.2-1.1,15.5,0.4,23c-7.4-12,3.2-30.9-1.7-44c-2.3-6-6.2-11.3-10.2-15.9c-4.3-5.1-10.6-7.9-16.1-13.4
			c-2.9-2.9-6.4-7.5-7.6-10.8c-1.1-3.2-0.8-6.5-2-9.5c-0.8-2-1.9-4.1-3.1-5.9c-1.2-1.8-3.5-3.2-2.9-4.9
			C216.1,18.8,217.4,21.2,218.9,22.7z M212,21.4c2.4,0.2,3.6,2.8,4.4,4.3c2.3,4.1,2.4,7.9,3.6,12.3c2.8,10.4,13.8,16.1,21.9,23.5
			c3.1,2.9,5.8,6.5,8.5,10.3c2.4,3.3,4.7,7.9,5.4,11.8c2,11.2-6.1,25.7-1,36.4c0,0.3,0.1,0.8-0.1,0.3c-2.6-4.5-4.7-7.8-5-12.6
			c-0.4-6.3,1.4-12.1,1.9-17.4c0.5-5.1,0.1-11.1-1.8-15.9c-2.7-6.9-9.3-12.1-15.1-16.7c-5.8-4.7-11.6-10.5-15.3-16.8
			c-3-5.2-2.2-10.7-5.9-15.7C212.7,24.2,210.4,22.7,212,21.4z M209.5,24.4c3,0.4,3.9,3.6,4.7,5.9c0.9,2.5,1.1,5.6,2,7.9
			c2.2,6.1,8.3,12.9,13.3,17.2c7.5,6.4,16,12.2,18.8,20.4c3.1,8.8-0.4,19.8-0.5,29.8c-0.1,13.3,13.1,22.6,10.5,36.8
			c-0.8,0.2-0.5-1-0.5-1.1c-0.9-8-2.6-14.9-6.3-21.5c-1.3-2.3-3.3-4.5-4.2-7c-1.6-4-0.9-8.6-0.9-13.7c0-4.7-0.7-9.9-0.4-14.1
			c0.2-2.4,1.1-4.6,0.8-7.1c-1-8.4-9.1-14-15.7-19.7c-10.1-8.7-16-20-21.1-30.6C209.3,26.5,208,26.2,209.5,24.4z M255,131.2
			c-0.9-0.8-2.4-4.4-2.3-5.6C253.6,127.4,254.2,129.3,255,131.2z M222.9,61.8c1.7,3.4,2.4,8.1,3,12.3c0.5,3.7,1.2,7.9,2.8,11.3
			c1.3,2.8,3.8,5.2,5.3,8.1c2.1,3.8,2.5,8.4,4.9,12.2c1,1.6,3.6,3.4,3.7,5.2C230.4,97.1,223.8,79.6,222.9,61.8z M240.1,110.2
			c-8.6-7.4-16.5-17.6-18.2-28.8c-0.4-2.7-0.9-9.9,0.1-11.4c-0.1,0.1-0.1,0.2-0.1,0.3C225.8,84.5,230,98.6,240.1,110.2z M235.3,83.5
			c3.3,4.6,6.8,8.7,8.4,14.2c0.7,2.6,0.5,5.5,0.9,8.4c-0.9,0.1-1.2-1.3-1.4-1.8c-1.3-2.9-1.3-6.2-2.5-9c-1.6-4.1-4.4-7-6.8-10.5
			c-2.9-4.3-3.1-9.2-3.6-13.8C232.3,75.2,232.5,79.7,235.3,83.5z M235.8,80.7c0,1,1.9,2.4,1.2,3C236.8,82.8,235.2,81.3,235.8,80.7z
			 M230.6,81.3c2.1,5.7,6.9,9.6,8.7,15c1.3,4.2,2,8.6,3.6,12.3c-4.8-4.7-5.2-11.4-8.3-16.7c-2.6-4.4-5.4-8-6.5-12.9
			c-1.1-4.8-1.1-9.5-2.1-14.5C229.1,70,228.5,75.5,230.6,81.3z M245.1,79.9c-2.2-6-7.4-13.3-10.5-17.3
			C239.8,67.5,245.6,73.3,245.1,79.9z M207.3,27.6c3.4,4.1,5.4,9,7.9,13.8c8.1,15.3,28.6,27.8,29.3,46c-1.3-0.3-1.2-1.9-1.6-2.8
			c-4.2-8.8-8.8-16.8-14.5-24.8c-3.2-4.4-7.3-8.6-10.6-13.3c-4.2-6-7.3-12.3-11.8-17.2C206.5,28.8,206.9,28.1,207.3,27.6z
			 M210.1,37.3c1.5,2.4,2.8,5,4.4,7.4c3.3,5,7.9,9,11.3,13.9c3.3,4.7,6.4,9.3,9.2,14.6c3.9,7.4,9.6,14.2,9.2,22
			c-2.3-9.8-8.3-16.5-12.9-25.7c-2.9-5.7-5.8-11.7-10.2-15.9c-2.2-2.1-4.7-3.9-6.4-6.3c-1.7-2.5-2.6-5.6-4.3-8.3
			c-1.8-2.9-3.9-4.9-6.2-7.5C207.1,32.1,208.7,35.1,210.1,37.3z M210,43.5c-3-2-7.1-5.8-7.8-7.2C204.9,38.6,208.4,40.7,210,43.5z
			 M209,40c-2.1-2.2-5.6-3.8-6.3-6.6C205.9,35.2,207.7,37.4,209,40z M215.7,50.8c3.1,4.8,4.3,12.2,4.4,17.9c0.1,6.9-0.7,13,1.4,19.1
			c2.1,6.1,5.6,12.2,10.1,16.8c4.6,4.7,10.5,9,15.2,14.9c8.6,10.8,8.2,25.5,6.6,39.5c-0.8-0.1-0.3-1.1-0.4-1.4c0-0.7,0-1.7,0.1-2.4
			c0.3-6.2,0.4-9.6-0.5-15.3c-0.5-3.5-0.5-7.3-1.4-10.2c-1.9-6.5-7.2-12.6-13.5-17.6c-6.4-5-12.9-10.2-15.7-16.7
			c-5.2-11.9-0.3-29.2-4.9-40.7c-1.9-4.7-6.8-7.8-11.1-11.4c-2.4-2-6.1-4-5.6-7.5C203.1,42.1,211.9,44.9,215.7,50.8z M198.1,39.5
			c1.6,6.5,10.5,8.5,13.2,14.4c2.9,6.3,2.6,12.7,1.4,20.7c-0.4-3.6,0.2-7.2,0.1-10.8c-0.2-6.7-2.9-11.4-9.1-15.5
			c-3.5-2.2-7.6-4.5-6.6-8.9C197.5,39.6,197.7,39.3,198.1,39.5z M196.7,45.1c2.6,3.8,9.6,5.9,12.1,9.6c3.3,4.9,1.7,17.3,2.4,22
			c-2.1-6.8,0-13.8-3.2-20.1c-1.4-2.7-5-5.2-7.8-7.2c-2.8-2-6.2-4.2-5.8-7.6C196,42.2,195.9,44.1,196.7,45.1z M192.4,43.4
			c1.8,6.5,10.4,8.1,13.7,13.3c1.5,2.4,1.6,6,1.9,8.8c0.3,3.1,0.9,6.2,0.9,9c-2.7-3.4-1.4-7.4-2.1-11.4c-0.4-2-1.1-4.6-2.6-6.3
			c-3.9-4.4-12.3-5.4-12.2-13.1C192.1,43.6,192.2,43.3,192.4,43.4z M205.4,65.4c-0.6-2.5-3.9-3.9-5.6-6
			C203.3,60.5,206.5,63,205.4,65.4z M193.4,50.9c1.4,3.5,10.2,5.1,10.1,8.5C199.2,57.1,193.3,54.3,193.4,50.9z M205.5,68.8
			c-1.2-2-3-3.9-4-6C203.6,64.6,206,67.2,205.5,68.8z M189.7,45.7c-0.2,7.3,4.4,10.6,8.5,15.5c2.3,2.8,4.4,6.6,6.5,9.8
			c4.9,7.3,6.7,15.3,8.9,23.4c1.2,4.4,1.9,9.3,3.8,13.3c1.1,2.4,3.3,4.9,5,7.3c6.4,8.9,18.1,15.4,23.6,24.5c0.9,1.5,2.1,3.1,2,4.8
			c-8.4-11.6-21.9-17.8-29-28c-3.7-5.3-6-11.1-7.9-16.8c-2-6.1-2-12.3-3.8-18.6c-1.9-6.5-4.8-11.7-9.2-16.8c-5-5.8-9-10.8-9.1-18.6
			C189.2,45.5,189.4,45.5,189.7,45.7z M190.6,57.8c2.7,4.8,7.9,7.7,10.9,12.5c2.3,3.7,4.2,9.1,4.1,14.1c-0.1,5.8-1.7,11.2-2.1,16.4
			c-0.4,5.2,0.3,10.9,0.1,16.4c-0.7,18,4.6,30,15.2,43.6c6.8,8.7,13.3,16.5,16.8,26.1c1.8,4.8,3.5,9.7,4.4,14.8
			c1.3,7.4,3.6,15.4,7.9,21.5c0.3,0.8-0.4,0.6-0.3-0.1c-2-3.5-4-5.3-5.9-8.3c-2.5-4.1-3.4-11.3-4.8-16.8c-1.4-5.7-2.2-11.9-4.8-16.8
			c-5-9.3-13.4-16.5-19.3-25.2c-5.4-8-10.8-19.1-11.5-28.5c-0.2-3.5,0.3-7.2,0.4-10.7c0.1-3.6,0-7.2,0.1-10.8
			c0.2-7.3,2.7-14.5,2.7-22.4c0-5.4-4.2-11.1-7.1-15c-5-6.6-14.3-12.2-9.9-21.7C188.6,50,188.7,54.5,190.6,57.8z M181,51.7
			c-2,4.8-4.4,10.6-5.6,15c-2.4,9.1,1.6,17.6,2.8,26.2c1.4,9.5,0.3,18.3,2.1,26.5c1.9,8.7,4.3,17.1,4.7,25.4
			c0.5,9-0.3,17.8,1.7,26.7c-0.1,0.3,0.1,0.4,0,0.6c-0.3-0.2-0.3-0.5-0.3-0.7c-2.8-7.8-2.1-16-2.3-23.8c-0.1-7.8-1.5-15.6-3.8-23.2
			c-2.4-7.8-3.6-14.9-3.8-23.2c-0.3-11.9-3.7-21.5-4-33.2C174.4,62,175.5,53.5,181,51.7z M176.5,77c4.3,12.9,5.4,28.4,5.1,42.6
			c-1.4-7.2-0.4-14.7-1.1-22.1C179.7,90.2,176.6,83.7,176.5,77z M170.6,128.8c0.5,0.8,1.1,1.6,1.6,2.4
			C171.5,130.4,171,129.6,170.6,128.8c-2.3-3.5-4.3-6.8-5.5-11c-2.7-9.3,3.8-21.4,3.1-30.9C172,99.5,164.1,117.1,170.6,128.8z
			 M170.1,88.9c3.5,5.6,0.8,14.3,0.9,21.1c0.1,3.7,0.7,7.8,2.1,11.4c1.4,3.6,3.9,6.5,5.5,10c1.6,3.4,2.5,6.7,4,10.6
			c-0.2,2.7,0.9,6,0,8.3c-1.2-4.9-3-9.5-6.5-13.5c-0.7-4.5-3.3-7.2-4.9-11.3C166.7,114.2,173.1,100.7,170.1,88.9z M162.3,110.1
			c-0.7,17.4,17.7,27.3,19.2,42.8c-4-9-13.1-14.1-17.2-22.8c-5.7-12.2-4.6-26.5,2.3-43.2C167.2,94.8,162.5,103.3,162.3,110.1z
			 M165.8,135.4c4.1,6.1,10.6,10.5,14.1,16.9c-13.9-10.5-28.4-21.9-24.8-38.9c1,3.4,1.1,6.7,2.5,9.7c1.2,2.4,3.2,4.1,4.8,6.3
			C163.8,131.3,164.5,133.4,165.8,135.4z M182.2,159.4c-6.5-5.8-15-9.5-19.7-16.1c-2.7-3.8-4.5-8-5.6-11.9
			C160.8,142.6,177.1,148.7,182.2,159.4z M160.1,142.4c4.7,7.8,15.9,12.9,23.2,19.6c-0.3,1.2,0.4,2,0.2,3.2c-2.4-3-5-4.7-9-6.8
			C167.4,154.7,162.9,148.2,160.1,142.4c-0.7-1.1-1.2-2.3-1.6-3.6C159,140,159.5,141.2,160.1,142.4z M166.9,154.6
			c5.9,6,12.1,11.9,16.1,18.7C177,167.5,169.2,161.3,166.9,154.6z M179.5,172.8c-10.5-6.2-16.2-15.6-18-24.7
			C165.2,157.3,171.6,165.3,179.5,172.8z M174.8,160.1c6.7,3.5,10.8,9.4,10.9,15C182.8,169.7,178.5,165,174.8,160.1z M171.6,78.4
			c3.5,8.2,3.4,17.7,3.8,26.9c0.4,9.4,2.8,17.9,5.3,26.3c-2.9-4.9-7.2-12.1-8.1-18.8c-0.7-5.1,1-10,1.1-15.6
			c0.2-6.7-4.1-10.6-4.9-16.6c-0.9-6,1.2-12,4-18.8C170.5,68.2,171.5,73.1,171.6,78.4z M150.8,113.1c0.9-3.1,0.8-6.9,2.7-9.7
			C152.4,106.6,152.5,110.5,150.8,113.1z M155.4,102c2.4-9.6,7.7-21.8,12.6-30C166.5,81.5,160.5,91.8,155.4,102z M163.5,90.5
			c-5.6,13.5-6.2,26.1-2.7,35.1C155.1,116.7,154.5,103,163.5,90.5z M154.1,163.9c-1.7-3.3-2.7-7.1-3.4-10.6c-0.7-3.9,0-7.6,0-12
			c-0.1-8.2-2.8-16.8-0.1-23.8c-1.5,6.5,1.7,12.9,2.5,20.2c1,8-1.4,16.4,0.5,22.8c2.9,9.6,9.7,16.4,21.4,22.4
			C163.1,179.9,157.9,171.4,154.1,163.9z M155,159.4c-2-7,0.7-15.2-0.4-23c-1.2-8.3-4.5-14.2-1.7-22.3c-0.3,4.6-0.1,8.8,0.5,13.2
			c0.6,4.3,2.3,8.2,3,12.3c0.7,4.2-0.5,8-0.3,11.9c0.4,8.5,5.6,18.4,11.8,24c4.3,3.9,10.8,6.4,16.7,7.5
			C169.7,182,158.1,170.3,155,159.4z M178.6,180.2c-15.5-4.3-22.2-24.4-20.4-35.3c3.4,10,6.7,19.8,16.3,26.5
			c4.1,2.9,10.5,5.6,12,9.9C183.9,180.2,181.4,181,178.6,180.2z M213.7,275.2c0.6,8.4,2.6,14.6,5.4,21.4c0.6,1.5,2.6,6.2,2,5.8
			c-4.3-4-6.2-8.6-8.1-13.5c-1.7-4.6-3.6-10.2-3.6-15.4c0.1-6,2.2-11.6,1.1-17.8c-1.9-11.1-12.9-21.5-18.6-31.4
			c-3.7-6.4-8.5-13.1-6.5-20.9c0.8-3.4,2.9-6.3,3.7-9c0.8-2.9,0.2-5,1-7.6c0.3,1,0.3,2.1,1,2.9c-1.6,9.9-4.2,20.1-1.2,27.6
			c4.4,10.8,15.7,17.6,21,27.8C215.4,253.5,213,265.5,213.7,275.2z M204.6,229.1c1.8,2.1,3.5,3.5,4.9,5.4c4,5.7,5.9,12.4,6.5,19.6
			c-0.6,0.9-0.5-0.7-0.4-0.5c-0.8-3.1-1.5-6.9-2.9-9.5c-5.3-10-17.6-17.7-21.3-28.5c-1.6-4.6-1.7-10.1,0.2-15.7
			C192.1,211.2,197.2,220.7,204.6,229.1z M194,196.1c4.9,9,11.1,16.9,17.8,25.2c3.3,4.2,6.8,8.3,10.9,11.9c4.2,3.7,8.7,7,12.7,11.1
			c15.1,15.4,25.5,33.8,31.8,52C254.3,258.2,207.7,233.1,194,196.1z M271.9,324.8c1-13-0.3-24.2-4.5-34.9
			c-8.1-20.7-22.6-40.5-41.5-56.3c-9.2-7.7-16.4-17.8-23.2-27.1c-7.3-10.1-11.3-18.6-13.5-31.2c-1-5.6-2.1-11.4-2.4-17.4
			c-0.3-6,0.3-12.1-0.6-18.2c-0.8-5.8-2.7-11.3-3.2-17.1c-1.1-11.8-0.5-24.5-3-35.5c-1.3-5.8-3.2-11.5-3.1-17.3
			c0.1-6.7,3.6-14.7,7.2-20.5c-1,8-5.3,15.1-5.3,22.6c0.1,10.6,5.6,18.4,6.5,29.3c0.4,4.8-0.4,9.7-0.5,14.6
			c-0.1,4.7,0.7,9.6,0.9,14.3c0.5,9.3,1.8,18.7,3.1,27.8c1.3,9,4.3,17.6,6.4,26.4c3.5,14.4,11.5,25,21.8,35.8
			c3.5,3.7,6.9,7.7,10.5,11.4c7.4,7.7,15.9,13.6,22.1,22.1c14.7,20.2,29,42.5,22.2,71.5C271.8,326.1,271.4,325.3,271.9,324.8z
			 M256.9,415.3c7.8-12.7,7.1-22.4,3.3-31.4c-2-4.7-5.7-10.1-5.8-14.4c-0.2-7.4,6-18,9.9-25c-5,11.1-9.4,19.1-8.1,27.9
			c0.7,4.6,4.9,9,6.2,13.4C265.3,394.9,266,405.9,256.9,415.3z"/>
	</g>
</g>
</svg>
