<!-- Generator: Adobe Illustrator 21.1.0, SVG Export Plug-In  -->
<svg version="1.1"
	 xmlns="http://www.w3.org/2000/svg" xmlns:xlink="http://www.w3.org/1999/xlink" xmlns:a="http://ns.adobe.com/AdobeSVGViewerExtensions/3.0/"
	 x="0px" y="0px" width="67.8px" height="28.4px" viewBox="0 0 67.8 28.4" style="enable-background:new 0 0 67.8 28.4;"
	 xml:space="preserve">
<style type="text/css">
	.st0{fill:#F94C82;}
</style>
<defs>
</defs>
<path class="st0" d="M67.6,23c-2.5-8.2-7.5-16.5-17.4-20.6c-6.3,4.1-0.5-4.3-6.8-1.9c-3.3,1.3-7.5,3.8-9.3,3.8c-0.1,0-0.2,0-0.3,0
	v0.1c-0.1,0-0.2,0-0.3,0c-1.8,0-5.9-2.5-9.3-3.8c-6.3-2.5-0.5,6-6.8,1.9C7.6,6.6,2.7,14.8,0.1,23c-1,3.3,3.8,5.4,4.3,5.4
	c5.1-0.6,9.8-5.7,14-7.9c0.5-0.2,0.9-0.5,1.4-0.7c3.3-0.9,5.8-0.2,8-0.1c2,0.5,3.3,1.3,5.3,1.7c0.2,0,0.5,0,0.7,0v-0.1
	c0.2,0,0.5,0,0.7,0c2-0.4,3.3-1.2,5.3-1.7c2.2-0.1,4.7-0.8,8,0.1c0.5,0.2,0.9,0.4,1.4,0.7c4.2,2.2,8.9,7.3,14,7.9
	C63.8,28.4,68.6,26.3,67.6,23z"/>
</svg>
