<!-- Generator: Adobe Illustrator 21.1.0, SVG Export Plug-In  -->
<svg version="1.1"
	 xmlns="http://www.w3.org/2000/svg" xmlns:xlink="http://www.w3.org/1999/xlink" xmlns:a="http://ns.adobe.com/AdobeSVGViewerExtensions/3.0/"
	 x="0px" y="0px" width="370px" height="200.2px" viewBox="0 0 370 200.2" style="enable-background:new 0 0 370 200.2;"
	 xml:space="preserve">
<style type="text/css">
	.st0{fill:#F94C82;}
</style>
<defs>
</defs>
<path class="st0" d="M324.2,4.1c-46.6,16.7-106.7,49.6-106.4,99c0.2,9.6,2.5,15.7,2.2,14.9c0.2,0.3,6.7,30,45.3,39.2
	c37.6,6.7,71.9-12.7,104.6-32.4c-14.1,32.8-46.3,64.5-84.5,73c-57.4,13.7-119.6-29.8-116.8-95.8c0-0.1-1.3-63.9,72.9-92.1
	C271.6-1.6,302.9-2,324.2,4.1z"/>
<path class="st0" d="M45.8,4.1c34.4,12.3,78.8,34.8,97.3,66.3c14.8,24.5,7.2,46.2,7.2,46.6c0,0.1-1,3.2-0.9,3c-1.5,3.9-3,6.9-3,6.8
	c-1.5,3-4.3,6.9-6.7,9.9c-10.1,12-22.5,17.5-35.1,20.5C67.1,163.9,32.8,144.5,0,124.7c6.7,15.5,18.1,31.8,32.2,44.8
	c49.3,45.3,115.1,37.8,149.7-6.3c0.6-1.4,31.2-35.6,14.8-86.6l-0.7-2C175,14.8,97.4-10.6,45.8,4.1z"/>
</svg>
