<!-- Generator: Adobe Illustrator 21.1.0, SVG Export Plug-In  -->
<svg version="1.1"
	 xmlns="http://www.w3.org/2000/svg" xmlns:xlink="http://www.w3.org/1999/xlink" xmlns:a="http://ns.adobe.com/AdobeSVGViewerExtensions/3.0/"
	 x="0px" y="0px" width="135.7px" height="99.4px" viewBox="0 0 135.7 99.4" style="enable-background:new 0 0 135.7 99.4;"
	 xml:space="preserve">
<style type="text/css">
	.st0{fill:#F94C82;}
</style>
<defs>
</defs>
<path class="st0" d="M66.9,17.9c-6.7,4.1-13.1,8.7-19.8,12.9c-2.9,1.8-5.7,2.9-8,5.5c-4.9,5.5-8.1,12.2-11.9,18.3
	C23.6,60,18.7,64,16.6,70.3c-2,6.1-7.8,8.3-11.7,13.4c-1.3,1.6-5.1,4.7-4.9,6.7c0.7,7.5,4.4,11.8,12.3,6.7
	c23.8-15.1,45.8-15.3,67.6-24.3C108.5,61.1,134,42.7,134.7,40c2.8-9.9,2.2-40-32-40c-5.8,0-10.9,4.7-15.9,7
	C79.8,10.2,73.4,13.8,66.9,17.9z"/>
</svg>
