<!-- Generator: Adobe Illustrator 21.1.0, SVG Export Plug-In  -->
<svg version="1.1"
	 xmlns="http://www.w3.org/2000/svg" xmlns:xlink="http://www.w3.org/1999/xlink" xmlns:a="http://ns.adobe.com/AdobeSVGViewerExtensions/3.0/"
	 x="0px" y="0px" width="83.5px" height="196.9px" viewBox="0 0 83.5 196.9" style="enable-background:new 0 0 83.5 196.9;"
	 xml:space="preserve">
<style type="text/css">
	.st0{fill:#FEBBA6;}
</style>
<defs>
</defs>
<path class="st0" d="M40.3,128.1c0,0,2.5-76.5,0-101.7C38.5,8,32.7,0,28.5,0s-3.5,20.3-3.5,26.3v101.7H40.3z"/>
<path class="st0" d="M36.1,148.1c0,0-36.1-23.3-36.1-45.2s6.5-42,6.5-42S7.8,36.1,18,56.8c3.9,8-7.6,29.7-0.9,35.5
	c4.3,3.8,21.9-6.9,21.9-6.9L36.1,148.1z"/>
<path class="st0" d="M17.3,124.3c0,0,23,24.5,16.7,55.9c-3,15.3,35.6,16.6,35.6,16.6c-4.7-5.2-0.1-47.1,8.8-69.2
	C81.9,119.1,30.8,96.4,17.3,124.3z"/>
<path class="st0" d="M41.9,76c0,0,1.2-21.8,8.8-16.8s13,17.2,13,29.3s-5.4,31.9-5.4,31.9S34,143.6,41.9,76z"/>
<path class="st0" d="M57.4,81.3c0,0,0.9-19.5,7-15c6,4.5,10.3,15.3,10.3,26.1s-4.3,28.5-4.3,28.5S51.1,141.5,57.4,81.3z"/>
<path class="st0" d="M68.5,91.6c0,0,1.7-17.4,6.9-13.1s8.5,14.2,8,23.9c-0.5,9.7-5.1,25.3-5.1,25.3S60.2,145.3,68.5,91.6z"/>
</svg>
