<!-- Generator: Adobe Illustrator 21.1.0, SVG Export Plug-In  -->
<svg version="1.1"
	 xmlns="http://www.w3.org/2000/svg" xmlns:xlink="http://www.w3.org/1999/xlink" xmlns:a="http://ns.adobe.com/AdobeSVGViewerExtensions/3.0/"
	 x="0px" y="0px" width="320.9px" height="286.4px" viewBox="0 0 320.9 286.4" style="enable-background:new 0 0 320.9 286.4;"
	 xml:space="preserve">
<style type="text/css">
	.st0{fill:#FFFFFF;}
	.st1{fill:#BCBEC0;}
</style>
<defs>
</defs>
<g>
	<g>
		<path class="st0" d="M192.6,268.5c0,0-23.1-17.8-62.5-1.5c-27.6,11.4,24.1-38.5,16.2-33.2c-1.2,0.8,18.8-0.4,26.2-0.8
			c7.4-0.4,20.5,33.8,20.5,33.8L192.6,268.5z"/>
		<path class="st1" d="M124,269.7c-1.7,0-2.5-0.8-2.8-1.5c-1.6-3.6,5.5-12.6,19.1-28c2.2-2.5,4.1-4.6,5.1-5.9c0-0.1-0.1-0.1-0.1-0.2
			c-0.1-0.4,0.1-0.9,0.5-1.2c0.6-0.4,1-0.6,1.3-0.6c0.4,0,0.8,0.2,1,0.6c0,0,0,0.1,0,0.1c0.2,0,0.3,0,0.5,0c4.5,0,14.3-0.6,20.8-0.9
			l3-0.2c0.1,0,0.1,0,0.2,0c7.9,0,20,31,21.3,34.5c0.1,0.2,0.1,0.4,0,0.6l-0.4,1.6c-0.1,0.3-0.3,0.6-0.6,0.7
			c-0.3,0.1-0.7,0.1-0.9-0.2c-0.1-0.1-10.9-8.2-29.8-8.2c-10.1,0-20.8,2.3-31.7,6.8C127.6,269.1,125.5,269.7,124,269.7
			C124,269.7,124,269.7,124,269.7z M147.3,235.1c-1,1.3-3.1,3.6-5.6,6.5c-6,6.8-20.1,22.7-18.7,25.8c0.1,0.3,0.6,0.3,0.9,0.3h0
			c1.2,0,3.2-0.5,5.8-1.6c11.1-4.6,22.1-7,32.4-7c16.1,0,26.3,5.5,29.7,7.7c-5-12.9-14.5-32.8-19.3-32.8l-3.1,0.2
			c-6.5,0.4-16.4,0.9-20.9,0.9C148.1,235.1,147.7,235.1,147.3,235.1z"/>
	</g>
	<g>
		<path class="st0" d="M319.1,189.5c-0.9-7.4-2.5-12.7-3.2-14.8c-4.6-13.7-5.8-12-10-30.6c-4.9-21.8-9.3-50.1-9.9-72.4
			c-0.5-15.7,1.3-35.3,1.1-51c-0.1-6.5,0.8-9.1,0.6-15.6c-5.7-2.2-9.7-4.2-9.8-4c-2.3,7.8,10.7,81-7.1,144
			c-13.1,46.4-61.1,84.8-112.9,88.2c6.7,41.8,74.8,67.3,112.3,42.1C314,252.5,322.9,219.1,319.1,189.5z"/>
		<path class="st1" d="M244.3,286.4C244.3,286.4,244.3,286.4,244.3,286.4c-17.2,0-35.3-5.4-49.9-14.8
			c-15.5-10.1-25.3-23.6-27.6-38.1c0-0.3,0-0.6,0.2-0.8c0.2-0.2,0.4-0.4,0.7-0.4c50.7-3.4,98.8-41,112-87.5
			c13.1-46.3,9.5-97.7,7.6-125.3c-0.7-10.3-1.1-16.5-0.5-18.7c0.1-0.4,0.6-0.7,1-0.7c0.4,0,0.8,0.2,3.2,1.2c1.7,0.8,4.1,1.8,6.9,2.9
			c0.4,0.1,0.6,0.5,0.6,0.9c0.1,3.5-0.1,5.9-0.3,8.3c-0.2,2.1-0.4,4.3-0.3,7.4c0.1,7.3-0.2,15.5-0.6,23.5c-0.4,9.4-0.8,19-0.5,27.5
			c0.7,23.9,5.6,53,9.9,72.3c2.7,12,4.1,15.5,6.1,20.3c1.1,2.6,2.3,5.5,3.9,10.2c0.7,2,2.3,7.4,3.3,15c2.7,20.7,1.2,59.5-39.4,86.8
			C270.8,282.9,258.2,286.4,244.3,286.4z M169,234.2c5.6,30.1,43.2,50.2,75.3,50.2c0,0,0,0,0,0c13.5,0,25.7-3.4,35.3-9.9
			c39.6-26.7,41.1-64.7,38.5-84.9c-0.9-7.4-2.6-12.7-3.2-14.6c-1.6-4.7-2.8-7.6-3.8-10.1c-2-4.9-3.5-8.4-6.2-20.6
			c-4.3-19.4-9.2-48.6-10-72.6c-0.3-8.5,0.1-18.2,0.5-27.6c0.3-7.9,0.6-16.2,0.6-23.4c0-3.2,0.1-5.4,0.3-7.6
			c0.2-2.2,0.4-4.4,0.3-7.4c-2.5-1-4.7-1.9-6.3-2.6c-0.6-0.3-1.2-0.5-1.7-0.7c-0.3,2.7,0.2,8.9,0.7,17c1.9,27.7,5.5,79.4-7.7,126
			C268.4,192.3,220.1,230.3,169,234.2z"/>
	</g>
	<g>
		<path class="st0" d="M1.8,189.5c0.9-7.4,2.5-12.7,3.2-14.8c4.6-13.7,5.8-12,10-30.6c4.9-21.8,9.3-50.1,9.9-72.4
			c0.5-15.7-1.3-35.3-1.1-51c0.1-6.5-0.8-9.1-0.6-15.6C29,2.8,33,0.8,33.1,1c2.3,7.8-10.7,81,7.1,144
			c13.1,46.4,61.1,84.8,112.9,88.2c-6.7,41.8-74.8,67.3-112.3,42.1C6.9,252.5-2,219.1,1.8,189.5z"/>
		<path class="st1" d="M76.6,286.4c-13.9,0-26.5-3.5-36.4-10.2c-40.5-27.3-42.1-66.1-39.4-86.8c1-7.6,2.6-13,3.3-15
			c1.6-4.8,2.8-7.7,3.9-10.2c2-4.8,3.4-8.2,6.1-20.3c4.3-19.3,9.2-48.4,9.9-72.3c0.3-8.4-0.1-18.1-0.5-27.5
			c-0.3-8-0.6-16.2-0.6-23.5c0-3.1-0.1-5.3-0.3-7.4c-0.2-2.3-0.4-4.8-0.3-8.3c0-0.4,0.3-0.8,0.6-0.9C25.7,3,28.1,2,29.8,1.2
			c2.4-1,2.8-1.2,3.2-1.2c0.4,0,0.9,0.3,1,0.7c0.6,2.2,0.2,8.4-0.5,18.7c-1.9,27.6-5.5,79,7.6,125.3c13.1,46.5,61.3,84.1,112,87.5
			c0.3,0,0.5,0.2,0.7,0.4c0.2,0.2,0.2,0.5,0.2,0.8C149,265.1,109.9,286.4,76.6,286.4z M24.3,5.7c-0.1,3,0.1,5.1,0.3,7.4
			c0.2,2.2,0.4,4.4,0.3,7.6c-0.1,7.2,0.2,15.4,0.6,23.4c0.4,9.4,0.8,19.1,0.5,27.6c-0.7,24-5.6,53.3-10,72.6
			c-2.7,12.2-4.2,15.7-6.2,20.6c-1,2.5-2.2,5.4-3.8,10.1c-0.7,1.9-2.3,7.2-3.2,14.6c-2.6,20.3-1.1,58.2,38.5,84.9
			c9.6,6.5,21.8,9.9,35.3,9.9c32.1,0,69.7-20.1,75.3-50.2c-51.1-3.9-99.4-42-112.6-88.9c-13.2-46.6-9.6-98.3-7.7-126
			c0.6-8.1,1-14.2,0.7-17c-0.5,0.2-1.1,0.5-1.7,0.7C29,3.8,26.8,4.7,24.3,5.7z"/>
	</g>
</g>
</svg>
