<!-- Generator: Adobe Illustrator 21.1.0, SVG Export Plug-In  -->
<svg version="1.1"
	 xmlns="http://www.w3.org/2000/svg" xmlns:xlink="http://www.w3.org/1999/xlink" xmlns:a="http://ns.adobe.com/AdobeSVGViewerExtensions/3.0/"
	 x="0px" y="0px" width="327.4px" height="694px" viewBox="0 0 327.4 694" style="enable-background:new 0 0 327.4 694;"
	 xml:space="preserve">
<style type="text/css">
	.st0{fill:#F94C82;}
</style>
<defs>
</defs>
<path class="st0" d="M163.7,0C74.1,0-2.9,138.1,0.1,187.4c4.4,71.7,70.5,185.1,47.6,283.4c-7.8,33.5-59.1,154.6-23.3,174.7
	c21.3-6.1,52.7-5.7,82.7,5.7c28.6,10.9,46,27.1,56.6,42.8v0c0,0,0,0,0,0c0,0,0,0,0,0v0c10.6-15.8,27.9-32,56.6-42.8
	c30-11.4,61.4-11.8,82.7-5.7c35.8-20.1-15.5-141.2-23.3-174.7c-22.8-98.3,43.3-211.7,47.6-283.4C330.3,138.1,245.1,0,163.7,0z"/>
</svg>
