<!-- Generator: Adobe Illustrator 21.1.0, SVG Export Plug-In  -->
<svg version="1.1"
	 xmlns="http://www.w3.org/2000/svg" xmlns:xlink="http://www.w3.org/1999/xlink" xmlns:a="http://ns.adobe.com/AdobeSVGViewerExtensions/3.0/"
	 x="0px" y="0px" width="370.2px" height="199.2px" viewBox="0 0 370.2 199.2" style="enable-background:new 0 0 370.2 199.2;"
	 xml:space="preserve">
<style type="text/css">
	.st0{fill:url(#SVGID_1_);}
	.st1{fill:#BCBEC0;}
	.st2{fill:url(#SVGID_2_);}
	.st3{fill:url(#SVGID_3_);}
	.st4{fill:url(#SVGID_4_);}
</style>
<defs>
</defs>
<g>
	<linearGradient id="SVGID_1_" gradientUnits="userSpaceOnUse" x1="185.0802" y1="198.2271" x2="185.0802" y2="1">
		<stop  offset="0" style="stop-color:#E8E9EA"/>
		<stop  offset="0.2545" style="stop-color:#FFFFFF"/>
	</linearGradient>
	<path class="st0" d="M191.7,198.2c-1.9,0-3.9-1.4-6.2-3.1c-2.3,1.7-4.3,3.1-6.2,3.1c-0.3,0-0.6,0-0.9-0.1c-0.5-0.1-0.8-0.5-0.8-1
		c0.1-2.3,0.2-4.6,0.3-7c0-0.1,0-0.2,0-0.3v-16.6C174,69.9,98.5,54.5,53.8,54.5c-26,0-47.5,5.5-51.2,8.3c-0.2,0.1-0.4,0.2-0.6,0.2
		c-0.2,0-0.4-0.1-0.6-0.2c-0.4-0.2-0.5-0.7-0.4-1.1c1-4,1.9-7.4,2.6-10.2c4.4-17.3,4.4-17.3,9.6-32.9l1.1-3.2
		c0.1-0.4,0.5-0.7,0.9-0.7c0.1,0,0.2,0,0.2,0c0.1,0,0.3,0.1,0.4,0.2C36.7,9.2,97.6,1,184,1h2.7c88.5,0,149,7.1,168.7,13.8
		c0.1-0.1,0.2-0.1,0.3-0.1c0.1,0,0.2,0,0.2,0c0.4,0,0.8,0.3,1,0.7c4.3,13.8,6.9,23.7,12.3,46.4c0.1,0.4-0.1,0.8-0.4,1.1
		c-0.2,0.1-0.4,0.2-0.5,0.2c-0.2,0-0.4-0.1-0.6-0.2c-3.8-2.8-25.2-8.3-51-8.3c-44.4,0-119.4,15.4-123.5,118.7l0,16.6
		c0,0.1,0,0.2,0,0.3c0.1,2.4,0.2,4.7,0.3,7c0,0.5-0.3,0.9-0.8,1C192.3,198.2,192,198.2,191.7,198.2z"/>
	<path class="st1" d="M186.7,0l-1.4,0L184,0C98,0,37.2,8.1,16,13.8c-0.1,0-0.1-0.1-0.2-0.1c-0.2,0-0.3-0.1-0.5-0.1
		c-0.8,0-1.6,0.5-1.9,1.4l-1.1,3.2c-5.2,15.6-5.2,15.6-9.6,33c-0.7,2.9-1.6,6.2-2.6,10.2c-0.2,0.8,0.1,1.7,0.8,2.2
		c0.3,0.2,0.7,0.3,1.1,0.3c0.4,0,0.8-0.1,1.2-0.4c3-2.2,23.1-8.1,50.6-8.1c44.3,0,119.2,15.3,123.2,117.7v16.6c0,0.1,0,0.2,0,0.4
		c-0.1,2.4-0.2,4.6-0.3,6.9c-0.1,1,0.6,1.8,1.5,2.1c0.4,0.1,0.7,0.1,1.1,0.1c2,0,4-1.2,6.2-2.8c2.2,1.6,4.1,2.8,6.2,2.8
		c0.4,0,0.8,0,1.1-0.1c0.9-0.2,1.6-1.1,1.5-2.1c-0.1-2.2-0.2-4.5-0.3-6.9c0-0.1,0-0.2,0-0.4v-16.6c4.1-102.4,78.5-117.7,122.5-117.7
		c27.4,0,47.4,5.8,50.4,8.1c0.4,0.3,0.8,0.4,1.2,0.4c0.4,0,0.8-0.1,1.1-0.3c0.7-0.5,1-1.3,0.8-2.1c-5.4-22.6-8-32.6-12.3-46.4
		c-0.3-0.9-1.1-1.4-1.9-1.4c-0.2,0-0.3,0-0.5,0.1c0,0-0.1,0-0.1,0C335.2,7,274.7,0,186.7,0L186.7,0z"/>
	<linearGradient id="SVGID_2_" gradientUnits="userSpaceOnUse" x1="185.0801" y1="197.2271" x2="185.0801" y2="1.9999">
		<stop  offset="0" style="stop-color:#E8E9EA"/>
		<stop  offset="0.2545" style="stop-color:#FFFFFF"/>
	</linearGradient>
	<path class="st2" d="M355.9,15.7c0,0.1,0.2,0.5,0,0.4C336.2,8.9,272.8,1.9,185.2,2c-87.6-0.1-149.5,8.2-170,14.1
		c-0.1,0,0-0.3,0-0.4C8,37.4,9.6,32.4,2,61.9c11.2-8.4,171.1-39.8,177.1,111.2v16.6c0,0,0,0,0,0c-0.1,2.4-0.2,4.8-0.3,7.3
		c1.9,0.5,4.1-1.2,6.8-3.2c2.7,2,4.9,3.7,6.8,3.2c-0.1-2.5-0.3-4.9-0.3-7.3c0,0,0,0,0,0v-16.6C198,22.2,356.9,53.6,368.2,61.9
		C362.8,39.2,360.1,29.3,355.9,15.7z"/>
</g>
</svg>
